<svg xmlns="http://www.w3.org/2000/svg" width="883.552" height="587.325" viewBox="0 0 883.552 587.325">
  <g id="Grupo_109457" data-name="Grupo 109457" transform="translate(-335.912 -780.748)">
    <g id="freepik--Plant--inject-2" transform="translate(425.489 1194.809)">
      <path id="Trazado_159563" data-name="Trazado 159563" d="M216.414,594.591c.84-2.912,2.632-5.722,5.414-6.926s6.244-.532,9.2.541,5.871,2.511,9.007,2.707,6.692-1.3,7.635-4.3c.887-2.8-.821-5.834-2.95-7.887A18.668,18.668,0,0,0,214.2,586.05" transform="translate(-134.168 -504.965)" fill="#dce736"/>
      <g id="Grupo_109206" data-name="Grupo 109206" transform="translate(80.034 68.582)" opacity="0.5">
        <path id="Trazado_159564" data-name="Trazado 159564" d="M216.414,594.591c.84-2.912,2.632-5.722,5.414-6.926s6.244-.532,9.2.541,5.871,2.511,9.007,2.707,6.692-1.3,7.635-4.3c.887-2.8-.821-5.834-2.95-7.887A18.668,18.668,0,0,0,214.2,586.05" transform="translate(-214.202 -573.547)"/>
      </g>
      <path id="Trazado_159565" data-name="Trazado 159565" d="M189.629,607.035c-4.611-4.378-4.387-12-2.081-17.931s7.318-10.491,12.928-13.488a40.938,40.938,0,0,1,35.684-1.157,16.931,16.931,0,0,0-13.693,8.037c-2.53,4.2-3.09,9.334-5.18,13.73a21.6,21.6,0,0,1-27.657,10.809" transform="translate(-132.286 -504.79)" fill="#dce736"/>
      <path id="Trazado_159566" data-name="Trazado 159566" d="M187.012,575.995c-5.106-6.02-5.787-15.7-5.031-23.559s2.576-15.774,1.335-23.578c-.737-4.62-2.53-9.035-3.136-13.674s.252-9.894,3.846-12.881c4.135-3.444,10.641-2.632,14.934.6s6.786,8.307,8.606,13.376c4,11.117,5.47,23.447,2.184,34.8s-11,21.468-22.3,24.922" transform="translate(-131.89 -500.072)" fill="#dce736"/>
      <path id="Trazado_159567" data-name="Trazado 159567" d="M184.891,630.449a2.948,2.948,0,0,1,0-.691V627.77c.065-1.736.224-4.228.616-7.3a99.255,99.255,0,0,1,1.96-10.7,49.286,49.286,0,0,1,4.882-12.377,51.471,51.471,0,0,1,7.971-10.65,50.717,50.717,0,0,1,8.354-6.954c1.279-.877,2.511-1.549,3.575-2.166s2.035-1.045,2.8-1.419l1.867-.775a5.365,5.365,0,0,1,.653-.243,4.518,4.518,0,0,1-.616.317l-1.8.849c-.765.392-1.7.887-2.8,1.475a32.6,32.6,0,0,0-3.519,2.212A52.606,52.606,0,0,0,192.7,597.612c-4.667,8.2-5.974,16.8-6.907,22.9-.429,3.052-.635,5.544-.756,7.271l-.112,1.979A5.023,5.023,0,0,1,184.891,630.449Z" transform="translate(-132.215 -505.075)" fill="#263238"/>
      <path id="Trazado_159568" data-name="Trazado 159568" d="M137.086,555.942c-9.446,5.7-9.418,10.893-7.841,15.784s7.383,8.3,12.19,6.469c2.716-1.036,4.667-3.4,6.366-5.768s3.258-4.919,5.6-6.618,5.778-2.362,8.139-.672" transform="translate(-128.458 -503.793)" fill="#dce736"/>
      <g id="Grupo_109207" data-name="Grupo 109207" transform="translate(0 52.149)" opacity="0.5">
        <path id="Trazado_159569" data-name="Trazado 159569" d="M137.086,555.942c-9.446,5.7-9.418,10.893-7.841,15.784s7.383,8.3,12.19,6.469c2.716-1.036,4.667-3.4,6.366-5.768s3.258-4.919,5.6-6.618,5.778-2.362,8.139-.672" transform="translate(-128.458 -555.942)"/>
      </g>
      <path id="Trazado_159570" data-name="Trazado 159570" d="M130.132,561.728c2.464-3.416,8.569-4.406,12.424-2.7s6.674,5.078,9.2,8.447,4.984,6.935,8.485,9.278,8.4,3.192,11.873.831a10.183,10.183,0,0,0,4.032-6.982,23.165,23.165,0,0,0-.551-8.242c-.831-3.958-2.193-8.093-5.367-10.613-3.538-2.8-8.4-2.94-12.946-2.8-5.171.168-10.426.56-15.28,2.352s-9.819,5.666-11.873,10.417" transform="translate(-128.569 -503.324)" fill="#dce736"/>
      <path id="Trazado_159571" data-name="Trazado 159571" d="M174.738,621.214v-.821c0-.569-.047-1.353-.075-2.343-.065-2.072-.149-5-.252-8.625s-.261-7.971-.523-12.778-.625-10.09-1.353-15.588a51.014,51.014,0,0,0-1.568-7.915,40.968,40.968,0,0,0-2.894-6.926,39.177,39.177,0,0,0-3.659-5.731,36.286,36.286,0,0,0-3.986-4.378,29.413,29.413,0,0,0-7.066-4.826c-.467-.205-.868-.42-1.232-.56l-.933-.364-.569-.224-.187-.093.2.047.588.2.933.317c.373.14.784.336,1.251.532a28.321,28.321,0,0,1,7.206,4.751,36.783,36.783,0,0,1,4.06,4.387,40.614,40.614,0,0,1,3.734,5.759,41.158,41.158,0,0,1,2.94,6.991A49.534,49.534,0,0,1,172.937,581c.737,5.526,1.083,10.818,1.325,15.625s.364,9.147.439,12.788.1,6.6.112,8.634v2.959A.524.524,0,0,1,174.738,621.214Z" transform="translate(-129.922 -503.4)" fill="#263238"/>
      <path id="Trazado_159572" data-name="Trazado 159572" d="M180,623.422a26.448,26.448,0,0,1-1.036-4.051,42.46,42.46,0,0,1-.439-11.406,76.359,76.359,0,0,1,3.6-16.531c1.941-6.076,4.574-12.582,6.823-19.6a89.782,89.782,0,0,0,2.707-10.351A92.791,92.791,0,0,0,193,551.606a147.015,147.015,0,0,0,.3-16.895c-.159-4.807-.42-8.7-.579-11.387-.075-1.325-.14-2.362-.177-3.09a3.982,3.982,0,0,0-.047-.812,1.2,1.2,0,0,1,0-.271,2.61,2.61,0,0,1,0,.271,3.065,3.065,0,0,0,.084.8c.056.728.149,1.764.261,3.09.205,2.688.5,6.534.709,11.388a138.118,138.118,0,0,1-.215,16.932,84.147,84.147,0,0,1-4.032,20.329c-2.259,7.01-4.9,13.5-6.851,19.555a76.886,76.886,0,0,0-3.678,16.437,44.015,44.015,0,0,0,.3,11.35c.233,1.316.448,2.343.635,3.024.075.327.14.588.187.784Z" transform="translate(-131.779 -501.342)" fill="#263238"/>
      <path id="Trazado_159573" data-name="Trazado 159573" d="M201.974,634.833H157.619l-1.017-8.541h45.373Z" transform="translate(-130.332 -508.478)" fill="#455a64"/>
      <path id="Trazado_159574" data-name="Trazado 159574" d="M162.782,634.392,168.336,660h24.1l5.19-25.612Z" transform="translate(-130.744 -509.017)" fill="#455a64"/>
      <path id="Trazado_159575" data-name="Trazado 159575" d="M202.1,635.452c0,.112-9.754.177-21.786.149s-21.776-.159-21.776-.28,9.745-.177,21.776-.149S202.1,635.3,202.1,635.452Z" transform="translate(-130.461 -509.069)" fill="#455a64"/>
      <path id="Trazado_159576" data-name="Trazado 159576" d="M194.953,648.728a18.283,18.283,0,0,0-3.9-2.24,13.714,13.714,0,0,0-4.751-.933,16.446,16.446,0,0,0-5.843,1.073c-2.025.681-3.911,1.475-5.75,1.914a13.5,13.5,0,0,1-4.966.149,10.088,10.088,0,0,1-3.192-1.008,5.641,5.641,0,0,1-.775-.495,1.138,1.138,0,0,1-.243-.205s.383.224,1.092.551a10.958,10.958,0,0,0,3.155.859,13.862,13.862,0,0,0,4.844-.233c1.773-.439,3.659-1.241,5.7-1.932a16.554,16.554,0,0,1,5.983-1.064,13.616,13.616,0,0,1,4.854,1.064,12.9,12.9,0,0,1,2.884,1.689,7.016,7.016,0,0,1,.691.6C194.869,648.634,194.962,648.718,194.953,648.728Z" transform="translate(-130.927 -509.735)" fill="#263238"/>
      <path id="Trazado_159577" data-name="Trazado 159577" d="M194.667,650.559a18.9,18.9,0,0,0-3.734-2.212,12.971,12.971,0,0,0-4.583-.933,16.56,16.56,0,0,0-5.647,1.017c-1.951.653-3.79,1.409-5.535,1.867a14.25,14.25,0,0,1-4.779.532,8.162,8.162,0,0,1-3.127-.831,6.246,6.246,0,0,1-.747-.476c-.159-.121-.243-.187-.233-.205s.364.215,1.045.532a8.684,8.684,0,0,0,3.08.681,14.46,14.46,0,0,0,4.667-.607c1.717-.485,3.538-1.251,5.516-1.914a16.3,16.3,0,0,1,5.787-1,12.536,12.536,0,0,1,4.667,1.055,12.233,12.233,0,0,1,2.8,1.68,6.3,6.3,0,0,1,.663.579C194.6,650.475,194.676,650.549,194.667,650.559Z" transform="translate(-130.977 -509.858)" fill="#fff"/>
      <path id="Trazado_159578" data-name="Trazado 159578" d="M195.357,646.884a21.442,21.442,0,0,0-4.014-2.361,14.71,14.71,0,0,0-4.863-1.176,15.863,15.863,0,0,0-6.03,1.064,54.219,54.219,0,0,1-5.955,1.941,14.947,14.947,0,0,1-5.124,0,11.735,11.735,0,0,1-3.295-1.036,5.906,5.906,0,0,1-.8-.5c-.177-.121-.261-.2-.252-.215s.392.233,1.12.569a13.073,13.073,0,0,0,3.276.933,15.494,15.494,0,0,0,5.012-.1,59.617,59.617,0,0,0,5.89-1.96,15.679,15.679,0,0,1,6.179-1.045,14.459,14.459,0,0,1,4.966,1.279,14.717,14.717,0,0,1,2.959,1.783,7.435,7.435,0,0,1,.709.616C195.292,646.79,195.367,646.874,195.357,646.884Z" transform="translate(-130.893 -509.589)" fill="#fff"/>
      <path id="Trazado_159579" data-name="Trazado 159579" d="M202.452,635.457c0,.121-9.978.215-22.29.215s-22.28-.093-22.28-.215,9.978-.205,22.28-.205S202.452,635.345,202.452,635.457Z" transform="translate(-130.417 -509.075)" fill="#263238"/>
    </g>
    <g id="Elipse_5103" data-name="Elipse 5103" transform="translate(514.698 809.594)">
      <ellipse id="Elipse_5119" data-name="Elipse 5119" cx="267.601" cy="267.601" rx="267.601" ry="267.601" transform="translate(0 0)" fill="#fff"/>
      <ellipse id="Elipse_5120" data-name="Elipse 5120" cx="265.708" cy="265.708" rx="265.708" ry="265.708" transform="translate(1.893 1.893)" fill="none" stroke="#3e4bbf" stroke-width="3" stroke-dasharray="20 20"/>
    </g>
    <path id="Sustracción_3" data-name="Sustracción 3" d="M544.137,498.866l-3.034,2.046-14.45-4.7L525.6,511.37l-3.034,2.045.916-21.914Z" transform="translate(73.342 778.427)" fill="#3d46c2"/>
    <path id="Sustracción_3-2" data-name="Sustracción 3" d="M541.3,287.913l-2.9-2.23-.117-15.2-14.714,3.8-2.9-2.23,21.075-6.074Z" transform="translate(73.369 600.771)" fill="#3d46c2"/>
    <path id="Sustracción_3-3" data-name="Sustracción 3" d="M831.393,285.607l2.846-2.3,14.8,3.441-.251-15.193,2.847-2.3.973,21.913Z" transform="translate(168.409 663.151)" fill="#3d46c2"/>
    <path id="Sustracción_3-4" data-name="Sustracción 3" d="M3.761,0l2.53,2.643L4.1,17.68l15.119-1.524,2.53,2.644L0,21.609Z" transform="translate(1007.851 1188.009) rotate(-14)" fill="#3d46c2"/>
    <g id="freepik--Character--inject-2" transform="translate(640.279 884.352)">
      <path id="Trazado_159470" data-name="Trazado 159470" d="M310.609,457.972a13.689,13.689,0,0,0-8.756,12.215c-.1,3.371,0,7.3-2.612,9.413s-6.188,1.065-9.165,2.174c-3.794,1.459-5.677,5.648-6.509,9.6s-1.08,8.187-3.3,11.573-5.721,5.2-8.975,7.3-6.48,5.035-7.078,8.887c-.861,5.516,4,11.149,2,16.374-1.284,3.356-4.9,5.078-7.618,7.428a17.409,17.409,0,0,0-1.78,24.556c.133.155.27.308.409.457a11.833,11.833,0,0,0,9.967,4.159c3.619-.511,6.494-3.152,9.208-5.575a147.448,147.448,0,0,1,33.069-22.211c3.094-1.459,6.48-3.138,8.085-6.2a16.248,16.248,0,0,0,1.328-5.049q5.019-34.47,10.055-68.94" transform="translate(-239.842 -419.266)" fill="#263238"/>
      <path id="Trazado_159471" data-name="Trazado 159471" d="M318.047,448.309c-1.357-5.064,1.605-10.566,6-13.441s9.851-3.546,15.09-3.4,11.368,1.459,14.345,6c1.853,2.817,2.174,6.421,3.838,9.369,4.685,8.318,17.7,8.464,22.78,16.549,4.83,7.676-.1,17.731,1.051,26.721.773,6.027,4.261,11.3,6.99,16.739s4.743,11.879,2.437,17.512c-2.481,6.013-9.457,9.909-10.215,16.374-.861,8.012,8.639,15.352,5.721,22.868-2.16,5.575-10.215,7.691-11.135,13.6-.467,3.167,1.459,6.144,2.262,9.223,2.16,7.822-2.919,16.418-10.215,20.037s-16.053,3.05-23.714.409a48.479,48.479,0,0,1-29.934-61.681q.232-.67.485-1.334" transform="translate(-213.161 -431.449)" fill="#263238"/>
      <path id="Trazado_159472" data-name="Trazado 159472" d="M261.138,522.211A2.572,2.572,0,0,0,260,521.189a2.929,2.929,0,0,0-1.824-.146,2.438,2.438,0,0,0-1.81,1.576,3.5,3.5,0,0,0,.482,3.006,3.733,3.733,0,0,0,3.24,1.547,5.5,5.5,0,0,0,3.853-1.737,10.2,10.2,0,0,0,2.335-4.305c1.022-3.371.73-7.3,1.095-11.485a17.63,17.63,0,0,1,1.722-6.319,10.208,10.208,0,0,1,2.087-2.8,9.149,9.149,0,0,1,3.079-1.839,38.094,38.094,0,0,1,7.165-1.226,9.166,9.166,0,0,0,6.406-2.919c1.562-1.912,1.693-4.612,1.459-7.18a57.438,57.438,0,0,1-.525-8.041,15.964,15.964,0,0,1,2.685-7.676,12.394,12.394,0,0,1,6.158-4.933,18.481,18.481,0,0,1,7.6-.365c2.393.175,4.918.277,6.7-1.124s2.262-3.736,2.379-5.837a32.893,32.893,0,0,1,.642-6.494,17.509,17.509,0,0,1,6.538-9.573,15.864,15.864,0,0,1,9.077-3.065,16.934,16.934,0,0,1,7.122,1.372A14.707,14.707,0,0,1,341.592,444a9.853,9.853,0,0,1,1.153,1.095s-.423-.35-1.255-.978a16.2,16.2,0,0,0-3.94-2.233,17.317,17.317,0,0,0-6.99-1.211,15.519,15.519,0,0,0-8.756,3.079,16.954,16.954,0,0,0-6.246,9.3,32.93,32.93,0,0,0-.584,6.377,13.483,13.483,0,0,1-.569,3.415,6.172,6.172,0,0,1-2.058,2.919,6.62,6.62,0,0,1-3.473,1.313,20.966,20.966,0,0,1-3.707,0,17.51,17.51,0,0,0-7.3.336,11.677,11.677,0,0,0-5.837,4.655,15.181,15.181,0,0,0-2.554,7.3,60.66,60.66,0,0,0,.511,7.953,16.664,16.664,0,0,1-.1,4,7.8,7.8,0,0,1-1.561,3.692,7.571,7.571,0,0,1-3.181,2.32,16.263,16.263,0,0,1-3.707.876,36.576,36.576,0,0,0-7.034,1.167,8.412,8.412,0,0,0-2.919,1.678,9.409,9.409,0,0,0-1.941,2.6,17.267,17.267,0,0,0-1.693,6.085c-.394,4.1-.131,8.085-1.211,11.573a10.423,10.423,0,0,1-2.51,4.48,5.921,5.921,0,0,1-4.188,1.824,4.173,4.173,0,0,1-3.546-1.766,3.793,3.793,0,0,1-.452-3.313,2.668,2.668,0,0,1,2.028-1.693,3.08,3.08,0,0,1,1.956.219A1.882,1.882,0,0,1,261.138,522.211Z" transform="translate(-238.384 -427.407)" fill="#263238"/>
      <path id="Trazado_159473" data-name="Trazado 159473" d="M383.729,542.75c.064.124.123.25.175.379a3.207,3.207,0,0,1,.2,1.182,4.813,4.813,0,0,1-2.437,3.809,4.692,4.692,0,0,1-3.284.671,5.84,5.84,0,0,1-3.4-2.1,8.158,8.158,0,0,1-1.78-4.247,10.292,10.292,0,0,1,.846-5.093c1.372-3.415,4.218-6.275,6.859-9.457a20.035,20.035,0,0,0,3.313-5.429,17.243,17.243,0,0,0,1.138-6.611,17.686,17.686,0,0,0-1.561-6.874,18.4,18.4,0,0,0-4.378-5.837c-1.853-1.737-3.94-3.327-5.837-5.283a12.426,12.426,0,0,1-3.707-7.3,20.865,20.865,0,0,1,1.24-8.041,35.492,35.492,0,0,0,1.737-7.545,18.1,18.1,0,0,0-3.882-13.557,14.4,14.4,0,0,0-5.37-3.955,14.594,14.594,0,0,0-6.231-.949,14.951,14.951,0,0,1-6.1-.759,7.808,7.808,0,0,1-3.911-4.1c-1.459-3.356-1.459-6.7-2.116-9.4a12.969,12.969,0,0,0-1.328-3.648,7.147,7.147,0,0,0-2.16-2.379,5.838,5.838,0,0,0-4.247-1.109,7.038,7.038,0,0,0-1.459.54,3.175,3.175,0,0,1,1.459-.686,5.923,5.923,0,0,1,4.378,1.007,7.651,7.651,0,0,1,2.306,2.452,13.145,13.145,0,0,1,1.459,3.721c.7,2.758.7,6.085,2.189,9.281a7.291,7.291,0,0,0,3.663,3.78,14.423,14.423,0,0,0,5.837.671,14.188,14.188,0,0,1,12.142,5.064,18.764,18.764,0,0,1,4.086,14.1,35.223,35.223,0,0,1-1.737,7.676,20.27,20.27,0,0,0-1.211,7.764,11.674,11.674,0,0,0,3.488,6.815c1.81,1.882,3.867,3.488,5.764,5.254a18.861,18.861,0,0,1,4.553,6.129,18.215,18.215,0,0,1,1.605,7.151,17.94,17.94,0,0,1-1.211,6.859,20.594,20.594,0,0,1-3.459,5.589c-2.7,3.211-5.5,6-6.844,9.267a9.892,9.892,0,0,0-.861,4.83,7.836,7.836,0,0,0,1.62,4.028,5.5,5.5,0,0,0,3.138,2.029,4.377,4.377,0,0,0,3.079-.584,4.668,4.668,0,0,0,2.423-3.546A5.87,5.87,0,0,0,383.729,542.75Z" transform="translate(-201.497 -429.865)" fill="#263238"/>
      <path id="Trazado_159474" data-name="Trazado 159474" d="M305.247,459.182c-2.773.773-4.276,3.911-4.276,6.786a32.336,32.336,0,0,0,1.868,8.377c.759,2.773,1.124,5.837-.248,8.391-2.773,5.049-10.551,4.787-14.3,9.165-4.772,5.56-.321,14.754-3.765,21.219-3.138,5.837-11.908,7.735-13.645,14.185-1.109,4.1,1.226,8.566,0,12.653-1.3,4.641-6.45,6.99-9.165,10.974a14.944,14.944,0,0,0-.832,13.937,27.171,27.171,0,0,0,8.026,10.026c.409.35.832.686,1.255,1.022l50.26-11.675,10.069-92.96Z" transform="translate(-236.64 -418.71)" fill="#263238"/>
      <path id="Trazado_159475" data-name="Trazado 159475" d="M317.536,447.874a7.3,7.3,0,0,0-7.968,5.837h0l-16.534,97.674c-2.277,11.47,13.032,21.482,25.32,23.831h0c12.419,2.379,14.112-3.59,16.607-14.418,4.174-18.11,5.618-24.926,5.6-24.809s16.17.744,23.744-18.971c3.78-9.792,6.8-26.516,8.844-40.263,1.839-12.39-3.065-29.187-15.513-30.413Z" transform="translate(-221.362 -424.608)" fill="#b78876"/>
      <path id="Trazado_159476" data-name="Trazado 159476" d="M344.48,476.507a2.656,2.656,0,0,1-3.079,2.087,2.538,2.538,0,0,1-2.2-2.837l.012-.082a2.686,2.686,0,0,1,3.079-2.1,2.554,2.554,0,0,1,2.2,2.865Z" transform="translate(-200.06 -412.117)" fill="#263238"/>
      <path id="Trazado_159477" data-name="Trazado 159477" d="M347.341,475.01c-.394.277-2.058-1.605-4.874-2.2s-5.166.379-5.4,0c-.117-.19.336-.73,1.372-1.2a7.3,7.3,0,0,1,4.378-.394,7.031,7.031,0,0,1,3.794,2.189C347.371,474.222,347.531,474.893,347.341,475.01Z" transform="translate(-201.039 -413.26)" fill="#263238"/>
      <path id="Trazado_159478" data-name="Trazado 159478" d="M325.289,472.4a2.67,2.67,0,0,1-3.079,2.1,2.567,2.567,0,0,1-2.192-2.9l0-.023a2.686,2.686,0,0,1,3.079-2.1,2.555,2.555,0,0,1,2.2,2.868Z" transform="translate(-208.874 -413.995)" fill="#263238"/>
      <path id="Trazado_159479" data-name="Trazado 159479" d="M328.331,470.722c-.394.263-2.058-1.62-4.874-2.218s-5.181.379-5.4,0c-.117-.19.336-.73,1.372-1.2a7.445,7.445,0,0,1,4.378-.394A7.111,7.111,0,0,1,327.6,469.1C328.361,469.905,328.521,470.576,328.331,470.722Z" transform="translate(-209.771 -415.234)" fill="#263238"/>
      <path id="Trazado_159480" data-name="Trazado 159480" d="M329.032,492.152a18.7,18.7,0,0,1,4.743.146c.744.073,1.459.088,1.678-.379a3.735,3.735,0,0,0,0-2.233l-.963-5.925c-1.284-8.406-2.058-15.265-1.707-15.309s1.649,6.728,2.919,15.148c.292,2.058.584,4.042.861,5.925a4.273,4.273,0,0,1-.233,2.919,1.857,1.857,0,0,1-1.459.8,4.642,4.642,0,0,1-1.255-.088A18.965,18.965,0,0,1,329.032,492.152Z" transform="translate(-204.722 -414.452)" fill="#263238"/>
      <path id="Trazado_159481" data-name="Trazado 159481" d="M333.6,511.9a52.862,52.862,0,0,1-25.714-13.134s3.809,15.849,24.6,18.286Z" transform="translate(-214.437 -400.529)" fill="#aa6550"/>
      <path id="Trazado_159482" data-name="Trazado 159482" d="M330.007,490.091a5.181,5.181,0,0,0-4.145-2.919,4.716,4.716,0,0,0-3.546,1.036,2.918,2.918,0,0,0-.949,3.3,3.459,3.459,0,0,0,3.488,1.722,10.783,10.783,0,0,0,4.057-1.372,3.513,3.513,0,0,0,.978-.671.935.935,0,0,0,.219-1.036" transform="translate(-208.323 -405.868)" fill="#aa6550"/>
      <path id="Trazado_159483" data-name="Trazado 159483" d="M323.362,484.813c.467.073-.175,3.123,1.97,5.837s5.473,3.079,5.4,3.5c0,.2-.846.438-2.233.19a7.786,7.786,0,0,1-4.539-2.758,6.779,6.779,0,0,1-1.459-4.86C322.662,485.441,323.187,484.755,323.362,484.813Z" transform="translate(-207.735 -406.938)" fill="#263238"/>
      <path id="Trazado_159484" data-name="Trazado 159484" d="M330.808,466.815c-.452.715-3.181-.248-6.552-.555s-6.246,0-6.538-.759c-.131-.365.5-.992,1.722-1.459a11.473,11.473,0,0,1,9.967,1.007C330.516,465.75,331,466.45,330.808,466.815Z" transform="translate(-209.927 -416.799)" fill="#263238"/>
      <path id="Trazado_159485" data-name="Trazado 159485" d="M347.561,471.583c-.628.54-2.423-.54-4.743-1.065s-4.378-.5-4.7-1.255c-.131-.365.306-.934,1.3-1.357a7.065,7.065,0,0,1,7.618,1.868C347.722,470.605,347.853,471.32,347.561,471.583Z" transform="translate(-200.558 -414.897)" fill="#263238"/>
      <path id="Trazado_159486" data-name="Trazado 159486" d="M335.271,446.869a20.193,20.193,0,0,0-15.484-6.494c-5.764.394-11.325,4.305-12.7,9.807-.89,3.575-.175,7.72-2.466,10.624s-6.2,3.211-9.325,4.874a12.419,12.419,0,0,0-5.983,14.083c1.343,4.553,5.37,8.552,4.772,13.251-.569,4.378-5.005,7.3-6.815,11.354-2,4.495-.438,9.909,2.612,13.835s7.4,6.655,11.675,9.311c3.313,2.072,6.888,4.218,10.8,4.174a11.675,11.675,0,0,0,10.434-7.749A15.951,15.951,0,0,0,321.2,510.73c-2-3.429-5.137-6.669-4.947-10.609.306-6.129,8.406-9.471,9.252-15.557.452-3.123-1.182-6.144-2.437-9.077s-2.16-6.465-.423-9.121c2.247-3.444,7.414-3.357,10.989-5.473a9.338,9.338,0,0,0,4.495-8.756,9.621,9.621,0,0,0-6.013-7.88" transform="translate(-224.314 -427.353)" fill="#263238"/>
      <path id="Trazado_159487" data-name="Trazado 159487" d="M319.581,442.488a14.244,14.244,0,0,0,13.47,17.308c3.225.1,6.976-.744,9.311,1.459s1.649,6.64,3.692,9.369c2.919,3.882,9.252,2.189,13.528,4.524,3.284,1.81,4.757,5.633,6.494,8.975s4.641,6.771,8.391,6.494a42.437,42.437,0,0,0,.628-9.69,14.193,14.193,0,0,0-3.692-8.756c-1.24-1.27-2.816-2.2-3.926-3.59-2.423-2.919-2.2-7.3-3.3-10.916a15.618,15.618,0,0,0-9.967-10.215c-3.911-1.284-8.3-.963-12-2.787-2.729-1.357-4.845-3.78-7.647-4.962-5.458-2.306-11.675.642-16.637,3.824" transform="translate(-209.82 -428.036)" fill="#263238"/>
      <path id="Trazado_159488" data-name="Trazado 159488" d="M270.269,556.043a5.963,5.963,0,0,1-1.576-.5,9.285,9.285,0,0,1-3.59-3.035,10.416,10.416,0,0,1-1.956-7.136,13.911,13.911,0,0,1,4.378-8.756,53.164,53.164,0,0,1,4.539-3.532,9.7,9.7,0,0,0,3.634-4.67,18.954,18.954,0,0,0,0-6.494,13.606,13.606,0,0,1,1.459-6.99,14.964,14.964,0,0,1,4.976-5.633,13.882,13.882,0,0,1,7.457-2.35c2.656-.131,5.327.146,7.968-.2a9.63,9.63,0,0,0,3.692-1.24,7.411,7.411,0,0,0,2.641-2.919,34.892,34.892,0,0,0,2.277-7.807,16.779,16.779,0,0,1,1.386-3.867,8.929,8.929,0,0,1,2.7-3.108,19.906,19.906,0,0,1,7.4-2.554,17,17,0,0,0,6.757-2.481,6.379,6.379,0,0,0,2.145-2.568,7.092,7.092,0,0,0,.569-3.24,25.238,25.238,0,0,0-1.576-6.363,15.546,15.546,0,0,1-.978-6.2,6.8,6.8,0,0,1,.919-2.919,6.275,6.275,0,0,1,2.087-2.028,13.555,13.555,0,0,1,5.064-1.459,37.848,37.848,0,0,0,4.553-.773,11.237,11.237,0,0,0,5.969-4.013,11.908,11.908,0,0,0,2.087-4.115c.277-1.036.306-1.605.35-1.605a6.774,6.774,0,0,1-.2,1.634,11.235,11.235,0,0,1-2,4.276,11.505,11.505,0,0,1-6.085,4.232,37.222,37.222,0,0,1-4.6.846,13.222,13.222,0,0,0-4.86,1.459,5.6,5.6,0,0,0-2.7,4.495,15.285,15.285,0,0,0,.992,5.969,24.8,24.8,0,0,1,1.634,6.509,7.756,7.756,0,0,1-.6,3.561,7.121,7.121,0,0,1-2.364,2.919,17.79,17.79,0,0,1-7.019,2.627,19.069,19.069,0,0,0-7.122,2.452,10.607,10.607,0,0,0-3.78,6.552A34.969,34.969,0,0,1,304.563,503a8.085,8.085,0,0,1-2.919,3.167,10.218,10.218,0,0,1-4,1.343c-2.773.365-5.458.073-8.041.2a13.629,13.629,0,0,0-11.835,7.559,12.838,12.838,0,0,0-1.459,6.625,19.653,19.653,0,0,1,0,6.728,10.365,10.365,0,0,1-3.9,4.947c-1.591,1.226-3.2,2.247-4.524,3.459a13.527,13.527,0,0,0-4.378,8.391,10.217,10.217,0,0,0,1.766,6.932,9.349,9.349,0,0,0,3.459,3.108C269.714,555.882,270.283,556,270.269,556.043Z" transform="translate(-235.007 -424.084)" fill="#455a64"/>
      <path id="Trazado_159489" data-name="Trazado 159489" d="M362.733,591.79A15.046,15.046,0,0,0,364,590.4a9.117,9.117,0,0,0,1.678-5.049,16.049,16.049,0,0,0-1.941-8.216c-1.459-3.021-3.736-6.144-5.254-10.215a21.077,21.077,0,0,1,0-13.805,20.687,20.687,0,0,1,3.853-6.786c1.766-2.043,3.911-3.751,5.618-5.925s2.919-4.962,2.072-7.676-3.3-4.626-5.458-6.757a15.181,15.181,0,0,1-2.919-3.678,12.011,12.011,0,0,1-1.328-4.611,21.456,21.456,0,0,1,1.591-9.53c1.182-3.065,2.744-5.837,4.042-8.756a26.555,26.555,0,0,0,2.612-8.756,18.873,18.873,0,0,0-6.29-15.411,59.41,59.41,0,0,0-6.844-4.378,9.5,9.5,0,0,1-2.919-2.817,10.006,10.006,0,0,1-1.226-3.692A8.765,8.765,0,0,0,350.168,461a6.708,6.708,0,0,0-2.481-2.262,25.653,25.653,0,0,0-6.231-2.028,22.9,22.9,0,0,1-5.837-1.956,18.8,18.8,0,0,1-4.378-3.225,19.843,19.843,0,0,1-4.743-7.3,17.63,17.63,0,0,1-1.124-5.341,12.675,12.675,0,0,1,0-1.912,20.414,20.414,0,0,0,1.357,7.151,19.647,19.647,0,0,0,4.757,7.034,17.772,17.772,0,0,0,4.305,3.094,22.792,22.792,0,0,0,5.662,1.883,25.153,25.153,0,0,1,6.392,2.029,7.132,7.132,0,0,1,2.714,2.437,9.771,9.771,0,0,1,1.24,3.561,9.148,9.148,0,0,0,1.153,3.459,8.75,8.75,0,0,0,2.7,2.612,57.291,57.291,0,0,1,6.932,4.378,19.511,19.511,0,0,1,6.567,16.053,26.793,26.793,0,0,1-2.656,9c-1.313,2.919-2.919,5.677-4.013,8.654a21.029,21.029,0,0,0-1.561,9.194,11.278,11.278,0,0,0,1.255,4.378,14.311,14.311,0,0,0,2.787,3.5c1.08,1.051,2.233,2.058,3.254,3.181a10.233,10.233,0,0,1,2.393,3.9,7.6,7.6,0,0,1-.131,4.495,12.379,12.379,0,0,1-2.1,3.823c-1.766,2.247-3.94,3.955-5.648,5.925a19.885,19.885,0,0,0-3.765,6.552,20.432,20.432,0,0,0,0,13.411c1.459,3.94,3.707,7.107,5.137,10.216a16.241,16.241,0,0,1,1.839,8.435,8.976,8.976,0,0,1-1.853,5.108A5.57,5.57,0,0,1,362.733,591.79Z" transform="translate(-206.419 -428.907)" fill="#455a64"/>
      <path id="Trazado_159490" data-name="Trazado 159490" d="M345.525,531.182a45.492,45.492,0,0,1,12.565,32.106c-.379,19.964,2.846,56.17,2.846,56.17l55.236,33.769L400.586,677.1l-60.855-27-12.769-26.137Z" transform="translate(-205.672 -385.637)" fill="#dce736"/>
      <path id="Trazado_159491" data-name="Trazado 159491" d="M387.908,675.5s2.058-3.955-3.736-6.976h-9.384L356.474,636.9l14.593-98.2L346.083,519.73l-55.295-4.918-19.336,99.382,24.707,45.167,49,20.124Z" transform="translate(-231.171 -393.156)" fill="#dce736"/>
      <path id="Trazado_159492" data-name="Trazado 159492" d="M291.41,519.083l1.109-9.369a2.92,2.92,0,0,1,3.183-2.628,2.953,2.953,0,0,1,.538.1c13.7,10.741,27.728,16.184,42.671,11.894a3.881,3.881,0,0,1,2.729,4.67L335.8,547.219l-15.133,4.539-19.978-3.911-9.34-17.249Z" transform="translate(-222.03 -396.712)" fill="#dce736"/>
      <path id="Trazado_159493" data-name="Trazado 159493" d="M338.975,523.058a8.152,8.152,0,0,1-1.824,1.08,31.949,31.949,0,0,1-5.239,2.16A35.357,35.357,0,0,1,297,518.417a32.575,32.575,0,0,1-3.794-4.188,9.188,9.188,0,0,1-1.138-1.737,68.2,68.2,0,0,0,5.3,5.531,36.291,36.291,0,0,0,34.4,7.749A65.878,65.878,0,0,0,338.975,523.058Z" transform="translate(-221.699 -394.222)" fill="#263238"/>
      <g id="Grupo_109202" data-name="Grupo 109202" transform="translate(71.651 119.613)" opacity="0.2">
        <path id="Trazado_159494" data-name="Trazado 159494" d="M293.348,513.894a5.837,5.837,0,0,0,.686,5.516,16.863,16.863,0,0,0,4.188,3.955c5.37,4,10.945,7.953,17.366,9.792s13.951,1.138,18.884-3.371c1.459-1.3,2.525-3.751,1.051-4.991-1.109-.934-2.787-.365-4.13.161a31.623,31.623,0,0,1-37.3-11.544" transform="translate(-292.948 -513.412)"/>
      </g>
      <path id="Trazado_159495" data-name="Trazado 159495" d="M302.452,619.55,392.932,668l-32.6,19.7L298.074,669.46c-32.967-8.756-41.971-22.416-41.65-36.484.131-5.151-.482-55.455,1.737-80.045,3.021-33.565,39.519-38.089,39.519-38.089l-.613,28.647.409,35.024,1.24,32.106c3.3-1.649,4.115,4.539,4.115,4.539Z" transform="translate(-238.077 -393.143)" fill="#dce736"/>
      <path id="Trazado_159496" data-name="Trazado 159496" d="M285.182,600.249c-.2,0-.5-12.156-.628-27.144s-.073-27.158.131-27.173.5,12.156.628,27.158S285.415,600.249,285.182,600.249Z" transform="translate(-225.184 -378.861)" fill="#263238"/>
      <path id="Trazado_159497" data-name="Trazado 159497" d="M289.173,590.163c-.1,0,.19-.6.321-1.459a5.322,5.322,0,0,0-.613-3.444,5.253,5.253,0,0,0-2.7-2.218c-.861-.336-1.459-.35-1.459-.482s.613-.263,1.635,0a5.035,5.035,0,0,1,3.742,6.058c-.019.083-.041.165-.064.247C289.713,589.8,289.246,590.221,289.173,590.163Z" transform="translate(-225.075 -362.106)" fill="#263238"/>
      <path id="Trazado_159498" data-name="Trazado 159498" d="M287.775,587.722l.161.146.525.336c.482.292,1.2.686,2.131,1.2,1.853,1.007,4.568,2.437,7.924,4.174l26.268,13.5,26.356,13.47,7.953,4.145,2.145,1.153a3.245,3.245,0,0,1,.73.452,3.81,3.81,0,0,1-.788-.321l-2.218-1.021-8.07-3.926c-6.728-3.342-16.14-8.012-26.356-13.236s-19.57-10.084-26.268-13.7S287.542,588.014,287.775,587.722Z" transform="translate(-223.677 -359.665)" fill="#263238"/>
      <path id="Trazado_159499" data-name="Trazado 159499" d="M337.121,602.151a22.284,22.284,0,0,1-4.217-1.021c-2.583-.744-6.129-1.839-10.011-3.152s-7.3-2.627-9.851-3.619a23.947,23.947,0,0,1-3.969-1.766,26.436,26.436,0,0,1,4.218,1.284l9.909,3.386,9.924,3.371A24.434,24.434,0,0,1,337.121,602.151Z" transform="translate(-213.89 -357.428)" fill="#263238"/>
      <path id="Trazado_159500" data-name="Trazado 159500" d="M320.633,573.623a5.621,5.621,0,0,1-.438,1.065,16.2,16.2,0,0,1-1.664,2.685,23.538,23.538,0,0,1-3.152,3.459,28.107,28.107,0,0,1-4.7,3.3,27.275,27.275,0,0,1-5.327,2.145,23.212,23.212,0,0,1-4.626.759,16.472,16.472,0,0,1-3.152,0c-.73-.088-1.138-.16-1.124-.219s1.634,0,4.232-.263a27.079,27.079,0,0,0,4.48-.9,29.942,29.942,0,0,0,5.152-2.145,27.868,27.868,0,0,0,4.6-3.167,25.4,25.4,0,0,0,3.2-3.254C319.758,575.009,320.546,573.564,320.633,573.623Z" transform="translate(-219.687 -366.143)" fill="#263238"/>
      <path id="Trazado_159501" data-name="Trazado 159501" d="M289.986,549.716c-.117,0-.306-2.028-.788-5.3a44.991,44.991,0,0,0-3.386-12.317,24.809,24.809,0,0,0-7.91-9.821,33.294,33.294,0,0,0-4.641-2.569,4.137,4.137,0,0,1,1.459.35,16.35,16.35,0,0,1,3.546,1.766,23.832,23.832,0,0,1,8.289,9.953,40.562,40.562,0,0,1,3.24,12.58c.175,1.649.263,2.992.292,3.911A4.662,4.662,0,0,1,289.986,549.716Z" transform="translate(-230.339 -390.906)" fill="#263238"/>
      <path id="Trazado_159502" data-name="Trazado 159502" d="M354.046,591.582a26.039,26.039,0,0,0-2.306,1.853,29.721,29.721,0,0,0-4.378,5.677,27.9,27.9,0,0,0-2.919,6.494c-.5,1.751-.511,2.919-.642,2.919a6.343,6.343,0,0,1,.131-3.035,22.345,22.345,0,0,1,2.773-6.757,23.651,23.651,0,0,1,4.612-5.677A4.982,4.982,0,0,1,354.046,591.582Z" transform="translate(-197.995 -357.892)" fill="#263238"/>
      <g id="Grupo_109203" data-name="Grupo 109203" transform="translate(125.416 183.517)" opacity="0.2">
        <path id="Trazado_159503" data-name="Trazado 159503" d="M346.955,642.895c3.006-5.764,2.262-12.755.569-18.971s-4.261-12.39-4.757-18.869c-.423-5.618.759-11.222,1.883-16.739s2.218-11.135,1.635-16.739S343.19,560.3,338.491,557.2a59.014,59.014,0,0,1,4.378,14.36,19.78,19.78,0,0,1-3.181,14.316c-1.562,2.043-3.663,3.721-4.685,6.086-1.343,3.138-1.138,6.7-2.131,9.836-1.094,3.459-3.079,15.046-3.079,15.046-.131.642,3.43,7.195,6.947,11.865s7.793,8.887,10.347,14.156" transform="translate(-329.79 -557.202)"/>
      </g>
      <path id="Trazado_159504" data-name="Trazado 159504" d="M347.324,646.787s-.131-.131-.365-.423l-.992-1.328-3.663-5.079c-3.152-4.466-7.545-10.682-12.769-18.052l-.073-.117v-.146l4.757-23.277c.19-.89.365-1.766.54-2.627v-.19a28.5,28.5,0,0,0,8.333-19.876,26.657,26.657,0,0,0-5.837-15.732h0v-.073c-.233-3.721-.423-6.7-.555-8.829,0-.978-.088-1.751-.117-2.35a3.823,3.823,0,0,1,0-.817,3.069,3.069,0,0,1,.131.8c0,.6.131,1.372.233,2.335.19,2.131.452,5.108.773,8.756v-.131a26.876,26.876,0,0,1,6.1,16.053,25.7,25.7,0,0,1-2.014,10.58,30.644,30.644,0,0,1-6.45,9.865l.1-.19c-.175.846-.35,1.737-.54,2.627-1.693,8.333-3.269,16.243-4.728,23.145v-.263l12.536,18.213c1.459,2.174,2.656,3.911,3.5,5.181l.9,1.386A5.464,5.464,0,0,1,347.324,646.787Z" transform="translate(-204.524 -377.97)" fill="#263238"/>
      <g id="Grupo_109204" data-name="Grupo 109204" transform="translate(74.954 211.007)" opacity="0.2">
        <path id="Trazado_159505" data-name="Trazado 159505" d="M297.46,586.172c-.89-.715-2.306.394-2.247,1.532a3.574,3.574,0,0,0,1.985,2.627,15.036,15.036,0,0,0,9.077,1.81,17.407,17.407,0,0,0,10.609-4.378,11.514,11.514,0,0,0,3.59-10.566,1.844,1.844,0,0,0-.379-.861c-.744-.759-1.97.088-2.7.861a28.819,28.819,0,0,1-19.322,8.9" transform="translate(-295.211 -576.039)"/>
      </g>
      <g id="Grupo_109205" data-name="Grupo 109205" transform="translate(48.933 219.869)" opacity="0.2">
        <path id="Trazado_159506" data-name="Trazado 159506" d="M288.036,582.74a8.493,8.493,0,0,0-9.807,2.525,2.919,2.919,0,0,0-.6,3.24,2.378,2.378,0,0,0,2.568.876,6.761,6.761,0,0,0,2.51-1.459c1.678-1.3,3.327-2.641,4.918-4.028a1.629,1.629,0,0,0,.569-.686.6.6,0,0,0-.263-.759" transform="translate(-277.381 -582.112)"/>
      </g>
      <path id="Trazado_159507" data-name="Trazado 159507" d="M279.452,590.26c-.088,0,0-.744.438-1.824a10.423,10.423,0,0,1,6.625-5.837,3.364,3.364,0,0,1,1.853-.19,18.962,18.962,0,0,0-5.312,2.919A19.645,19.645,0,0,0,279.452,590.26Z" transform="translate(-227.51 -362.13)" fill="#263238"/>
      <path id="Trazado_159508" data-name="Trazado 159508" d="M261.09,561.877a115.539,115.539,0,0,1,0-13.032,115.243,115.243,0,0,1,.788-13,107.621,107.621,0,0,1,0,13.017A112.155,112.155,0,0,1,261.09,561.877Z" transform="translate(-236.015 -383.496)" fill="#fafafa"/>
      <path id="Trazado_159509" data-name="Trazado 159509" d="M265.611,577.467c-.2,0-.394-7-.409-15.63s.161-15.615.365-15.615.394,6.99.409,15.615S265.815,577.467,265.611,577.467Z" transform="translate(-234.042 -378.728)" fill="#fafafa"/>
      <path id="Trazado_159510" data-name="Trazado 159510" d="M273.837,532.272a16.289,16.289,0,0,1,.117,3.546c0,2.189-.088,5.21-.219,8.537s-.292,6.348-.452,8.537a14.712,14.712,0,0,1-.409,3.517,15.972,15.972,0,0,1-.117-3.532c0-2.189.088-5.21.219-8.552s.292-6.363.452-8.537A14.566,14.566,0,0,1,273.837,532.272Z" transform="translate(-230.593 -385.136)" fill="#fafafa"/>
      <path id="Trazado_159511" data-name="Trazado 159511" d="M279.467,567.316a65.761,65.761,0,0,1-.379-10.07,68.868,68.868,0,0,1,.394-10.055,66.88,66.88,0,0,1,.365,10.055A68.062,68.062,0,0,1,279.467,567.316Z" transform="translate(-227.686 -378.283)" fill="#fafafa"/>
      <path id="Trazado_159512" data-name="Trazado 159512" d="M272.805,582.674a120.927,120.927,0,0,1,.949-18.942,116.448,116.448,0,0,1-.949,18.971Z" transform="translate(-230.612 -370.685)" fill="#fafafa"/>
      <path id="Trazado_159513" data-name="Trazado 159513" d="M259.547,595.726a115.223,115.223,0,0,1-.321-18.694A115.4,115.4,0,0,1,259.547,595.726Z" transform="translate(-236.895 -364.576)" fill="#fafafa"/>
      <path id="Trazado_159514" data-name="Trazado 159514" d="M265.5,595.071a30.535,30.535,0,0,1,0-6.771,30.962,30.962,0,0,1,.744-6.728,30.718,30.718,0,0,1,0,6.771A30.066,30.066,0,0,1,265.5,595.071Z" transform="translate(-233.991 -362.49)" fill="#fafafa"/>
      <path id="Trazado_159515" data-name="Trazado 159515" d="M302.839,601.18a42.7,42.7,0,0,1-8.756-4.232,43.9,43.9,0,0,1-8.041-5.473c.117-.19,3.794,2.145,8.42,4.816S302.941,600.99,302.839,601.18Z" transform="translate(-224.469 -357.946)" fill="#fafafa"/>
      <path id="Trazado_159516" data-name="Trazado 159516" d="M323.777,612.641a12.579,12.579,0,0,1-3.006-1.24,66.612,66.612,0,0,1-13.134-8.61,12.024,12.024,0,0,1-2.335-2.277c.146-.175,3.94,3.006,9.033,6.334S323.923,612.437,323.777,612.641Z" transform="translate(-215.622 -353.792)" fill="#fafafa"/>
      <path id="Trazado_159517" data-name="Trazado 159517" d="M323.677,616.735a38.935,38.935,0,0,1-7.165-2.919,38.068,38.068,0,0,1-6.83-3.6,39.149,39.149,0,0,1,7.151,2.919A40.557,40.557,0,0,1,323.677,616.735Z" transform="translate(-213.61 -349.335)" fill="#fafafa"/>
      <path id="Trazado_159518" data-name="Trazado 159518" d="M338.04,621.962c-.117.19-3.444-1.912-7.778-4.086s-7.983-3.619-7.91-3.823A43.141,43.141,0,0,1,338.04,621.962Z" transform="translate(-207.79 -347.571)" fill="#fafafa"/>
      <path id="Trazado_159519" data-name="Trazado 159519" d="M332.952,628.206a37.82,37.82,0,0,1-5.254-2.919,40.287,40.287,0,0,1-5.166-3.035,17.107,17.107,0,0,1,5.531,2.379A18.034,18.034,0,0,1,332.952,628.206Z" transform="translate(-207.707 -343.804)" fill="#fafafa"/>
      <path id="Trazado_159520" data-name="Trazado 159520" d="M281.674,588.781a24.726,24.726,0,0,1-.613-6.013,25.034,25.034,0,0,1,.131-6.056,23.483,23.483,0,0,1,.628,6.012A23.765,23.765,0,0,1,281.674,588.781Z" transform="translate(-226.814 -364.723)" fill="#fafafa"/>
      <path id="Trazado_159521" data-name="Trazado 159521" d="M312.643,562.869a49.071,49.071,0,0,1-1.459-8.362,45.786,45.786,0,0,1-.7-8.435,47.066,47.066,0,0,1,1.459,8.347A45.927,45.927,0,0,1,312.643,562.869Z" transform="translate(-213.243 -378.797)" fill="#fafafa"/>
      <path id="Trazado_159522" data-name="Trazado 159522" d="M315.469,580.188a52.917,52.917,0,0,1-.511-8.873,51.648,51.648,0,0,1,.263-8.873,52.139,52.139,0,0,1,.5,8.873A51.062,51.062,0,0,1,315.469,580.188Z" transform="translate(-211.224 -371.278)" fill="#fafafa"/>
      <path id="Trazado_159523" data-name="Trazado 159523" d="M295.631,582.246a42.072,42.072,0,0,1-1.182-16.563c.219,0,.19,3.721.511,8.289S295.85,582.2,295.631,582.246Z" transform="translate(-220.764 -369.789)" fill="#fafafa"/>
      <path id="Trazado_159524" data-name="Trazado 159524" d="M302.576,598.676a27.661,27.661,0,0,1-1.459-7.764,27.956,27.956,0,0,1,.088-7.881,77.563,77.563,0,0,1,.671,7.822C302.269,595.159,302.795,598.632,302.576,598.676Z" transform="translate(-217.653 -361.82)" fill="#fafafa"/>
      <path id="Trazado_159525" data-name="Trazado 159525" d="M305.142,575.093a95.647,95.647,0,0,1,0-17.031A95.658,95.658,0,0,1,305.142,575.093Z" transform="translate(-215.87 -373.29)" fill="#fafafa"/>
      <path id="Trazado_159526" data-name="Trazado 159526" d="M296.862,549.622a52.046,52.046,0,0,1,0,12.784A53.976,53.976,0,0,1,296.862,549.622Z" transform="translate(-219.673 -377.167)" fill="#fafafa"/>
      <path id="Trazado_159527" data-name="Trazado 159527" d="M305.309,534.872a42.629,42.629,0,0,1,.234,11.354,22.347,22.347,0,0,1-.5-5.677A22.023,22.023,0,0,1,305.309,534.872Z" transform="translate(-215.774 -383.942)" fill="#fafafa"/>
      <path id="Trazado_159528" data-name="Trazado 159528" d="M321.207,558.69a95.9,95.9,0,0,1-1.138-12.054,98.238,98.238,0,0,1-.394-12.083,93.524,93.524,0,0,1,1.153,12.04A100.549,100.549,0,0,1,321.207,558.69Z" transform="translate(-209.039 -384.089)" fill="#fafafa"/>
      <path id="Trazado_159529" data-name="Trazado 159529" d="M325.906,588.761a121.223,121.223,0,0,1-.379-13.484,121.235,121.235,0,0,1,.379-13.484,117.47,117.47,0,0,1,.379,13.484A117.449,117.449,0,0,1,325.906,588.761Z" transform="translate(-206.353 -371.576)" fill="#fafafa"/>
      <path id="Trazado_159530" data-name="Trazado 159530" d="M316.812,601.164a118.31,118.31,0,0,1,0-18.971A118.3,118.3,0,0,1,316.812,601.164Z" transform="translate(-210.51 -362.206)" fill="#fafafa"/>
      <path id="Trazado_159531" data-name="Trazado 159531" d="M325.1,606.263a9.261,9.261,0,0,1-.379-3.663,9.364,9.364,0,0,1,.379-3.678,17.944,17.944,0,0,1,0,7.341Z" transform="translate(-206.724 -354.521)" fill="#fafafa"/>
      <path id="Trazado_159532" data-name="Trazado 159532" d="M330.6,542.652a98.449,98.449,0,0,1,0,17.279A98.461,98.461,0,0,1,330.6,542.652Z" transform="translate(-204.175 -380.368)" fill="#fafafa"/>
      <path id="Trazado_159533" data-name="Trazado 159533" d="M324.936,522.052a88.5,88.5,0,0,1,.379,11.485,88.5,88.5,0,0,1-.379,11.485,88.508,88.508,0,0,1-.379-11.485A88.509,88.509,0,0,1,324.936,522.052Z" transform="translate(-206.798 -389.831)" fill="#fafafa"/>
      <path id="Trazado_159534" data-name="Trazado 159534" d="M314.222,524.162a80.578,80.578,0,0,1,0,15.63A80.6,80.6,0,0,1,314.222,524.162Z" transform="translate(-211.699 -388.862)" fill="#fafafa"/>
      <path id="Trazado_159535" data-name="Trazado 159535" d="M338.921,554.584a67.021,67.021,0,0,1-.336-18.971c.219,0,.146,4.276.248,9.515S339.139,554.554,338.921,554.584Z" transform="translate(-200.571 -383.602)" fill="#fafafa"/>
      <path id="Trazado_159536" data-name="Trazado 159536" d="M343.472,565.629a122.873,122.873,0,0,1,0-19.307A122.873,122.873,0,0,1,343.472,565.629Z" transform="translate(-198.263 -378.682)" fill="#fafafa"/>
      <path id="Trazado_159537" data-name="Trazado 159537" d="M346.362,585.037a130.593,130.593,0,0,1,0-19.905A130.593,130.593,0,0,1,346.362,585.037Z" transform="translate(-196.936 -370.042)" fill="#fafafa"/>
      <path id="Trazado_159538" data-name="Trazado 159538" d="M339.752,595.959a146.958,146.958,0,0,1,0-21.117A146.949,146.949,0,0,1,339.752,595.959Z" transform="translate(-199.972 -365.582)" fill="#fafafa"/>
      <path id="Trazado_159539" data-name="Trazado 159539" d="M334.582,608.5a164.267,164.267,0,0,1,0-22.328,164.445,164.445,0,0,1,0,22.328Z" transform="translate(-202.347 -360.377)" fill="#fafafa"/>
      <path id="Trazado_159540" data-name="Trazado 159540" d="M345.952,599.186a55.585,55.585,0,0,1,0-12.974A55.592,55.592,0,0,1,345.952,599.186Z" transform="translate(-197.124 -360.359)" fill="#fafafa"/>
      <path id="Trazado_159541" data-name="Trazado 159541" d="M363.875,619.626a94.185,94.185,0,0,1-11.135-4.247,91.2,91.2,0,0,1-10.828-4.947,94.5,94.5,0,0,1,11.12,4.247A92.342,92.342,0,0,1,363.875,619.626Z" transform="translate(-198.805 -349.234)" fill="#fafafa"/>
      <path id="Trazado_159542" data-name="Trazado 159542" d="M377.625,615.373a100.748,100.748,0,0,1-11.908-3.838,102.611,102.611,0,0,1-11.675-4.553,104.508,104.508,0,0,1,11.908,3.838A106.458,106.458,0,0,1,377.625,615.373Z" transform="translate(-193.233 -350.818)" fill="#fafafa"/>
      <path id="Trazado_159543" data-name="Trazado 159543" d="M365.787,606.409a51.042,51.042,0,0,1-7.983-3.648,49.936,49.936,0,0,1-7.632-4.378,51.029,51.029,0,0,1,7.983,3.648A49.552,49.552,0,0,1,365.787,606.409Z" transform="translate(-195.011 -354.769)" fill="#fafafa"/>
      <path id="Trazado_159544" data-name="Trazado 159544" d="M275.454,521.992c.161.175-2.16,2.277-4.451,5.341s-3.707,5.837-3.911,5.735a17.159,17.159,0,0,1,3.313-6.2A16.91,16.91,0,0,1,275.454,521.992Z" transform="translate(-233.173 -389.858)" fill="#fafafa"/>
      <path id="Trazado_159545" data-name="Trazado 159545" d="M287.118,528.7a14.811,14.811,0,0,1-1.328-4.539,14.055,14.055,0,0,1-.584-4.685A15.36,15.36,0,0,1,286.535,524,15.087,15.087,0,0,1,287.118,528.7Z" transform="translate(-224.859 -391.016)" fill="#fafafa"/>
      <path id="Trazado_159546" data-name="Trazado 159546" d="M351.184,644.877,447.72,598a32.1,32.1,0,0,1,30.792,1.459h0a32.1,32.1,0,0,1,7.662,48.261l-41.825,48.946-106.78,14.769-10-60.475,11.879-18.388Z" transform="translate(-205.392 -356.433)" fill="#263238"/>
      <path id="Trazado_159547" data-name="Trazado 159547" d="M394.181,642.822A5.847,5.847,0,0,1,393,643.8c-.788.584-1.955,1.459-3.4,2.408-2.919,1.985-6.961,4.626-11.558,7.4s-8.829,5.122-11.937,6.757c-1.561.817-2.831,1.459-3.721,1.883a5.923,5.923,0,0,1-1.459.584,5.462,5.462,0,0,1,1.27-.846l3.59-2.1c3.035-1.751,7.224-4.174,11.806-6.932s8.683-5.327,11.675-7.195l3.532-2.2A5.853,5.853,0,0,1,394.181,642.822Z" transform="translate(-190.073 -334.355)" fill="#455a64"/>
      <path id="Trazado_159548" data-name="Trazado 159548" d="M244.014,669.918s9.588-46.29,14.593-53.412,15.338-23.072,28.486-24.707,40.015,14.127,44.9,20.314c12.375,15.688,90.479,98.36,89.516,97.28L396.34,726.745l-26.6-8.406H293.412S240.54,709.393,244.014,669.918Z" transform="translate(-243.85 -357.847)" fill="#263238"/>
      <path id="Trazado_159549" data-name="Trazado 159549" d="M358.936,699.253a6.375,6.375,0,0,1-1.167-.073,23.315,23.315,0,0,1-3.313-.525,61.836,61.836,0,0,1-11.675-4.1,174.2,174.2,0,0,1-34.338-21.569,291.039,291.039,0,0,1-30.763-26.516A77.785,77.785,0,0,1,269.7,637.1a25.849,25.849,0,0,1-1.8-2.846,6.106,6.106,0,0,1-.54-1.022,4.949,4.949,0,0,1,.671.949c.452.628.978,1.62,1.9,2.744a87.291,87.291,0,0,0,8.129,9.179,318.225,318.225,0,0,0,30.851,26.268A182.471,182.471,0,0,0,343.058,694a67.844,67.844,0,0,0,11.456,4.378c1.459.321,2.51.569,3.269.657A6.308,6.308,0,0,1,358.936,699.253Z" transform="translate(-233.049 -338.76)" fill="#455a64"/>
      <path id="Trazado_159550" data-name="Trazado 159550" d="M335.462,681.607a8.061,8.061,0,0,1-.992.6l-2.919,1.605c-1.27.686-2.919,1.328-4.787,2.174-.934.438-2,.715-3.094,1.124a36.456,36.456,0,0,1-3.5,1.124A69.253,69.253,0,0,1,302.32,690.9a74.279,74.279,0,0,1-21.992-2.846,67.839,67.839,0,0,1-20.022-9.5c-1.372-1.036-2.758-1.955-4-3.006a27.814,27.814,0,0,1-3.327-3.371,39.175,39.175,0,0,1-4.7-7.049,36.823,36.823,0,0,1-3.969-11.543,20.835,20.835,0,0,1-.292-3.313,6.918,6.918,0,0,1,0-1.153c.088,0,0,1.591.555,4.378a38.151,38.151,0,0,0,4.145,11.339,40.982,40.982,0,0,0,4.7,6.888A28.81,28.81,0,0,0,256.7,675c1.226,1.022,2.612,1.926,3.969,2.919a68.609,68.609,0,0,0,19.847,9.34,74.626,74.626,0,0,0,21.759,2.919,70.962,70.962,0,0,0,17.775-2.481c1.255-.263,2.393-.73,3.5-1.065a28.04,28.04,0,0,0,3.079-1.065c1.868-.8,3.532-1.459,4.816-2.043l2.919-1.459A5.3,5.3,0,0,1,335.462,681.607Z" transform="translate(-243.783 -331.461)" fill="#455a64"/>
      <path id="Trazado_159551" data-name="Trazado 159551" d="M390.5,698.681c-.146.146-19.088-19.8-42.321-44.554s-41.912-44.933-41.766-45.065,19.1,19.789,42.321,44.554S390.66,698.549,390.5,698.681Z" transform="translate(-215.112 -349.863)" fill="#455a64"/>
      <path id="Trazado_159552" data-name="Trazado 159552" d="M314.958,670.232s-17.264,7.034-15.454,15.075,10.7,11.777,19.7,10.916,25.568-8.274,25.568-8.274l8.523-4.524s-10.361-.16-15.6-2.028C331.624,679.222,314.958,670.232,314.958,670.232Z" transform="translate(-218.346 -321.765)" fill="#dce736"/>
      <path id="Trazado_159553" data-name="Trazado 159553" d="M325.408,687.049l61.293,9.632,129.386-12.9-70.939-19.438L325.481,681.548a2.772,2.772,0,0,0-2.379,2.744h0A2.788,2.788,0,0,0,325.408,687.049Z" transform="translate(-207.445 -324.47)" fill="#455a64"/>
      <path id="Trazado_159554" data-name="Trazado 159554" d="M382.66,625.788l-14.827,87.663a7.587,7.587,0,0,0,8.245,8.756L495.555,710.3a7.589,7.589,0,0,0,6.713-6.188l16.111-88.67a7.6,7.6,0,0,0-8.275-8.917L389.3,619.513A7.6,7.6,0,0,0,382.66,625.788Z" transform="translate(-186.943 -351.047)" fill="#455a64"/>
      <path id="Trazado_159555" data-name="Trazado 159555" d="M323.072,703.91h.321l.949.1,3.634.511,13.484,2.014,45.663,7.107-.423.307c.759-4.568,1.532-9.325,2.335-14.185,3.6-21.569,6.859-41.081,9.238-55.28,1.211-7.02,2.189-12.726,2.919-16.724.336-1.941.613-3.458.817-4.553.088-.481.175-.861.234-1.167a1.781,1.781,0,0,1,.1-.409,1.74,1.74,0,0,1,0,.409,9.442,9.442,0,0,1-.161,1.2c-.161,1.094-.394,2.627-.671,4.568-.642,4.013-1.547,9.734-2.656,16.768-2.306,14.214-5.487,33.74-9,55.309-.817,4.86-1.591,9.617-2.35,14.2v.365h-.379l-45.678-7.3-13.455-2.233-3.619-.628-.934-.19Z" transform="translate(-207.459 -344.089)" fill="#263238"/>
      <path id="Trazado_159556" data-name="Trazado 159556" d="M433.939,648.442c0,4.757-3.444,8.61-7.691,8.61s-7.676-3.853-7.676-8.61,3.444-8.61,7.676-8.61S433.939,643.685,433.939,648.442Z" transform="translate(-163.592 -335.729)" fill="#fafafa"/>
      <path id="Trazado_159557" data-name="Trazado 159557" d="M314.565,482.172c3.094,4.568,6.217,9.208,7.939,14.448s1.912,11.237-.773,16.053c-2.233,4-6.334,7.136-7.034,11.675-1.167,7.72,8.1,13.441,8.756,21.219.379,4.378-2.145,8.581-5.02,11.981s-6.231,6.494-8.1,10.536-1.766,9.384,1.649,12.3c-4.261-1.2-8.683,3.327-12.886,1.926-3.575-1.182-4.524-5.706-4.874-9.457a9.035,9.035,0,0,0-1.591,8.012,22.343,22.343,0,0,1-3.648-25.6c2.568-4.772,6.947-8.975,6.947-14.287-.073-5.837-5.546-10.215-7.078-15.951-1.065-3.882-.19-8.012.978-11.865s2.656-7.691,2.817-11.675-.2-5.633-3.648-7.705" transform="translate(-224.257 -408.149)" fill="#263238"/>
      <path id="Trazado_159558" data-name="Trazado 159558" d="M300.125,582.845H299.8a3.875,3.875,0,0,1-.9-.292,6.232,6.232,0,0,1-2.773-2.393,9.575,9.575,0,0,1-1.532-5.589,14.121,14.121,0,0,1,2.671-7.209c1.561-2.393,3.751-4.655,5.764-7.3s3.969-5.75,3.969-9.427-2-7.224-4.261-10.551-4.9-6.874-5.706-11.31a10.344,10.344,0,0,1,.934-6.465,21.163,21.163,0,0,1,3.809-5.035,44.255,44.255,0,0,0,3.969-4.378,11.585,11.585,0,0,0,2.291-5.035,7.3,7.3,0,0,0-1.138-5.006,34.267,34.267,0,0,0-3.167-4.013,16.164,16.164,0,0,1-3.955-8.42,15.156,15.156,0,0,1,.846-7.632,15.668,15.668,0,0,1,3.079-4.933,14.578,14.578,0,0,1,2.8-2.364,9.362,9.362,0,0,1,.817-.482.9.9,0,0,1,.306-.131,19.2,19.2,0,0,0-3.707,3.181A15.581,15.581,0,0,0,301,482.938a14.9,14.9,0,0,0-.715,7.413,15.521,15.521,0,0,0,3.9,8.085,35.951,35.951,0,0,1,3.254,4.072,8,8,0,0,1,1.255,5.443,12.22,12.22,0,0,1-2.393,5.37,41.736,41.736,0,0,1-4.013,4.509,21,21,0,0,0-3.678,4.86,9.5,9.5,0,0,0-.846,6c.744,4.188,3.3,7.676,5.575,11.033a35.743,35.743,0,0,1,3.021,5.254,14.058,14.058,0,0,1,1.313,5.706,12.694,12.694,0,0,1-1.343,5.414,25.224,25.224,0,0,1-2.817,4.378c-2.087,2.627-4.261,4.845-5.837,7.18a13.793,13.793,0,0,0-2.685,6.917,9.486,9.486,0,0,0,1.357,5.414,6.47,6.47,0,0,0,2.583,2.423C299.688,582.728,300.14,582.787,300.125,582.845Z" transform="translate(-220.544 -411.499)" fill="#455a64"/>
      <path id="Trazado_159559" data-name="Trazado 159559" d="M386.668,651.748c-4.2-3.78.525-8.2-7.092-15.4-5.691-5.356-16.476-14.594-37.359-21.54l-13.134,23.35,22.766,7.3-.219,14.841a5.429,5.429,0,0,0,5.34,5.516q.081,0,.162,0l11.821-.146s-3.459,14.594-2.919,15.469a3.123,3.123,0,0,0,5.575-.6c.467-1.955,10.215-25.509,10.215-25.509s6.363,5.487,7.3,2.349C389.149,657.454,390.885,655.542,386.668,651.748Z" transform="translate(-204.699 -347.222)" fill="#b78876"/>
      <path id="Trazado_159560" data-name="Trazado 159560" d="M346.762,653.442c0-.073.54-.438,1.328-1.211a9.588,9.588,0,0,0,2.247-3.575,9.469,9.469,0,0,0,.452-4.2c-.131-1.08-.379-1.737-.292-1.781a3.589,3.589,0,0,1,.7,1.722,8.46,8.46,0,0,1-.321,4.451,8.631,8.631,0,0,1-2.51,3.751A3.6,3.6,0,0,1,346.762,653.442Z" transform="translate(-196.577 -334.424)" fill="#aa6550"/>
      <path id="Trazado_159561" data-name="Trazado 159561" d="M351.962,652.763a16.623,16.623,0,0,0,2.277-4.568,16.432,16.432,0,0,0,.2-5.093,3.191,3.191,0,0,1,.511,1.459,9.046,9.046,0,0,1-1.839,7.136A3.487,3.487,0,0,1,351.962,652.763Z" transform="translate(-194.189 -334.227)" fill="#aa6550"/>
      <path id="Trazado_159562" data-name="Trazado 159562" d="M359.271,643.862c.073,0,.219.467.233,1.284a7.6,7.6,0,0,1-.628,3.079,7.747,7.747,0,0,1-1.78,2.583c-.6.555-1.051.773-1.095.715a18.16,18.16,0,0,0,2.35-3.517A17.526,17.526,0,0,0,359.271,643.862Z" transform="translate(-192.333 -333.878)" fill="#aa6550"/>
    </g>
    <g id="Rectángulo_41146" data-name="Rectángulo 41146" transform="translate(335.912 1035.226)" opacity="0.999">
      <g id="Grupo_109199" data-name="Grupo 109199" transform="translate(0 0)">
        <g id="Grupo_109198" data-name="Grupo 109198">
          <rect id="Rectángulo_41265" data-name="Rectángulo 41265" width="250.626" height="79.438" rx="23.618" fill="#acd382"/>
          <rect id="Rectángulo_41266" data-name="Rectángulo 41266" width="249.502" height="78.315" rx="23.164" transform="translate(0.562 0.562)" fill="#acd382"/>
        </g>
      </g>
    </g>
    <g id="Planear" transform="translate(402.184 1052.026)" style="isolation: isolate">
      <text id="Evaluar" transform="translate(0 36)" fill="#12263f" font-size="34" font-family="Roboto-Bold, Roboto" font-weight="700" style="isolation: isolate"><tspan x="0" y="0">Evaluar</tspan></text>
    </g>
    <g id="Rectángulo_41146-2" data-name="Rectángulo 41146" transform="translate(661.455 780.748)" opacity="0.999">
      <g id="Grupo_109199-2" data-name="Grupo 109199" transform="translate(0 0)">
        <g id="Grupo_109198-2" data-name="Grupo 109198">
          <rect id="Rectángulo_41265-2" data-name="Rectángulo 41265" width="250.626" height="79.438" rx="23.618" fill="#acd382"/>
          <rect id="Rectángulo_41266-2" data-name="Rectángulo 41266" width="249.502" height="78.315" rx="23.164" transform="translate(0.562 0.562)" fill="#acd382"/>
        </g>
      </g>
    </g>
    <g id="Planear-2" data-name="Planear" transform="translate(728.66 797.55)" style="isolation: isolate">
      <text id="Planear-3" data-name="Planear" transform="translate(0 36)" fill="#12263f" font-size="34" font-family="Roboto-Bold, Roboto" font-weight="700" style="isolation: isolate"><tspan x="0" y="0">Planear</tspan></text>
    </g>
    <g id="Rectángulo_41146-3" data-name="Rectángulo 41146" transform="translate(968.838 1035.226)" opacity="0.999">
      <g id="Grupo_109199-3" data-name="Grupo 109199" transform="translate(0 0)">
        <g id="Grupo_109198-3" data-name="Grupo 109198">
          <rect id="Rectángulo_41265-3" data-name="Rectángulo 41265" width="250.626" height="79.438" rx="23.618" fill="#acd382"/>
          <rect id="Rectángulo_41266-3" data-name="Rectángulo 41266" width="249.502" height="78.315" rx="23.164" transform="translate(0.562 0.562)" fill="#acd382"/>
        </g>
      </g>
    </g>
    <g id="Planear-4" data-name="Planear" transform="translate(1022.041 1052.026)" style="isolation: isolate">
      <text id="Organizar" transform="translate(0 36)" fill="#12263f" font-size="34" font-family="Roboto-Bold, Roboto" font-weight="700" style="isolation: isolate"><tspan x="0" y="0">Organizar</tspan></text>
    </g>
    <g id="Rectángulo_41146-4" data-name="Rectángulo 41146" transform="translate(660.522 1288.635)" opacity="0.999">
      <g id="Grupo_109199-4" data-name="Grupo 109199" transform="translate(0 0)">
        <g id="Grupo_109198-4" data-name="Grupo 109198">
          <rect id="Rectángulo_41265-4" data-name="Rectángulo 41265" width="250.626" height="79.438" rx="23.618" fill="#acd382"/>
          <rect id="Rectángulo_41266-4" data-name="Rectángulo 41266" width="249.502" height="78.315" rx="23.164" transform="translate(0.562 0.562)" fill="#acd382"/>
        </g>
      </g>
    </g>
    <g id="Planear-5" data-name="Planear" transform="translate(705.325 1305.437)" style="isolation: isolate">
      <text id="Desarrollar" transform="translate(0 36)" fill="#12263f" font-size="34" font-family="Roboto-Bold, Roboto" font-weight="700" style="isolation: isolate"><tspan x="0" y="0">Desarrollar</tspan></text>
    </g>
  </g>
</svg>
