<svg xmlns="http://www.w3.org/2000/svg" width="407.793" height="346.862" viewBox="0 0 407.793 346.862">
  <g id="Grupo_108833" data-name="Grupo 108833" transform="translate(1784.427 9893.24)">
    <g id="freepik--Board--inject-26" transform="translate(-1766.226 -9893.24)">
      <rect id="Rectángulo_41206" data-name="Rectángulo 41206" width="389.225" height="248.178" transform="translate(0.151 0.211)" fill="#fff"/>
      <path id="Trazado_158878" data-name="Trazado 158878" d="M529.677,301.869c0-1.382-.064-96.123-.16-248.178l.16.177-389.2.051h0l.207-.219V301.877l-.191-.2,389.225.2-389.225.2H140.3V53.48h.231l389.2.051h.159V53.7C529.74,205.746,529.677,300.487,529.677,301.869Z" transform="translate(-140.3 -53.48)" fill="#263238"/>
      <path id="Trazado_158879" data-name="Trazado 158879" d="M204.163,103.69s-2.089,20.226.6,31.316l25.583-1.18s-5.477-19.964-2.113-28.813Z" transform="translate(-153.092 -61.376)" fill="#e0e0e0"/>
      <path id="Trazado_158880" data-name="Trazado 158880" d="M204.12,103.708s.175,21.844,1.228,28.518l25.926-1.306s-2.28-21.481-1.4-27.22Z" transform="translate(-153.241 -61.378)" fill="#dce736"/>
      <path id="Trazado_158881" data-name="Trazado 158881" d="M227.1,114.591c0,.118-3.883.464-8.682.767s-8.706.455-8.714.337,3.883-.464,8.682-.775A81.751,81.751,0,0,1,227.1,114.591Z" transform="translate(-154.372 -63.083)" fill="#fff"/>
      <path id="Trazado_158882" data-name="Trazado 158882" d="M227.106,120.086c0,.118-3.883.464-8.69.775a81.666,81.666,0,0,1-8.706.329,85.153,85.153,0,0,1,8.682-.767C223.191,120.119,227.1,120.01,227.106,120.086Z" transform="translate(-154.374 -63.951)" fill="#fff"/>
      <path id="Trazado_158883" data-name="Trazado 158883" d="M223.48,125.468a28.717,28.717,0,0,1-4.943.539,29.044,29.044,0,0,1-4.967.093,28.241,28.241,0,0,1,4.943-.531A28.586,28.586,0,0,1,223.48,125.468Z" transform="translate(-155.157 -64.791)" fill="#fff"/>
      <path id="Trazado_158884" data-name="Trazado 158884" d="M203.56,142.48s.175,21.852,1.228,28.518l25.926-1.3s-2.28-21.481-1.4-27.22Z" transform="translate(-153.127 -67.476)" fill="#dce736"/>
      <path id="Trazado_158885" data-name="Trazado 158885" d="M226.576,153.363c0,.118-3.883.464-8.682.775a81.747,81.747,0,0,1-8.714.329,85.187,85.187,0,0,1,8.69-.767C222.677,153.4,226.576,153.245,226.576,153.363Z" transform="translate(-154.267 -69.181)" fill="#fff"/>
      <path id="Trazado_158886" data-name="Trazado 158886" d="M226.576,158.853a83.9,83.9,0,0,1-8.682.775,84.522,84.522,0,0,1-8.714.329,85.167,85.167,0,0,1,8.682-.767C222.661,158.886,226.576,158.735,226.576,158.853Z" transform="translate(-154.267 -70.045)" fill="#fff"/>
      <path id="Trazado_158887" data-name="Trazado 158887" d="M222.918,164.238a27.73,27.73,0,0,1-4.943.539,28.042,28.042,0,0,1-4.975.093,28.246,28.246,0,0,1,4.943-.531A28.58,28.58,0,0,1,222.918,164.238Z" transform="translate(-155.041 -70.888)" fill="#fff"/>
      <path id="Trazado_158888" data-name="Trazado 158888" d="M203.56,186.4s.175,21.844,1.228,28.518l25.926-1.3s-2.28-21.481-1.4-27.22Z" transform="translate(-153.127 -74.383)" fill="#263238"/>
      <path id="Trazado_158889" data-name="Trazado 158889" d="M226.576,197.281c0,.118-3.883.464-8.682.767s-8.706.455-8.714.337,3.883-.464,8.69-.775A81.706,81.706,0,0,1,226.576,197.281Z" transform="translate(-154.267 -76.087)" fill="#fff"/>
      <path id="Trazado_158890" data-name="Trazado 158890" d="M226.576,202.773c0,.118-3.883.464-8.682.767s-8.706.455-8.714.337,3.883-.463,8.682-.767S226.576,202.655,226.576,202.773Z" transform="translate(-154.267 -76.952)" fill="#fff"/>
      <path id="Trazado_158891" data-name="Trazado 158891" d="M222.92,208.158a28.241,28.241,0,0,1-4.943.531,28.588,28.588,0,0,1-4.967.1,28.241,28.241,0,0,1,4.943-.531,28.585,28.585,0,0,1,4.967-.1Z" transform="translate(-155.043 -77.795)" fill="#fff"/>
      <path id="Trazado_158892" data-name="Trazado 158892" d="M199.77,237.76s.175,21.852,1.228,28.518l25.926-1.3s-2.28-21.481-1.4-27.22Z" transform="translate(-152.359 -82.46)" fill="#455a64"/>
      <path id="Trazado_158893" data-name="Trazado 158893" d="M222.744,248.643c0,.118-3.883.464-8.69.775a81.777,81.777,0,0,1-8.714.329,85.187,85.187,0,0,1,8.69-.767C218.837,248.676,222.736,248.525,222.744,248.643Z" transform="translate(-153.488 -84.165)" fill="#fff"/>
      <path id="Trazado_158894" data-name="Trazado 158894" d="M222.754,254.133a83.946,83.946,0,0,1-8.69.775c-4.807.3-8.706.455-8.714.337a86.51,86.51,0,0,1,8.69-.775C218.847,254.166,222.746,254.015,222.754,254.133Z" transform="translate(-153.49 -85.029)" fill="#fff"/>
      <path id="Trazado_158895" data-name="Trazado 158895" d="M219.13,259.527a29.233,29.233,0,0,1-4.943.531,27.07,27.07,0,0,1-4.967.093,29.1,29.1,0,0,1,4.943-.531A27.11,27.11,0,0,1,219.13,259.527Z" transform="translate(-154.275 -85.872)" fill="#fff"/>
      <path id="Trazado_158896" data-name="Trazado 158896" d="M242.88,238s.175,21.852,1.228,28.518l25.926-1.289s-2.28-21.481-1.4-27.229Z" transform="translate(-161.1 -82.498)" fill="#263238"/>
      <path id="Trazado_158897" data-name="Trazado 158897" d="M265.854,248.872c0,.118-3.883.463-8.69.767s-8.706.455-8.714.337a86.52,86.52,0,0,1,8.69-.775A84.555,84.555,0,0,1,265.854,248.872Z" transform="translate(-162.229 -84.201)" fill="#fff"/>
      <path id="Trazado_158898" data-name="Trazado 158898" d="M265.864,254.361c0,.118-3.883.463-8.69.767s-8.706.455-8.714.337,3.883-.464,8.69-.775A81.771,81.771,0,0,1,265.864,254.361Z" transform="translate(-162.231 -85.064)" fill="#fff"/>
      <path id="Trazado_158899" data-name="Trazado 158899" d="M262.238,259.748a28.247,28.247,0,0,1-4.943.531,28.671,28.671,0,0,1-4.975.1,27.893,27.893,0,0,1,4.951-.539A29.045,29.045,0,0,1,262.238,259.748Z" transform="translate(-163.014 -85.908)" fill="#fff"/>
      <path id="Trazado_158900" data-name="Trazado 158900" d="M278.94,239.84s.175,21.852,1.228,28.518l25.926-1.289s-2.28-21.481-1.4-27.229Z" transform="translate(-168.412 -82.787)" fill="#dce736"/>
      <path id="Trazado_158901" data-name="Trazado 158901" d="M301.914,250.723a83.956,83.956,0,0,1-8.69.775c-4.807.3-8.706.455-8.714.337a86.511,86.511,0,0,1,8.69-.775C298.007,250.756,301.906,250.6,301.914,250.723Z" transform="translate(-169.541 -84.492)" fill="#fff"/>
      <path id="Trazado_158902" data-name="Trazado 158902" d="M301.924,256.221c0,.118-3.883.463-8.69.767s-8.706.455-8.714.337,3.883-.464,8.69-.775A81.76,81.76,0,0,1,301.924,256.221Z" transform="translate(-169.543 -85.356)" fill="#fff"/>
      <path id="Trazado_158903" data-name="Trazado 158903" d="M298.3,261.608a28.243,28.243,0,0,1-4.943.531,28.662,28.662,0,0,1-4.975.1,27.9,27.9,0,0,1,4.951-.539A29.042,29.042,0,0,1,298.3,261.608Z" transform="translate(-170.326 -86.2)" fill="#fff"/>
      <path id="Trazado_158904" data-name="Trazado 158904" d="M236.8,284.18s.175,21.852,1.228,28.518l25.926-1.3s-2.28-21.473-1.4-27.22Z" transform="translate(-159.867 -89.76)" fill="#455a64"/>
      <path id="Trazado_158905" data-name="Trazado 158905" d="M259.776,295.063c0,.118-3.883.463-8.682.775a81.746,81.746,0,0,1-8.714.329,85.178,85.178,0,0,1,8.69-.767C255.877,295.1,259.768,294.945,259.776,295.063Z" transform="translate(-160.998 -91.465)" fill="#fff"/>
      <path id="Trazado_158906" data-name="Trazado 158906" d="M259.786,300.553a83.9,83.9,0,0,1-8.682.775,84.534,84.534,0,0,1-8.714.329,85.16,85.16,0,0,1,8.682-.767C255.871,300.586,259.778,300.435,259.786,300.553Z" transform="translate(-161 -92.329)" fill="#fff"/>
      <path id="Trazado_158907" data-name="Trazado 158907" d="M256.16,305.988a27.6,27.6,0,0,1-4.943.539,28.047,28.047,0,0,1-4.967.093,28.236,28.236,0,0,1,4.943-.531A28.587,28.587,0,0,1,256.16,305.988Z" transform="translate(-161.783 -93.18)" fill="#fff"/>
      <path id="Trazado_158908" data-name="Trazado 158908" d="M341.18,224.63s.175,21.852,1.228,28.518l25.926-1.3s-2.28-21.481-1.4-27.22Z" transform="translate(-181.032 -80.395)" fill="#263238"/>
      <path id="Trazado_158909" data-name="Trazado 158909" d="M364.156,235.511c0,.118-3.883.464-8.69.767s-8.7.455-8.706.337,3.883-.464,8.682-.775A81.768,81.768,0,0,1,364.156,235.511Z" transform="translate(-182.163 -82.099)" fill="#fff"/>
      <path id="Trazado_158910" data-name="Trazado 158910" d="M364.166,240.993c0,.118-3.882.464-8.69.775a81.725,81.725,0,0,1-8.706.329,85.137,85.137,0,0,1,8.682-.767C360.259,241.027,364.158,240.884,364.166,240.993Z" transform="translate(-182.165 -82.963)" fill="#fff"/>
      <path id="Trazado_158911" data-name="Trazado 158911" d="M360.54,246.388a27.726,27.726,0,0,1-4.943.539,29.044,29.044,0,0,1-4.967.093,28.246,28.246,0,0,1,4.943-.531A28.587,28.587,0,0,1,360.54,246.388Z" transform="translate(-182.948 -83.807)" fill="#fff"/>
      <path id="Trazado_158912" data-name="Trazado 158912" d="M411.78,285.49s.175,21.852,1.228,28.518l25.926-1.289s-2.272-21.481-1.4-27.229Z" transform="translate(-195.347 -89.966)" fill="#455a64"/>
      <path id="Trazado_158913" data-name="Trazado 158913" d="M434.756,296.373a83.915,83.915,0,0,1-8.682.775c-4.8.3-8.706.455-8.714.337a86.513,86.513,0,0,1,8.69-.775C430.857,296.406,434.748,296.255,434.756,296.373Z" transform="translate(-196.479 -91.671)" fill="#fff"/>
      <path id="Trazado_158914" data-name="Trazado 158914" d="M434.766,301.871c0,.118-3.883.464-8.682.767s-8.706.455-8.714.337,3.882-.463,8.69-.775A81.634,81.634,0,0,1,434.766,301.871Z" transform="translate(-196.481 -92.535)" fill="#fff"/>
      <path id="Trazado_158915" data-name="Trazado 158915" d="M431.14,307.258a28.1,28.1,0,0,1-4.943.531,28.58,28.58,0,0,1-4.967.1,27.731,27.731,0,0,1,4.943-.539A29.022,29.022,0,0,1,431.14,307.258Z" transform="translate(-197.263 -93.379)" fill="#fff"/>
      <path id="Trazado_158916" data-name="Trazado 158916" d="M451.92,286.05s.175,21.852,1.228,28.518l25.942-1.3s-2.28-21.481-1.4-27.22Z" transform="translate(-203.486 -90.054)" fill="#455a64"/>
      <path id="Trazado_158917" data-name="Trazado 158917" d="M474.9,296.931c0,.118-3.883.464-8.69.767s-8.7.455-8.706.337,3.883-.463,8.682-.775A81.755,81.755,0,0,1,474.9,296.931Z" transform="translate(-204.618 -91.758)" fill="#fff"/>
      <path id="Trazado_158918" data-name="Trazado 158918" d="M474.906,302.423c0,.118-3.883.463-8.69.775a81.678,81.678,0,0,1-8.706.329,85.174,85.174,0,0,1,8.682-.767C471,302.456,474.9,302.3,474.906,302.423Z" transform="translate(-204.62 -92.623)" fill="#fff"/>
      <path id="Trazado_158919" data-name="Trazado 158919" d="M471.28,307.808a27.731,27.731,0,0,1-4.943.539,29.051,29.051,0,0,1-4.967.093,28.1,28.1,0,0,1,4.943-.531A28.578,28.578,0,0,1,471.28,307.808Z" transform="translate(-205.402 -93.466)" fill="#fff"/>
      <path id="Trazado_158920" data-name="Trazado 158920" d="M492.06,286.6s.175,21.852,1.228,28.518l25.926-1.3s-2.28-21.481-1.4-27.22Z" transform="translate(-211.625 -90.141)" fill="#263238"/>
      <path id="Trazado_158921" data-name="Trazado 158921" d="M515.034,297.482c0,.118-3.883.464-8.69.775a81.781,81.781,0,0,1-8.714.329,85.181,85.181,0,0,1,8.69-.767C511.127,297.516,515.026,297.365,515.034,297.482Z" transform="translate(-212.755 -91.846)" fill="#fff"/>
      <path id="Trazado_158922" data-name="Trazado 158922" d="M515.043,302.991a170.082,170.082,0,0,1-17.4,1.1,85.214,85.214,0,0,1,8.69-.767A83.27,83.27,0,0,1,515.043,302.991Z" transform="translate(-212.757 -92.711)" fill="#fff"/>
      <path id="Trazado_158923" data-name="Trazado 158923" d="M511.417,308.367a27.735,27.735,0,0,1-4.943.539A28.118,28.118,0,0,1,501.5,309,57.533,57.533,0,0,1,511.417,308.367Z" transform="translate(-213.539 -93.561)" fill="#fff"/>
      <path id="Trazado_158924" data-name="Trazado 158924" d="M540.31,285.08s.175,21.852,1.228,28.518l25.926-1.289s-2.272-21.481-1.4-27.229Z" transform="translate(-221.409 -89.902)" fill="#455a64"/>
      <path id="Trazado_158925" data-name="Trazado 158925" d="M563.286,295.99c0,.118-3.883.463-8.682.767s-8.706.455-8.714.337a86.5,86.5,0,0,1,8.69-.775A79.052,79.052,0,0,1,563.286,295.99Z" transform="translate(-222.54 -91.609)" fill="#fff"/>
      <path id="Trazado_158926" data-name="Trazado 158926" d="M563.3,301.461c0,.118-3.883.464-8.682.767s-8.706.455-8.714.337,3.883-.464,8.682-.775A81.756,81.756,0,0,1,563.3,301.461Z" transform="translate(-222.542 -92.471)" fill="#fff"/>
      <path id="Trazado_158927" data-name="Trazado 158927" d="M559.67,306.85a28.1,28.1,0,0,1-4.943.531,28.58,28.58,0,0,1-4.967.1,27.724,27.724,0,0,1,4.975-.514A29.022,29.022,0,0,1,559.67,306.85Z" transform="translate(-223.325 -93.317)" fill="#fff"/>
      <path id="Trazado_158928" data-name="Trazado 158928" d="M575.29,288.83s.175,21.852,1.228,28.518l25.926-1.3s-2.272-21.481-1.4-27.22Z" transform="translate(-228.501 -90.491)" fill="#455a64"/>
      <path id="Trazado_158929" data-name="Trazado 158929" d="M598.266,299.711c0,.118-3.883.463-8.682.767s-8.706.455-8.714.337,3.882-.464,8.69-.775A81.664,81.664,0,0,1,598.266,299.711Z" transform="translate(-229.633 -92.195)" fill="#fff"/>
      <path id="Trazado_158930" data-name="Trazado 158930" d="M598.276,305.2c0,.118-3.882.464-8.682.775a81.732,81.732,0,0,1-8.714.329,85.188,85.188,0,0,1,8.69-.767C594.377,305.236,598.268,305.085,598.276,305.2Z" transform="translate(-229.635 -93.06)" fill="#fff"/>
      <path id="Trazado_158931" data-name="Trazado 158931" d="M594.65,310.588a27.6,27.6,0,0,1-4.943.539,29.037,29.037,0,0,1-4.967.093,28.238,28.238,0,0,1,4.943-.531,28.555,28.555,0,0,1,4.967-.1Z" transform="translate(-230.418 -93.903)" fill="#fff"/>
      <path id="Trazado_158932" data-name="Trazado 158932" d="M411.64,238.37s.175,21.852,1.22,28.518l25.934-1.3s-2.28-21.481-1.4-27.22Z" transform="translate(-195.319 -82.556)" fill="#455a64"/>
      <path id="Trazado_158933" data-name="Trazado 158933" d="M434.574,249.253a83.918,83.918,0,0,1-8.69.775,84.559,84.559,0,0,1-8.714.329,85.18,85.18,0,0,1,8.69-.767C430.667,249.286,434.574,249.135,434.574,249.253Z" transform="translate(-196.44 -84.261)" fill="#fff"/>
      <path id="Trazado_158934" data-name="Trazado 158934" d="M434.624,254.743a83.925,83.925,0,0,1-8.69.775c-4.807.3-8.706.455-8.714.337a86.516,86.516,0,0,1,8.69-.775C430.717,254.776,434.584,254.625,434.624,254.743Z" transform="translate(-196.45 -85.124)" fill="#fff"/>
      <path id="Trazado_158935" data-name="Trazado 158935" d="M431,260.136a29.235,29.235,0,0,1-4.943.531,27.161,27.161,0,0,1-4.975.093,29.41,29.41,0,0,1,4.951-.531,27.1,27.1,0,0,1,4.967-.093Z" transform="translate(-197.233 -85.968)" fill="#fff"/>
      <path id="Trazado_158936" data-name="Trazado 158936" d="M454.09,238.5s.175,21.852,1.228,28.518l25.926-1.3s-2.272-21.481-1.4-27.22Z" transform="translate(-203.926 -82.576)" fill="#dce736"/>
      <path id="Trazado_158937" data-name="Trazado 158937" d="M477.066,249.381c0,.118-3.883.464-8.682.767s-8.706.455-8.714.337,3.882-.464,8.69-.775A81.708,81.708,0,0,1,477.066,249.381Z" transform="translate(-205.058 -84.28)" fill="#fff"/>
      <path id="Trazado_158938" data-name="Trazado 158938" d="M477.076,254.872c0,.118-3.883.464-8.682.775a81.747,81.747,0,0,1-8.714.329,85.172,85.172,0,0,1,8.69-.767C473.177,254.906,477.068,254.755,477.076,254.872Z" transform="translate(-205.06 -85.145)" fill="#fff"/>
      <path id="Trazado_158939" data-name="Trazado 158939" d="M473.478,260.258a27.887,27.887,0,0,1-4.951.539,29.042,29.042,0,0,1-4.967.093,28.239,28.239,0,0,1,4.943-.531A28.669,28.669,0,0,1,473.478,260.258Z" transform="translate(-205.846 -85.988)" fill="#fff"/>
      <path id="Trazado_158940" data-name="Trazado 158940" d="M537.77,238.51s.175,21.852,1.228,28.518l25.926-1.3s-2.28-21.481-1.4-27.22Z" transform="translate(-220.894 -82.578)" fill="#455a64"/>
      <path id="Trazado_158941" data-name="Trazado 158941" d="M560.746,249.393a83.893,83.893,0,0,1-8.69.775c-4.807.3-8.706.455-8.706.337a86.806,86.806,0,0,1,8.682-.775C556.831,249.426,560.738,249.275,560.746,249.393Z" transform="translate(-222.025 -84.283)" fill="#fff"/>
      <path id="Trazado_158942" data-name="Trazado 158942" d="M560.754,254.892c0,.118-3.883.463-8.69.767s-8.706.455-8.714.337a86.5,86.5,0,0,1,8.69-.775A84.551,84.551,0,0,1,560.754,254.892Z" transform="translate(-222.025 -85.147)" fill="#fff"/>
      <path id="Trazado_158943" data-name="Trazado 158943" d="M557.13,260.277a28.236,28.236,0,0,1-4.943.531,28.579,28.579,0,0,1-4.967.1,27.6,27.6,0,0,1,4.943-.539,28.038,28.038,0,0,1,4.967-.093Z" transform="translate(-222.81 -85.99)" fill="#fff"/>
      <path id="Trazado_158944" data-name="Trazado 158944" d="M254.05,186.4s.175,21.844,1.228,28.518l25.926-1.3s-2.28-21.481-1.4-27.22Z" transform="translate(-163.365 -74.383)" fill="#263238"/>
      <path id="Trazado_158945" data-name="Trazado 158945" d="M277.026,197.281c0,.118-3.883.464-8.69.767s-8.706.455-8.706.337,3.875-.464,8.682-.775A81.793,81.793,0,0,1,277.026,197.281Z" transform="translate(-164.496 -76.087)" fill="#fff"/>
      <path id="Trazado_158946" data-name="Trazado 158946" d="M277.034,202.773c0,.118-3.883.464-8.69.767s-8.706.455-8.714.337,3.883-.463,8.69-.767S277.026,202.655,277.034,202.773Z" transform="translate(-164.496 -76.952)" fill="#fff"/>
      <path id="Trazado_158947" data-name="Trazado 158947" d="M273.41,208.158a28.242,28.242,0,0,1-4.943.531,28.553,28.553,0,0,1-4.967.1,28.106,28.106,0,0,1,4.943-.531,28.585,28.585,0,0,1,4.967-.1Z" transform="translate(-165.281 -77.795)" fill="#fff"/>
      <path id="Trazado_158948" data-name="Trazado 158948" d="M241.13,103.708s.175,21.844,1.228,28.518l25.926-1.306s-2.28-21.481-1.4-27.22Z" transform="translate(-160.745 -61.378)" fill="#dce736"/>
      <path id="Trazado_158949" data-name="Trazado 158949" d="M264.1,114.591c0,.118-3.883.464-8.69.767s-8.706.455-8.714.337,3.883-.464,8.69-.775A81.791,81.791,0,0,1,264.1,114.591Z" transform="translate(-161.874 -63.083)" fill="#fff"/>
      <path id="Trazado_158950" data-name="Trazado 158950" d="M264.114,120.086c0,.118-3.883.464-8.69.775a81.794,81.794,0,0,1-8.714.329,85.176,85.176,0,0,1,8.69-.767C260.207,120.119,264.106,120.01,264.114,120.086Z" transform="translate(-161.876 -63.951)" fill="#fff"/>
      <path id="Trazado_158951" data-name="Trazado 158951" d="M260.478,125.468a28.717,28.717,0,0,1-4.943.539,29.127,29.127,0,0,1-4.975.093,57.534,57.534,0,0,1,9.918-.632Z" transform="translate(-162.657 -64.791)" fill="#fff"/>
      <path id="Trazado_158952" data-name="Trazado 158952" d="M241.84,142.62s.175,21.852,1.228,28.518l25.926-1.289s-2.28-21.481-1.4-27.229Z" transform="translate(-160.889 -67.498)" fill="#dce736"/>
      <path id="Trazado_158953" data-name="Trazado 158953" d="M264.816,153.5a83.94,83.94,0,0,1-8.69.775c-4.807.3-8.706.455-8.706.337a86.806,86.806,0,0,1,8.682-.775C260.9,153.536,264.808,153.385,264.816,153.5Z" transform="translate(-162.02 -69.203)" fill="#fff"/>
      <path id="Trazado_158954" data-name="Trazado 158954" d="M264.824,158.992c0,.118-3.883.463-8.69.767s-8.706.455-8.714.337,3.883-.464,8.69-.775A84.55,84.55,0,0,1,264.824,158.992Z" transform="translate(-162.02 -70.066)" fill="#fff"/>
      <path id="Trazado_158955" data-name="Trazado 158955" d="M261.2,164.388a28.24,28.24,0,0,1-4.943.531,28.582,28.582,0,0,1-4.967.1,27.6,27.6,0,0,1,4.943-.539A29.043,29.043,0,0,1,261.2,164.388Z" transform="translate(-162.805 -70.911)" fill="#fff"/>
      <path id="Trazado_158956" data-name="Trazado 158956" d="M281.66,103.708s.175,21.844,1.228,28.518l25.926-1.306s-2.28-21.481-1.4-27.22Z" transform="translate(-168.963 -61.378)" fill="#dce736"/>
      <path id="Trazado_158957" data-name="Trazado 158957" d="M304.634,114.591c0,.118-3.883.464-8.69.767s-8.706.455-8.714.337,3.882-.464,8.69-.775A81.792,81.792,0,0,1,304.634,114.591Z" transform="translate(-170.093 -63.083)" fill="#fff"/>
      <path id="Trazado_158958" data-name="Trazado 158958" d="M304.644,120.086c0,.118-3.883.464-8.69.775a81.793,81.793,0,0,1-8.714.329,85.174,85.174,0,0,1,8.69-.767C300.737,120.119,304.636,120.01,304.644,120.086Z" transform="translate(-170.095 -63.951)" fill="#fff"/>
      <path id="Trazado_158959" data-name="Trazado 158959" d="M301.018,125.468a28.718,28.718,0,0,1-4.943.539,29.127,29.127,0,0,1-4.975.093,57.534,57.534,0,0,1,9.918-.632Z" transform="translate(-170.877 -64.791)" fill="#fff"/>
      <path id="Trazado_158960" data-name="Trazado 158960" d="M322.19,103.708s.175,21.844,1.22,28.518l25.934-1.306s-2.28-21.481-1.4-27.22Z" transform="translate(-177.181 -61.378)" fill="#dce736"/>
      <path id="Trazado_158961" data-name="Trazado 158961" d="M345.164,114.591c0,.118-3.883.464-8.69.767s-8.706.455-8.714.337,3.883-.464,8.69-.775A81.791,81.791,0,0,1,345.164,114.591Z" transform="translate(-178.311 -63.083)" fill="#fff"/>
      <path id="Trazado_158962" data-name="Trazado 158962" d="M345.174,120.086c0,.118-3.883.464-8.69.775a81.794,81.794,0,0,1-8.714.329,85.173,85.173,0,0,1,8.69-.767C341.267,120.119,345.166,120.01,345.174,120.086Z" transform="translate(-178.313 -63.951)" fill="#fff"/>
      <path id="Trazado_158963" data-name="Trazado 158963" d="M341.548,125.477a28.716,28.716,0,0,1-4.943.539,29.127,29.127,0,0,1-4.975.093,57.532,57.532,0,0,1,9.917-.632Z" transform="translate(-179.095 -64.8)" fill="#fff"/>
      <path id="Trazado_158964" data-name="Trazado 158964" d="M362.72,103.708s.175,21.844,1.22,28.518l25.934-1.306s-2.28-21.481-1.4-27.22Z" transform="translate(-185.399 -61.378)" fill="#dce736"/>
      <path id="Trazado_158965" data-name="Trazado 158965" d="M385.694,114.591c0,.118-3.883.464-8.69.767s-8.706.455-8.714.337,3.882-.464,8.69-.775A81.792,81.792,0,0,1,385.694,114.591Z" transform="translate(-186.529 -63.083)" fill="#fff"/>
      <path id="Trazado_158966" data-name="Trazado 158966" d="M385.7,120.086c0,.118-3.883.464-8.69.775a81.793,81.793,0,0,1-8.714.329,85.179,85.179,0,0,1,8.69-.767C381.8,120.119,385.7,120.01,385.7,120.086Z" transform="translate(-186.531 -63.951)" fill="#fff"/>
      <path id="Trazado_158967" data-name="Trazado 158967" d="M382.078,125.468a28.718,28.718,0,0,1-4.943.539,29.127,29.127,0,0,1-4.975.093,28.272,28.272,0,0,1,4.951-.531A28.585,28.585,0,0,1,382.078,125.468Z" transform="translate(-187.313 -64.791)" fill="#fff"/>
      <path id="Trazado_158968" data-name="Trazado 158968" d="M416.89,109.45s.175,21.852,1.228,28.518l25.966-1.3s-2.28-21.481-1.4-27.22Z" transform="translate(-196.383 -62.282)" fill="#dce736"/>
      <path id="Trazado_158969" data-name="Trazado 158969" d="M439.866,120.333c0,.118-3.882.464-8.69.775a81.65,81.65,0,0,1-8.706.329,85.172,85.172,0,0,1,8.682-.767C435.951,120.366,439.858,120.215,439.866,120.333Z" transform="translate(-197.515 -63.987)" fill="#fff"/>
      <path id="Trazado_158970" data-name="Trazado 158970" d="M439.876,125.823a83.93,83.93,0,0,1-8.69.775,84.473,84.473,0,0,1-8.706.329,85.161,85.161,0,0,1,8.682-.767C435.969,125.856,439.868,125.7,439.876,125.823Z" transform="translate(-197.517 -64.85)" fill="#fff"/>
      <path id="Trazado_158971" data-name="Trazado 158971" d="M436.25,131.208a27.73,27.73,0,0,1-4.943.539,28.039,28.039,0,0,1-4.967.093,28.241,28.241,0,0,1,4.943-.531,28.586,28.586,0,0,1,4.967-.1Z" transform="translate(-198.299 -65.694)" fill="#fff"/>
      <path id="Trazado_158972" data-name="Trazado 158972" d="M453.18,110s.175,21.852,1.228,28.518l25.926-1.289s-2.28-21.481-1.4-27.229Z" transform="translate(-203.742 -62.368)" fill="#dce736"/>
      <path id="Trazado_158973" data-name="Trazado 158973" d="M476.154,120.883a83.916,83.916,0,0,1-8.69.775c-4.807.3-8.706.455-8.714.337a86.514,86.514,0,0,1,8.69-.775C472.247,120.916,476.146,120.765,476.154,120.883Z" transform="translate(-204.871 -64.073)" fill="#fff"/>
      <path id="Trazado_158974" data-name="Trazado 158974" d="M476.164,126.381c0,.118-3.883.464-8.69.767s-8.706.455-8.714.337,3.883-.463,8.69-.775A81.786,81.786,0,0,1,476.164,126.381Z" transform="translate(-204.873 -64.937)" fill="#fff"/>
      <path id="Trazado_158975" data-name="Trazado 158975" d="M472.538,131.768a28.247,28.247,0,0,1-4.943.531,28.667,28.667,0,0,1-4.975.1,27.89,27.89,0,0,1,4.951-.539A29.045,29.045,0,0,1,472.538,131.768Z" transform="translate(-205.656 -65.781)" fill="#fff"/>
      <path id="Trazado_158976" data-name="Trazado 158976" d="M493.26,111.17s.175,21.844,1.22,28.518l25.934-1.3s-2.28-21.481-1.4-27.22Z" transform="translate(-211.868 -62.552)" fill="#dce736"/>
      <path id="Trazado_158977" data-name="Trazado 158977" d="M516.234,122.051c0,.118-3.883.463-8.69.767s-8.706.455-8.714.337,3.883-.464,8.69-.775A81.78,81.78,0,0,1,516.234,122.051Z" transform="translate(-212.998 -64.256)" fill="#fff"/>
      <path id="Trazado_158978" data-name="Trazado 158978" d="M516.244,127.543c0,.118-3.883.463-8.69.767a86.158,86.158,0,0,1-8.714.337,85.176,85.176,0,0,1,8.69-.767C512.337,127.576,516.236,127.425,516.244,127.543Z" transform="translate(-213 -65.121)" fill="#fff"/>
      <path id="Trazado_158979" data-name="Trazado 158979" d="M512.618,132.937a28.236,28.236,0,0,1-4.943.531,28.664,28.664,0,0,1-4.975.1A57.534,57.534,0,0,1,512.618,132.937Z" transform="translate(-213.783 -65.973)" fill="#fff"/>
      <path id="Trazado_158980" data-name="Trazado 158980" d="M540.89,109.82s.175,21.852,1.228,28.518l25.966-1.3s-2.272-21.481-1.4-27.22Z" transform="translate(-221.526 -62.34)" fill="#dce736"/>
      <path id="Trazado_158981" data-name="Trazado 158981" d="M563.866,120.7a83.916,83.916,0,0,1-8.682.775c-4.8.3-8.706.455-8.714.337a86.513,86.513,0,0,1,8.69-.775C559.967,120.736,563.858,120.585,563.866,120.7Z" transform="translate(-222.658 -64.045)" fill="#fff"/>
      <path id="Trazado_158982" data-name="Trazado 158982" d="M563.876,126.2c0,.118-3.882.464-8.682.767s-8.706.455-8.714.337a86.492,86.492,0,0,1,8.682-.775A84.518,84.518,0,0,1,563.876,126.2Z" transform="translate(-222.66 -64.909)" fill="#fff"/>
      <path id="Trazado_158983" data-name="Trazado 158983" d="M560.25,131.587a28.1,28.1,0,0,1-4.943.531,28.588,28.588,0,0,1-4.967.1,27.728,27.728,0,0,1,4.943-.539A28.039,28.039,0,0,1,560.25,131.587Z" transform="translate(-223.442 -65.752)" fill="#fff"/>
      <path id="Trazado_158984" data-name="Trazado 158984" d="M544.85,152.09s.175,21.852,1.228,28.518L572,179.31s-2.272-21.481-1.4-27.22Z" transform="translate(-222.329 -68.987)" fill="#dce736"/>
      <path id="Trazado_158985" data-name="Trazado 158985" d="M567.826,162.991a83.9,83.9,0,0,1-8.682.775c-4.8.3-8.706.455-8.714.337a86.517,86.517,0,0,1,8.69-.775A83.215,83.215,0,0,1,567.826,162.991Z" transform="translate(-223.461 -70.694)" fill="#fff"/>
      <path id="Trazado_158986" data-name="Trazado 158986" d="M567.836,168.472c0,.118-3.883.464-8.682.767s-8.706.455-8.714.337a86.5,86.5,0,0,1,8.69-.775A84.479,84.479,0,0,1,567.836,168.472Z" transform="translate(-223.463 -71.557)" fill="#fff"/>
      <path id="Trazado_158987" data-name="Trazado 158987" d="M564.218,173.857a57.529,57.529,0,0,1-9.918.632,27.725,27.725,0,0,1,4.943-.539A28.127,28.127,0,0,1,564.218,173.857Z" transform="translate(-224.245 -72.4)" fill="#fff"/>
      <path id="Trazado_158988" data-name="Trazado 158988" d="M569.47,113.45s.175,21.852,1.228,28.518l25.926-1.3s-2.28-21.481-1.4-27.22Z" transform="translate(-227.321 -62.911)" fill="#455a64"/>
      <path id="Trazado_158989" data-name="Trazado 158989" d="M592.444,124.331c0,.118-3.882.464-8.69.767s-8.706.455-8.714.337,3.883-.464,8.69-.775A81.788,81.788,0,0,1,592.444,124.331Z" transform="translate(-228.451 -64.615)" fill="#fff"/>
      <path id="Trazado_158990" data-name="Trazado 158990" d="M592.454,129.823c0,.118-3.883.463-8.69.775a81.783,81.783,0,0,1-8.714.329,85.184,85.184,0,0,1,8.69-.767C588.547,129.856,592.446,129.7,592.454,129.823Z" transform="translate(-228.453 -65.479)" fill="#fff"/>
      <path id="Trazado_158991" data-name="Trazado 158991" d="M588.827,135.217a27.727,27.727,0,0,1-4.943.539,29.12,29.12,0,0,1-4.975.093A57.536,57.536,0,0,1,588.827,135.217Z" transform="translate(-229.235 -66.332)" fill="#fff"/>
      <path id="Trazado_158992" data-name="Trazado 158992" d="M425.68,130.62s.175,21.852,1.22,28.518l25.934-1.3s-2.28-21.481-1.4-27.22Z" transform="translate(-198.166 -65.611)" fill="#455a64"/>
      <path id="Trazado_158993" data-name="Trazado 158993" d="M448.654,141.5a86.825,86.825,0,0,1-8.69.775,84.569,84.569,0,0,1-8.714.329,85.182,85.182,0,0,1,8.69-.767C444.747,141.536,448.646,141.385,448.654,141.5Z" transform="translate(-199.295 -67.316)" fill="#fff"/>
      <path id="Trazado_158994" data-name="Trazado 158994" d="M448.664,146.993a83.932,83.932,0,0,1-8.69.775c-4.807.3-8.706.455-8.714.337a86.518,86.518,0,0,1,8.69-.775C444.757,147.026,448.656,146.875,448.664,146.993Z" transform="translate(-199.297 -68.18)" fill="#fff"/>
      <path id="Trazado_158995" data-name="Trazado 158995" d="M445.038,152.386a29.238,29.238,0,0,1-4.943.531,27.156,27.156,0,0,1-4.975.093,29.41,29.41,0,0,1,4.951-.531A27.1,27.1,0,0,1,445.038,152.386Z" transform="translate(-200.08 -69.023)" fill="#fff"/>
      <path id="Trazado_158996" data-name="Trazado 158996" d="M421.59,188.17s.167,21.852,1.22,28.518l25.934-1.3s-2.28-21.481-1.4-27.22Z" transform="translate(-197.336 -74.661)" fill="#dce736"/>
      <path id="Trazado_158997" data-name="Trazado 158997" d="M444.574,199.051c0,.118-3.883.463-8.69.767s-8.706.455-8.714.337,3.883-.464,8.69-.775A81.821,81.821,0,0,1,444.574,199.051Z" transform="translate(-198.468 -76.366)" fill="#fff"/>
      <path id="Trazado_158998" data-name="Trazado 158998" d="M444.576,204.543c0,.118-3.883.463-8.682.775a81.771,81.771,0,0,1-8.714.329,85.169,85.169,0,0,1,8.69-.767C440.677,204.576,444.576,204.425,444.576,204.543Z" transform="translate(-198.47 -77.23)" fill="#fff"/>
      <path id="Trazado_158999" data-name="Trazado 158999" d="M440.948,209.928a27.723,27.723,0,0,1-4.943.539,29.126,29.126,0,0,1-4.975.093,28.242,28.242,0,0,1,4.943-.531A28.661,28.661,0,0,1,440.948,209.928Z" transform="translate(-199.25 -78.073)" fill="#fff"/>
      <path id="Trazado_159000" data-name="Trazado 159000" d="M313,131.85s2.1,20.226-.6,31.316l-25.583-1.18s5.485-19.964,2.121-28.813Z" transform="translate(-170.009 -65.805)" fill="#ebebeb"/>
      <path id="Trazado_159001" data-name="Trazado 159001" d="M285.884,127.77s-1.594,22.956-3.014,27.583l23.3,2.6,3.5-3.523s2.479-20.226,2.129-25.982Z" transform="translate(-169.208 -65.163)" fill="#455a64"/>
      <path id="Trazado_159002" data-name="Trazado 159002" d="M312.626,159.18l-.526,3.7,3.5-3.514Z" transform="translate(-175.135 -70.103)" fill="#263238"/>
      <path id="Trazado_159003" data-name="Trazado 159003" d="M308.58,141.052a17.757,17.757,0,0,1-2.615-.329l-6.226-.961-6.29-.843a18.324,18.324,0,0,1-2.6-.4,14.188,14.188,0,0,1,2.631.093c1.594.126,3.851.362,6.306.7s4.672.742,6.266,1.07A14.249,14.249,0,0,1,308.58,141.052Z" transform="translate(-170.827 -66.849)" fill="#fff"/>
      <path id="Trazado_159004" data-name="Trazado 159004" d="M307.477,147.105a13.006,13.006,0,0,1-2.519-.093c-1.547-.118-3.691-.337-6.043-.657s-4.48-.666-6.011-.952a13.264,13.264,0,0,1-2.463-.573,15.987,15.987,0,0,1,2.5.27l6.019.843,6.027.775A15.612,15.612,0,0,1,307.477,147.105Z" transform="translate(-170.743 -67.846)" fill="#fff"/>
      <path id="Trazado_159005" data-name="Trazado 159005" d="M306.03,152.646a71.146,71.146,0,0,1-7.837-.893,70.7,70.7,0,0,1-7.773-1.323,71.141,71.141,0,0,1,7.829.893,70.655,70.655,0,0,1,7.781,1.323Z" transform="translate(-170.739 -68.726)" fill="#fff"/>
      <path id="Trazado_159006" data-name="Trazado 159006" d="M216.374,160.59s-1.594,22.956-3.014,27.583l23.3,2.6,3.5-3.523s2.479-20.226,2.129-25.982Z" transform="translate(-155.114 -70.324)" fill="#455a64"/>
      <path id="Trazado_159007" data-name="Trazado 159007" d="M243.116,192l-.526,3.708,3.5-3.523Z" transform="translate(-161.041 -75.264)" fill="#263238"/>
      <path id="Trazado_159008" data-name="Trazado 159008" d="M239.06,173.877a15.284,15.284,0,0,1-2.615-.329l-6.266-.935-6.29-.843a15.71,15.71,0,0,1-2.6-.4,14.2,14.2,0,0,1,2.631.093c1.594.126,3.851.362,6.306.708s4.672.733,6.266,1.062a15.186,15.186,0,0,1,2.567.649Z" transform="translate(-156.722 -72.015)" fill="#fff"/>
      <path id="Trazado_159009" data-name="Trazado 159009" d="M237.975,179.935a13.649,13.649,0,0,1-2.527-.1c-1.547-.118-3.691-.337-6.043-.649s-4.48-.666-6.011-.961a14.763,14.763,0,0,1-2.463-.565,14.149,14.149,0,0,1,2.5.261l6.019.843,6.027.784A14.707,14.707,0,0,1,237.975,179.935Z" transform="translate(-156.649 -73.009)" fill="#fff"/>
      <path id="Trazado_159010" data-name="Trazado 159010" d="M236.51,185.474a72.25,72.25,0,0,1-7.837-.843A69.44,69.44,0,0,1,220.9,183.3a70.924,70.924,0,0,1,7.829.893,70.624,70.624,0,0,1,7.781,1.281Z" transform="translate(-156.643 -73.896)" fill="#fff"/>
      <rect id="Rectángulo_41207" data-name="Rectángulo 41207" width="19.468" height="4.702" transform="translate(17.292 46.797)" fill="#dce736"/>
      <rect id="Rectángulo_41208" data-name="Rectángulo 41208" width="19.468" height="4.702" transform="translate(17.292 159.143)" fill="#263238"/>
      <rect id="Rectángulo_41209" data-name="Rectángulo 41209" width="19.468" height="4.702" transform="translate(17.292 197.159)" fill="#263238"/>
      <rect id="Rectángulo_41210" data-name="Rectángulo 41210" width="67.207" height="4.702" transform="translate(91.578 19.021)" fill="#e0e0e0"/>
      <rect id="Rectángulo_41211" data-name="Rectángulo 41211" width="67.207" height="4.702" transform="translate(225.45 19.021)" fill="#e0e0e0"/>
      <rect id="Rectángulo_41212" data-name="Rectángulo 41212" width="32.097" height="4.702" transform="translate(325.239 19.021)" fill="#e0e0e0"/>
      <path id="Trazado_159011" data-name="Trazado 159011" d="M509.763,99.959c0,.126-78.791.228-175.973.228S157.8,100.069,157.8,99.959s78.783-.219,175.989-.219S509.763,99.824,509.763,99.959Z" transform="translate(-143.848 -60.755)" fill="#263238"/>
      <path id="Trazado_159012" data-name="Trazado 159012" d="M509.763,232.639c0,.126-78.791.219-175.973.219s-175.989-.093-175.989-.219,78.783-.219,175.989-.219S509.763,232.521,509.763,232.639Z" transform="translate(-143.848 -81.62)" fill="#263238"/>
      <path id="Trazado_159013" data-name="Trazado 159013" d="M509.763,323.719c0,.126-78.791.219-175.973.219s-175.989-.093-175.989-.219,78.783-.219,175.989-.219S509.763,323.6,509.763,323.719Z" transform="translate(-143.848 -95.944)" fill="#263238"/>
      <path id="Trazado_159014" data-name="Trazado 159014" d="M509.763,279.319c0,.118-78.791.219-175.973.219s-175.989-.1-175.989-.219,78.783-.219,175.989-.219S509.763,279.193,509.763,279.319Z" transform="translate(-143.848 -88.961)" fill="#263238"/>
      <path id="Trazado_159015" data-name="Trazado 159015" d="M195.167,285.378c-.12,0-.207-47.522-.207-106.143s.088-106.185.207-106.185.207,47.522.207,106.185S195.279,285.378,195.167,285.378Z" transform="translate(-151.383 -56.558)" fill="#263238"/>
      <path id="Trazado_159016" data-name="Trazado 159016" d="M399.137,286.719c-.112,0-.207-47.455-.207-105.974s.1-105.974.207-105.974.207,47.438.207,105.974S399.249,286.719,399.137,286.719Z" transform="translate(-192.742 -56.828)" fill="#263238"/>
      <path id="Trazado_159017" data-name="Trazado 159017" d="M531.227,288.033c-.112,0-.207-47.455-.207-105.983s.1-106,.207-106,.207,47.455.207,106S531.347,288.033,531.227,288.033Z" transform="translate(-219.525 -57.029)" fill="#263238"/>
      <path id="Trazado_159018" data-name="Trazado 159018" d="M442.426,182.281l.311.118.925.4a17.651,17.651,0,0,1,3.245,2.115,19.225,19.225,0,0,1,4.114,4.66,21.92,21.92,0,0,1,1.818,3.506,22.963,22.963,0,0,1,1.22,4.29,21.078,21.078,0,0,1-.845,10.163,22.15,22.15,0,0,1-6.33,9.616,19.663,19.663,0,0,1-11.313,4.8,21.125,21.125,0,0,1-12.8-2.9,22.5,22.5,0,0,1-8.857-10.189,21.071,21.071,0,0,1-1.443-12.784,20.647,20.647,0,0,1,5.341-10.222,16.5,16.5,0,0,1,4.13-3.084,16.938,16.938,0,0,1,4.4-1.685,26.016,26.016,0,0,1,7.972-.531,47.669,47.669,0,0,1,5.979.843c1.595.32,2.878.632,3.731.843l.957.244a1.96,1.96,0,0,1,.327.1l-.335-.051-.973-.211c-.853-.185-2.1-.464-3.731-.758a47.8,47.8,0,0,0-5.971-.775,25.863,25.863,0,0,0-7.893.582,17.228,17.228,0,0,0-4.321,1.643,16.53,16.53,0,0,0-4.034,3.051,20.224,20.224,0,0,0-5.238,10.071,20.679,20.679,0,0,0,1.435,12.515,22.171,22.171,0,0,0,8.7,9.995,20.836,20.836,0,0,0,12.564,2.849,19.287,19.287,0,0,0,11.105-4.686,21.9,21.9,0,0,0,6.25-9.4,20.729,20.729,0,0,0,.869-9.978,21.994,21.994,0,0,0-1.164-4.214,22.605,22.605,0,0,0-1.77-3.481,19.591,19.591,0,0,0-3.986-4.66,19.16,19.16,0,0,0-3.189-2.174l-.9-.438a1.617,1.617,0,0,1-.295-.185Z" transform="translate(-195.403 -73.449)" fill="#263238"/>
      <path id="Trazado_159019" data-name="Trazado 159019" d="M460.66,183.467c-.072-.1,3.117-2.907,7.119-6.278a90.511,90.511,0,0,1,7.382-5.9c.072.118-3.117,2.9-7.119,6.27S460.731,183.56,460.66,183.467Z" transform="translate(-205.258 -72.006)" fill="#263238"/>
      <path id="Trazado_159020" data-name="Trazado 159020" d="M473.031,184.081a4.786,4.786,0,0,1-1.02.152l-2.806.253c-2.392.2-5.66.447-9.312.691h-.3l.088-.3a1.4,1.4,0,0,1,.112-.371,39.314,39.314,0,0,1,3.986-9.211c.662-1.1,1.244-1.947,1.666-2.528a5.09,5.09,0,0,1,.7-.843,6.518,6.518,0,0,1-.566.952c-.383.6-.925,1.466-1.555,2.579a44.351,44.351,0,0,0-3.867,9.186l-.1.362-.207-.287c3.651-.244,6.936-.438,9.32-.556l2.814-.118A4.429,4.429,0,0,1,473.031,184.081Z" transform="translate(-205.041 -72.106)" fill="#263238"/>
      <path id="Trazado_159021" data-name="Trazado 159021" d="M585.687,240.894a18.974,18.974,0,0,1,.686-1.787,32.814,32.814,0,0,0-8.132-36.238,31.179,31.179,0,0,0-3.986-3.11c-1-.649-1.595-.986-1.595-1.02a2.615,2.615,0,0,1,.431.2c.279.152.7.346,1.2.666a27.061,27.061,0,0,1,4.1,3.025,30.423,30.423,0,0,1,5.055,5.739,32.284,32.284,0,0,1,4.13,8.545,33.352,33.352,0,0,1,.534,17.259,30.222,30.222,0,0,1-1.595,4.989c-.231.573-.462.994-.6,1.289A3.389,3.389,0,0,1,585.687,240.894Z" transform="translate(-227.968 -76.324)" fill="#263238"/>
      <path id="Trazado_159022" data-name="Trazado 159022" d="M595.5,242.455a18.783,18.783,0,0,1-2.1,1.947L591,246.416l-1.4,1.171a2.927,2.927,0,0,1-1.81.961,1.158,1.158,0,0,1-.933-.674,4.382,4.382,0,0,1-.327-.994c-.152-.632-.3-1.247-.439-1.829-.271-1.146-.51-2.191-.725-3.11a19.957,19.957,0,0,1-.566-2.891,19.87,19.87,0,0,1,.845,2.806c.247.919.518,1.955.8,3.084.151.59.3,1.2.47,1.829s.343,1.315.885,1.34a2.689,2.689,0,0,0,1.531-.843l1.419-1.155,2.392-1.938A19.682,19.682,0,0,1,595.5,242.455Z" transform="translate(-230.432 -82.663)" fill="#263238"/>
      <path id="Trazado_159023" data-name="Trazado 159023" d="M334.284,182.329c0,.118-7.917,2.36-17.746,5.006s-17.826,4.686-17.858,4.568,7.916-2.351,17.754-5S334.26,182.211,334.284,182.329Z" transform="translate(-172.414 -73.742)" fill="#263238"/>
      <path id="Trazado_159024" data-name="Trazado 159024" d="M339.838,187.629c0,.118-8.706,2.789-19.508,5.975s-19.6,5.672-19.62,5.554,8.7-2.789,19.508-5.975S339.814,187.511,339.838,187.629Z" transform="translate(-172.826 -74.576)" fill="#263238"/>
      <path id="Trazado_159025" data-name="Trazado 159025" d="M344.212,196.389c0,.118-8.331,2.334-18.663,4.955s-18.727,4.635-18.759,4.517,8.331-2.326,18.663-4.947S344.188,196.271,344.212,196.389Z" transform="translate(-174.059 -75.953)" fill="#263238"/>
      <path id="Trazado_159026" data-name="Trazado 159026" d="M298.32,285.769l6.338,35.412,63.324-12.675-11.01-34.476Z" transform="translate(-172.341 -88.164)" fill="#ebebeb"/>
      <path id="Trazado_159180" data-name="Trazado 159180" d="M.315.637,61.472,0l-.315,31.863L0,32.5Z" transform="translate(124.234 197.296) rotate(-10.72)" fill="#fff"/>
      <path id="Trazado_159027" data-name="Trazado 159027" d="M362.208,305.359s-.048-.194-.12-.565-.175-.927-.311-1.635c-.271-1.45-.662-3.556-1.156-6.262-1-5.419-2.392-13.239-4.185-22.872l.183.126-59.96,12.06h0l.167-.253c1.977,11.057,3.875,21.667,5.581,31.367l-.223-.169,43.051-8.512,12.437-2.436,3.332-.64.869-.16.3-.051a2.158,2.158,0,0,1-.279.076l-.8.177-3.285.683-12.381,2.528-43.154,8.739h-.191v-.2c-1.738-9.7-3.643-20.31-5.628-31.367l-.04-.211.207-.042h0l59.984-11.95h.152v.16l4.034,23.007c.47,2.688.8,4.787,1.084,6.236.112.7.207,1.23.271,1.61A3.008,3.008,0,0,1,362.208,305.359Z" transform="translate(-171.956 -88.126)" fill="#263238"/>
      <path id="Trazado_159181" data-name="Trazado 159181" d="M.176.176,17.087,0l-.176,17.807L0,17.984Z" transform="translate(131.665 203.459) rotate(-10.72)" fill="#fff"/>
      <path id="Trazado_159028" data-name="Trazado 159028" d="M325.4,308.628a3.227,3.227,0,0,1-.08-.337c-.048-.253-.112-.565-.191-.952-.167-.843-.4-2.065-.686-3.573-.574-3.093-1.387-7.433-2.392-12.641l.215.152-16.574,3.371c-.04.059.311-.48.159-.253h0v.278l.056.3.1.6.215,1.188c.136.792.279,1.568.415,2.343q.418,2.326.8,4.534c.518,2.941,1.012,5.722,1.459,8.276l-.207-.152,11.958-2.3,3.4-.632,1-.143a1.753,1.753,0,0,1,.327-.042,1.03,1.03,0,0,1-.279.076l-.869.2-3.34.716-12.054,2.528h-.183v-.185l-1.5-8.267c-.263-1.466-.542-2.983-.8-4.525-.136-.775-.279-1.559-.415-2.343l-.215-1.188-.112-.6-.048-.3v-.278h0l.167-.261,16.582-3.287h.183v.185c.9,5.259,1.658,9.658,2.192,12.784.247,1.5.446,2.688.59,3.548.056.379.1.683.143.927A1.275,1.275,0,0,1,325.4,308.628Z" transform="translate(-173.809 -90.822)" fill="#263238"/>
      <path id="Trazado_159029" data-name="Trazado 159029" d="M326.173,309.478s-.088-.455-.327-1.256a6.232,6.232,0,0,0-1.754-2.941h0a5.9,5.9,0,0,0-4.839-1.652h-.375l.2-.329a4.655,4.655,0,0,0,.151-4.214,3.956,3.956,0,0,0-1.467-1.744,3.813,3.813,0,0,0-2.248-.548,4.089,4.089,0,0,0-2.448.944,3.881,3.881,0,0,0-1.291,2.216,4.646,4.646,0,0,0,1.363,4.374l.2.169-.215.135a7.561,7.561,0,0,0-2.5,2.7,8.554,8.554,0,0,0-.957,2.764,12.075,12.075,0,0,0-.064,2.579,3.948,3.948,0,0,1-.143-.674,7.784,7.784,0,0,1,0-1.938,8.428,8.428,0,0,1,.909-2.874,7.632,7.632,0,0,1,2.567-2.865v.3a5.008,5.008,0,0,1-1.531-4.762,4.26,4.26,0,0,1,1.411-2.461,4.486,4.486,0,0,1,2.671-1.053,4.181,4.181,0,0,1,2.479.615,4.37,4.37,0,0,1,1.594,1.938,5.07,5.07,0,0,1-.207,4.585l-.175-.295a6.317,6.317,0,0,1,2.934.4,6.2,6.2,0,0,1,2.129,1.433h0a6.182,6.182,0,0,1,1.746,3.135,6.838,6.838,0,0,1,.167.961Q326.2,309.478,326.173,309.478Z" transform="translate(-174.587 -91.672)" fill="#263238"/>
      <path id="Trazado_159030" data-name="Trazado 159030" d="M334.44,289.864l14.35-2.874" transform="translate(-179.665 -90.202)" fill="#fff"/>
      <path id="Trazado_159031" data-name="Trazado 159031" d="M348.816,287a62.079,62.079,0,0,1-7.175,1.685,62.031,62.031,0,0,1-7.231,1.222,61.608,61.608,0,0,1,7.175-1.686A58.014,58.014,0,0,1,348.816,287Z" transform="translate(-179.659 -90.204)" fill="#263238"/>
      <path id="Trazado_159032" data-name="Trazado 159032" d="M335.23,294.481l2.91-.581" transform="translate(-179.825 -91.289)" fill="#fff"/>
      <path id="Trazado_159033" data-name="Trazado 159033" d="M338.14,293.887c0,.118-.614.346-1.411.506s-1.475.194-1.5.076.614-.346,1.419-.506S338.116,293.769,338.14,293.887Z" transform="translate(-179.825 -91.276)" fill="#263238"/>
      <path id="Trazado_159034" data-name="Trazado 159034" d="M362.321,295.768c0,.118-5.716,1.374-12.812,2.79s-12.875,2.478-12.9,2.36,5.716-1.374,12.82-2.789S362.3,295.65,362.321,295.768Z" transform="translate(-180.105 -91.581)" fill="#263238"/>
      <path id="Trazado_159035" data-name="Trazado 159035" d="M363.154,299.378c0,.118-5.748,1.374-12.883,2.806s-12.947,2.528-12.971,2.368,5.748-1.374,12.891-2.8S363.138,299.26,363.154,299.378Z" transform="translate(-180.245 -92.149)" fill="#263238"/>
      <path id="Trazado_159036" data-name="Trazado 159036" d="M363.536,303.68a4.867,4.867,0,0,1-.989.278l-2.711.615c-2.288.5-5.461,1.163-8.969,1.862s-6.7,1.315-9,1.736l-2.734.472a3.95,3.95,0,0,1-1.012.118,5.165,5.165,0,0,1,.981-.287l2.711-.607c2.3-.506,5.469-1.163,8.977-1.862s6.689-1.315,9-1.736l2.734-.48a4.1,4.1,0,0,1,1.012-.11Z" transform="translate(-180.411 -92.827)" fill="#263238"/>
      <path id="Trazado_159037" data-name="Trazado 159037" d="M335.612,285.919a.606.606,0,0,1,.159-.1l.478-.261a16.076,16.076,0,0,1,1.937-.843,16.746,16.746,0,0,1,7.638-.742,15.574,15.574,0,0,1,5.11,1.551,7.037,7.037,0,0,1,2.352,1.964,3.921,3.921,0,0,1,.717,3.27,5.463,5.463,0,0,1-1.969,2.857,15.9,15.9,0,0,1-2.974,1.862,27.029,27.029,0,0,1-6.84,2.478,15.732,15.732,0,0,1-7.231-.1,10.319,10.319,0,0,1-3.189-1.4,5.479,5.479,0,0,1-2.184-2.688,4.1,4.1,0,0,1,.351-3.371A7.96,7.96,0,0,1,332,288.076a19.642,19.642,0,0,1,12.206-4.1,16.537,16.537,0,0,1,2.081.169l.534.084.183.051h-.183l-.542-.051c-.47-.042-1.172-.084-2.073-.076a20.1,20.1,0,0,0-7.43,1.534,19.833,19.833,0,0,0-4.56,2.68,7.691,7.691,0,0,0-1.937,2.225,3.734,3.734,0,0,0-.3,3.009,5.132,5.132,0,0,0,2.041,2.469,9.8,9.8,0,0,0,3.093,1.331,15.4,15.4,0,0,0,7.048.093,26.9,26.9,0,0,0,6.737-2.436,15.592,15.592,0,0,0,2.91-1.8,5.044,5.044,0,0,0,1.842-2.629,3.518,3.518,0,0,0-.63-2.933,6.67,6.67,0,0,0-2.224-1.871,15.564,15.564,0,0,0-4.991-1.576,17.266,17.266,0,0,0-7.526.607,18.025,18.025,0,0,0-2.017.809l-.494.219A.388.388,0,0,1,335.612,285.919Z" transform="translate(-178.644 -89.704)" fill="#dce736"/>
      <path id="Trazado_159038" data-name="Trazado 159038" d="M358.76,284.361a79.637,79.637,0,0,1,8.786-7.551,39,39,0,0,1-4.265,3.944A39.81,39.81,0,0,1,358.76,284.361Z" transform="translate(-184.596 -88.601)" fill="#dce736"/>
      <path id="Trazado_159039" data-name="Trazado 159039" d="M364.012,284.259a31.083,31.083,0,0,1-4.975,1.306l-.6.126-.319.067.072-.337a11.68,11.68,0,0,1,1.8-4.382c.1.051-.8,1.9-1.4,4.492l-.239-.27.6-.126A29.858,29.858,0,0,1,364.012,284.259Z" transform="translate(-184.467 -89.266)" fill="#dce736"/>
      <path id="Trazado_159040" data-name="Trazado 159040" d="M350.255,289.41a74.155,74.155,0,0,1-7.893,1.5,75.148,75.148,0,0,1-7.972,1.07,72.8,72.8,0,0,1,7.893-1.509,71.219,71.219,0,0,1,7.972-1.062Z" transform="translate(-179.655 -90.583)" fill="#dce736"/>
      <path id="Trazado_159041" data-name="Trazado 159041" d="M329.883,280.818a3.886,3.886,0,0,1-2.934,4.549,3.7,3.7,0,0,1-4.3-3.1,3.886,3.886,0,0,1,2.933-4.55A3.7,3.7,0,0,1,329.883,280.818Z" transform="translate(-177.26 -88.733)" fill="#dce736"/>
      <path id="Trazado_159042" data-name="Trazado 159042" d="M326.251,285.451a3.679,3.679,0,0,1-3.266-2.089,4.1,4.1,0,0,1,.221-4.029,3.633,3.633,0,0,1,2.392-1.685,3.2,3.2,0,0,1,.686-.067,3.76,3.76,0,0,1,3.635,3.186h0a3.9,3.9,0,0,1-2.942,4.568,3.378,3.378,0,0,1-.726.118Zm0-7.787a3.086,3.086,0,0,0-.678.067,3.861,3.861,0,0,0-2.91,4.521,3.676,3.676,0,0,0,4.275,3.08,3.861,3.861,0,0,0,2.917-4.516h0a3.736,3.736,0,0,0-3.6-3.152Z" transform="translate(-177.256 -88.722)" fill="#263238"/>
    </g>
    <g id="freepik--character-2--inject-26" transform="translate(-1553.476 -9806.352)">
      <path id="Trazado_159075" data-name="Trazado 159075" d="M555.02,174.18c0,5.006,6.234,8.259,6,13.256-.1,2.149-1.419,4.037-1.73,6.16-.423,2.848,1.013,5.613,1.483,8.427.972,5.9-2.392,11.9-7.263,14.925s-10.834,3.43-16.383,2.436" transform="translate(-433.514 -159.35)" fill="#263238"/>
      <path id="Trazado_159076" data-name="Trazado 159076" d="M509.74,171.19c.1,2.688-1.642,5.056-3.4,6.986s-3.7,3.995-4.146,6.649c-.8,4.7,3.452,9.27,2.392,13.88-.558,2.486-2.559,4.433-2.982,6.953s.8,4.879,2.24,6.792,3.269,1.686,4.568,3.767a19.825,19.825,0,0,0,5.732,5.747c4.783,3,10.826-.9,13.218-1.559" transform="translate(-426.294 -158.88)" fill="#263238"/>
      <path id="Trazado_159077" data-name="Trazado 159077" d="M550.713,174.328c.136-2.436-1.937-4.391-4.05-5.351s-4.5-1.382-6.378-2.815c-1.658-1.256-2.742-3.177-4.122-4.761a13.721,13.721,0,0,0-13.717-4.409,14.577,14.577,0,0,0-10.36,10.477c-.925,3.447-.486,7.585,2.025,9.953,2.926,2.781,7.39,2.334,11.265,1.635s8.251-1.374,11.384,1.121c1.9,1.508,2.934,3.885,4.05,6.093s2.535,4.475,4.783,5.368,5.294-.413,5.461-2.916" transform="translate(-428.345 -156.582)" fill="#263238"/>
      <path id="Trazado_159078" data-name="Trazado 159078" d="M541.276,175.4l-20.282-6.211c-6.529-.969-11.161,7.4-11.8,14.327-.717,7.711-1.3,17.141-.622,22.939,1.371,11.647,9.718,13.425,9.718,13.425s-.1,3.371-.207,7.526c-.191,6.763,4.768,12.447,11.161,12.793h0c6.418.327,11.9-4.844,12.317-11.621l2.982-48.929a4.03,4.03,0,0,0-3.269-4.247Z" transform="translate(-427.662 -158.552)" fill="#ffbe9d"/>
      <path id="Trazado_159079" data-name="Trazado 159079" d="M511.19,196.008a1.457,1.457,0,0,0,1.3,1.551,1.305,1.305,0,0,0,1.005-.313,1.443,1.443,0,0,0-.814-2.527,1.3,1.3,0,0,0-1,.313A1.45,1.45,0,0,0,511.19,196.008Z" transform="translate(-428.253 -162.578)" fill="#263238"/>
      <path id="Trazado_159080" data-name="Trazado 159080" d="M511.215,193.138c.167.2,1.26-.6,2.774-.539s2.591.9,2.766.716-.088-.447-.558-.843a3.74,3.74,0,0,0-2.2-.843,3.578,3.578,0,0,0-2.216.674C511.3,192.7,511.135,193.045,511.215,193.138Z" transform="translate(-428.255 -162.093)" fill="#263238"/>
      <path id="Trazado_159081" data-name="Trazado 159081" d="M529.69,196.508A1.455,1.455,0,0,0,531,198.05a1.282,1.282,0,0,0,1-.3,1.434,1.434,0,0,0,.487-.976,1.456,1.456,0,0,0-1.307-1.551,1.3,1.3,0,0,0-1,.313A1.45,1.45,0,0,0,529.69,196.508Z" transform="translate(-432.005 -162.657)" fill="#263238"/>
      <path id="Trazado_159082" data-name="Trazado 159082" d="M529.855,194.128c.167.2,1.26-.59,2.774-.531s2.591.9,2.766.708-.088-.438-.558-.843a3.686,3.686,0,0,0-2.208-.843,3.585,3.585,0,0,0-2.208.666C529.967,193.7,529.776,194.044,529.855,194.128Z" transform="translate(-432.035 -162.249)" fill="#263238"/>
      <path id="Trazado_159083" data-name="Trazado 159083" d="M521.527,205.768a9.526,9.526,0,0,0-2.44-.556c-.383-.059-.749-.152-.8-.438a2.192,2.192,0,0,1,.3-1.2l1.244-3.068c1.73-4.365,3-7.964,2.83-8.04s-1.706,3.413-3.436,7.779l-1.2,3.093a2.441,2.441,0,0,0-.247,1.593.973.973,0,0,0,.614.615,2.654,2.654,0,0,0,.654.126A9.132,9.132,0,0,0,521.527,205.768Z" transform="translate(-429.582 -162.226)" fill="#263238"/>
      <path id="Trazado_159084" data-name="Trazado 159084" d="M520.818,228.717a25.3,25.3,0,0,0,14.669-3.447,14.306,14.306,0,0,1-14.757,6.346Z" transform="translate(-430.188 -167.384)" fill="#eb996e"/>
      <path id="Trazado_159085" data-name="Trazado 159085" d="M523.1,212.66a2.658,2.658,0,0,1,2.471-.986,2.511,2.511,0,0,1,1.69,1.037,1.562,1.562,0,0,1-1.945,2.368,5.627,5.627,0,0,1-1.89-1.289,1.656,1.656,0,0,1-.414-.489.556.556,0,0,1,0-.59" transform="translate(-430.633 -165.241)" fill="#dce736"/>
      <path id="Trazado_159086" data-name="Trazado 159086" d="M526.743,209.75c-.247,0-.3,1.685-1.754,2.891s-3.189.927-3.189,1.171c0,.11.383.354,1.116.4a3.9,3.9,0,0,0,2.679-.843,3.822,3.822,0,0,0,1.355-2.427C527.046,210.18,526.878,209.75,526.743,209.75Z" transform="translate(-430.405 -164.944)" fill="#263238"/>
      <path id="Trazado_159087" data-name="Trazado 159087" d="M529.118,190.855c.135.447,1.65.295,3.42.581s3.189.843,3.436.472c.112-.177-.128-.6-.694-1.037a5.718,5.718,0,0,0-5.222-.809C529.4,190.315,529.063,190.653,529.118,190.855Z" transform="translate(-431.888 -161.799)" fill="#263238"/>
      <path id="Trazado_159088" data-name="Trazado 159088" d="M512.1,187.709c.255.371,1.307,0,2.559.067s2.312.32,2.567-.051c.112-.177-.048-.548-.494-.91a3.429,3.429,0,0,0-2.065-.666,3.322,3.322,0,0,0-2.065.657C512.151,187.119,512.016,187.49,512.1,187.709Z" transform="translate(-428.434 -161.232)" fill="#263238"/>
      <path id="Trazado_159089" data-name="Trazado 159089" d="M546.9,215.149c-3.03.539-3.253-1.1-5.437-3.371a10.819,10.819,0,0,1-2.759-8.925c.423-2.84,1.969-5.68,1.116-8.427-1.124-3.6-5.82-4.854-6.96-8.427-.67-2.09.064-4.483-.7-6.531s-2.583-3.093-4.4-3.86-3.787-1.323-5.294-2.646-2.392-3.759-1.355-5.512a99.406,99.406,0,0,1,23.742,6.944c1.77.767,3.62,1.685,4.632,3.371s.941,4.113.8,6.245q-1.172,15.574-2.328,31.181" transform="translate(-430.173 -158.291)" fill="#263238"/>
      <path id="Trazado_159090" data-name="Trazado 159090" d="M562.466,194.833a8.683,8.683,0,0,1,7.105-7.656,8.336,8.336,0,0,1,8.911,5.128c1.427,3.32.8,7.281-.75,10.559-1.81,3.893-5.381,7.382-9.471,7.045-3.851-.312-6.84-3.995-7.829-7.939s-.423-8.116.159-12.152" transform="translate(-438.129 -161.378)" fill="#263238"/>
      <path id="Trazado_159091" data-name="Trazado 159091" d="M565.185,211.1a1.96,1.96,0,0,0,.6-.649,5.918,5.918,0,0,0,.885-2.292,11.924,11.924,0,0,0,0-3.666c-.183-1.365-.574-2.815-.845-4.34a11.409,11.409,0,0,1-.112-4.3c.263-1.281.869-2.36,1.156-3.371a4.622,4.622,0,0,0,.143-2.478,1.523,1.523,0,0,0-.407-.843,4.123,4.123,0,0,1,.223.843,4.879,4.879,0,0,1-.287,2.318,30.205,30.205,0,0,0-1.26,3.371,11.4,11.4,0,0,0,.064,4.492c.279,1.559.686,3,.877,4.323a12.172,12.172,0,0,1,.1,3.531,7.623,7.623,0,0,1-1.132,3.059Z" transform="translate(-439.183 -161.706)" fill="#455a64"/>
      <path id="Trazado_159092" data-name="Trazado 159092" d="M565.94,198.689a5.524,5.524,0,0,0,1.595,1.8,9.214,9.214,0,0,0,10.826.573,5.464,5.464,0,0,0,1.794-1.618c-.056-.067-.709.59-1.961,1.3a9.834,9.834,0,0,1-5.3,1.289,10,10,0,0,1-5.158-1.837C566.586,199.355,565.988,198.63,565.94,198.689Z" transform="translate(-439.355 -163.204)" fill="#455a64"/>
      <path id="Trazado_159093" data-name="Trazado 159093" d="M566.55,200.87a5.411,5.411,0,0,0,.877,1.846,11.923,11.923,0,0,0,7.789,5.318,4.841,4.841,0,0,0,1.953.084,16.79,16.79,0,0,0-1.889-.43A13.715,13.715,0,0,1,567.7,202.5a16.936,16.936,0,0,0-1.148-1.635Z" transform="translate(-439.479 -163.547)" fill="#455a64"/>
      <path id="Trazado_159094" data-name="Trazado 159094" d="M554.033,210.8a1.5,1.5,0,0,0,.128-.135,3.461,3.461,0,0,0,.287-.463,6.358,6.358,0,0,0,.8-2,7.613,7.613,0,0,0-.072-3.43,6.579,6.579,0,0,0-2.439-3.716c-1.276-1.011-2.95-1.744-3.986-3.32a3.669,3.669,0,0,1-.51-2.747,16.264,16.264,0,0,1,1.044-2.975,9.109,9.109,0,0,0,.072-6.919,7.56,7.56,0,0,0-2.137-3,8.551,8.551,0,0,0-3.316-1.584c-1.18-.329-2.392-.531-3.444-.919a6.78,6.78,0,0,1-2.854-1.778,5.217,5.217,0,0,1-1.172-3.084,26.52,26.52,0,0,0-.415-3.371,11.781,11.781,0,0,0-2.79-5.579,8.5,8.5,0,0,0-4.584-2.6,6.626,6.626,0,0,0-4.257.531,6.8,6.8,0,0,0-2.519,2.166,6.147,6.147,0,0,0-.917,1.938,3.172,3.172,0,0,0-.128.742,7.627,7.627,0,0,1,1.2-2.528,6.4,6.4,0,0,1,6.561-2.461,8.2,8.2,0,0,1,4.361,2.528,11.507,11.507,0,0,1,2.647,5.385,28.744,28.744,0,0,1,.391,3.371,5.731,5.731,0,0,0,1.276,3.371,7.171,7.171,0,0,0,3.053,1.921c1.14.4,2.32.607,3.476.935a8.013,8.013,0,0,1,3.141,1.492,7.09,7.09,0,0,1,1.993,2.789,8.613,8.613,0,0,1-.04,6.548,15.664,15.664,0,0,0-1.052,3.076,4.1,4.1,0,0,0,.6,3.059c1.148,1.686,2.87,2.41,4.1,3.371a6.206,6.206,0,0,1,2.392,3.5,7.459,7.459,0,0,1,.152,3.312A8,8,0,0,1,554.033,210.8Z" transform="translate(-430.206 -157.597)" fill="#455a64"/>
      <path id="Trazado_159095" data-name="Trazado 159095" d="M554.038,177.708a1.469,1.469,0,0,0,.151-.531,2.647,2.647,0,0,0-.319-1.551,3.834,3.834,0,0,0-1.786-1.685,5.4,5.4,0,0,0-3.141-.211c-1.156.185-2.392.632-3.675.843a4.644,4.644,0,0,1-3.946-.792c-1.132-.978-1.674-2.613-2.216-4.214a17.671,17.671,0,0,0-2.392-4.863,15.17,15.17,0,0,0-8.124-5.95,8.243,8.243,0,0,0-4.385,0,6.736,6.736,0,0,0-3.269,2.082,5.672,5.672,0,0,0-1.021,5.554,4.061,4.061,0,0,0,.8,1.357,1.688,1.688,0,0,0,.4.362,5.554,5.554,0,0,1-1-1.787,5.419,5.419,0,0,1,1.092-5.208,6.484,6.484,0,0,1,3.125-1.921,7.927,7.927,0,0,1,4.178.076,14.91,14.91,0,0,1,7.845,5.806,17.327,17.327,0,0,1,2.328,4.719c.558,1.618,1.1,3.371,2.392,4.45a4.036,4.036,0,0,0,2.137.927,7.012,7.012,0,0,0,2.153-.084c1.363-.253,2.551-.716,3.667-.919a5.164,5.164,0,0,1,2.982.126,3.6,3.6,0,0,1,1.73,1.5,2.678,2.678,0,0,1,.383,1.441C554.078,177.522,554.006,177.7,554.038,177.708Z" transform="translate(-429.957 -156.877)" fill="#455a64"/>
      <path id="Trazado_159096" data-name="Trazado 159096" d="M444.757,286.218s-6.067-10.029-7.127-10.871-10.484-4.3-11.281-4.02-12.11,2.528-10.787,3.936,9.216-.287,9.216-.287l1.068.539s-6.816,1.273-8.243,2.183c-1.307.843-.8,2.528.423,2.376s7.175-1.475,7.526-1.23-6.434,1.812-7.175,2.284c-.981.632-1.044,2.528.2,2.377.733-.067,7.127-1.93,7.127-1.93a53.056,53.056,0,0,0-5.525,2.638.991.991,0,0,0,.973,1.685c.757-.194,4.329-2.073,5.342-2.326,0,0,.949.253,1.842,2.267.415.944,2.336,6.809,5.684,6.675,2.958-.118,5.907,2.41,5.907,2.41Z" transform="translate(-408.842 -174.625)" fill="#ffbe9d"/>
      <path id="Trazado_159097" data-name="Trazado 159097" d="M415.62,275.873a5.115,5.115,0,0,0,2.081.573,11.526,11.526,0,0,0,2.336.059c.869-.118,1.81-.278,2.806-.438l2.113-.362h-.128a29.513,29.513,0,0,0,4.919,1.534,30.1,30.1,0,0,0-4.783-2.048h-.136l-2.089.337-2.774.48a15.022,15.022,0,0,1-2.264.051C416.433,276,415.644,275.814,415.62,275.873Z" transform="translate(-408.875 -175.235)" fill="#eb996e"/>
      <path id="Trazado_159098" data-name="Trazado 159098" d="M504.752,246s-6.434,4.121-8.77,9.211-14.717,39.213-14.717,39.213l-31.044-16.256L442.44,292.2l29.251,24.591a18.373,18.373,0,0,0,13.011,2.823h0c7-1.112,10.436-1.281,12.843-8.318l7.781-22.754L503.668,246.8" transform="translate(-414.314 -170.644)" fill="#dce736"/>
      <g id="Grupo_108828" data-name="Grupo 108828" transform="translate(72.55 95.295)" opacity="0.3">
        <path id="Trazado_159099" data-name="Trazado 159099" d="M507.337,269.66c-7.175,10.956-8.339,16.13-9.1,29.428-.255,4.416,0,9.177,2.487,12.708.909,1.289,2.687,2.393,3.859,1.365s.327-2.857-.056-4.382c-2.224-8.941-3.013-15.827-1.435-23.7s1.172-7.728,4.241-15.093" transform="translate(-498.162 -269.66)"/>
      </g>
      <path id="Trazado_159100" data-name="Trazado 159100" d="M494.828,317.131a32.313,32.313,0,0,0-3.9-13.661,7.09,7.09,0,0,1,1.164,1.736,23.12,23.12,0,0,1,2.79,9.793,7.8,7.8,0,0,1-.056,2.132Z" transform="translate(-424.146 -179.682)" fill="#263238"/>
      <path id="Trazado_159101" data-name="Trazado 159101" d="M507.544,345.806,503,428.243h74.326s-2.2-41.294-4.967-58.933c-2.894-31.181-12.094-35.8-18.552-50.842l3.643-72.939-15.729-7.694L541.084,234l-24.427,3.127-.718,7.762s-2.24,6.851-3.508,10.391c-3.938,10.956-9.327,24.119-8.538,33.71.359,4.357,6,33.33,6,33.33L507.72,345.73Z" transform="translate(-426.593 -168.757)" fill="#dce736"/>
      <path id="Trazado_159102" data-name="Trazado 159102" d="M513.395,254.55a3.881,3.881,0,0,1-.191.64c-.159.447-.375,1.037-.638,1.787-.558,1.551-1.419,3.767-2.487,6.514s-2.328,6-3.46,9.725a74.409,74.409,0,0,0-2.655,12.38,42.52,42.52,0,0,0,.135,12.641c.622,3.843,1.594,7.231,2.232,10.113s1.06,5.25,1.308,6.894c.1.792.175,1.416.231,1.9a4.052,4.052,0,0,1,.056.657,3.166,3.166,0,0,1-.135-.649c-.08-.472-.183-1.1-.311-1.879-.295-1.626-.725-3.978-1.427-6.843s-1.674-6.253-2.336-10.113a42.536,42.536,0,0,1-.159-12.768,72.48,72.48,0,0,1,2.663-12.456c1.164-3.733,2.463-6.995,3.556-9.725l2.615-6.455c.287-.733.526-1.315.7-1.753A4.223,4.223,0,0,1,513.395,254.55Z" transform="translate(-426.624 -171.989)" fill="#263238"/>
      <g id="Grupo_108829" data-name="Grupo 108829" transform="translate(83.616 153.234)" opacity="0.3">
        <path id="Trazado_159103" data-name="Trazado 159103" d="M512.168,343.542c-.8,4.037,2.312,8,5.963,9.43s7.7.969,11.568.489l26.979-3.371c1.427-.177,3.085-.531,3.7-1.9a3.64,3.64,0,0,0,0-2.436,8.981,8.981,0,0,0-4.536-5.292,18.3,18.3,0,0,0-6.7-1.77c-9.288-.986-18.615.758-27.8,2.528" transform="translate(-512.042 -338.411)"/>
      </g>
      <path id="Trazado_159104" data-name="Trazado 159104" d="M485.106,325.408l6.864.657,3,1.6s-.717-.843-1.339-1.643a24.228,24.228,0,0,0-3.045-2.672l-5.11-.556s-2.87-.227-3.053-2.326l3.906-.4s-4.042-.3-3.986-2.427l2.958-.556a.9.9,0,0,1-.714-.34,1.017,1.017,0,0,1-.211-.8l8.18-.952,7.789,5.84,7.526,7.037,1.7.076.59,11.495s-6.673-.843-8.5-1.82-9.918-8.68-9.918-8.68-4.241-.4-5.413-1.466A3.291,3.291,0,0,1,485.106,325.408Z" transform="translate(-422.404 -181.495)" fill="#ffbe9d"/>
      <path id="Trazado_159105" data-name="Trazado 159105" d="M511.745,339.562h-.423l-1.228-.143c-1.068-.135-2.647-.346-4.648-.7a26.074,26.074,0,0,1-3.3-.775,5.335,5.335,0,0,1-1.7-.994c-.542-.413-1.084-.843-1.634-1.34-2.224-1.9-4.664-4.129-7.3-6.624l.088.042a21.5,21.5,0,0,1-3.835-.7,7.128,7.128,0,0,1-.973-.354,4.579,4.579,0,0,1-.478-.27l-.223-.169-.2-.194a4.039,4.039,0,0,1-.678-.885,2.826,2.826,0,0,1-.4-1.112v-.219h.215l6.856.649h0l3.006,1.6-.223.312-.957-1.18-.478-.59a6.472,6.472,0,0,0-.526-.531c-.741-.7-1.595-1.348-2.392-2l.1.042-3.069-.337-1.594-.169a4.48,4.48,0,0,1-.8-.1,5.386,5.386,0,0,1-.8-.2,3.573,3.573,0,0,1-1.355-.775,2.278,2.278,0,0,1-.717-1.475v-.2h.183l3.9-.4v.4a8.316,8.316,0,0,1-2.5-.6,3.492,3.492,0,0,1-1.108-.725,1.822,1.822,0,0,1-.51-1.315v-.16h.151l3.133-.48v.388a1.477,1.477,0,0,1-.869-.4,1.236,1.236,0,0,1-.335-.961v-.16h.143l8.108-1.045h.072l.048.042,7.853,5.849h0c2.886,2.722,5.4,5.056,7.5,7.062h-.072l6.944.413,1.842.118.47.042h-.478l-1.858-.051-6.944-.3h0l-7.629-7.028h0l-7.749-5.815h.112l-8.084,1.053.159-.177a.81.81,0,0,0,.223.657,1.187,1.187,0,0,0,.654.295l1.331.185-1.323.2-3.133.48.159-.185a1.343,1.343,0,0,0,.407,1.011,2.987,2.987,0,0,0,.981.649,8.235,8.235,0,0,0,2.392.565v.4l-3.9.4.175-.219a1.839,1.839,0,0,0,.59,1.205,3.084,3.084,0,0,0,1.212.691,3.994,3.994,0,0,0,.757.194,7.374,7.374,0,0,0,.8.093l1.595.177,3.069.329h.088c.845.649,1.666,1.306,2.432,2.014.191.185.375.371.55.573l.486.6.949,1.163.614.759-.837-.447-3-1.61h.064l-6.856-.666.183-.194a2.738,2.738,0,0,0,.343.952,3.442,3.442,0,0,0,2.392,1.685,21.228,21.228,0,0,0,3.771.708h.056q3.946,3.792,7.255,6.658c.542.48,1.084.935,1.595,1.348a5.245,5.245,0,0,0,1.595.978,26.43,26.43,0,0,0,3.261.8c1.993.388,3.564.624,4.632.792l1.22.194.311.05Z" transform="translate(-422.343 -181.45)" fill="#eb996e"/>
      <path id="Trazado_159106" data-name="Trazado 159106" d="M497.269,324.443a7.306,7.306,0,0,1-1.4-.919c-.8-.615-1.969-1.475-3.189-2.452l-.343-.27.12.042c-1.443.059-2.742.093-3.675.1a5.905,5.905,0,0,1-1.5-.067,5.661,5.661,0,0,1,1.491-.211c.933-.076,2.224-.16,3.667-.228h.072l.048.042.343.27c1.244.969,2.352,1.871,3.149,2.528A7.223,7.223,0,0,1,497.269,324.443Z" transform="translate(-423.406 -182.351)" fill="#eb996e"/>
      <path id="Trazado_159107" data-name="Trazado 159107" d="M496.118,319.974a6.088,6.088,0,0,1-1.284-.843c-.8-.565-1.818-1.365-2.982-2.275l.135.042-.454.051c-1.547.169-2.958.295-3.986.371a6.371,6.371,0,0,1-1.658,0,7.679,7.679,0,0,1,1.594-.32c1.013-.143,2.392-.32,3.986-.489l.454-.051H492l.064.051c1.156.919,2.184,1.753,2.91,2.368A6.87,6.87,0,0,1,496.118,319.974Z" transform="translate(-423.124 -181.725)" fill="#eb996e"/>
      <path id="Trazado_159108" data-name="Trazado 159108" d="M572.962,321.649a21.375,21.375,0,0,0,2.966-13.872l-5.939-36.887c-.678-6.169-1.507-14.6-5.581-19.1-2.782-3.093-6.163-5.8-9.487-5.764L547.794,267.4l2.679,41.294-36.162,6.843v16.754s27.632-.969,43.011-1.416a19.074,19.074,0,0,0,15.61-9.228Z" transform="translate(-428.886 -170.649)" fill="#dce736"/>
      <path id="Trazado_159109" data-name="Trazado 159109" d="M572.922,327.477l-.167.278-.5.843a21.634,21.634,0,0,1-2.32,2.781,19.57,19.57,0,0,1-4.584,3.371,18.4,18.4,0,0,1-7.175,2.09c-11.05.447-26.436.944-43.848,1.534h-.215V321.182h.175l36.162-6.8-.136.194c-.949-9.54-1.738-17.394-2.288-22.889-.255-2.722-.462-4.863-.606-6.337-.064-.716-.112-1.264-.143-1.685a2.4,2.4,0,0,1,0-.573,3.021,3.021,0,0,0,.08.565c.08.371.112.944.2,1.685.159,1.475.4,3.607.694,6.321.582,5.495,1.419,13.341,2.392,22.872v.169h-.152l-36.155,6.885.167-.211v16.754l-.215-.219,43.848-1.391a18.438,18.438,0,0,0,7.087-2.006,19.6,19.6,0,0,0,4.576-3.278,22.42,22.42,0,0,0,2.392-2.722c.231-.329.407-.581.534-.775A1.684,1.684,0,0,1,572.922,327.477Z" transform="translate(-428.846 -176.477)" fill="#263238"/>
      <path id="Trazado_159110" data-name="Trazado 159110" d="M567.06,247.68c0,.084-1.22.573-3.021,1.8a20.934,20.934,0,0,0-2.942,2.435,24.615,24.615,0,0,0-3,3.649,25.757,25.757,0,0,0-2.192,4.214,22.846,22.846,0,0,0-1.132,3.767c-.454,2.208-.462,3.624-.542,3.615a4.16,4.16,0,0,1,0-.986,8.169,8.169,0,0,1,.08-1.163,12.072,12.072,0,0,1,.207-1.525,21.382,21.382,0,0,1,1.06-3.86,24.389,24.389,0,0,1,2.216-4.34,23.183,23.183,0,0,1,3.069-3.7,19.655,19.655,0,0,1,3.053-2.393,12.388,12.388,0,0,1,1.284-.742,7.535,7.535,0,0,1,1-.472,3.425,3.425,0,0,1,.853-.295Z" transform="translate(-436.975 -170.908)" fill="#263238"/>
      <path id="Trazado_159111" data-name="Trazado 159111" d="M545.25,238.409a2.7,2.7,0,0,1-.877.64,26.418,26.418,0,0,1-2.687,1.146c-2.272.91-5.27,2.528-8.69,4.1a25.4,25.4,0,0,1-9.224,2.528,12.77,12.77,0,0,1-2.9-.169c-.343-.051-.6-.118-.8-.16s-.263-.084-.263-.1a23.393,23.393,0,0,0,3.922.118,27.353,27.353,0,0,0,9.081-2.638c3.4-1.559,6.434-3.135,8.769-3.978,1.156-.438,2.1-.716,2.719-1.011A9.161,9.161,0,0,1,545.25,238.409Z" transform="translate(-430.002 -169.45)" fill="#263238"/>
      <path id="Trazado_159112" data-name="Trazado 159112" d="M435.286,308.534,431.7,278.76l-24.539,1.272,1.714,29.884Z" transform="translate(-407.16 -175.796)" fill="#dce736"/>
      <path id="Trazado_159113" data-name="Trazado 159113" d="M443.252,286.506a2.158,2.158,0,0,1-2.639.042c-.8-.5-1.443-1.281-2.224-1.837-2.336-1.686-5.652-1.214-7.909-3.009-.319-.244-.63-.657-.462-1.037s.59-.4.957-.4l9.352.076" transform="translate(-411.785 -176.033)" fill="#ffbe9d"/>
      <path id="Trazado_159114" data-name="Trazado 159114" d="M440.3,280.294a3.206,3.206,0,0,0-1.012-.118c-.646-.042-1.594-.076-2.758-.118l-4.082-.093h-1.188a1.764,1.764,0,0,0-1.363.329.88.88,0,0,0-.143.919,1.731,1.731,0,0,0,.478.632,5.9,5.9,0,0,0,1.188.742,33.725,33.725,0,0,0,4.863,1.382,6.734,6.734,0,0,1,1.937.893c.55.379,1.012.843,1.475,1.23a3.191,3.191,0,0,0,2.647.935c.686-.152.909-.556.885-.556a2.729,2.729,0,0,1-.917.337,3.1,3.1,0,0,1-2.392-1.028c-.438-.388-.885-.843-1.467-1.306a7.1,7.1,0,0,0-2.041-1,41.856,41.856,0,0,1-4.783-1.391,5.925,5.925,0,0,1-1.076-.674c-.3-.253-.462-.6-.3-.733a1.854,1.854,0,0,1,.989-.169h5.27c1.164,0,2.1-.042,2.758-.067A4.121,4.121,0,0,0,440.3,280.294Z" transform="translate(-411.727 -175.981)" fill="#eb996e"/>
      <path id="Trazado_159115" data-name="Trazado 159115" d="M429.854,290.467a3.179,3.179,0,0,1-.694.362,15.873,15.873,0,0,1-2,.742,8.229,8.229,0,0,1-3.149.362,5.864,5.864,0,0,1-1.842-.489,7.745,7.745,0,0,1-1.674-1.18,1.486,1.486,0,0,0-.8-.337,1.107,1.107,0,0,0-.749.312,6.747,6.747,0,0,0-1.036,1.525,1.97,1.97,0,0,1-1.467,1.045,2.067,2.067,0,0,1-1.451-.548,3.892,3.892,0,0,1-1.036-1.989,2.756,2.756,0,0,1-.128-.843,3.485,3.485,0,0,1,.287.758,3.871,3.871,0,0,0,1.06,1.8,1.808,1.808,0,0,0,1.244.43,1.6,1.6,0,0,0,1.172-.91,6.679,6.679,0,0,1,1.076-1.593,1.462,1.462,0,0,1,1.028-.421,1.847,1.847,0,0,1,1.036.421,7.62,7.62,0,0,0,1.594,1.138,5.4,5.4,0,0,0,1.714.48,8.433,8.433,0,0,0,3.037-.261C428.794,290.821,429.831,290.391,429.854,290.467Z" transform="translate(-408.512 -177.474)" fill="#fff"/>
      <path id="Trazado_159116" data-name="Trazado 159116" d="M431.162,295.991a80.193,80.193,0,0,1-8.283.6,75.436,75.436,0,0,1-8.3.169,81.493,81.493,0,0,1,8.283-.607A76.59,76.59,0,0,1,431.162,295.991Z" transform="translate(-408.664 -178.499)" fill="#fff"/>
      <path id="Trazado_159117" data-name="Trazado 159117" d="M429.951,301a9.154,9.154,0,0,1-1.866.514c-1.164.261-2.782.573-4.576.843s-3.42.506-4.608.624a7.908,7.908,0,0,1-1.921.1,9.025,9.025,0,0,1,1.881-.4l4.584-.758,4.584-.733A7.926,7.926,0,0,1,429.951,301Z" transform="translate(-409.151 -179.293)" fill="#fff"/>
      <path id="Trazado_159118" data-name="Trazado 159118" d="M544.858,290.751a1.841,1.841,0,0,1-.343.329l-1.021.843c-.9.733-2.208,1.8-3.93,2.966a22.851,22.851,0,0,1-6.505,3.177,13,13,0,0,1-8.722-.312c-2.942-1.256-5.214-3.371-7.4-5a16,16,0,0,0-6.314-3.236,7.737,7.737,0,0,0-4.68.244,13.081,13.081,0,0,0-1.555.843,4.764,4.764,0,0,1,1.491-1.02,7.675,7.675,0,0,1,4.783-.388,16,16,0,0,1,6.482,3.211c2.208,1.618,4.472,3.708,7.327,4.922a12.779,12.779,0,0,0,8.467.329,23.566,23.566,0,0,0,6.458-3.051c1.722-1.129,3.053-2.149,3.986-2.849l1.068-.792A1.973,1.973,0,0,1,544.858,290.751Z" transform="translate(-426.875 -177.404)" fill="#fafafa"/>
      <path id="Trazado_159119" data-name="Trazado 159119" d="M578.185,271.062c0,.084-1.228-.3-3.189-.615a25.822,25.822,0,0,0-3.532-.295,29.055,29.055,0,0,0-4.313.286,28.4,28.4,0,0,0-4.225,1.02,25.85,25.85,0,0,0-3.3,1.34c-1.834.893-2.886,1.626-2.926,1.551a3.838,3.838,0,0,1,.71-.556,18.331,18.331,0,0,1,2.089-1.281,24.058,24.058,0,0,1,11.974-2.764,22.43,22.43,0,0,1,3.564.4,16.9,16.9,0,0,1,2.392.6A3.6,3.6,0,0,1,578.185,271.062Z" transform="translate(-437.482 -174.377)" fill="#fafafa"/>
      <path id="Trazado_159120" data-name="Trazado 159120" d="M583.128,307.583a7.923,7.923,0,0,0-3.691.413,21.529,21.529,0,0,0-3.683,1.846,16.741,16.741,0,0,1-4.68,2.082,12.747,12.747,0,0,1-9.017-1.315,12.957,12.957,0,0,1-2.3-1.686,4.793,4.793,0,0,1-.7-.784,20.406,20.406,0,0,0,3.133,2.191,12.9,12.9,0,0,0,8.77,1.163,17.393,17.393,0,0,0,4.592-2.006,19.608,19.608,0,0,1,3.779-1.787,7.432,7.432,0,0,1,2.782-.354A2.389,2.389,0,0,1,583.128,307.583Z" transform="translate(-437.96 -180.289)" fill="#fafafa"/>
      <path id="Trazado_159121" data-name="Trazado 159121" d="M547.522,343.73c-.072,0,.454-1.112.917-2.975a18.358,18.358,0,0,0-2.264-14.327c-1.013-1.61-1.842-2.444-1.786-2.528a2.87,2.87,0,0,1,.606.556,13.863,13.863,0,0,1,1.419,1.77,17.471,17.471,0,0,1,2.312,14.613,15.689,15.689,0,0,1-.8,2.157A3.045,3.045,0,0,1,547.522,343.73Z" transform="translate(-434.985 -182.895)" fill="#fafafa"/>
      <path id="Trazado_159122" data-name="Trazado 159122" d="M509.214,266.184c-.112.051-.47-.666-1.26-1.129a11.183,11.183,0,0,0-1.594-.556c-.048-.126.845-.379,1.762.177S509.325,266.167,509.214,266.184Z" transform="translate(-427.274 -173.527)" fill="#fafafa"/>
      <path id="Trazado_159123" data-name="Trazado 159123" d="M553.568,245.052c0,.051-.6-.076-1.666,0a9.478,9.478,0,0,0-4.2,1.685,16.742,16.742,0,0,0-2.464,2.031c-.8.843-1.65,1.753-2.5,2.756-1.714,1.964-3.62,4.3-6.378,5.705a15.771,15.771,0,0,1-8.2,1.551,27.267,27.267,0,0,1-6.689-1.391c-1.85-.615-3.309-1.222-4.313-1.643l-1.148-.506a1.413,1.413,0,0,1-.391-.2,1.53,1.53,0,0,1,.423.118l1.172.43c1.021.371,2.5.927,4.345,1.5a27.378,27.378,0,0,0,6.617,1.289,15.643,15.643,0,0,0,7.972-1.542c2.623-1.348,4.512-3.624,6.242-5.587.869-.986,1.706-1.93,2.551-2.747a17.357,17.357,0,0,1,2.543-2.023,9.227,9.227,0,0,1,4.345-1.559,5.371,5.371,0,0,1,1.252.051A1.791,1.791,0,0,1,553.568,245.052Z" transform="translate(-429.152 -170.471)" fill="#fafafa"/>
      <path id="Trazado_159124" data-name="Trazado 159124" d="M543.875,235.91a4.681,4.681,0,0,1-.869.447c-.558.27-1.4.624-2.432,1.028a57.272,57.272,0,0,1-16.885,3.767c-1.108.076-2,.1-2.623.1a3.586,3.586,0,0,1-.957-.051,4.969,4.969,0,0,1,.957-.126c.614-.042,1.507-.118,2.6-.236a71.662,71.662,0,0,0,16.814-3.733c1.044-.371,1.889-.674,2.471-.893A3.553,3.553,0,0,1,543.875,235.91Z" transform="translate(-430.062 -169.057)" fill="#fafafa"/>
      <path id="Trazado_159125" data-name="Trazado 159125" d="M468.851,317.537a1.042,1.042,0,0,1-.1-.236,4.189,4.189,0,0,1-.143-.691,7.945,7.945,0,0,1,.088-2.629,14.729,14.729,0,0,1,1.267-3.649c.63-1.306,1.459-2.646,2.248-4.087a16.407,16.407,0,0,0,1.73-4.264,9.359,9.359,0,0,0,.072-3.75,12.709,12.709,0,0,0-1.18-3.27,2.727,2.727,0,0,1,.542.775,8.471,8.471,0,0,1,.925,2.435,9.4,9.4,0,0,1,0,3.9,16.12,16.12,0,0,1-1.746,4.391c-.8,1.458-1.634,2.781-2.272,4.054a15.516,15.516,0,0,0-1.315,3.531,10.252,10.252,0,0,0-.12,3.489Z" transform="translate(-419.606 -178.344)" fill="#fafafa"/>
      <path id="Trazado_159126" data-name="Trazado 159126" d="M567.114,359.453a4.127,4.127,0,0,1-.542-.3c-.343-.219-.877-.489-1.594-.843a16.932,16.932,0,0,0-6.242-1.449,28.9,28.9,0,0,0-9.423,1.256c-3.468.994-7.175,2.6-11.089,4.037a35.22,35.22,0,0,1-11.52,2.528A26.031,26.031,0,0,1,511.427,360c-.638-.455-1.116-.843-1.427-1.1a3.837,3.837,0,0,1-.47-.413c0-.042.686.514,1.985,1.365a27.85,27.85,0,0,0,5.812,2.891,26.524,26.524,0,0,0,9.376,1.525,35.409,35.409,0,0,0,11.385-2.528c3.93-1.433,7.621-3.025,11.161-4.012a28.394,28.394,0,0,1,9.567-1.18,16.615,16.615,0,0,1,6.29,1.6,11.65,11.65,0,0,1,1.539.919,2.569,2.569,0,0,1,.47.379Z" transform="translate(-427.917 -188.025)" fill="#fafafa"/>
      <path id="Trazado_159127" data-name="Trazado 159127" d="M572.232,395.894a11.318,11.318,0,0,1-2.184,1.686,17.265,17.265,0,0,1-6.984,2.334,24.141,24.141,0,0,1-5.086.067,33.308,33.308,0,0,1-5.74-1.1c-3.986-1.087-8.164-2.916-12.612-4.559a37.906,37.906,0,0,0-12.923-2.764,20.208,20.208,0,0,0-5.7.843c-1.746.5-3.356,1.1-4.879,1.45a9.417,9.417,0,0,1-7.215-.657,5.508,5.508,0,0,1-1.547-1.348,3.467,3.467,0,0,1-.391-.615,7.1,7.1,0,0,1,.454.556,5.675,5.675,0,0,0,1.595,1.256,9.358,9.358,0,0,0,7.071.506c1.5-.371,3.093-.978,4.855-1.5a20.355,20.355,0,0,1,5.78-.843,37.751,37.751,0,0,1,13.066,2.756c4.457,1.643,8.626,3.481,12.572,4.576a33,33,0,0,0,5.676,1.138,24.931,24.931,0,0,0,5.023,0A17.61,17.61,0,0,0,570,397.487a10.153,10.153,0,0,0,.989-.607c.287-.185.518-.354.7-.5A4.314,4.314,0,0,1,572.232,395.894Z" transform="translate(-427.398 -193.478)" fill="#fafafa"/>
      <path id="Trazado_159128" data-name="Trazado 159128" d="M575.169,425.487a1.069,1.069,0,0,1-.167-.093l-.486-.3a18.63,18.63,0,0,0-1.89-1.062,22.427,22.427,0,0,0-7.582-2.115,37.007,37.007,0,0,0-11.616.843c-4.321.91-8.961,2.452-13.928,3.716a56.373,56.373,0,0,1-7.343,1.416,47.2,47.2,0,0,1-18.576-1.584,45.908,45.908,0,0,1-7.438-2.882c-.853-.4-1.491-.775-1.929-1.02-.191-.11-.359-.2-.486-.287s-.167-.1-.159-.109a.934.934,0,0,1,.175.076l.51.244c.446.219,1.092.556,1.953.935A48.631,48.631,0,0,0,513.663,426a47.264,47.264,0,0,0,11.552,1.761,48.357,48.357,0,0,0,6.9-.3,57.324,57.324,0,0,0,7.295-1.407c4.943-1.264,9.567-2.8,13.952-3.691a36.342,36.342,0,0,1,11.719-.725A21.492,21.492,0,0,1,572.7,423.9,13.5,13.5,0,0,1,575.169,425.487Z" transform="translate(-426.708 -198.236)" fill="#fafafa"/>
      <path id="Trazado_159129" data-name="Trazado 159129" d="M534.361,322.636c-.04.076-1.387-.716-3.723-1.576a29.178,29.178,0,0,0-4.185-1.163,28.427,28.427,0,0,0-14.741,1.129c-2.336.843-3.691,1.618-3.731,1.542a5.45,5.45,0,0,1,.933-.581,11.945,11.945,0,0,1,1.148-.581c.454-.211.965-.463,1.555-.674a25.622,25.622,0,0,1,4.225-1.239,26.513,26.513,0,0,1,10.683.042,25.222,25.222,0,0,1,4.209,1.273c.6.211,1.1.472,1.594.683a10.717,10.717,0,0,1,1.14.59,5.111,5.111,0,0,1,.893.556Z" transform="translate(-427.603 -182.12)" fill="#fafafa"/>
      <path id="Trazado_159130" data-name="Trazado 159130" d="M575.664,456.407a.358.358,0,0,1-.175-.076l-.478-.278c-.207-.126-.47-.278-.8-.438s-.678-.354-1.092-.539A24.669,24.669,0,0,0,565.715,453a42.549,42.549,0,0,0-11.376.244c-4.273.556-8.913,1.593-13.872,2.208a77.607,77.607,0,0,1-25.416-1.087,73.275,73.275,0,0,1-7.494-1.989c-.877-.27-1.539-.531-2-.691l-.51-.194a.564.564,0,0,1-.175-.076.463.463,0,0,1,.191,0l.526.152c.462.135,1.132.371,2.017.615,1.746.522,4.305,1.205,7.5,1.846a80.15,80.15,0,0,0,25.312.952c4.935-.607,9.567-1.635,13.872-2.174a41.809,41.809,0,0,1,11.464-.152,24.282,24.282,0,0,1,7.43,2.225,11.953,11.953,0,0,1,1.084.59,8.4,8.4,0,0,1,.8.472l.454.312Z" transform="translate(-426.972 -202.947)" fill="#fafafa"/>
    </g>
    <g id="freepik--character-1--inject-26" transform="translate(-1781.381 -9826.105)">
      <path id="Trazado_159131" data-name="Trazado 159131" d="M181.921,449.2l1.594-76.993-56.6-4.989s-3.014,30.819-2.942,34.94c0,1.964,8.538,21.136,8.538,21.136l-.1,25.906Z" transform="translate(-121.833 -169.955)" fill="#263238"/>
      <path id="Trazado_159132" data-name="Trazado 159132" d="M166.887,384a6.4,6.4,0,0,1-.47,1.112c-.327.7-.837,1.685-1.515,2.916a32.562,32.562,0,0,1-6.569,8.478,18.139,18.139,0,0,1-9.383,4.551,12.651,12.651,0,0,1-3.189.059,7.826,7.826,0,0,1-.845-.143,1.047,1.047,0,0,1-.295-.076,20.581,20.581,0,0,0,4.257-.143,18.866,18.866,0,0,0,9.16-4.584,35.005,35.005,0,0,0,6.585-8.309c.709-1.18,1.244-2.157,1.594-2.832A6.882,6.882,0,0,1,166.887,384Z" transform="translate(-126.021 -172.594)" fill="#455a64"/>
      <path id="Trazado_159133" data-name="Trazado 159133" d="M145.69,219.945l25.511,7.028.869-23.521s10.787-1.281,11.377-12.641-.223-37.409-.223-37.409h0a35.588,35.588,0,0,0-37.613,3.278L144,157.945Z" transform="translate(-125.895 -135.717)" fill="#b78876"/>
      <path id="Trazado_159134" data-name="Trazado 159134" d="M175.776,212.42A24.05,24.05,0,0,1,162,207.6s2.974,8.3,13.7,7.762Z" transform="translate(-129.545 -144.853)" fill="#aa6550"/>
      <path id="Trazado_159135" data-name="Trazado 159135" d="M143.192,173.422c-.175-.093-7.263-2.629-7.343,5.124s7.295,6.245,7.295,6.017S143.192,173.422,143.192,173.422Z" transform="translate(-124.242 -139.404)" fill="#b78876"/>
      <path id="Trazado_159136" data-name="Trazado 159136" d="M141.425,182.061a2.3,2.3,0,0,1-.343.194,1.19,1.19,0,0,1-.957,0c-.8-.3-1.411-1.61-1.435-3.009a4.631,4.631,0,0,1,.383-1.93,1.5,1.5,0,0,1,.973-1.028.644.644,0,0,1,.749.379c.1.219.048.371.088.388s.151-.135.1-.455a.852.852,0,0,0-.279-.489.95.95,0,0,0-.71-.2,1.807,1.807,0,0,0-1.339,1.188,4.792,4.792,0,0,0-.47,2.157c0,1.559.8,3.034,1.834,3.371a1.317,1.317,0,0,0,1.172-.185C141.409,182.246,141.448,182.078,141.425,182.061Z" transform="translate(-124.715 -139.868)" fill="#aa6550"/>
      <path id="Trazado_159137" data-name="Trazado 159137" d="M188.611,174.594a1.572,1.572,0,0,1-1.539,1.568,1.431,1.431,0,0,1-1.065-.43,1.6,1.6,0,0,1-.457-1.1,1.58,1.58,0,0,1,1.547-1.567,1.416,1.416,0,0,1,1.065.427A1.586,1.586,0,0,1,188.611,174.594Z" transform="translate(-134.32 -139.421)" fill="#263238"/>
      <path id="Trazado_159138" data-name="Trazado 159138" d="M188.344,172.656c-.2.2-1.315-.75-2.966-.843s-2.886.75-3.061.531.128-.472.67-.843a3.991,3.991,0,0,1,2.463-.683,3.934,3.934,0,0,1,2.392.919C188.289,172.15,188.432,172.546,188.344,172.656Z" transform="translate(-133.654 -139.067)" fill="#263238"/>
      <path id="Trazado_159139" data-name="Trazado 159139" d="M168.361,174.454a1.579,1.579,0,0,1-1.547,1.559,1.415,1.415,0,0,1-1.062-.424,1.567,1.567,0,0,1,1.086-2.668,1.431,1.431,0,0,1,1.065.43A1.6,1.6,0,0,1,168.361,174.454Z" transform="translate(-130.214 -139.399)" fill="#263238"/>
      <path id="Trazado_159140" data-name="Trazado 159140" d="M168.035,172.146c-.2.2-1.323-.758-2.974-.843s-2.886.75-3.053.531.12-.472.662-.843a3.991,3.991,0,0,1,2.463-.683,3.913,3.913,0,0,1,2.352.919C167.971,171.666,168.131,172.062,168.035,172.146Z" transform="translate(-129.537 -138.987)" fill="#263238"/>
      <path id="Trazado_159141" data-name="Trazado 159141" d="M176.38,185.417a9.969,9.969,0,0,1,2.695-.388c.423,0,.8-.1.909-.4a2.379,2.379,0,0,0-.231-1.332c-.351-1.1-.717-2.242-1.108-3.447-1.531-4.9-2.623-8.908-2.392-8.975s1.594,3.851,3.109,8.748l1.052,3.464a2.66,2.66,0,0,1,.152,1.753,1.051,1.051,0,0,1-.718.615,2.87,2.87,0,0,1-.718.076,10.188,10.188,0,0,1-2.75-.118Z" transform="translate(-132.428 -139.078)" fill="#263238"/>
      <path id="Trazado_159142" data-name="Trazado 159142" d="M168.532,164.149c-.175.464-1.81.169-3.755.329s-3.524.649-3.763.211c-.112-.211.183-.64.8-1.07a5.947,5.947,0,0,1,2.822-.9,6.008,6.008,0,0,1,2.91.489C168.269,163.542,168.612,163.93,168.532,164.149Z" transform="translate(-129.34 -137.791)" fill="#263238"/>
      <path id="Trazado_159143" data-name="Trazado 159143" d="M187.967,166.639c-.3.388-1.427-.076-2.79-.16s-2.527.152-2.774-.27c-.112-.2.088-.59.606-.944a3.713,3.713,0,0,1,2.3-.548,3.81,3.81,0,0,1,2.192.893C187.959,166.007,188.1,166.419,187.967,166.639Z" transform="translate(-133.675 -138.107)" fill="#263238"/>
      <path id="Trazado_159144" data-name="Trazado 159144" d="M187.832,143.978a4.35,4.35,0,0,0-1.307-3.8,2.685,2.685,0,0,0-3.643.126,3.632,3.632,0,0,0-.413-2.785,3.269,3.269,0,0,0-2.234-1.538c-1.746-.2-3.293,1.129-5,1.542a7.6,7.6,0,0,1-4.975-.843c-1.594-.75-3.006-1.744-4.584-2.436-6.933-3.028-14.88.4-17.826,7.694a5.975,5.975,0,0,0-6.561,2.292,11.032,11.032,0,0,0-1.826,7.357,25.152,25.152,0,0,0,1.02,5.141v.43c-.135,6.236.231,13.585,2.742,13.737,4.385.27,3.691-8.5,3.691-8.5,5.461-1.955,3.8-10.56,5.2-11.8s4.329-4.1,15.347,2.478c4.273,2.528,10.085,2.747,13.29,2.132l.287-.051h.159a10.022,10.022,0,0,0,2.934-1.163,5.882,5.882,0,0,0,2.5-2.688,3.462,3.462,0,0,0-.47-3.573,7.431,7.431,0,0,0,1.674-3.75Z" transform="translate(-124.963 -133.144)" fill="#263238"/>
      <path id="Trazado_159145" data-name="Trazado 159145" d="M176.192,194.142a7.839,7.839,0,0,1-1.036,1.938,2.465,2.465,0,0,1-1.81,1,2.226,2.226,0,0,1-1.842-1.171,3.922,3.922,0,0,1-.43-2.292c.056-.716.4-1.559,1.076-1.61a1.529,1.529,0,0,1,.8.228l3.476,1.686" transform="translate(-131.379 -142.401)" fill="#aa6550"/>
      <path id="Trazado_159146" data-name="Trazado 159146" d="M174.541,197.076a4.8,4.8,0,0,1-1.881-.329,2.791,2.791,0,0,1-1.363-1.433,3.139,3.139,0,0,1,.048-2.444,2.464,2.464,0,0,1,.335-.548c.144-.152.12-.143.271-.11a4.316,4.316,0,0,1,.55.261l.574.27c.741.362,1.419.674,1.985.927a6.083,6.083,0,0,0,1.9.7,6.222,6.222,0,0,0-1.706-1.121c-.542-.312-1.2-.674-1.921-1.062l-.566-.295c-.2-.093-.359-.2-.63-.312a.8.8,0,0,0-.526,0,.951.951,0,0,0-.407.3,3.4,3.4,0,0,0-.423.691,3.651,3.651,0,0,0,0,2.992,3.108,3.108,0,0,0,1.73,1.618,2.656,2.656,0,0,0,1.531.126C174.382,197.236,174.549,197.118,174.541,197.076Z" transform="translate(-131.26 -142.327)" fill="#263238"/>
      <path id="Trazado_159147" data-name="Trazado 159147" d="M154.436,151.4a8.093,8.093,0,0,1,.056-1.374,5.346,5.346,0,0,1,1.8-3.1,6.518,6.518,0,0,1,4.887-1.466,19.853,19.853,0,0,1,6.21,1.761,31.691,31.691,0,0,0,3.189,1.138,15.951,15.951,0,0,0,8.427.051,15.519,15.519,0,0,0,3.356-1.332,8.786,8.786,0,0,0,.853-.506,1.591,1.591,0,0,0,.287-.2s-.423.228-1.188.59a17.737,17.737,0,0,1-3.364,1.222,16.116,16.116,0,0,1-8.291-.135c-1.044-.295-2.1-.708-3.189-1.138a19.77,19.77,0,0,0-6.306-1.761,6.741,6.741,0,0,0-5.047,1.593,5.442,5.442,0,0,0-1.786,3.27A3.351,3.351,0,0,0,154.436,151.4Z" transform="translate(-127.984 -135.026)" fill="#455a64"/>
      <path id="Trazado_159148" data-name="Trazado 159148" d="M143.049,170.742a1.194,1.194,0,0,0,.151-.228c.088-.16.215-.4.367-.708a15.143,15.143,0,0,0,.965-2.773,16.244,16.244,0,0,0,.454-4.365,41.985,41.985,0,0,0-.741-5.309,10.8,10.8,0,0,1,.2-5.208,5.279,5.279,0,0,1,1.1-1.921,3.8,3.8,0,0,1,1.594-1,3.343,3.343,0,0,1,2.639.194,4.47,4.47,0,0,1,.8.649,2.107,2.107,0,0,0-.733-.758,3.393,3.393,0,0,0-2.766-.312,3.94,3.94,0,0,0-1.706,1.037,5.566,5.566,0,0,0-1.2,2.014,11.041,11.041,0,0,0-.239,5.36,42.336,42.336,0,0,1,.8,5.267,16.753,16.753,0,0,1-.375,4.3,18.287,18.287,0,0,1-.861,2.781A6.223,6.223,0,0,0,143.049,170.742Z" transform="translate(-125.701 -135.612)" fill="#455a64"/>
      <path id="Trazado_159149" data-name="Trazado 159149" d="M153.185,149.274a2.9,2.9,0,0,0,0-.455v-1.306a16.18,16.18,0,0,1,.686-4.677,8.642,8.642,0,0,1,1.547-2.789,5.534,5.534,0,0,1,2.958-1.879,6.855,6.855,0,0,1,3.827.337,17.249,17.249,0,0,1,3.763,2.014,31.183,31.183,0,0,0,3.715,2.233,11.094,11.094,0,0,0,3.883,1.011,11.974,11.974,0,0,0,3.611-.3,13.207,13.207,0,0,0,2.958-1.138,11.872,11.872,0,0,0,3.572-2.958,7.675,7.675,0,0,0,.749-1.045,2.561,2.561,0,0,0,.223-.388,2,2,0,0,0-.279.354,9.887,9.887,0,0,1-.8.994,12.511,12.511,0,0,1-3.58,2.832,13.563,13.563,0,0,1-2.918,1.079,11.806,11.806,0,0,1-3.532.27,11.013,11.013,0,0,1-3.779-1,31.713,31.713,0,0,1-3.683-2.225,17.607,17.607,0,0,0-3.827-2.039,7.157,7.157,0,0,0-3.986-.329,5.724,5.724,0,0,0-3.085,2,8.646,8.646,0,0,0-1.595,2.9,15.172,15.172,0,0,0-.6,4.753,8.227,8.227,0,0,0,.056,1.306,2.327,2.327,0,0,0,.112.455Z" transform="translate(-127.722 -133.863)" fill="#455a64"/>
      <path id="Trazado_159150" data-name="Trazado 159150" d="M212.8,257.8l32.248-38.277,4.576-6.742s11.161-14.6,12.062-16.138c1.044-1.787,2.1-1.685,2.7-1.23.933.7.877,2.41,0,3.978-.287.539-5.254,8.857-5.254,8.857a21.272,21.272,0,0,1,2.854-1.256c2.089-.843,5.357.11,8.124,2.048s3.372,2.747,2.711,3.91a1.63,1.63,0,0,1-1.212.767,4.464,4.464,0,0,1-2.655-.666c-5.461-3.447-6.776-1.163-6.776-1.163l-.733.843s4.09-.253,5.764,2.056a3.525,3.525,0,0,1,.542,1.138,4.52,4.52,0,0,1-.207,7.585,1.639,1.639,0,0,1-1.961,0,2.393,2.393,0,0,1-.5-1.037,3.491,3.491,0,0,0-.215-.573l-2.009,2.225s-4.783,4.753-6.609,7.071L227.78,268.8c-3.707,5.672-9.3,10.374-14.605,6.363h0C207.4,270.8,207.905,263.214,212.8,257.8Z" transform="translate(-139.072 -142.891)" fill="#b78876"/>
      <path id="Trazado_159151" data-name="Trazado 159151" d="M256.27,223.2a2.29,2.29,0,0,0,2.822.211c.9-.48,1.594-1.273,2.487-1.82,2.591-1.685,6.115-.935,8.626-2.714.351-.244.71-.666.558-1.079s-.614-.464-1-.489l-10.005-.514" transform="translate(-148.659 -146.3)" fill="#b78876"/>
      <path id="Trazado_159152" data-name="Trazado 159152" d="M259.753,216.786a3.829,3.829,0,0,1,1.084-.059c.7,0,1.714,0,2.958.051l4.377.16,1.268.059a1.887,1.887,0,0,1,1.443.438.88.88,0,0,1,.1.994,1.765,1.765,0,0,1-.55.64,6.265,6.265,0,0,1-1.307.725c-1.865.742-3.715.758-5.286,1.163a7.294,7.294,0,0,0-2.113.843c-.614.371-1.132.843-1.658,1.222a3.4,3.4,0,0,1-2.878.843c-.726-.211-.941-.649-.917-.649a3.1,3.1,0,0,0,.965.421,3.332,3.332,0,0,0,2.6-.952,20.081,20.081,0,0,1,1.642-1.306,7.41,7.41,0,0,1,2.24-.935c1.594-.447,3.476-.5,5.2-1.188a6.259,6.259,0,0,0,1.18-.649c.343-.244.534-.607.367-.767a2.025,2.025,0,0,0-1.052-.244l-1.26-.076-4.377-.287c-1.244-.093-2.248-.177-2.942-.253A3.747,3.747,0,0,1,259.753,216.786Z" transform="translate(-148.659 -146.286)" fill="#aa6550"/>
      <path id="Trazado_159153" data-name="Trazado 159153" d="M274.82,215.652a4.141,4.141,0,0,1,1.459-1.273,3.028,3.028,0,0,1,1.993-.152,7.922,7.922,0,0,1,2.328,1.07,12.572,12.572,0,0,0,2.392,1.256,3.966,3.966,0,0,0,2.168.211,1.657,1.657,0,0,0,1.172-.944,1,1,0,0,0,.12-.556s-.08.185-.247.489a1.526,1.526,0,0,1-1.092.742,3.917,3.917,0,0,1-2.009-.278,13.69,13.69,0,0,1-2.28-1.256,7.837,7.837,0,0,0-2.448-1.087,3.214,3.214,0,0,0-2.168.253,3.1,3.1,0,0,0-1.124,1.011,1.218,1.218,0,0,0-.263.514Z" transform="translate(-152.421 -145.826)" fill="#aa6550"/>
      <path id="Trazado_159154" data-name="Trazado 159154" d="M277.223,199.43a12.615,12.615,0,0,0-1,1.685c-.654,1.146-1.435,2.528-2.3,4.028s-1.682,2.857-2.392,3.995a12.649,12.649,0,0,0-.941,1.685,8.6,8.6,0,0,0,1.164-1.525c.662-.986,1.539-2.368,2.456-3.944s1.69-3.025,2.216-4.1a8.577,8.577,0,0,0,.8-1.829Z" transform="translate(-151.563 -143.568)" fill="#aa6550"/>
      <path id="Trazado_159155" data-name="Trazado 159155" d="M275.68,219.62s.2.051.566.11a1.725,1.725,0,0,1,1.252.733,1.035,1.035,0,0,1,0,.969,4.792,4.792,0,0,1-.71,1.028,2.308,2.308,0,0,0-.574,1.433,1.877,1.877,0,0,0,.8,1.449,1.916,1.916,0,0,0,1.594.244,2.471,2.471,0,0,0,1.268-.784,8.67,8.67,0,0,0,1.22-2.157,5.225,5.225,0,0,0,.407-1.635,1.232,1.232,0,0,0-.08-.624c-.04,0,0,.228-.064.607a5.993,5.993,0,0,1-.5,1.542,9.353,9.353,0,0,1-1.228,2.031,1.909,1.909,0,0,1-2.392.447,1.5,1.5,0,0,1-.662-1.138,1.95,1.95,0,0,1,.486-1.188,5.034,5.034,0,0,0,.717-1.129,1.327,1.327,0,0,0-.056-1.239,1.775,1.775,0,0,0-1.459-.742A1.429,1.429,0,0,0,275.68,219.62Z" transform="translate(-152.595 -146.734)" fill="#aa6550"/>
      <path id="Trazado_159156" data-name="Trazado 159156" d="M279.3,225.327a.866.866,0,0,0-.239.5,1.749,1.749,0,0,0,.423,1.458,2.058,2.058,0,0,0,2.057.573,3.542,3.542,0,0,0,2.065-1.685,4.73,4.73,0,0,0,.63-2.68,4.423,4.423,0,0,0-.71-2.115,3.978,3.978,0,0,0-1-1.07,1.249,1.249,0,0,0-.47-.244,7.072,7.072,0,0,1,1.26,1.466,4.374,4.374,0,0,1,0,4.433,3.342,3.342,0,0,1-1.834,1.559,1.822,1.822,0,0,1-1.794-.421,1.651,1.651,0,0,1-.462-1.239A4.369,4.369,0,0,1,279.3,225.327Z" transform="translate(-153.276 -146.812)" fill="#aa6550"/>
      <path id="Trazado_159157" data-name="Trazado 159157" d="M267.574,227.589a1.521,1.521,0,0,0-.8-.48,3.246,3.246,0,0,0-2.264,0l.223.253a12.429,12.429,0,0,0,.478-1.23,8.877,8.877,0,0,0,.415-4.551,23.322,23.322,0,0,1-.8,4.424c-.136.43-.3.843-.446,1.2l-.175.4.391-.152a3.456,3.456,0,0,1,2.081-.1C267.232,227.462,267.55,227.631,267.574,227.589Z" transform="translate(-150.269 -147.051)" fill="#aa6550"/>
      <path id="Trazado_159158" data-name="Trazado 159158" d="M279.055,211.94a1.818,1.818,0,0,0,.367,1.559c.51.767,1.228,1.011,1.26.91s-.518-.455-.957-1.129S279.166,211.932,279.055,211.94Z" transform="translate(-153.267 -145.535)" fill="#aa6550"/>
      <path id="Trazado_159159" data-name="Trazado 159159" d="M170.035,228.382l29.9,31.291,21.908-23.824,4.17-1.93,5.517-5.9,12.756,15.211-27.05,37.375a25.3,25.3,0,0,1-13.991,9.759h0a24.413,24.413,0,0,1-23.805-6.868L156.41,259.64" transform="translate(-128.411 -148.064)" fill="#dce736"/>
      <path id="Trazado_159160" data-name="Trazado 159160" d="M213.919,283.749a22.351,22.351,0,0,1-.064-2.722,49.229,49.229,0,0,0-.486-6.523,40.849,40.849,0,0,0-1.515-6.337,17.322,17.322,0,0,1-.8-2.587,2.313,2.313,0,0,1,.343.641c.2.421.462,1.053.757,1.837a32.593,32.593,0,0,1,1.642,6.371,37.969,37.969,0,0,1,.375,6.6,18.748,18.748,0,0,1-.12,2A2.48,2.48,0,0,1,213.919,283.749Z" transform="translate(-139.49 -153.971)" fill="#263238"/>
      <g id="Grupo_108830" data-name="Grupo 108830" transform="translate(50.736 90.583)" opacity="0.3">
        <path id="Trazado_159161" data-name="Trazado 159161" d="M184.93,240.63c4.736,4.77,5.915,10.956,8.554,17.285,3.1,7.45,8.706,14.7,10.858,22.518a12.378,12.378,0,0,1,.08,7.18c-.8,2.284-3.053,5.056-5.349,5.2l-4.783-1.34Z" transform="translate(-184.93 -240.63)"/>
      </g>
      <path id="Trazado_159162" data-name="Trazado 159162" d="M256.01,252.894c-.088.076-2.854-3.48-6.179-7.947s-5.939-8.141-5.852-8.217,2.854,3.481,6.179,7.947S256.1,252.818,256.01,252.894Z" transform="translate(-146.167 -149.434)" fill="#263238"/>
      <path id="Trazado_159163" data-name="Trazado 159163" d="M241.51,328.8l-8.73,28.122,23.056-11.057,7.478-25.729Z" transform="translate(-143.896 -162.551)" fill="#455a64"/>
      <path id="Trazado_159164" data-name="Trazado 159164" d="M140.511,209.088l-3.38,8.638s-4.369,9.826-9.264,16.568c-5.31,7.3-6.577,30.912-6.577,30.912l5.046,72.417-1.73,3.539c-.8,1.618-.375,7.509,1.339,7.585l56.787,2.789c1.371.067,2.28-5.056,2.208-6.464L180.365,257.6,171.157,233.7l-2.958-4.677-.064-5.9-19.763-6.464a12.787,12.787,0,0,1-7.861-7.585Z" transform="translate(-121.29 -145.086)" fill="#dce736"/>
      <g id="Grupo_108831" data-name="Grupo 108831" transform="translate(6.147 169.809)" opacity="0.3">
        <path id="Trazado_159165" data-name="Trazado 159165" d="M129,340.32c8.626,5.806,17.332,11.664,26.915,15.447s20.417,5.233,30.295,2.318l-.311-7.534L131.631,334.64Z" transform="translate(-129 -334.64)"/>
      </g>
      <path id="Trazado_159166" data-name="Trazado 159166" d="M143.467,241.306s-15.538-1.416-18.727,19.122,1.961,65,3.46,65.371c0,0,27.792,12.54,56.7,15.523l20.29-3.936L202.8,317l-14.932.843s-.654-3.936-6.282-5.6c-8.108-2.393-24.435-6.371-24.435-6.371s.725-20.453.885-26.445,2.121-32.024-10.842-36.92" transform="translate(-121.782 -150.15)" fill="#dce736"/>
      <path id="Trazado_159167" data-name="Trazado 159167" d="M183.84,238.3a4.471,4.471,0,0,1,.287.615l.741,1.787,2.639,6.6c1.108,2.806,2.392,6.127,3.875,9.81.367.927.741,1.871,1.116,2.84a16.12,16.12,0,0,1,.957,3.076,20.106,20.106,0,0,1,.327,3.329c.064,1.121.12,2.259.183,3.413.5,9.22.965,17.571,1.188,23.6.112,3.025.183,5.478.2,7.172v1.947a5.015,5.015,0,0,1,0,.683,3.293,3.293,0,0,1-.056-.683c0-.48-.056-1.129-.088-1.947-.08-1.736-.191-4.163-.335-7.155-.335-6.076-.8-14.4-1.307-23.6-.064-1.155-.12-2.292-.183-3.413a19.815,19.815,0,0,0-.311-3.27,15.678,15.678,0,0,0-.925-3l-1.1-2.848c-1.427-3.691-2.711-7.029-3.795-9.843s-1.905-5.056-2.519-6.649l-.67-1.82A6.327,6.327,0,0,1,183.84,238.3Z" transform="translate(-133.973 -149.681)" fill="#263238"/>
      <path id="Trazado_159168" data-name="Trazado 159168" d="M172.045,224.623a5.19,5.19,0,0,1-.175.843c-.136.556-.351,1.374-.678,2.4a43.6,43.6,0,0,1-3.508,8.073l-.112.194-.167-.143a31.919,31.919,0,0,0-8.538-5.056c-2.735-1.2-5.4-2.208-7.733-3.371a29.569,29.569,0,0,1-5.876-3.725,17.251,17.251,0,0,1-3.189-3.506,10.688,10.688,0,0,1-.678-1.121,1.727,1.727,0,0,1-.191-.413c.04,0,.327.539,1,1.433a17.978,17.978,0,0,0,3.261,3.371,30.314,30.314,0,0,0,5.852,3.6c2.328,1.138,4.983,2.141,7.733,3.371a31.648,31.648,0,0,1,8.618,5.149l-.279.051a48.177,48.177,0,0,0,3.627-7.947c.351-1.011.6-1.812.8-2.36A4.874,4.874,0,0,1,172.045,224.623Z" transform="translate(-125.327 -146.614)" fill="#263238"/>
      <path id="Trazado_159169" data-name="Trazado 159169" d="M147.078,242.468s.367.135,1.076.438a14.359,14.359,0,0,1,1.252.708A12.236,12.236,0,0,1,151,244.862a16.4,16.4,0,0,1,3.356,4.534,31.538,31.538,0,0,1,2.519,7.366c1.284,5.739,1.594,12.97,1.26,21.22s-.566,17.6-.893,27.861l-.136-.177c4.951,1.214,10.181,2.528,15.642,3.944,2.727.716,5.517,1.458,8.339,2.267a10.677,10.677,0,0,1,6.872,5.84l-.183-.118,14.932-.843h.183v.194c.8,6.5,1.594,13.366,2.392,20.386v.2h-.191L186.222,341.2l-1.411.27h-.064c-5.2-.59-10.316-1.374-15.315-2.41s-9.878-2.242-14.621-3.615A222.137,222.137,0,0,1,128,325.925h0a.355.355,0,0,1-.151-.093.366.366,0,0,1-.072-.093.605.605,0,0,1-.1-.169,1.91,1.91,0,0,1-.136-.329c-.072-.211-.136-.43-.191-.649q-.167-.641-.287-1.289c-.175-.843-.327-1.685-.462-2.579-.279-1.685-.51-3.371-.725-5.056-.423-3.371-.8-6.683-1.068-9.911q-.9-9.708-1.22-18.481c-.223-5.84-.255-11.318-.064-16.391a70.348,70.348,0,0,1,1.642-13.9,24.044,24.044,0,0,1,5.086-9.995,16.714,16.714,0,0,1,11.472-5.7,11.9,11.9,0,0,1,1.284,0,3.349,3.349,0,0,1,.43,0H143a11.362,11.362,0,0,0-1.268.059,16.99,16.99,0,0,0-4.783,1.129,16.57,16.57,0,0,0-6.529,4.635,23.9,23.9,0,0,0-4.951,9.936,70.39,70.39,0,0,0-1.594,13.838c-.183,5.057-.128,10.543.1,16.366s.646,11.992,1.252,18.456c.3,3.236.654,6.54,1.084,9.9.215,1.685.446,3.371.726,5.056.136.843.287,1.685.462,2.528.088.43.183.843.287,1.273.056.211.112.413.183.615a1.538,1.538,0,0,0,.112.278.5.5,0,0,0,.064.118h0a.187.187,0,0,0,0,.1l.048-.093a224.093,224.093,0,0,0,26.771,9.565c4.736,1.365,9.615,2.528,14.589,3.6s10.125,1.829,15.267,2.41h-.056l1.411-.27,18.878-3.683-.167.244c-.8-7.012-1.642-13.888-2.392-20.377l.207.185-14.932.843h-.12l-.064-.126a10.313,10.313,0,0,0-6.617-5.621c-2.822-.843-5.581-1.559-8.331-2.275-5.453-1.441-10.683-2.756-15.626-3.978h-.135v-.143c.359-10.265.678-19.611.965-27.869s.072-15.439-1.18-21.161a30.944,30.944,0,0,0-2.5-7.365,16.439,16.439,0,0,0-3.285-4.534,14.055,14.055,0,0,0-1.539-1.256c-.486-.295-.893-.548-1.236-.725C147.437,242.645,147.078,242.468,147.078,242.468Z" transform="translate(-121.718 -150.149)" fill="#263238"/>
      <path id="Trazado_159170" data-name="Trazado 159170" d="M202.792,353.79c-.112,0,.08-4.3.438-9.582s.725-9.557.845-9.548-.08,4.3-.438,9.582A94.755,94.755,0,0,1,202.792,353.79Z" transform="translate(-137.809 -164.834)" fill="#263238"/>
      <path id="Trazado_159171" data-name="Trazado 159171" d="M149.82,328.941a1.888,1.888,0,0,1,.183-.674,11.119,11.119,0,0,1,.8-1.685,16.491,16.491,0,0,1,4.114-4.551,30.5,30.5,0,0,1,5.158-3.127,12.6,12.6,0,0,1,2.272-.994,15.659,15.659,0,0,1-2.145,1.264,41.714,41.714,0,0,0-5.039,3.211,18.213,18.213,0,0,0-4.114,4.365C150.219,328.031,149.884,328.941,149.82,328.941Z" transform="translate(-127.075 -162.2)" fill="#263238"/>
      <path id="Trazado_159172" data-name="Trazado 159172" d="M168.635,364.905a1.051,1.051,0,0,1-.383.093l-1.124.194c-.973.169-2.392.346-4.154.489s-3.867.236-6.2.219a68.612,68.612,0,0,1-7.582-.5c-2.679-.32-5.206-.843-7.494-1.332a56.047,56.047,0,0,1-5.987-1.685c-1.682-.556-3.029-1.079-3.946-1.475l-1.044-.455a1.743,1.743,0,0,1-.359-.185,1.1,1.1,0,0,1,.383.1l1.076.379c.933.345,2.288.843,3.986,1.332s3.715,1.087,5.979,1.61a72.986,72.986,0,0,0,7.462,1.289c2.679.329,5.222.472,7.542.531s4.417,0,6.179-.126,3.189-.228,4.154-.346l1.124-.11A1.431,1.431,0,0,1,168.635,364.905Z" transform="translate(-123.129 -168.862)" fill="#263238"/>
      <path id="Trazado_159173" data-name="Trazado 159173" d="M257.234,326c-.6-.9-1.594-.759-2.44-.11l-2.822,1.98a11.466,11.466,0,0,1-2.5,1.1l-1.2.228a8.781,8.781,0,0,1-6.761-1.517l-.486-.346s7.725-1.854,8.9-2.916h0a1.754,1.754,0,0,0,.362-2.017,1.57,1.57,0,0,0-1.749-.891l-9.726,1.576a19.418,19.418,0,0,0-8.794,3.885,61.178,61.178,0,0,1-6.856,4.745l1.69,15.582,2.766-.725,5.039.472a17.187,17.187,0,0,0,9.846-2.065,19.35,19.35,0,0,0,3.811-2.385,30.223,30.223,0,0,0,1.164-3.885s1.913-1.256,1.985-2.115a14.563,14.563,0,0,0-.152-2.419s4.887-3.068,6.163-4.129C257.744,328.112,257.776,326.814,257.234,326Z" transform="translate(-141.946 -162.761)" fill="#b78876"/>
      <path id="Trazado_159174" data-name="Trazado 159174" d="M248.77,339.547a10.009,10.009,0,0,0,3.149-1.2,10.156,10.156,0,0,0,2.8-1.921c-.048-.084-1.3.767-2.942,1.626S248.738,339.437,248.77,339.547Z" transform="translate(-147.139 -165.112)" fill="#aa6550"/>
      <path id="Trazado_159175" data-name="Trazado 159175" d="M250.07,343.365a3.169,3.169,0,0,0,1.73-.514,3.3,3.3,0,0,0,1.419-1.172,12.863,12.863,0,0,0-1.594.843A11.794,11.794,0,0,0,250.07,343.365Z" transform="translate(-147.402 -165.938)" fill="#aa6550"/>
      <path id="Trazado_159176" data-name="Trazado 159176" d="M243.73,327.33a5.285,5.285,0,0,0,1.172.885,16.019,16.019,0,0,0,3.141,1.584,10.745,10.745,0,0,0,3.436.607,4.355,4.355,0,0,0,1.443-.152,17.472,17.472,0,0,1-4.783-.775A21.518,21.518,0,0,1,245.006,328,7.24,7.24,0,0,0,243.73,327.33Z" transform="translate(-146.117 -163.682)" fill="#aa6550"/>
      <g id="Grupo_108832" data-name="Grupo 108832" transform="translate(18.105 75.312)" opacity="0.3">
        <path id="Trazado_159177" data-name="Trazado 159177" d="M144,222.51a30.353,30.353,0,0,0,9,9.321,85.4,85.4,0,0,0,11.161,6.464c1.762.893,3.627,1.8,5.581,1.643a2.489,2.489,0,0,0,1.483-.556,3.479,3.479,0,0,0,.8-2.124,73.317,73.317,0,0,0,.574-12.051,44.564,44.564,0,0,1-4.568,11.335s-3.077-2.823-12.58-6.885C145.81,225.535,144,222.51,144,222.51Z" transform="translate(-144 -222.51)"/>
      </g>
      <path id="Trazado_159178" data-name="Trazado 159178" d="M158.535,428.662c-.12,0-.271-6.118-.343-13.661s0-13.661.08-13.661.271,6.118.335,13.661S158.647,428.653,158.535,428.662Z" transform="translate(-128.767 -175.321)" fill="#455a64"/>
    </g>
    <g id="freepik--Desk--inject-26" transform="translate(-1784.427 -9546.824)">
      <path id="Trazado_159179" data-name="Trazado 159179" d="M442.794,464.767c0,.118-91.292.219-203.9.219S35,464.928,35,464.767s91.268-.228,203.9-.228S442.794,464.641,442.794,464.767Z" transform="translate(-35 -464.54)" fill="#263238"/>
    </g>
  </g>
</svg>
