<svg xmlns="http://www.w3.org/2000/svg" width="370.812" height="370.821" viewBox="0 0 370.812 370.821">
  <g id="Confirmed_attendance-pana" data-name="Confirmed attendance-pana" transform="translate(-27.456 -24.065)">
    <g id="freepik--background-complete--inject-2" transform="translate(27.456 24.065)">
      <path id="Trazado_159182" data-name="Trazado 159182" d="M377.668,91.189a18.865,18.865,0,1,0-13.7,0c-29,4.108-27.669,33.7-27.669,33.7l68.569.293S406.419,95.272,377.668,91.189Z" transform="translate(-77.345 -29.021)" fill="#ebebeb"/>
      <circle id="Elipse_5112" data-name="Elipse 5112" cx="20.123" cy="20.123" r="20.123" transform="matrix(0.01, -1, 1, 0.01, 303.519, 111.169)" fill="#e0e0e0"/>
      <path id="Trazado_159183" data-name="Trazado 159183" d="M429.738,131.145a1.6,1.6,0,0,1,0-.327v-2.5a14.723,14.723,0,0,0-.2-2.1,19.379,19.379,0,0,0-1.677-5.534,20.122,20.122,0,0,0-4.452-6.171,19.88,19.88,0,0,0-18.446-4.855,20.244,20.244,0,0,0-2.708.838,20.883,20.883,0,0,0-2.6,1.3,18.521,18.521,0,0,0-4.637,3.748,19.477,19.477,0,0,0-3.421,5.148,19.779,19.779,0,0,0-1.35,12.493,19.378,19.378,0,0,0,2.239,5.76,23.473,23.473,0,0,0,1.677,2.515,22.557,22.557,0,0,0,2.037,2.155,20.2,20.2,0,0,0,2.255,1.819,20.667,20.667,0,0,0,2.457,1.417,20.031,20.031,0,0,0,10.313,2,19.754,19.754,0,0,0,8.753-2.784,20.041,20.041,0,0,0,5.676-5.081,19.086,19.086,0,0,0,2.792-5.031,14.057,14.057,0,0,0,.646-2.012c.084-.3.168-.57.218-.838s.092-.486.126-.7c.075-.394.126-.7.176-.939a1.457,1.457,0,0,1,.067-.319,1.613,1.613,0,0,1,0,.327l-.134.947-.1.7c-.05.252-.126.528-.2.838a14.6,14.6,0,0,1-.612,2.046,18.856,18.856,0,0,1-2.758,5.131,20.1,20.1,0,0,1-25.07,6.07,22.221,22.221,0,0,1-2.515-1.434,21.952,21.952,0,0,1-2.306-1.861,22.556,22.556,0,0,1-2.088-2.2,23.406,23.406,0,0,1-1.727-2.515,19.837,19.837,0,0,1-2.3-5.869,20.123,20.123,0,0,1,1.383-12.761,19.529,19.529,0,0,1,3.5-5.257,23.211,23.211,0,0,1,2.23-2.13,24.312,24.312,0,0,1,2.515-1.677,19.083,19.083,0,0,1,5.416-2.188,20.217,20.217,0,0,1,23.225,11.319,19.124,19.124,0,0,1,1.6,5.609,14.47,14.47,0,0,1,.159,2.121c0,.31,0,.6,0,.838a3.169,3.169,0,0,1-.05.7q-.05.6-.075.956A1.42,1.42,0,0,1,429.738,131.145Z" transform="translate(-85.924 -37.745)" fill="#fff"/>
      <path id="Trazado_159184" data-name="Trazado 159184" d="M409.93,140.6l-10.43-8.745,3.052-3.639,6.993,5.861,10.741-11.4,3.454,3.253Z" transform="translate(-87.556 -39.994)" fill="#fff"/>
      <path id="Trazado_159185" data-name="Trazado 159185" d="M446.327,95.46a59.36,59.36,0,0,1-4.939,5.291,59.531,59.531,0,0,1-5.249,5.031,60.918,60.918,0,0,1,4.939-5.291,60.949,60.949,0,0,1,5.249-5.031Z" transform="translate(-93.475 -35.598)" fill="#e0e0e0"/>
      <path id="Trazado_159186" data-name="Trazado 159186" d="M465.3,113.39a4.376,4.376,0,0,1-.838.4c-.553.243-1.367.562-2.381.931-2.021.755-4.846,1.677-8.016,2.574s-6.087,1.518-8.209,1.92c-1.056.193-1.92.344-2.515.419a4.561,4.561,0,0,1-.939.092,3.4,3.4,0,0,1,.906-.26l2.515-.553c2.1-.478,4.989-1.165,8.158-2.037s5.995-1.769,8.032-2.44l2.423-.838A4,4,0,0,1,465.3,113.39Z" transform="translate(-94.486 -38.495)" fill="#e0e0e0"/>
      <path id="Trazado_159187" data-name="Trazado 159187" d="M455.153,145.205a54.5,54.5,0,0,1-6.2-3.22,55.816,55.816,0,0,1-5.987-3.605,57.77,57.77,0,0,1,6.2,3.228,55.964,55.964,0,0,1,5.978,3.6Z" transform="translate(-94.578 -42.532)" fill="#e0e0e0"/>
      <path id="Trazado_159188" data-name="Trazado 159188" d="M418.253,80.695a6.49,6.49,0,1,0-4.721,0C403.564,82.1,404,92.274,404,92.274l23.577.1S428.139,82.1,418.253,80.695Z" transform="translate(-88.282 -31.188)" fill="#ebebeb"/>
      <path id="Trazado_159189" data-name="Trazado 159189" d="M37.291,252.265s-7.731,1.434-2.515,18.018,9.307,25.07,9.307,25.07.771,3.773-2.348,3.807S32.151,297,30.156,300.41s.084,7.546,5.182,11.68,15.931,13.474,16.887,14.321,1.736,2.666-.386,3.027-17.356-.679-17.423,6.473,16.023,16.266,17.759,17.3,2.046,1.887,1.677,2.868-5.425.159-9.768.042-9.408.495-9.1,4.62S44,374.932,68.3,381.564l11.462,2.348,8-8.51c15.931-19.285,17.155-32.415,14.992-35.97s-6.657-1.165-10.137,1.409-7.144,6.138-7.991,5.525-1.1-1.484-.285-3.354,8.611-18.446,4.368-24.231-16.082,3.723-18.018,4.637-2.373-1.023-2.079-2.247S72.238,306.078,74,299.856s1.14-10.766-2.616-12.485c-3.631-1.677-7.622,3.823-10.187,5.576s-4.15-1.769-4.15-1.769-1.61-9.24-7.1-25.766-12.8-13.147-12.8-13.147" transform="translate(-27.771 -60.883)" fill="#ebebeb"/>
      <path id="Trazado_159190" data-name="Trazado 159190" d="M82.3,389.6c-3.983-12.124-10.69-33.8-16.543-52.379S54.576,301.851,50.66,289.7l-4.653-14.38c-.545-1.677-.964-3-1.266-3.907l-.319-1.023c-.067-.226-.092-.352-.092-.352s.05.117.134.344l.352,1.006,1.325,3.89c1.149,3.354,2.784,8.284,4.771,14.346,3.983,12.124,9.34,28.927,15.193,47.5s12.527,40.246,16.451,52.4" transform="translate(-30.182 -63.8)" fill="#e0e0e0"/>
      <path id="Trazado_159191" data-name="Trazado 159191" d="M40.9,313.82a3.471,3.471,0,0,1,.763.361c.486.243,1.174.629,2.012,1.107,1.677.956,3.974,2.339,6.473,3.916l6.389,4.05,1.937,1.207a3.89,3.89,0,0,1,.7.478,4.5,4.5,0,0,1-.771-.352c-.478-.252-1.165-.637-2-1.124-1.677-.973-3.949-2.39-6.448-3.957l-6.414-4L41.6,314.3a3.593,3.593,0,0,1-.7-.478Z" transform="translate(-29.628 -70.872)" fill="#e0e0e0"/>
      <path id="Trazado_159192" data-name="Trazado 159192" d="M63.79,322.291c-.084-.05,2.6-4.83,6-10.674s6.238-10.548,6.33-10.5-2.608,4.829-6.012,10.674S63.873,322.341,63.79,322.291Z" transform="translate(-33.325 -68.821)" fill="#e0e0e0"/>
      <path id="Trazado_159193" data-name="Trazado 159193" d="M73,357.865a3.6,3.6,0,0,1,.6-.62l1.677-1.61c1.434-1.358,3.354-3.236,5.484-5.391s3.916-4.192,5.224-5.634l1.534-1.727a3.447,3.447,0,0,1,.6-.612,4.25,4.25,0,0,1-.495.7c-.335.436-.838,1.065-1.467,1.819-1.266,1.509-3.069,3.555-5.165,5.71s-4.092,4.025-5.567,5.333c-.738.654-1.342,1.182-1.769,1.526a4.114,4.114,0,0,1-.654.511Z" transform="translate(-34.813 -75.468)" fill="#e0e0e0"/>
      <path id="Trazado_159194" data-name="Trazado 159194" d="M49.72,354a4.193,4.193,0,0,1,.78.151l2.1.537c1.778.461,4.192,1.132,6.909,1.887s5.115,1.467,6.867,2l2.079.637a3.444,3.444,0,0,1,.746.285,3.454,3.454,0,0,1-.788-.151l-2.1-.528c-1.769-.47-4.192-1.132-6.9-1.895s-5.123-1.459-6.875-1.987l-2.071-.646A3.22,3.22,0,0,1,49.72,354Z" transform="translate(-31.052 -77.363)" fill="#e0e0e0"/>
      <path id="Trazado_159195" data-name="Trazado 159195" d="M53.89,385.47a5.674,5.674,0,0,1,1,.2l2.7.671c2.272.587,5.408,1.417,8.863,2.356s6.582,1.811,8.846,2.457l2.666.78a5.247,5.247,0,0,1,.964.335,5.67,5.67,0,0,1-1.006-.2l-2.7-.671c-2.272-.587-5.408-1.417-8.863-2.356s-6.582-1.8-8.837-2.457l-2.7-.78a5.245,5.245,0,0,1-.931-.335Z" transform="translate(-31.726 -82.447)" fill="#e0e0e0"/>
      <path id="Trazado_159196" data-name="Trazado 159196" d="M83.09,389.271a6.545,6.545,0,0,1,.729-.838l2.071-2.113c1.752-1.786,4.15-4.259,6.708-7.068s4.846-5.4,6.473-7.286l1.937-2.239a5.37,5.37,0,0,1,.738-.8,7.025,7.025,0,0,1-.629.838c-.428.553-1.056,1.35-1.845,2.314-1.576,1.937-3.815,4.561-6.406,7.37s-5.031,5.266-6.808,7c-.9.838-1.677,1.568-2.155,2.037a6.71,6.71,0,0,1-.813.78Z" transform="translate(-36.443 -79.775)" fill="#e0e0e0"/>
      <path id="Trazado_159197" data-name="Trazado 159197" d="M70,53.868l4.544-2.029,3.748-18.228-4.041-9.064s6.825-3.563,11.294,8.686,4.016,8.8,4.016,8.8,14.925-6.59,16.769-5.869c1.316.545,8.326,15.168,12.065,23.125,1.878,4.008,1.082,8.871-2.255,11.5a7.043,7.043,0,0,1-1.509.931c-3.714,1.677-24.055,7.1-24.055,7.1l-7.84,3.5Z" transform="translate(-34.328 -24.065)" fill="#f5f5f5"/>
      <path id="Trazado_159198" data-name="Trazado 159198" d="M53.18,62.763,69.823,92.579,77.6,89.108,64.021,58.68Z" transform="translate(-31.611 -29.657)" fill="#f5f5f5"/>
      <path id="Trazado_159199" data-name="Trazado 159199" d="M43.155,172.138a7.152,7.152,0,1,0-5.2,0c-11,1.551-10.5,12.745-10.5,12.745l25.992.109S54.055,173.681,43.155,172.138Z" transform="translate(-27.456 -45.753)" fill="#f5f5f5"/>
    </g>
    <g id="freepik--Floor--inject-2" transform="translate(40.112 394.45)">
      <path id="Trazado_159200" data-name="Trazado 159200" d="M388.75,466.028c0,.126-77.507.218-173.092.218s-173.108-.092-173.108-.218,77.49-.218,173.108-.218S388.75,465.911,388.75,466.028Z" transform="translate(-42.55 -465.81)" fill="#263238"/>
    </g>
    <g id="freepik--Device--inject-2" transform="translate(66.129 60.718)">
      <path id="Trazado_159201" data-name="Trazado 159201" d="M211.75,401.73l-113.46-.059A24.718,24.718,0,0,1,73.58,376.954l.059-284.464A24.718,24.718,0,0,1,98.373,67.78l113.46.067a24.709,24.709,0,0,1,24.7,24.718l-.05,284.464a24.718,24.718,0,0,1-24.735,24.7Z" transform="translate(-73.58 -67.78)" fill="#263238"/>
      <path id="Trazado_159202" data-name="Trazado 159202" d="M213.165,79.84h-22a5.467,5.467,0,0,0-5.341,5.584v3.991A5.467,5.467,0,0,1,180.482,95H137.595a5.475,5.475,0,0,1-5.341-5.593V85.374A5.475,5.475,0,0,0,126.9,79.79H99.923A17.306,17.306,0,0,0,82.609,97.1L82.55,374.752a17.314,17.314,0,0,0,17.3,17.314l113.242.067a17.323,17.323,0,0,0,17.323-17.306L230.5,97.154A17.314,17.314,0,0,0,213.165,79.84Z" transform="translate(-75.029 -69.72)" fill="#fff"/>
      <path id="Trazado_159203" data-name="Trazado 159203" d="M208.985,423.427H112.16a4.368,4.368,0,0,1-4.36-4.368v-26.47a4.368,4.368,0,0,1,4.36-4.368h96.825a4.368,4.368,0,0,1,4.36,4.368v26.47A4.368,4.368,0,0,1,208.985,423.427ZM112.16,389.058a3.53,3.53,0,0,0-3.522,3.53v26.47a3.53,3.53,0,0,0,3.522,3.53h96.825a3.53,3.53,0,0,0,3.521-3.53v-26.47a3.53,3.53,0,0,0-3.522-3.53Z" transform="translate(-79.108 -119.544)" fill="#e0e0e0"/>
      <path id="Trazado_159204" data-name="Trazado 159204" d="M136.589,405.228a7.84,7.84,0,1,0-14.6,3.966h0c.3.511.679.839,1.056,1.4l4.553,6.037a1.425,1.425,0,0,0,2.264,0l4.477-5.936a17.157,17.157,0,0,0,1.132-1.509h0A7.848,7.848,0,0,0,136.589,405.228Zm-7.84,3.421a3.454,3.454,0,1,1,3.446-3.454A3.454,3.454,0,0,1,128.75,408.649Z" transform="translate(-81.226 -121.024)" fill="#dce736"/>
      <rect id="Rectángulo_41213" data-name="Rectángulo 41213" width="56.822" height="9.307" rx="4.653" transform="translate(67.412 281.932)" fill="#e0e0e0"/>
      <path id="Trazado_159205" data-name="Trazado 159205" d="M106.59,326.664c0-3.538,2.708-6.045,6.4-6.045a6.163,6.163,0,0,1,5.031,2.188l-2.1,1.895a3.429,3.429,0,0,0-2.742-1.358,3.354,3.354,0,0,0,0,6.641,3.437,3.437,0,0,0,2.742-1.367l2.1,1.895a6.146,6.146,0,0,1-5.031,2.2C109.3,332.676,106.59,330.2,106.59,326.664Z" transform="translate(-78.912 -108.622)" fill="#dce736"/>
      <path id="Trazado_159206" data-name="Trazado 159206" d="M120.91,326.665c0-3.488,2.742-6.045,6.456-6.045s6.465,2.557,6.465,6.045-2.742,6.045-6.465,6.045S120.91,330.162,120.91,326.665Zm9.6,0a3.144,3.144,0,1,0-3.144,3.354,3.111,3.111,0,0,0,3.144-3.354Z" transform="translate(-81.226 -108.624)" fill="#dce736"/>
      <path id="Trazado_159207" data-name="Trazado 159207" d="M149.439,320.89v11.629h-2.708l-5.131-6.2v6.2h-3.22V320.89h2.708l5.131,6.2v-6.2Z" transform="translate(-84.048 -108.667)" fill="#dce736"/>
      <path id="Trazado_159208" data-name="Trazado 159208" d="M157.627,323.439v2.515h5.131v2.515h-5.131v3.983H154.34V320.89h9.114v2.515Z" transform="translate(-86.626 -108.667)" fill="#dce736"/>
      <path id="Trazado_159209" data-name="Trazado 159209" d="M167.06,320.89h3.3v11.629h-3.287Z" transform="translate(-88.681 -108.667)" fill="#dce736"/>
      <path id="Trazado_159210" data-name="Trazado 159210" d="M178.851,329.434h-1.794v3.086H173.77V320.89h5.316c3.169,0,5.165,1.677,5.165,4.3a3.857,3.857,0,0,1-2.281,3.672l2.515,3.656h-3.513Zm0-5.953h-1.828v3.413h1.828c1.358,0,2.046-.637,2.046-1.677s-.654-1.719-2.012-1.719Z" transform="translate(-89.765 -108.667)" fill="#dce736"/>
      <path id="Trazado_159211" data-name="Trazado 159211" d="M198.924,332.519v-6.163l-2.985,5.031h-1.467l-2.968-4.846v5.995H188.46V320.89h2.708l4.092,6.708,3.983-6.708h2.708v11.629Z" transform="translate(-92.138 -108.667)" fill="#dce736"/>
      <path id="Trazado_159212" data-name="Trazado 159212" d="M216.652,329.979v2.515H207.32v-11.6h9.114v2.515h-5.869v1.954h5.165v2.457h-5.157v2.13Z" transform="translate(-95.184 -108.667)" fill="#dce736"/>
      <path id="Trazado_159213" data-name="Trazado 159213" d="M220.63,320.89h5.492c3.857,0,6.5,2.247,6.5,5.819s-2.641,5.811-6.5,5.811H220.63ZM226,329.9a3.195,3.195,0,1,0,0-6.381h-2.079V329.9Z" transform="translate(-97.335 -108.667)" fill="#dce736"/>
      <path id="Trazado_159214" data-name="Trazado 159214" d="M122.836,349.676h-4.9l-1.056,2.348h-.964l4.025-8.8h.914l4.025,8.8h-.981Zm-.335-.755-2.113-4.729-2.113,4.712Z" transform="translate(-80.418 -112.275)" fill="#dce736"/>
      <path id="Trazado_159215" data-name="Trazado 159215" d="M129.264,344.018H126.17v-.838h7.119v.838H130.22v8h-.931Z" transform="translate(-82.075 -112.268)" fill="#dce736"/>
      <path id="Trazado_159216" data-name="Trazado 159216" d="M138.024,344.018H134.93v-.838h7.119v.838h-3.094v8h-.931Z" transform="translate(-83.491 -112.268)" fill="#dce736"/>
      <path id="Trazado_159217" data-name="Trazado 159217" d="M151.411,351.225v.838H145.19v-8.8h6.037v.838h-5.106v3.136h4.553v.788h-4.553v3.27Z" transform="translate(-85.148 -112.281)" fill="#dce736"/>
      <path id="Trazado_159218" data-name="Trazado 159218" d="M162.582,343.22v8.8h-.771l-5.66-7.144v7.144h-.931v-8.8h.771l5.668,7.144V343.22Z" transform="translate(-86.768 -112.275)" fill="#dce736"/>
      <path id="Trazado_159219" data-name="Trazado 159219" d="M167.41,343.22H171c2.817,0,4.712,1.811,4.712,4.4s-1.895,4.4-4.712,4.4H167.41Zm3.538,8a3.605,3.605,0,1,0,0-7.194h-2.608v7.194Z" transform="translate(-88.737 -112.275)" fill="#dce736"/>
      <path id="Trazado_159220" data-name="Trazado 159220" d="M184.909,349.676H180l-1.056,2.348H178l4.025-8.8h.922l4.025,8.8h-1.006Zm-.344-.755-2.113-4.729-2.113,4.712Z" transform="translate(-90.448 -112.275)" fill="#dce736"/>
      <path id="Trazado_159221" data-name="Trazado 159221" d="M197.763,343.22v8.8H197l-5.66-7.144v7.144h-.931v-8.8h.763l5.676,7.144V343.22Z" transform="translate(-92.453 -112.275)" fill="#dce736"/>
      <path id="Trazado_159222" data-name="Trazado 159222" d="M201.67,347.607a4.427,4.427,0,0,1,4.62-4.477,4.259,4.259,0,0,1,3.22,1.283l-.6.6a3.48,3.48,0,0,0-2.6-1.048,3.647,3.647,0,1,0,0,7.295,3.421,3.421,0,0,0,2.6-1.057l.6.6a4.285,4.285,0,0,1-3.236,1.291,4.41,4.41,0,0,1-4.6-4.477Z" transform="translate(-94.272 -112.259)" fill="#dce736"/>
      <path id="Trazado_159223" data-name="Trazado 159223" d="M219.611,351.225v.838H213.39v-8.8h6.037v.838h-5.106v3.136h4.553v.788h-4.553v3.27Z" transform="translate(-96.165 -112.281)" fill="#dce736"/>
      <rect id="Rectángulo_41214" data-name="Rectángulo 41214" width="81.045" height="8.024" rx="4.012" transform="translate(40.959 250.045)" fill="#e0e0e0"/>
      <path id="Trazado_159224" data-name="Trazado 159224" d="M112.075,113.367H101.518a.838.838,0,0,1-.838-.838h0a.838.838,0,0,1,.838-.838h10.556a.838.838,0,0,1,.838.838h0A.838.838,0,0,1,112.075,113.367Z" transform="translate(-77.958 -74.873)" fill="#263238"/>
      <path id="Trazado_159225" data-name="Trazado 159225" d="M111.956,117.457H101.408a.838.838,0,0,1-.838-.838h0a.838.838,0,0,1,.838-.838h10.548a.838.838,0,0,1,.838.838h0A.838.838,0,0,1,111.956,117.457Z" transform="translate(-77.94 -75.534)" fill="#263238"/>
      <path id="Trazado_159226" data-name="Trazado 159226" d="M111.811,121.537H101.288a.838.838,0,0,1-.838-.838h0a.838.838,0,0,1,.838-.838h10.523a.838.838,0,0,1,.838.838h0A.838.838,0,0,1,111.811,121.537Z" transform="translate(-77.921 -76.193)" fill="#263238"/>
    </g>
    <g id="freepik--Calendar--inject-2" transform="translate(187.285 33.205)">
      <path id="Trazado_159227" data-name="Trazado 159227" d="M295.033,49.722l-60.512-9.735a5.618,5.618,0,0,0-6.406,4.662l-9.709,60.512a5.609,5.609,0,0,0,4.645,6.431l1.811.285,16.811,2.733,41.864,6.708a5.6,5.6,0,0,0,6.423-4.645l9.718-60.512a5.609,5.609,0,0,0-4.645-6.439Z" transform="translate(-218.119 -35.766)" fill="#fff"/>
      <path id="Trazado_159228" data-name="Trazado 159228" d="M0,0H72.5V18.211a4.679,4.679,0,0,1-4.679,4.679H4.88A4.88,4.88,0,0,1,0,18.01V0Z" transform="matrix(-0.987, -0.159, 0.159, -0.987, 78.817, 37.439)" fill="#dce736"/>
      <path id="Trazado_159229" data-name="Trazado 159229" d="M259.837,82.472l-3.907,24.315-5.634-.9,3.186-19.821-4.871-.78.729-4.519Z" transform="translate(-223.01 -42.365)" fill="#263238"/>
      <path id="Trazado_159230" data-name="Trazado 159230" d="M285.743,86.657l-.587,3.647L272.8,109.539l-6.121-.981,11.9-18.346-8.066-1.258-.637,3.966-5.031-.838,1.375-8.552Z" transform="translate(-225.632 -42.811)" fill="#263238"/>
      <path id="Trazado_159231" data-name="Trazado 159231" d="M259.34,59.186c0,.126,4.88,1.023,10.95,2s11,1.677,11.017,1.534-4.88-1.023-10.942-2S259.365,59.026,259.34,59.186Z" transform="translate(-224.744 -38.875)" fill="#263238"/>
      <path id="Trazado_159232" data-name="Trazado 159232" d="M294.992,49.687a4.084,4.084,0,0,1,.7.143,5.5,5.5,0,0,1,1.895.956,5.618,5.618,0,0,1,1.937,2.834,5.525,5.525,0,0,1,.21,2.2c-.092.788-.243,1.61-.377,2.515-1.115,7.018-2.717,17.146-4.7,29.673-1.006,6.263-2.1,13.122-3.27,20.484-.293,1.845-.587,3.714-.9,5.618-.159.956-.285,1.9-.478,2.884a5.761,5.761,0,0,1-1.375,2.675,5.869,5.869,0,0,1-2.591,1.627,6.238,6.238,0,0,1-3.094.092l-6.129-.981L222.96,111.75a5.869,5.869,0,0,1-4.838-5.031,6.4,6.4,0,0,1,.05-1.836l.285-1.761c.193-1.174.377-2.339.562-3.5l2.214-13.742c1.451-9.013,2.842-17.7,4.192-25.992q1.006-6.213,1.954-12.1c.159-.981.319-1.954.47-2.918a7.49,7.49,0,0,1,.361-1.451,5.5,5.5,0,0,1,.713-1.308,5.777,5.777,0,0,1,2.247-1.87,5.869,5.869,0,0,1,2.826-.52c7.4,1.14,14.254,2.289,20.5,3.287l29.648,4.821,8.041,1.35,2.1.361c.47.075.713.134.713.134a3.857,3.857,0,0,1-.721-.1l-2.1-.31L284.1,48l-29.673-4.7c-6.23-.973-13.13-2.1-20.484-3.228a5.425,5.425,0,0,0-4.779,2.255,5.869,5.869,0,0,0-.662,1.233,6.884,6.884,0,0,0-.335,1.392c-.159.964-.31,1.937-.47,2.918l-1.937,12.1-4.192,25.992q-1.082,6.766-2.2,13.751c-.193,1.157-.377,2.331-.562,3.5a13.5,13.5,0,0,0-.344,3.488,5.442,5.442,0,0,0,4.519,4.662l53.863,8.661,6.129.989a5.785,5.785,0,0,0,2.935-.084,5.425,5.425,0,0,0,2.432-1.518,5.341,5.341,0,0,0,1.3-2.515c.184-.939.319-1.92.478-2.859q.47-2.859.914-5.618c1.191-7.362,2.3-14.254,3.312-20.475,2.029-12.518,3.681-22.638,4.821-29.656.134-.838.293-1.677.386-2.515a5.341,5.341,0,0,0-.184-2.155,5.584,5.584,0,0,0-3.723-3.781c-.226-.084-.411-.1-.52-.143Z" transform="translate(-218.078 -35.731)" fill="#263238"/>
      <rect id="Rectángulo_41215" data-name="Rectángulo 41215" width="16.375" height="4.721" rx="2.36" transform="matrix(0.159, -0.987, 0.987, 0.159, 32.228, 16.168)" fill="#e0e0e0"/>
      <path id="Trazado_159233" data-name="Trazado 159233" d="M258.834,51.515a2.809,2.809,0,0,1-1.241-.755,2.188,2.188,0,0,1-.545-1.543c.067-.646.243-1.434.377-2.281l1.015-5.995c.184-1.132.377-2.323.579-3.547a2.147,2.147,0,0,1,.839-1.451,2.215,2.215,0,0,1,3.094.6,2.155,2.155,0,0,1,.243,1.677c-.193,1.224-.377,2.415-.553,3.547-.344,2.247-.654,4.276-.914,6.012-.067.428-.126.838-.176,1.224a6.777,6.777,0,0,1-.2,1.056,2.222,2.222,0,0,1-1.09,1.216,2.935,2.935,0,0,1-1.434.235.981.981,0,0,0,.377.1,2.239,2.239,0,0,0,1.132-.168,2.423,2.423,0,0,0,1.258-1.291,6.045,6.045,0,0,0,.243-1.107c.067-.386.143-.788.218-1.216.285-1.727.629-3.756,1.006-5.995.193-1.132.386-2.314.587-3.547a2.633,2.633,0,0,0-.3-1.987,2.586,2.586,0,0,0-4.779,1.015c-.193,1.233-.377,2.415-.562,3.547-.335,2.247-.646,4.276-.914,6.02-.117.838-.26,1.61-.31,2.331a2.348,2.348,0,0,0,.679,1.677,2.155,2.155,0,0,0,.973.579C258.692,51.54,258.834,51.532,258.834,51.515Z" transform="translate(-224.33 -34.986)" fill="#263238"/>
      <rect id="Rectángulo_41216" data-name="Rectángulo 41216" width="16.375" height="4.721" rx="2.36" transform="matrix(0.159, -0.987, 0.987, 0.159, 54.086, 19.668)" fill="#e0e0e0"/>
      <path id="Trazado_159234" data-name="Trazado 159234" d="M284.9,55.7a2.918,2.918,0,0,1-1.233-.755,2.2,2.2,0,0,1-.553-1.543c.067-.646.243-1.442.377-2.289.293-1.736.637-3.756,1.015-5.995l.579-3.547a2.158,2.158,0,0,1,3.941-.838,2.214,2.214,0,0,1,.243,1.677c-.193,1.233-.386,2.415-.562,3.547-.335,2.247-.646,4.276-.914,6.02-.059.419-.117.838-.176,1.216a6.594,6.594,0,0,1-.2,1.056,2.222,2.222,0,0,1-1.09,1.216,3.018,3.018,0,0,1-1.434.243.922.922,0,0,0,.386.092,2.222,2.222,0,0,0,1.123-.168,2.4,2.4,0,0,0,1.258-1.291,5.22,5.22,0,0,0,.243-1.1c.076-.386.143-.838.218-1.216.293-1.736.629-3.765,1.015-6l.553-3.547a2.616,2.616,0,0,0-.3-1.987,2.515,2.515,0,0,0-1.736-1.165,2.574,2.574,0,0,0-2.029.428,2.515,2.515,0,0,0-.964,1.752c-.193,1.224-.377,2.415-.553,3.547-.344,2.239-.654,4.276-.922,6.012-.109.838-.26,1.61-.31,2.331a2.364,2.364,0,0,0,.679,1.677,2.272,2.272,0,0,0,.973.587A.948.948,0,0,0,284.9,55.7Z" transform="translate(-228.545 -35.662)" fill="#263238"/>
    </g>
    <g id="freepik--character-4--inject-2" transform="translate(248.961 301.909)">
      <rect id="Rectángulo_41217" data-name="Rectángulo 41217" width="139.26" height="56.026" rx="10.02" transform="translate(0.178 0.218)" fill="#fff"/>
      <path id="Trazado_159235" data-name="Trazado 159235" d="M422.682,411.684h.243a3.725,3.725,0,0,0,.721-.059,8.5,8.5,0,0,0,2.708-.838,8.284,8.284,0,0,0,3.354-3.044,8.126,8.126,0,0,0,1.1-2.7,15.405,15.405,0,0,0,.176-3.354c0-4.754,0-10.581,0-17.339V364.537a9.281,9.281,0,0,0-.419-3.06,8.259,8.259,0,0,0-7.236-5.626c-1.107-.059-2.281,0-3.429,0H300.276a8.217,8.217,0,0,0-7.479,4.855,8.108,8.108,0,0,0-.629,2.239,20,20,0,0,0-.084,2.365v37.018a9.223,9.223,0,0,0,.7,4.259,8.234,8.234,0,0,0,6.565,4.813c.7.067,1.409.059,2.13.059h6.389l59.782.05,40.3.067,10.95.042h0l-10.95.042-40.3.067-59.782.05h-6.389a21.009,21.009,0,0,1-2.172-.05A8.653,8.653,0,0,1,292.4,406.7a9.894,9.894,0,0,1-.746-4.427V365.334a18,18,0,0,1,.075-2.415,8.628,8.628,0,0,1,8.544-7.479H423.353a8.536,8.536,0,0,1,7.5,5.869,9.492,9.492,0,0,1,.436,3.153c0,1.04,0,2.063,0,3.077v34.075a16.243,16.243,0,0,1-.2,3.354,8.015,8.015,0,0,1-1.14,2.742,8.385,8.385,0,0,1-3.438,3.06,8.219,8.219,0,0,1-2.733.78A6.017,6.017,0,0,1,422.682,411.684Z" transform="translate(-291.637 -355.44)" fill="#263238"/>
      <path id="Trazado_159236" data-name="Trazado 159236" d="M432.356,399.573a10.3,10.3,0,1,1,10.3-10.3A10.3,10.3,0,0,1,432.356,399.573Zm0-18.916a8.564,8.564,0,1,1,0,.017Z" transform="translate(-312.706 -359.243)" fill="#dce736"/>
      <path id="Trazado_159237" data-name="Trazado 159237" d="M400.327,397.445H364.751a5.693,5.693,0,0,1-5.7-5.693h0a5.693,5.693,0,0,1,5.7-5.7h35.576a5.7,5.7,0,0,1,5.7,5.7h0a5.7,5.7,0,0,1-5.7,5.693Z" transform="translate(-302.527 -360.385)" fill="#e0e0e0"/>
      <circle id="Elipse_5113" data-name="Elipse 5113" cx="21.372" cy="21.372" r="21.372" transform="translate(2.887 16.317) rotate(-18.42)" fill="#fff"/>
      <path id="Trazado_159238" data-name="Trazado 159238" d="M344.51,388.272v-2.113c0-.277-.05-.579-.075-.9a15.4,15.4,0,0,0-.3-2.23,20.5,20.5,0,0,0-2-5.811,21.347,21.347,0,0,0-13.667-10.9,19.689,19.689,0,0,0-2.666-.486c-.453-.042-.906-.117-1.375-.143h-2.113l-.713.067c-.478.042-.964.067-1.442.134a23.027,23.027,0,0,0-5.718,1.677c-.461.21-.914.461-1.367.7a12.005,12.005,0,0,0-1.342.8,25.765,25.765,0,0,0-2.515,1.886,24.377,24.377,0,0,0-2.23,2.323,20.5,20.5,0,0,0-3.4,5.634,21.045,21.045,0,0,0-.838,13.357,20.8,20.8,0,0,0,2.641,6.029,25.556,25.556,0,0,0,1.92,2.591,23.285,23.285,0,0,0,2.264,2.2,11.266,11.266,0,0,0,1.224.964c.428.293.838.6,1.266.838a20.907,20.907,0,0,0,2.683,1.392,23.375,23.375,0,0,0,2.767,1.015c.47.134.947.218,1.409.327l.7.151a6.719,6.719,0,0,0,.7.092l1.392.168H323.1a19.223,19.223,0,0,0,2.7-.134,21.33,21.33,0,0,0,14.967-9.039,20.358,20.358,0,0,0,2.733-5.5,14.7,14.7,0,0,0,.587-2.172c.075-.319.151-.6.193-.88s.067-.52.1-.738c.059-.436.1-.771.134-1.006s.05-.344.05-.344v.344c0,.226-.059.579-.1,1.015a6.764,6.764,0,0,1-.084.746c-.034.277-.109.57-.176.889a15.092,15.092,0,0,1-.562,2.188,20.544,20.544,0,0,1-2.7,5.567,21.523,21.523,0,0,1-15.092,9.223,19.56,19.56,0,0,1-2.733.143h-1.4l-1.417-.159a3.46,3.46,0,0,1-.713-.092l-.713-.151c-.47-.117-.956-.2-1.425-.327a23.647,23.647,0,0,1-2.817-1.023,23.338,23.338,0,0,1-2.725-1.409c-.436-.277-.839-.6-1.283-.889a10.737,10.737,0,0,1-1.241-.973,19.739,19.739,0,0,1-4.251-4.855,20.683,20.683,0,0,1-2.691-6.121,22.855,22.855,0,0,1-.671-6.859,23.149,23.149,0,0,1,1.551-6.708,20.677,20.677,0,0,1,3.463-5.718,23.231,23.231,0,0,1,2.272-2.356,24.326,24.326,0,0,1,2.574-1.912,11.579,11.579,0,0,1,1.358-.838c.461-.235.914-.495,1.383-.7a22.505,22.505,0,0,1,2.884-1.048,22.887,22.887,0,0,1,2.926-.646c.486-.067.973-.092,1.459-.143l.721-.059h2.146a13,13,0,0,1,1.4.151,20.311,20.311,0,0,1,2.691.495,21.532,21.532,0,0,1,13.767,11.084,20.123,20.123,0,0,1,1.962,5.869,15.4,15.4,0,0,1,.277,2.247c0,.327.05.629.059.906v1.769A.649.649,0,0,1,344.51,388.272Z" transform="translate(-293.269 -357.039)" fill="#263238"/>
      <path id="Trazado_159239" data-name="Trazado 159239" d="M305.78,403.691l9.408-2.851,15.293,2.356,10.271,2.289a21.028,21.028,0,0,1-16.945,8.326,21.431,21.431,0,0,1-13.65-5.031,19.813,19.813,0,0,1-4.377-5.09Z" transform="translate(-293.922 -362.774)" fill="#dce736"/>
      <path id="Trazado_159240" data-name="Trazado 159240" d="M337.582,385.887c-.05-2.876-.629-8.779-1.216-14.12a11.084,11.084,0,0,0-11.344-9.869h-.57c-6.179.537-9.164,6.087-8.452,12.242l1.333,21.381,8.561,5.45,5.928-2.515-.059-5.576S337.683,391.832,337.582,385.887Z" transform="translate(-295.556 -356.483)" fill="#ffbf9d"/>
      <path id="Trazado_159241" data-name="Trazado 159241" d="M337.515,380.386a.846.846,0,1,1-.9-.746A.838.838,0,0,1,337.515,380.386Z" transform="translate(-298.776 -359.349)" fill="#263238"/>
      <path id="Trazado_159242" data-name="Trazado 159242" d="M338.348,376.647c-.1.109-.755-.344-1.677-.319s-1.576.5-1.677.394.05-.251.335-.47a2.4,2.4,0,0,1,1.342-.453,2.272,2.272,0,0,1,1.333.386C338.281,376.4,338.348,376.588,338.348,376.647Z" transform="translate(-298.636 -358.729)" fill="#263238"/>
      <path id="Trazado_159243" data-name="Trazado 159243" d="M327.485,380.386a.846.846,0,1,1-.9-.746A.838.838,0,0,1,327.485,380.386Z" transform="translate(-297.156 -359.349)" fill="#263238"/>
      <path id="Trazado_159244" data-name="Trazado 159244" d="M327.467,376.675c-.084.126-.788-.252-1.677-.126s-1.509.671-1.618.57,0-.252.285-.5A2.3,2.3,0,0,1,325.7,376a2.222,2.222,0,0,1,1.367.243C327.375,376.44,327.517,376.625,327.467,376.675Z" transform="translate(-296.886 -358.757)" fill="#263238"/>
      <path id="Trazado_159245" data-name="Trazado 159245" d="M332.249,384.2a6.044,6.044,0,0,1,1.476-.31c.235,0,.453-.084.486-.243a1.157,1.157,0,0,0-.176-.687L333.3,381.2a30.867,30.867,0,0,1-1.677-4.6,30.919,30.919,0,0,1,2.046,4.452l.713,1.769a1.325,1.325,0,0,1,.151.914.578.578,0,0,1-.377.352,1.431,1.431,0,0,1-.394.067A5.951,5.951,0,0,1,332.249,384.2Z" transform="translate(-298.096 -358.858)" fill="#263238"/>
      <path id="Trazado_159246" data-name="Trazado 159246" d="M327.321,371.987c-.084.251-1.006.159-2.071.319s-1.928.478-2.079.26.084-.344.428-.6a3.437,3.437,0,0,1,1.526-.587,3.488,3.488,0,0,1,1.627.151C327.145,371.676,327.355,371.894,327.321,371.987Z" transform="translate(-296.724 -358.01)" fill="#263238"/>
      <path id="Trazado_159247" data-name="Trazado 159247" d="M338.072,372.427c-.151.21-.788,0-1.543,0s-1.4.176-1.551,0,0-.319.3-.52a2.164,2.164,0,0,1,1.249-.377,2.08,2.08,0,0,1,1.241.386C338.047,372.108,338.14,372.318,338.072,372.427Z" transform="translate(-298.629 -358.039)" fill="#263238"/>
      <path id="Trazado_159248" data-name="Trazado 159248" d="M316,381.731c-.1-.042-4.125-1.09-3.874,2.968s4.276,2.976,4.276,2.859S316,381.731,316,381.731Z" transform="translate(-294.946 -359.662)" fill="#ffbf9d"/>
      <path id="Trazado_159249" data-name="Trazado 159249" d="M315.271,386.389s-.076.05-.184.117a.721.721,0,0,1-.528.042,1.744,1.744,0,0,1-.906-1.526,2.264,2.264,0,0,1,.134-1.023.838.838,0,0,1,.495-.579.361.361,0,0,1,.428.168c.067.117,0,.193.067.2s.084-.075.042-.235a.479.479,0,0,0-.176-.252.579.579,0,0,0-.4-.075,1,1,0,0,0-.7.671,2.356,2.356,0,0,0-.176,1.149,1.828,1.828,0,0,0,1.14,1.677.729.729,0,0,0,.637-.151C315.263,386.456,315.28,386.389,315.271,386.389Z" transform="translate(-295.146 -359.927)" fill="#ff9a6c"/>
      <path id="Trazado_159250" data-name="Trazado 159250" d="M335.962,363.973a2.071,2.071,0,0,0-1.61-1.61c.042-.126-.838-.545-1.518-1.023s-.838-1.61-1.442-1.048a1.9,1.9,0,0,0-2.633-1.627c0-.721-1.04-.956-1.736-1.14s-.964-.285-1.291.352a2.767,2.767,0,0,0-4.318-.226,3.547,3.547,0,0,0-4.234,2.021,3.354,3.354,0,0,0-2.884,2.39c-.838.092-1.048.763-1.392,1.551s-.838,1.677-.31,2.339a1.82,1.82,0,0,0-.293,2.876,1.762,1.762,0,0,0-.579.5,28.262,28.262,0,0,1-1.058,4.8,1.887,1.887,0,0,0,1.855,1.214c-.654.947.193,2.222.688,2.515,0,0,1.677-.7,1.945.52h0a.755.755,0,0,0,1.023.763,2.583,2.583,0,0,0,1.014-1.191,5.961,5.961,0,0,0,.839-1.635,1.4,1.4,0,0,0-.612-1.576,2.113,2.113,0,0,0,1.241-1.719,6.112,6.112,0,0,0-.184-2.2c-.226-1.065-.453-2.138-.671-3.2a4.058,4.058,0,0,0,3.438-2.406,2.331,2.331,0,0,0,3.354-.922,3.027,3.027,0,0,0,3.74,1.761c-.134.838,1.392,1.585,2.23,1.786a2.968,2.968,0,0,0,1.853-.419s1.451.838,2.222.47,1.752-1.333,1.232-2.13a3.773,3.773,0,0,0,.092-1.786Z" transform="translate(-294.691 -355.647)" fill="#263238"/>
      <path id="Trazado_159251" data-name="Trazado 159251" d="M329.5,358.84a1.575,1.575,0,0,0-.47-.252.889.889,0,0,0-.6.05.914.914,0,0,0-.478.6l-.042.235-.134-.21a1.476,1.476,0,0,0-1.266-.662,1.434,1.434,0,0,0-1.316,1.056l-.067.268-.176-.218a1.819,1.819,0,0,0-1.425-.629,1.677,1.677,0,0,0-1.417.838,1.627,1.627,0,0,0-.243.662v.168h-.159a1.736,1.736,0,0,0-1.912.956,1.761,1.761,0,0,0,.344,1.895l.159.159-.226.05a1.886,1.886,0,0,0-1.191.838,1.845,1.845,0,0,0-.31,1.09,2.515,2.515,0,0,0,.243.973.8.8,0,0,1-.168-.218,1.886,1.886,0,0,1-.218-.755,2,2,0,0,1,.285-1.2,2.1,2.1,0,0,1,1.308-.947l-.059.21a1.97,1.97,0,0,1,1.811-3.354l-.184.134a2.061,2.061,0,0,1,.277-.788,2.021,2.021,0,0,1,1.677-.989,2.079,2.079,0,0,1,1.677.755l-.243.059A1.677,1.677,0,0,1,328,359.2h-.176a1.023,1.023,0,0,1,.6-.7.972.972,0,0,1,.688,0,.838.838,0,0,1,.352.235A.344.344,0,0,1,329.5,358.84Z" transform="translate(-295.964 -355.922)" fill="#455a64"/>
      <path id="Trazado_159252" data-name="Trazado 159252" d="M337.576,385.675a1.266,1.266,0,0,0-1.878.62,1.61,1.61,0,0,0-1.56-.646,1.677,1.677,0,0,0-1.224,1.165,1.3,1.3,0,0,0-2.163-.369A1.677,1.677,0,0,1,329.124,385a1.023,1.023,0,0,0-1.115.117,1.677,1.677,0,0,0-2.423-.4.906.906,0,0,0-1.752.067,1.459,1.459,0,0,0-1.677-.444.989.989,0,0,0-1.224-.906c.143-.495-.6-.721-.973-1.082a6.924,6.924,0,0,0-.461-.562c-.176-.151-.495-.176-.612,0a.839.839,0,0,0-1.585-.553,2.609,2.609,0,0,0-.134.721c-.109.78-.553,1.677,0,2.247.1.1.226.184.268.31s-.143.444-.159.679.235.486.344.738a2.457,2.457,0,0,1,0,1.207c0,.411.2.931.612.889a1.434,1.434,0,0,0,.444,1.769,1.409,1.409,0,0,0,.838,1.836.713.713,0,0,0-.05.939,2.013,2.013,0,0,0,.839.6.6.6,0,0,0-.143.838,1.383,1.383,0,0,0,.838.486.621.621,0,0,1,.361.184c.143.21-.05.5,0,.755.067.386.612.495.771.839s-.042.763.21,1.006.428.126.646.2c.377.134.545.562.788.88a3.354,3.354,0,0,0,1.979,1.065c.369.092.755.176,1.132.252.763.134,1.526.226,2.3.327.386.042.839.05,1.048-.277a1.333,1.333,0,0,0,2.113-.252,3.2,3.2,0,0,0,2.054-.394l.671-.293c.671-.293,1.425-.662,1.618-1.367a1.484,1.484,0,0,0,1.065-2.029c.3.092.6-.218.646-.537a2.781,2.781,0,0,0-.117-.939c-.235-1.274.444-2.574.268-3.857-.126-.9-.662-1.786-.4-2.65a1.61,1.61,0,0,0,.126-.545c0-.184-.184-.377-.361-.327a.838.838,0,0,0-.838-1.1" transform="translate(-295.718 -359.515)" fill="#263238"/>
      <path id="Trazado_159253" data-name="Trazado 159253" d="M328.74,386.75c.143,0,.176.981,1.048,1.677s1.92.545,1.928.679-.226.2-.671.226a2.515,2.515,0,0,1-1.618-.511,2.189,2.189,0,0,1-.838-1.392C328.564,387,328.673,386.75,328.74,386.75Z" transform="translate(-297.606 -360.498)" fill="#fff"/>
      <path id="Trazado_159254" data-name="Trazado 159254" d="M322.165,394.027a8.756,8.756,0,0,1-.386-2.1,8.873,8.873,0,0,1,.293-2.121,1.811,1.811,0,0,0-.251.587,4.929,4.929,0,0,0-.2,1.534,5.1,5.1,0,0,0,.268,1.526,1.8,1.8,0,0,0,.277.57Z" transform="translate(-296.481 -360.992)" fill="#455a64"/>
      <path id="Trazado_159255" data-name="Trazado 159255" d="M321.053,392.481a1.673,1.673,0,0,1-.226-.444,2.952,2.952,0,0,1-.1-1.207c.076-.956.344-1.677.294-1.719a4.034,4.034,0,0,0-.453,1.677,2.616,2.616,0,0,0,.159,1.258C320.86,392.372,321.044,392.5,321.053,392.481Z" transform="translate(-296.308 -360.879)" fill="#455a64"/>
      <path id="Trazado_159256" data-name="Trazado 159256" d="M319.886,391.462a6.062,6.062,0,0,1-.428-1.769,6.163,6.163,0,0,1,.277-1.8,1.309,1.309,0,0,0-.252.495,3.629,3.629,0,0,0-.184,1.316,3.446,3.446,0,0,0,.3,1.291,1.249,1.249,0,0,0,.285.469Z" transform="translate(-296.105 -360.682)" fill="#455a64"/>
      <path id="Trazado_159257" data-name="Trazado 159257" d="M339.7,398.613a1.023,1.023,0,0,0,.562-.361,3.294,3.294,0,0,0,.713-1.459,5.166,5.166,0,0,0,.134-1.61,1.8,1.8,0,0,0-.134-.654,8.05,8.05,0,0,1-.159,2.23,3.6,3.6,0,0,1-.637,1.417,4.572,4.572,0,0,1-.478.436Z" transform="translate(-299.401 -361.755)" fill="#455a64"/>
      <path id="Trazado_159258" data-name="Trazado 159258" d="M338.66,398.5a1.3,1.3,0,0,0,.461-.319,3.152,3.152,0,0,0,.746-1.124,3.076,3.076,0,0,0,.218-1.333,1.316,1.316,0,0,0-.117-.553,4.9,4.9,0,0,0,0,.553,3.621,3.621,0,0,1-.243,1.274,3.757,3.757,0,0,1-.688,1.1C338.811,398.381,338.643,398.473,338.66,398.5Z" transform="translate(-299.233 -361.858)" fill="#455a64"/>
      <path id="Trazado_159259" data-name="Trazado 159259" d="M335.8,367.361a7.823,7.823,0,0,0-4.016-2.918c-4.922-1.459-11.822-2.012-19.109,5.173l-1.065.478a17.911,17.911,0,0,1,.151-4.259c.251-1.207,2.457-8.259,10.338-9C322.1,356.838,334.137,354.876,335.8,367.361Z" transform="translate(-294.853 -355.648)" fill="#455a64"/>
      <g id="Grupo_108834" data-name="Grupo 108834" transform="translate(16.692 1.078)" opacity="0.3">
        <path id="Trazado_159260" data-name="Trazado 159260" d="M335.8,367.361a7.823,7.823,0,0,0-4.016-2.918c-4.922-1.459-11.822-2.012-19.109,5.173l-1.065.478a17.911,17.911,0,0,1,.151-4.259c.251-1.207,2.457-8.259,10.338-9C322.1,356.838,334.137,354.876,335.8,367.361Z" transform="translate(-311.545 -356.726)"/>
      </g>
      <path id="Trazado_159261" data-name="Trazado 159261" d="M312.889,370.269c2.993-3.278,6.842-5.157,10.9-6.708a55.473,55.473,0,0,1,14.74-2.733,8.979,8.979,0,0,1,3.84.377,3.463,3.463,0,0,1,2.314,2.851c.067,1.627-3.153,3.438-4.628,4.108s-4.494,1.845-4.494,1.845-.838-3.681-3.714-4.729C325.793,363.159,312.663,370.386,312.889,370.269Z" transform="translate(-295.07 -356.3)" fill="#455a64"/>
      <path id="Trazado_159262" data-name="Trazado 159262" d="M338.745,365.959a2.314,2.314,0,0,0-2.515-1.45.88.88,0,0,0,0-1.057,1.61,1.61,0,0,0-.964-.553A2.935,2.935,0,0,0,332,364.576a2.817,2.817,0,0,0-2.633-.721,2.18,2.18,0,0,0-1.811,1.887,1.761,1.761,0,0,0,1.065,1.618,2.658,2.658,0,0,0,2.39-.26,2.465,2.465,0,0,0,3.9,1.04,2.239,2.239,0,0,0,3.832-2.2Z" transform="translate(-297.44 -356.635)" fill="#263238"/>
    </g>
    <g id="freepik--character-3--inject-2" transform="translate(245.778 223.185)">
      <rect id="Rectángulo_41218" data-name="Rectángulo 41218" width="142.228" height="57.216" rx="10.02" transform="translate(0.402 2.132)" fill="#fff"/>
      <path id="Trazado_159263" data-name="Trazado 159263" d="M422.107,321.263h.251a3.449,3.449,0,0,0,.738-.067,8.52,8.52,0,0,0,2.759-.839,8.384,8.384,0,0,0,3.354-3.178,8.284,8.284,0,0,0,1.048-2.784,19.662,19.662,0,0,0,.126-3.421V273a9.222,9.222,0,0,0-.436-3.127,8.234,8.234,0,0,0-4.192-4.8,8.326,8.326,0,0,0-3.253-.838H296.715a9.509,9.509,0,0,0-2.381.352,9.28,9.28,0,0,0-2.18,1.031,8.384,8.384,0,0,0-3,3.664,9.137,9.137,0,0,0-.587,2.306c-.05.788,0,1.61-.042,2.423v37.84a9.307,9.307,0,0,0,.721,4.352,8.2,8.2,0,0,0,6.775,4.8c2.909.067,5.869,0,8.72,0l61.1.05,41.2.067h11.193l-11.193.042-41.2.067-61.1.042c-2.884,0-5.777.042-8.754,0a8.619,8.619,0,0,1-7.118-5.031,9.852,9.852,0,0,1-.771-4.519V274.032c0-.838,0-1.618.042-2.465a8.628,8.628,0,0,1,3.773-6.288A9.081,9.081,0,0,1,294.2,264.2a9.518,9.518,0,0,1,2.515-.377H422.509a8.552,8.552,0,0,1,7.739,5.869,9.719,9.719,0,0,1,.444,3.228v37.974a19.974,19.974,0,0,1-.159,3.446,8.5,8.5,0,0,1-7.336,6.85,8.744,8.744,0,0,1-1.09.076Z" transform="translate(-287.878 -261.915)" fill="#263238"/>
      <path id="Trazado_159264" data-name="Trazado 159264" d="M431.273,308.181h0a9.651,9.651,0,0,1-8.938-10.33h0a9.659,9.659,0,0,1,10.33-8.946h0a9.667,9.667,0,0,1,8.938,10.33h0A9.659,9.659,0,0,1,431.273,308.181Z" transform="translate(-309.563 -265.963)" fill="#dce736"/>
      <path id="Trazado_159265" data-name="Trazado 159265" d="M432.014,304.56l-5.794-4.511,1.576-2.021,3.89,3.027,5.559-6.355,1.928,1.685Z" transform="translate(-310.195 -266.903)" fill="#fff"/>
      <path id="Trazado_159266" data-name="Trazado 159266" d="M399.1,306.758H362.759a5.819,5.819,0,0,1-5.819-5.819h0a5.819,5.819,0,0,1,5.819-5.819H399.1a5.819,5.819,0,0,1,5.819,5.819h0A5.819,5.819,0,0,1,399.1,306.758Z" transform="translate(-299.003 -266.971)" fill="#e0e0e0"/>
      <circle id="Elipse_5114" data-name="Elipse 5114" cx="21.825" cy="21.825" r="21.825" transform="matrix(0.777, -0.63, 0.63, 0.777, 0, 27.482)" fill="#fff"/>
      <path id="Trazado_159267" data-name="Trazado 159267" d="M300.889,303.661a3.459,3.459,0,0,1,.193.3c.117.218.293.52.52.906l.377.671c.151.235.344.486.528.755a16.546,16.546,0,0,0,1.417,1.836,21.029,21.029,0,0,0,4.746,4.142,21.926,21.926,0,0,0,17.759,2.7,20.275,20.275,0,0,0,2.616-.931c.428-.193.838-.369,1.3-.579l1.266-.713c.21-.117.428-.226.629-.361l.6-.419c.4-.285.838-.562,1.207-.839a23.267,23.267,0,0,0,2.23-2.046,24.046,24.046,0,0,0,2-2.381c.3-.428.57-.88.838-1.325a10.745,10.745,0,0,0,.78-1.392,19.736,19.736,0,0,0,2.088-6.188,20.963,20.963,0,0,0,.143-6.758,23.179,23.179,0,0,0-2.021-6.666,23.476,23.476,0,0,0-4.05-5.676l-1.241-1.182-1.342-1.056a5.746,5.746,0,0,0-.7-.486l-.713-.453-.7-.453-.746-.377a25.4,25.4,0,0,0-3.035-1.325,24.67,24.67,0,0,0-3.144-.8,11.266,11.266,0,0,0-1.585-.226c-.528-.042-1.048-.109-1.576-.134a22.432,22.432,0,0,0-3.1.143,23.362,23.362,0,0,0-2.985.511c-.478.126-.947.293-1.417.436l-.7.218c-.226.084-.444.193-.671.285l-1.333.57c-.428.2-.838.453-1.249.671a21.344,21.344,0,0,0-2.331,1.509,21.943,21.943,0,0,0-8.695,15.721,20.836,20.836,0,0,0,.394,6.288,15.926,15.926,0,0,0,.587,2.239c.1.319.184.612.277.838l.3.7c.168.419.3.738.394.964a3.292,3.292,0,0,1,.126.335,3.118,3.118,0,0,1-.151-.319l-.428-.956-.319-.7c-.1-.26-.184-.562-.293-.88a15.322,15.322,0,0,1-.621-2.239,20.912,20.912,0,0,1-.444-6.33,22.06,22.06,0,0,1,8.712-15.931,19.6,19.6,0,0,1,2.356-1.534c.419-.226.838-.478,1.266-.688l1.342-.579c.226-.092.453-.21.688-.285l.7-.226c.478-.143.956-.319,1.442-.444a23.773,23.773,0,0,1,3.027-.528,21.655,21.655,0,0,1,3.144-.143c.528,0,1.056.084,1.593.126a10.382,10.382,0,0,1,1.6.235,24.043,24.043,0,0,1,3.195.8,25.52,25.52,0,0,1,3.077,1.342l.755.386.721.453.721.461a5.288,5.288,0,0,1,.7.495l1.367,1.065,1.258,1.207a21.8,21.8,0,0,1,6.163,12.51,21.34,21.34,0,0,1-.151,6.859,25.992,25.992,0,0,1-.838,3.253,24.3,24.3,0,0,1-1.316,3.018,12.239,12.239,0,0,1-.788,1.417c-.293.444-.57.906-.838,1.342a23.658,23.658,0,0,1-2.029,2.406,24.009,24.009,0,0,1-2.272,2.071c-.394.31-.838.579-1.224.838l-.612.428c-.21.134-.428.243-.637.361l-1.283.713c-.428.218-.88.386-1.316.587a21.666,21.666,0,0,1-12.795,1.35,21.9,21.9,0,0,1-7.772-3.169,20.843,20.843,0,0,1-4.754-4.192,15.923,15.923,0,0,1-1.392-1.853c-.184-.277-.369-.528-.52-.771l-.369-.679-.495-.922Z" transform="translate(-289.57 -263.212)" fill="#263238"/>
      <path id="Trazado_159268" data-name="Trazado 159268" d="M308.45,318.137s1.04-.344,4.628-1.451,15.369.545,15.369.545l6.75,1.392s-4.8,4.93-14.011,4.31S308.45,318.137,308.45,318.137Z" transform="translate(-291.17 -270.393)" fill="#dce736"/>
      <path id="Trazado_159269" data-name="Trazado 159269" d="M335.564,282.39a2.759,2.759,0,0,0,.973-5.4,2.867,2.867,0,0,0-2.675-4.746,3.438,3.438,0,0,0-5.274-2.624,3.874,3.874,0,0,0-4.754.075,2.75,2.75,0,0,0-2.255,4.746" transform="translate(-293.147 -262.726)" fill="#263238"/>
      <path id="Trazado_159270" data-name="Trazado 159270" d="M329.885,310.7l-.109-4.838s6.49-1.2,6.355-7.479c-.075-3.035-.721-9.273-1.375-14.908a11.739,11.739,0,0,0-12.032-10.338h-.6c-6.515.612-9.642,6.49-8.854,12.979l.939,23.586s8.242,4.377,10.062,3.74A50.985,50.985,0,0,0,329.885,310.7Z" transform="translate(-291.929 -263.419)" fill="#ae7461"/>
      <path id="Trazado_159271" data-name="Trazado 159271" d="M331.457,311.758a14.606,14.606,0,0,1-8.007-2.138s1.769,4.595,8.007,3.815Z" transform="translate(-293.593 -269.313)" fill="#6f4439"/>
      <path id="Trazado_159272" data-name="Trazado 159272" d="M335.544,292.78a.9.9,0,0,1-.839.939.838.838,0,0,1-.956-.78.9.9,0,0,1,.838-.931.839.839,0,0,1,.956.771Z" transform="translate(-295.257 -266.467)" fill="#263238"/>
      <path id="Trazado_159273" data-name="Trazado 159273" d="M336.755,289.03c-.109.117-.838-.361-1.769-.327s-1.677.545-1.761.428.05-.26.352-.495a2.44,2.44,0,0,1,1.409-.486,2.289,2.289,0,0,1,1.409.4C336.7,288.762,336.805,288.971,336.755,289.03Z" transform="translate(-295.168 -265.845)" fill="#263238"/>
      <path id="Trazado_159274" data-name="Trazado 159274" d="M325.186,292.95a.905.905,0,0,1-.838.939.838.838,0,0,1-.947-.78.889.889,0,0,1,.838-.931.838.838,0,0,1,.947.771Z" transform="translate(-293.585 -266.495)" fill="#263238"/>
      <path id="Trazado_159275" data-name="Trazado 159275" d="M325.455,289.639c-.109.117-.838-.361-1.769-.327s-1.677.545-1.761.428.05-.26.352-.495a2.516,2.516,0,0,1,1.409-.495,2.406,2.406,0,0,1,1.409.4C325.4,289.37,325.505,289.58,325.455,289.639Z" transform="translate(-293.343 -265.942)" fill="#263238"/>
      <path id="Trazado_159276" data-name="Trazado 159276" d="M330.471,296.644a7.026,7.026,0,0,1,1.56-.335c.243,0,.478-.092.511-.26a1.25,1.25,0,0,0-.193-.729l-.788-1.845a32.968,32.968,0,0,1-1.811-4.855,32.452,32.452,0,0,1,2.2,4.7l.763,1.861a1.417,1.417,0,0,1,.159.964.629.629,0,0,1-.394.377,1.6,1.6,0,0,1-.411.067,5.866,5.866,0,0,1-1.593.059Z" transform="translate(-294.611 -265.921)" fill="#263238"/>
      <path id="Trazado_159277" data-name="Trazado 159277" d="M325.591,285.691c-.117.243-.947,0-1.97,0s-1.87.2-1.97-.05c0-.126.126-.352.486-.553a3.018,3.018,0,0,1,1.518-.377,2.951,2.951,0,0,1,1.492.4C325.49,285.339,325.649,285.573,325.591,285.691Z" transform="translate(-293.302 -265.289)" fill="#263238"/>
      <path id="Trazado_159278" data-name="Trazado 159278" d="M336.671,284.944c-.2.226-1,0-1.962.05s-1.761.21-1.954,0,0-.327.377-.553a3.169,3.169,0,0,1,1.585-.411,3.086,3.086,0,0,1,1.576.386C336.637,284.608,336.755,284.843,336.671,284.944Z" transform="translate(-295.084 -265.179)" fill="#263238"/>
      <path id="Trazado_159279" data-name="Trazado 159279" d="M313.941,295.583a1.677,1.677,0,0,0-1.895-1.576c-1.165.151-2.448.838-2.289,3.278.293,4.285,4.536,3.111,4.536,2.985S314.076,297.353,313.941,295.583Z" transform="translate(-291.379 -266.789)" fill="#ae7461"/>
      <path id="Trazado_159280" data-name="Trazado 159280" d="M313.53,298.987a1.8,1.8,0,0,1-.193.126.763.763,0,0,1-.562.05,1.861,1.861,0,0,1-.964-1.6,2.406,2.406,0,0,1,.134-1.082.839.839,0,0,1,.528-.612.377.377,0,0,1,.453.176c.067.117.042.2.067.21s.084-.075,0-.252a.52.52,0,0,0-.184-.26.6.6,0,0,0-.428-.084,1.048,1.048,0,0,0-.729.721,2.516,2.516,0,0,0-.185,1.207,1.954,1.954,0,0,0,1.216,1.778.788.788,0,0,0,.679-.159C313.53,299.1,313.539,299,313.53,298.987Z" transform="translate(-291.656 -267.056)" fill="#6f4439"/>
      <path id="Trazado_159281" data-name="Trazado 159281" d="M330.284,274.267a2.071,2.071,0,0,0-.159-.3,2.792,2.792,0,0,0-2.18-1.14,11.2,11.2,0,0,0-1.526-.579,3.748,3.748,0,0,0-6.355-.05l-.52.109a3.823,3.823,0,0,0-5.743,1.845,2.767,2.767,0,0,0-2.985,4.134,2.641,2.641,0,0,0-1.375,2.146,1.534,1.534,0,0,0,1.61,1.509,57.215,57.215,0,0,0,.4,6.6c.134,1.5,2.079,2.331,2.247,3.354.839,5.182,2.448,2.247,2.725-8.552l.319-.285c.218-.21.268-.47.453-.713s.662-.21,1.023-.184a2.742,2.742,0,0,0,2.775-2.063,1.14,1.14,0,0,0,1.543.092,6.163,6.163,0,0,0,1.124-1.291,1.778,1.778,0,0,1,1.451-.788,4.623,4.623,0,0,0,.939.176c.562-.075.838-.738.88-1.3a2.709,2.709,0,0,1,.386-1.367,3.262,3.262,0,0,1,1.082-.344,5.1,5.1,0,0,1,.637.075h.31a3.258,3.258,0,0,1,.394.143c1.92.838,3.714,4.721,3.714,4.721A7.546,7.546,0,0,0,330.284,274.267Z" transform="translate(-291.33 -262.987)" fill="#263238"/>
      <path id="Trazado_159282" data-name="Trazado 159282" d="M319,273.791l.05-.117a2.2,2.2,0,0,1,.176-.31,3.053,3.053,0,0,1,.956-.922,3.144,3.144,0,0,1,1.937-.478,3.354,3.354,0,0,1,2.214,1.124h-.126a5.03,5.03,0,0,1,.989-.838,3.731,3.731,0,0,1,2.868-.478,2.868,2.868,0,0,1,1.887,1.459,2.515,2.515,0,0,1,.243,1.593,1.817,1.817,0,0,1-.126.419l-.067.143a4.368,4.368,0,0,0,.126-.57,2.625,2.625,0,0,0-.293-1.534,2.75,2.75,0,0,0-1.8-1.35,3.572,3.572,0,0,0-2.742.47,4.586,4.586,0,0,0-.956.771l-.067.076-.067-.075a3.2,3.2,0,0,0-2.1-1.082,3.018,3.018,0,0,0-1.861.428,3.236,3.236,0,0,0-.964.838A1.535,1.535,0,0,0,319,273.791Z" transform="translate(-292.874 -263.182)" fill="#fff"/>
      <path id="Trazado_159283" data-name="Trazado 159283" d="M310.42,279.233l.042-.067.126-.176a2.6,2.6,0,0,1,.654-.5,2.734,2.734,0,0,1,1.266-.319,2.515,2.515,0,0,1,1.61.537l-.117.042a3.454,3.454,0,0,1,1.677-2.213,4.385,4.385,0,0,1,1.526-.52,5.24,5.24,0,0,1,1.677.059,8.385,8.385,0,0,1,2.926,1.258l-.126.042a3.8,3.8,0,0,1,1.861-2.1,3.681,3.681,0,0,1,2.2-.344,3.6,3.6,0,0,1,1.367.495,2.332,2.332,0,0,1,.319.226c.067.059.1.084.1.092s-.151-.109-.444-.268a3.765,3.765,0,0,0-1.358-.444,3.622,3.622,0,0,0-2.113.369,3.689,3.689,0,0,0-1.769,2.021v.1l-.092-.059a8.586,8.586,0,0,0-2.868-1.216,4.9,4.9,0,0,0-1.635-.059,4.108,4.108,0,0,0-1.467.495,3.262,3.262,0,0,0-1.677,2.088v.117l-.092-.075a2.406,2.406,0,0,0-1.518-.537,2.692,2.692,0,0,0-1.224.277,2.917,2.917,0,0,0-.847.679Z" transform="translate(-291.488 -263.703)" fill="#fff"/>
      <path id="Trazado_159284" data-name="Trazado 159284" d="M327.355,276.25a.369.369,0,0,1-.067.168,3.006,3.006,0,0,0-.142.5c-.05.226-.092.5-.159.838a2.718,2.718,0,0,1-.377,1.073.914.914,0,0,1-.6.344,3.039,3.039,0,0,1-.73,0,1.442,1.442,0,0,0-.729.084,1.794,1.794,0,0,0-.6.5c-.184.21-.352.444-.537.688a3.017,3.017,0,0,1-.62.7,2.029,2.029,0,0,1-.931.352,1.812,1.812,0,0,1-.52,0,.721.721,0,0,1-.47-.3h.159a2.741,2.741,0,0,1-.268.729,2.373,2.373,0,0,1-.495.629,2.985,2.985,0,0,1-1.484.679,3.8,3.8,0,0,1-.688.05,1.375,1.375,0,0,0-.62,0,.838.838,0,0,0-.453.377,4.769,4.769,0,0,1-.419.5,3.354,3.354,0,0,1-2.172,1.107,3.111,3.111,0,0,1-2-.855,3.144,3.144,0,0,1-.989-1.593h.075a1.719,1.719,0,0,1-1.409-.285,1.6,1.6,0,0,1-.6-.914,1.559,1.559,0,0,1,0-.679l.042-.168v-.059a1.936,1.936,0,0,0,0,.889,1.509,1.509,0,0,0,.579.839,1.61,1.61,0,0,0,1.325.252h.059v.059a3.052,3.052,0,0,0,.973,1.518,2.935,2.935,0,0,0,1.937.746,3.211,3.211,0,0,0,2.054-1.073,4.419,4.419,0,0,0,.411-.478,1.031,1.031,0,0,1,.528-.444,1.006,1.006,0,0,1,.352-.059h.335a3.3,3.3,0,0,0,.646-.05,2.792,2.792,0,0,0,1.4-.637,2.34,2.34,0,0,0,.461-.579,2.272,2.272,0,0,0,.243-.679l.05-.2.109.168a.838.838,0,0,0,.838.243,1.886,1.886,0,0,0,.838-.319,2.835,2.835,0,0,0,.587-.671c.184-.235.361-.469.545-.687a2.272,2.272,0,0,1,.662-.537,1.551,1.551,0,0,1,.8-.075,3.411,3.411,0,0,0,.7,0,.78.78,0,0,0,.52-.293,2.565,2.565,0,0,0,.386-1.023c.075-.319.126-.6.184-.838a3.144,3.144,0,0,1,.176-.495.789.789,0,0,1,.1-.05Z" transform="translate(-291.336 -263.923)" fill="#455a64"/>
      <path id="Trazado_159285" data-name="Trazado 159285" d="M327.07,300.33a2.348,2.348,0,0,0,1,2.859,1.677,1.677,0,0,0,2.264-.78,3.077,3.077,0,0,0,.252-1.442C329.594,300.758,328.051,300.54,327.07,300.33Z" transform="translate(-294.153 -267.813)" fill="#6f4439"/>
      <path id="Trazado_159286" data-name="Trazado 159286" d="M330.164,302.7a.729.729,0,0,1-.252.26,1.836,1.836,0,0,1-.914.352,1.912,1.912,0,0,1-1.392-.419,2.222,2.222,0,0,1-.838-1.576,2.96,2.96,0,0,1,.084-.947v-.075h.075c1.015.176,1.895.344,2.515.47a9.791,9.791,0,0,1,1.006.235,6.177,6.177,0,0,1-.973-.109c-.637-.1-1.526-.243-2.515-.419l.1-.067a2.86,2.86,0,0,0-.075.889,2.113,2.113,0,0,0,.755,1.467,1.8,1.8,0,0,0,1.283.419,1.937,1.937,0,0,0,.889-.285C330.064,302.78,330.156,302.68,330.164,302.7Z" transform="translate(-294.128 -267.806)" fill="#263238"/>
    </g>
    <g id="freepik--character-2--inject-2" transform="translate(247.151 149.521)">
      <rect id="Rectángulo_41219" data-name="Rectángulo 41219" width="139.159" height="55.984" rx="10.02" transform="translate(0.203 1.256)" fill="#fff"/>
      <path id="Trazado_159287" data-name="Trazado 159287" d="M420.447,231.165h.243a3.639,3.639,0,0,0,.721-.059,8.67,8.67,0,0,0,2.708-.838,8.385,8.385,0,0,0,3.354-3.044,8.126,8.126,0,0,0,1.1-2.7,15.846,15.846,0,0,0,.184-3.354c0-4.762,0-10.573-.042-17.331v-19.8a9.281,9.281,0,0,0-.419-3.06,8.242,8.242,0,0,0-7.219-5.626c-1.115-.059-2.281,0-3.438,0H298.107A8.184,8.184,0,0,0,290,182.443a19.857,19.857,0,0,0-.084,2.356v37a9.349,9.349,0,0,0,.713,4.251,8.208,8.208,0,0,0,6.557,4.813c.7.067,1.409.059,2.13.059H305.7l59.74.05,40.246.067h10.95l-10.95.042-40.246.067-59.74.05h-6.381a21.023,21.023,0,0,1-2.172-.05,8.661,8.661,0,0,1-6.9-5.031,9.877,9.877,0,0,1-.746-4.419V184.807a18.1,18.1,0,0,1,.092-2.415,8.3,8.3,0,0,1,.662-2.356,8.644,8.644,0,0,1,7.873-5.106l73.122.059h49.838a8.535,8.535,0,0,1,7.5,5.869,9.676,9.676,0,0,1,.428,3.153v37.127a15.605,15.605,0,0,1-.2,3.354,8.016,8.016,0,0,1-1.14,2.742,8.335,8.335,0,0,1-3.438,3.052,8.485,8.485,0,0,1-2.733.788A9.273,9.273,0,0,1,420.447,231.165Z" transform="translate(-289.478 -173.892)" fill="#263238"/>
      <path id="Trazado_159288" data-name="Trazado 159288" d="M430.879,219.282h0a9.466,9.466,0,0,1-8.753-10.112h0a9.458,9.458,0,0,1,10.112-8.745h0a9.449,9.449,0,0,1,8.745,10.062h0a9.449,9.449,0,0,1-10.1,8.8Z" transform="translate(-310.902 -178.006)" fill="#dce736"/>
      <path id="Trazado_159289" data-name="Trazado 159289" d="M431.6,215.741l-5.668-4.41,1.534-1.987,3.807,2.96,5.442-6.213,1.887,1.652Z" transform="translate(-311.52 -178.925)" fill="#fff"/>
      <rect id="Rectángulo_41220" data-name="Rectángulo 41220" width="46.945" height="11.386" rx="5.693" transform="translate(57.571 27.483)" fill="#e0e0e0"/>
      <circle id="Elipse_5115" data-name="Elipse 5115" cx="21.356" cy="21.356" r="21.356" transform="matrix(0.79, -0.613, 0.613, 0.79, 0.959, 26.178)" fill="#fff"/>
      <path id="Trazado_159290" data-name="Trazado 159290" d="M303.293,214.87s.067.092.185.293l.511.889.369.646c.151.235.335.478.52.746a16.386,16.386,0,0,0,1.375,1.794,20.541,20.541,0,0,0,4.653,4.05,21.448,21.448,0,0,0,17.373,2.641,19.833,19.833,0,0,0,2.515-.914c.419-.184.838-.352,1.274-.562l1.233-.688c.21-.126.419-.226.621-.361l.587-.411c.394-.285.839-.545,1.191-.838a23.281,23.281,0,0,0,2.18-2,22.879,22.879,0,0,0,1.954-2.323c.293-.419.562-.838.838-1.3a10.352,10.352,0,0,0,.763-1.367,23.1,23.1,0,0,0,1.266-2.909,24.608,24.608,0,0,0,.78-3.144,20.753,20.753,0,0,0,.143-6.607,21.155,21.155,0,0,0-5.945-12.074l-1.216-1.165-1.308-1.023a5.245,5.245,0,0,0-.679-.478l-.7-.444-.7-.444-.729-.369a23.714,23.714,0,0,0-2.968-1.291,23.979,23.979,0,0,0-3.077-.78,10.988,10.988,0,0,0-1.551-.226c-.511-.042-1.023-.109-1.543-.126a22.8,22.8,0,0,0-3.035.126,23.829,23.829,0,0,0-2.918.511c-.47.126-.931.285-1.392.428l-.688.21c-.226.075-.436.184-.654.277l-1.3.562c-.428.193-.838.444-1.224.654a20.551,20.551,0,0,0-2.289,1.476,21.5,21.5,0,0,0-8.5,15.386,20.55,20.55,0,0,0,.386,6.154,15.091,15.091,0,0,0,.57,2.18c.1.319.184.612.277.838l.293.7.386.947c.084.21.126.327.126.327s-.059-.109-.151-.319-.243-.528-.419-.931c-.092-.21-.193-.436-.31-.688s-.184-.553-.285-.838a16.019,16.019,0,0,1-.612-2.188,20.384,20.384,0,0,1-.428-6.2,21.54,21.54,0,0,1,8.519-15.579,19.74,19.74,0,0,1,2.306-1.492c.411-.226.838-.47,1.241-.679l1.308-.562c.226-.092.444-.2.671-.285l.7-.218c.47-.143.931-.31,1.409-.436a24.226,24.226,0,0,1,2.96-.52,22.013,22.013,0,0,1,3.077-.134c.52,0,1.04.084,1.56.126a11.036,11.036,0,0,1,1.568.226,24.7,24.7,0,0,1,3.127.78,24.993,24.993,0,0,1,3.01,1.316l.738.377.7.444.7.444a5.035,5.035,0,0,1,.688.486l1.333,1.048,1.241,1.174a21.364,21.364,0,0,1,6.02,12.25,20.659,20.659,0,0,1-.143,6.708,23.915,23.915,0,0,1-.8,3.186,25.09,25.09,0,0,1-1.283,2.951,10.56,10.56,0,0,1-.78,1.375c-.285.444-.553.9-.838,1.316a21.624,21.624,0,0,1-1.979,2.356,22.994,22.994,0,0,1-2.222,2.029c-.386.3-.839.57-1.2.838l-.6.419c-.2.134-.419.235-.629.361l-1.258.7c-.419.21-.838.377-1.283.57a20.737,20.737,0,0,1-2.591.914,21.6,21.6,0,0,1-17.541-2.742,20.315,20.315,0,0,1-4.653-4.125,15.193,15.193,0,0,1-1.358-1.819c-.184-.268-.369-.511-.511-.755l-.361-.662-.486-.9Z" transform="translate(-291.335 -175.321)" fill="#263238"/>
      <path id="Trazado_159291" data-name="Trazado 159291" d="M307.27,225.421l8.2-2.868,13.08-.5,12.032,2.314s-5.869,9.081-16.669,8.77a23.1,23.1,0,0,1-16.643-7.714Z" transform="translate(-292.352 -181.504)" fill="#dce736"/>
      <path id="Trazado_159292" data-name="Trazado 159292" d="M334.131,187.12c2.759.059,5.123,4.192,4.712,6.473-.2,1.124-.713,2.406.193,3.245s2.792.755,3.647,1.6a3.53,3.53,0,0,1,.973,2.515c-.117,1.417.109,3.3,1.233,3.807l-5.634,2c-.579-.587-.838-1.509-1.383-2.1.662.612,1.3,2.8-1.677,3.044l-1.861-1.677c-5.1,1.308-10.456,2.935-14.522.713" transform="translate(-294.378 -175.861)" fill="#263238"/>
      <path id="Trazado_159293" data-name="Trazado 159293" d="M305.89,197.977a33.3,33.3,0,0,0,1.233-3.136c.545-2.348-.553-5.031.629-7.127.838-1.5,2.6-2.205,4.251-2.683s3.228-.755,4.477-1.937c.914-.838,1.442-2.071,2.356-2.943a7.546,7.546,0,0,1,4.989-1.677,10.816,10.816,0,0,1,5.375.981,5.869,5.869,0,0,1,3.245,4.192,17.748,17.748,0,0,0,.268,2.683,18.184,18.184,0,0,0,1.451,2.574,4.729,4.729,0,0,1-1.291,5.643l-12.946,16.082c-2.666.956-5.576-2.448-7.546-4.444S304.959,200.651,305.89,197.977Z" transform="translate(-292.112 -174.459)" fill="#263238"/>
      <path id="Trazado_159294" data-name="Trazado 159294" d="M333.806,193.7c-.453-3.714-3.186-8.141-6.875-7.546L315.5,189.755c-1.123.184-1.727,1.082-2.113.914l3.354,26.588,7.848,5.551,4.871-5.869s-.361-3.647-.361-3.631,4.721-1.065,5.349-7.337A67.107,67.107,0,0,0,333.806,193.7Z" transform="translate(-293.341 -175.695)" fill="#ffbf9d"/>
      <path id="Trazado_159295" data-name="Trazado 159295" d="M325.5,201.78a.788.788,0,0,1-.721.838.763.763,0,0,1-.839-.671.839.839,0,0,1,.721-.838.763.763,0,0,1,.838.671Z" transform="translate(-295.045 -178.12)" fill="#263238"/>
      <path id="Trazado_159296" data-name="Trazado 159296" d="M334.889,201.3a.838.838,0,0,1-.721.838.771.771,0,0,1-.838-.671.838.838,0,0,1,.721-.838.755.755,0,0,1,.838.671Z" transform="translate(-296.562 -178.042)" fill="#263238"/>
      <path id="Trazado_159297" data-name="Trazado 159297" d="M336.191,198.384c-.084.143-.838-.335-1.744-.218s-1.543.738-1.677.62,0-.3.285-.587a2.071,2.071,0,0,1,1.3-.662,2.138,2.138,0,0,1,1.417.335C336.107,198.091,336.241,198.317,336.191,198.384Z" transform="translate(-296.463 -177.541)" fill="#263238"/>
      <path id="Trazado_159298" data-name="Trazado 159298" d="M326.006,199.286c-.109.126-.838-.411-1.828-.386s-1.677.57-1.828.444.059-.293.369-.553a2.44,2.44,0,0,1,1.459-.511,2.264,2.264,0,0,1,1.459.469C325.956,198.992,326.065,199.227,326.006,199.286Z" transform="translate(-294.78 -177.663)" fill="#263238"/>
      <path id="Trazado_159299" data-name="Trazado 159299" d="M330.57,205.149a5.376,5.376,0,0,1,1.375-.335c.218,0,.428-.092.453-.243a1.132,1.132,0,0,0-.184-.637l-.746-1.677a29.27,29.27,0,0,1-1.677-4.276,29.521,29.521,0,0,1,2.021,4.209c.251.57.486,1.115.713,1.677a1.232,1.232,0,0,1,.168.838.536.536,0,0,1-.344.344,1.675,1.675,0,0,1-.369.075A6.335,6.335,0,0,1,330.57,205.149Z" transform="translate(-295.99 -177.615)" fill="#263238"/>
      <path id="Trazado_159300" data-name="Trazado 159300" d="M330.485,218.256A15.855,15.855,0,0,1,322,216.52s2.356,4.427,8.544,3.488Z" transform="translate(-294.731 -180.61)" fill="#ff9a6c"/>
      <path id="Trazado_159301" data-name="Trazado 159301" d="M329.943,208.9a1.534,1.534,0,0,0-1.417-.495,1.383,1.383,0,0,0-.947.579.88.88,0,0,0,0,1.023,1.023,1.023,0,0,0,1.14.218,3.178,3.178,0,0,0,1.056-.713,1,1,0,0,0,.235-.268.293.293,0,0,0,0-.319" transform="translate(-295.606 -179.296)" fill="#dce736"/>
      <path id="Trazado_159302" data-name="Trazado 159302" d="M327.723,207.41c.134,0,.193.914,1.031,1.526s1.819.461,1.828.587-.21.193-.621.226a2.305,2.305,0,0,1-1.534-.436,2.037,2.037,0,0,1-.838-1.283C327.564,207.645,327.656,207.41,327.723,207.41Z" transform="translate(-295.634 -179.139)" fill="#263238"/>
      <path id="Trazado_159303" data-name="Trazado 159303" d="M325.935,195.893c-.067.243-.931.184-1.928.361s-1.8.5-1.945.3.059-.327.377-.57a3.354,3.354,0,0,1,1.417-.6,3.3,3.3,0,0,1,1.534.092C325.767,195.6,325.968,195.776,325.935,195.893Z" transform="translate(-294.734 -177.189)" fill="#263238"/>
      <path id="Trazado_159304" data-name="Trazado 159304" d="M335.89,194.7c-.159.2-.839,0-1.677.075s-1.492.218-1.677,0,0-.293.31-.495a2.663,2.663,0,0,1,2.675-.084C335.856,194.408,335.957,194.6,335.89,194.7Z" transform="translate(-296.421 -176.952)" fill="#263238"/>
      <path id="Trazado_159305" data-name="Trazado 159305" d="M300.827,197.964c.587-1.082-.545-2.289.361-3.3s2.985-.939,3.756-1.87a1.987,1.987,0,0,0,.654-1.6c0-.838.411-4.435,5.643-5.157l.729,3.253c.327-.151.662-.285,1-.4a57.249,57.249,0,0,1,13.223-3.1,2.323,2.323,0,0,1-.839,2.834,10.171,10.171,0,0,1-2.968,1.266,4.033,4.033,0,0,0-2.515,1.912c-.461,1.048-.117,2.306-.52,3.354-.7,1.853-3.312,2.4-4.008,4.251-.528,1.4.838,3,1.04,4.486.2,1.677.545,4.285-.7,5.425a31.588,31.588,0,0,1-2.935,2.214L297.3,201.821C296.483,199.885,300.022,199.448,300.827,197.964Z" transform="translate(-290.721 -175.646)" fill="#263238"/>
      <path id="Trazado_159306" data-name="Trazado 159306" d="M314.61,209.883a4.512,4.512,0,0,0,1.2-.411,6.062,6.062,0,0,0,3.077-7.353c-.143-.461-.319-.931-.436-1.409a3.353,3.353,0,0,1-.042-1.492,1.886,1.886,0,0,1,.88-1.191,10.109,10.109,0,0,1,1.5-.646,3.153,3.153,0,0,0,1.417-.906,2.75,2.75,0,0,0,.537-1.551,10.267,10.267,0,0,1,.26-2.977l.067-.159.084-.151a2.123,2.123,0,0,1,.2-.277,2.272,2.272,0,0,1,.511-.428,4.8,4.8,0,0,1,1.2-.5,8.386,8.386,0,0,0,2.255-.838,4.814,4.814,0,0,0,1.434-1.375,4.757,4.757,0,0,0,.646-1.35,4.431,4.431,0,0,0,.176-.931,1.6,1.6,0,0,0,0-.327,7.047,7.047,0,0,1-.251,1.233,4.83,4.83,0,0,1-.662,1.316,4.913,4.913,0,0,1-1.417,1.316,8.637,8.637,0,0,1-2.222.8,4.972,4.972,0,0,0-1.249.511,2.256,2.256,0,0,0-.553.461,1.535,1.535,0,0,0-.218.3l-.1.159-.075.176a10.351,10.351,0,0,0-.285,3.027,2.608,2.608,0,0,1-.486,1.442,3.069,3.069,0,0,1-1.333.838,8.557,8.557,0,0,0-1.534.662,1.979,1.979,0,0,0-.973,1.316,3.438,3.438,0,0,0,.05,1.576c.117.5.3.964.444,1.425a5.99,5.99,0,0,1-2.935,7.244,7.647,7.647,0,0,1-.838.369Z" transform="translate(-293.538 -175.617)" fill="#263238"/>
      <path id="Trazado_159307" data-name="Trazado 159307" d="M336.15,187.443a7.642,7.642,0,0,1,.947-.176,4.51,4.51,0,0,1,2.515.5,4.452,4.452,0,0,1,2.222,2.985,8.133,8.133,0,0,1,.084,2.272c0,.394-.076.8-.117,1.216a4.427,4.427,0,0,0,.05,1.283,1.534,1.534,0,0,0,.746,1.065,2.717,2.717,0,0,0,1.241.226,4.284,4.284,0,0,1,1.149.092,2.792,2.792,0,0,1,.973.486,2.716,2.716,0,0,1,1.048,1.677,5.866,5.866,0,0,1,0,1.794,11.513,11.513,0,0,0-.151,1.5A3.959,3.959,0,0,0,347,203.5a2.147,2.147,0,0,0,.3.662,1.491,1.491,0,0,0,.109.143l.05.05a3.245,3.245,0,0,1-.386-.838,3.716,3.716,0,0,1-.1-1.115,13.859,13.859,0,0,1,.168-1.484,5.785,5.785,0,0,0,.042-1.836,2.884,2.884,0,0,0-1.107-1.794,2.96,2.96,0,0,0-1.04-.52,4.378,4.378,0,0,0-1.191-.109,2.465,2.465,0,0,1-1.14-.2,1.283,1.283,0,0,1-.646-.939,9.442,9.442,0,0,1,.059-2.432,7.678,7.678,0,0,0-.1-2.331,4.536,4.536,0,0,0-2.331-3.069,4.477,4.477,0,0,0-2.591-.453,3.749,3.749,0,0,0-.7.159C336.225,187.4,336.142,187.434,336.15,187.443Z" transform="translate(-297.017 -175.874)" fill="#263238"/>
      <path id="Trazado_159308" data-name="Trazado 159308" d="M305.067,205.3v-.092a2.284,2.284,0,0,1-.092-.285,2.449,2.449,0,0,1-.05-1.124,2.867,2.867,0,0,1,.838-1.56,2.44,2.44,0,0,1,.973-.537c.386-.1.839-.143,1.241-.285a1.761,1.761,0,0,0,.6-.352,1.676,1.676,0,0,0,.4-.612,3.664,3.664,0,0,0,.176-1.551,8.594,8.594,0,0,1,0-1.61,2.087,2.087,0,0,1,.26-.78,1.945,1.945,0,0,1,.6-.6,5.457,5.457,0,0,1,1.677-.6,5.559,5.559,0,0,0,1.786-.662,2.155,2.155,0,0,0,.679-.721,3.178,3.178,0,0,0,.327-.947c.126-.662.126-1.342.252-2a3.9,3.9,0,0,1,2.423-2.868,6.842,6.842,0,0,1,1.836-.3,4.2,4.2,0,0,0,.914-.176,1.87,1.87,0,0,0,.788-.461,3.933,3.933,0,0,0,.78-1.551,3.939,3.939,0,0,1,.838-1.375,4.083,4.083,0,0,1,2.515-1.283,3.673,3.673,0,0,1,2.289.495,4.193,4.193,0,0,1,1.308,1.224,3.957,3.957,0,0,1,.5,1.015,1.874,1.874,0,0,1,.084.293v.092a2.652,2.652,0,0,0-.092-.386,3.555,3.555,0,0,0-.478-1.048,4.309,4.309,0,0,0-1.316-1.249,3.756,3.756,0,0,0-2.339-.528,4.192,4.192,0,0,0-2.582,1.308,4.067,4.067,0,0,0-.838,1.409,3.966,3.966,0,0,1-.755,1.5,2.515,2.515,0,0,1-1.635.6,7.108,7.108,0,0,0-1.878.319,3.966,3.966,0,0,0-2.515,2.951c-.134.679-.134,1.358-.252,2a2.986,2.986,0,0,1-.319.906,2.088,2.088,0,0,1-.637.688c-1.073.688-2.432.6-3.463,1.266a1.878,1.878,0,0,0-.62.637,2.08,2.08,0,0,0-.277.838,8.156,8.156,0,0,0,0,1.677,3.722,3.722,0,0,1-.168,1.476,1.818,1.818,0,0,1-.377.579,1.8,1.8,0,0,1-.57.335c-.419.143-.838.184-1.241.293a2.515,2.515,0,0,0-.989.562,2.809,2.809,0,0,0-.839,1.6,2.373,2.373,0,0,0,.067,1.14,1.877,1.877,0,0,0,.109.285Z" transform="translate(-291.952 -175.172)" fill="#455a64"/>
    </g>
    <g id="freepik--character-1--inject-2" transform="translate(78.323 104.48)">
      <circle id="Elipse_5116" data-name="Elipse 5116" cx="58.885" cy="58.885" r="58.885" transform="translate(0 33.581) rotate(-8.62)" fill="#f5f5f5"/>
      <path id="Trazado_159309" data-name="Trazado 159309" d="M223.3,205.192l.679,25.078-8.946-13.776-20.961-.2,4.679,8.3c4.9,7.261,7.865,13.365,14.3,20.324,3.211,3.48,6.2,8.326,7.655,9.34,3.488,2.448,8.728,4.41,13.281.47,6.356-5.5,5.6-16.082,3.6-26.889-2.23-12-3.4-23.569-3.4-23.569Z" transform="translate(-105.238 -133.591)" fill="#ffbf9d"/>
      <path id="Trazado_159310" data-name="Trazado 159310" d="M230.152,184.02s-1.937-3.731-3.471-3.354-3.605,1.677-3.857,2.96.084,2.381.662,2.331a9.4,9.4,0,0,0,2.272-1.165l1.962,2.759-.838,3.488-2.037,1.048-1.174-2.432.478-2.759s-1.392-1.174-2.163,1.031-1.677,6.171.553,8.091a66.126,66.126,0,0,0,6.406,4.519l10.062-.838,2.406-11.814s3.924-4.092,4.184-5.769.478-6.708.478-6.708a1.207,1.207,0,0,0-1.895.511,30.648,30.648,0,0,0-1.367,5.5l-3.345,3.211,1.316-14.463s-2.012-1.308-2.834,1.945-1.727,11.286-2.138,11.286-1.627,0-1.451-1.677-.369-14.572-.369-14.572-2.9.637-2.717,3.354.067,11.244,0,11.889S230.152,184.02,230.152,184.02Z" transform="translate(-109.609 -127.594)" fill="#ffbf9d"/>
      <path id="Trazado_159311" data-name="Trazado 159311" d="M231.552,247.6a30.394,30.394,0,0,1-1.233-6.138,32.273,32.273,0,0,1-.461-6.3,58.873,58.873,0,0,1,.931,6.2A61.021,61.021,0,0,1,231.552,247.6Z" transform="translate(-111.017 -138.582)" fill="#ff9a6c"/>
      <path id="Trazado_159312" data-name="Trazado 159312" d="M234.118,201.146c-.075,0-.218-.4-.57-1a6.708,6.708,0,0,0-4.234-3.077c-.679-.151-1.124-.159-1.124-.235s.436-.168,1.174-.1a5.71,5.71,0,0,1,4.486,3.253,2.063,2.063,0,0,1,.268,1.157Z" transform="translate(-110.749 -132.37)" fill="#ff9a6c"/>
      <path id="Trazado_159313" data-name="Trazado 159313" d="M142.35,202.275l13.491-1.375,22.932,1.006,10.439,3.6-14.522,14.715-19.2-2.39-8.6-4.888Z" transform="translate(-96.883 -133.046)" fill="#ffbf9d"/>
      <path id="Trazado_159314" data-name="Trazado 159314" d="M169.438,132.036c2.364-1.5,2.935-4.98,1.677-7.471a9.079,9.079,0,0,0-6.758-4.444,12.862,12.862,0,0,0-11.1,3.681c-1.526,1.568-2.767,3.614-4.83,4.335-1.819.637-3.832.067-5.743.31a8.686,8.686,0,0,0-6.062,4.377,18.74,18.74,0,0,0-2.155,7.37c-.277,2.356-.461,4.939-2.1,6.649s-4.1,2.029-6.079,3.22a8.334,8.334,0,0,0-2.532,11.378c.78,1.14,1.9,2.188,2,3.572.084,1.258-.729,2.381-1.115,3.589a5.618,5.618,0,0,0,4.813,6.976c1.677.1,3.354-.545,4.871.193s2,2.515,2.935,3.832a7.043,7.043,0,0,0,8.569,2.214c1.207-.6,2.348-1.576,3.689-1.484s2.4,1.233,3.714,1.492c1.727.327,3.354-.939,4.385-2.364s1.744-3.111,3.052-4.276c1.719-1.526,4.134-1.9,6.305-2.658a17.792,17.792,0,0,0,10.062-24.919" transform="translate(-93.677 -119.973)" fill="#263238"/>
      <path id="Trazado_159315" data-name="Trazado 159315" d="M147.5,170.949a4.821,4.821,0,0,0-1.92-1.258h.143a2.221,2.221,0,0,0-.411-.075,1.92,1.92,0,0,0-1.492.184h0a3.53,3.53,0,0,0-1.937,1.677,4.192,4.192,0,0,0,.495,4.326,3.211,3.211,0,0,0,5.869-1.107,3.991,3.991,0,0,0-.746-3.748Z" transform="translate(-96.746 -127.981)" fill="#455a64"/>
      <path id="Trazado_159316" data-name="Trazado 159316" d="M179.206,191.288l2.515-46.115a3.907,3.907,0,0,0-3.354-4.067l-20.609-5.869c-6.632-.9-11.286,7.169-11.889,13.826-.679,7.4-1.216,16.467-.495,22.018,1.409,11.219,10.531,12.912,10.531,12.912s.067,11.378,0,15.419l6.859,14.849Z" transform="translate(-97.316 -122.428)" fill="#ffbf9d"/>
      <path id="Trazado_159317" data-name="Trazado 159317" d="M151,161.548a1.425,1.425,0,0,0,1.342,1.476,1.35,1.35,0,0,0,1.5-1.241,1.425,1.425,0,0,0-1.333-1.484A1.375,1.375,0,0,0,151,161.548Z" transform="translate(-98.28 -126.486)" fill="#263238"/>
      <path id="Trazado_159318" data-name="Trazado 159318" d="M148.225,156.315c.168.193,1.274-.579,2.809-.528s2.633.838,2.809.662-.084-.419-.57-.8a3.915,3.915,0,0,0-2.239-.763,3.79,3.79,0,0,0-2.247.662C148.309,155.9,148.133,156.231,148.225,156.315Z" transform="translate(-97.828 -125.614)" fill="#263238"/>
      <path id="Trazado_159319" data-name="Trazado 159319" d="M167.44,161.983a1.417,1.417,0,0,0,1.308,1.492,1.35,1.35,0,0,0,1.5-1.241,1.417,1.417,0,0,0-1.333-1.476,1.35,1.35,0,0,0-1.476,1.224Z" transform="translate(-100.935 -126.561)" fill="#263238"/>
      <path id="Trazado_159320" data-name="Trazado 159320" d="M166.206,157.166c.176.193,1.274-.579,2.809-.528s2.641.838,2.809.662-.084-.419-.562-.788a3.84,3.84,0,0,0-2.247-.763,3.681,3.681,0,0,0-2.239.654C166.29,156.747,166.122,157.083,166.206,157.166Z" transform="translate(-100.733 -125.752)" fill="#263238"/>
      <path id="Trazado_159321" data-name="Trazado 159321" d="M158.426,168.37a10.489,10.489,0,0,0-2.515-.52c-.386-.05-.755-.143-.838-.411a2.021,2.021,0,0,1,.293-1.157c.394-.931.838-1.92,1.241-2.951,1.736-4.192,3-7.664,2.826-7.731s-1.677,3.287-3.438,7.487c-.419,1.04-.838,2.029-1.2,2.968a2.281,2.281,0,0,0-.243,1.534.964.964,0,0,0,.629.6,2.648,2.648,0,0,0,.662.109,10.3,10.3,0,0,0,2.582.075Z" transform="translate(-98.847 -125.728)" fill="#263238"/>
      <path id="Trazado_159322" data-name="Trazado 159322" d="M158.1,192.66a26.705,26.705,0,0,0,14.338-3.58s-3.22,8.276-14.321,6.917Z" transform="translate(-99.427 -131.137)" fill="#ff9a6c"/>
      <path id="Trazado_159323" data-name="Trazado 159323" d="M159.285,174.889a3.773,3.773,0,0,1,3.153-1.56,2.457,2.457,0,0,1,2,1.157,2.255,2.255,0,0,1-2.624,3.3,5.609,5.609,0,0,1-2.222-1.459,1.8,1.8,0,0,1-.47-.6.771.771,0,0,1,.084-.771" transform="translate(-99.581 -128.592)" fill="#ff9a6c"/>
      <path id="Trazado_159324" data-name="Trazado 159324" d="M163.565,172.25c-.243,0-.293,1.677-1.752,2.784s-3.228.914-3.253,1.14.386.335,1.14.377a4.192,4.192,0,0,0,2.708-.838,3.631,3.631,0,0,0,1.367-2.339C163.859,172.661,163.683,172.242,163.565,172.25Z" transform="translate(-99.501 -128.418)" fill="#263238"/>
      <path id="Trazado_159325" data-name="Trazado 159325" d="M165.619,149.673c.134.419,1.677.268,3.471.537s3.236.8,3.488.436c.109-.176-.134-.579-.7-1a5.869,5.869,0,0,0-2.574-.981,5.76,5.76,0,0,0-2.733.243C165.937,149.154,165.56,149.472,165.619,149.673Z" transform="translate(-100.641 -124.598)" fill="#263238"/>
      <path id="Trazado_159326" data-name="Trazado 159326" d="M149.043,150.024c.26.352,1.325,0,2.6.042s2.339.3,2.6-.059c.117-.176-.042-.528-.5-.838a3.622,3.622,0,0,0-2.1-.629,3.58,3.58,0,0,0-2.1.637C149.085,149.5,148.925,149.848,149.043,150.024Z" transform="translate(-97.958 -124.588)" fill="#263238"/>
      <path id="Trazado_159327" data-name="Trazado 159327" d="M136.958,144.8a7.546,7.546,0,0,1,2.926-4.192,26.938,26.938,0,0,0,2.515-1.442c1.6-1.3,1.979-3.555,2.968-5.366a8.384,8.384,0,0,1,6.4-4.251c2.205-.226,4.477.436,6.624-.1,1.593-.4,2.977-1.434,4.586-1.736,3.136-.6,6.045,1.677,8.318,3.89,0,2.239-1.778,3.74-3.5,5.182a7.8,7.8,0,0,1-6.3,1.677c-1.677-.31-3.589-1.174-5.073-.268s-1.618,3.312-3,4.511c-1.979,1.677-5.115.109-7.622.838-1.937.579-3.144,2.432-4.435,3.983s-3.211,3.044-5.148,2.465A22.748,22.748,0,0,1,136.958,144.8Z" transform="translate(-95.893 -121.208)" fill="#263238"/>
      <path id="Trazado_159328" data-name="Trazado 159328" d="M165.141,135.486c1.409-.4,4.285-1.308,5.031-2.515a8.645,8.645,0,0,1,7.462-4.293,7.093,7.093,0,0,1,6.381,5.6,10.2,10.2,0,0,1,8.762,5.643,11.326,11.326,0,0,1,.553,1.308,7.731,7.731,0,0,1,.52,6.506c-.486,1.266-1.316,2.683-.662,3.874s2.348,1.249,3.656,1.677a5.131,5.131,0,0,1,3.236,5.743,6.523,6.523,0,0,0-.411,2.515,5.534,5.534,0,0,0,1.518,2.188,6.414,6.414,0,0,1-3.748,10.489,8.035,8.035,0,0,0-2.943.671c-1,.612-1.425,1.8-2.13,2.733a5.534,5.534,0,0,1-5.987,1.878,5.424,5.424,0,0,1-1.207-.6,3.966,3.966,0,0,1-3.513,1.551l.411-23.477a1.937,1.937,0,0,1-1.417,1.115c-3.765.839-4.318-6.909-3.48-9.005a22.31,22.31,0,0,1-3.773-3.974,15.824,15.824,0,0,1-1.736-7.613C170.306,137.574,164.529,135.654,165.141,135.486Z" transform="translate(-100.557 -121.378)" fill="#263238"/>
      <path id="Trazado_159329" data-name="Trazado 159329" d="M184.1,164.253c.117-2.39,3.035-2.9,5.1-1.677,1.132.654,2,1.97,1.895,4.5-.277,6.75-6.993,5.081-6.993,4.888S183.955,167.02,184.1,164.253Z" transform="translate(-103.617 -126.752)" fill="#ffbf9d"/>
      <path id="Trazado_159330" data-name="Trazado 159330" d="M186.689,169.905a2.867,2.867,0,0,0,.31.184,1.157,1.157,0,0,0,.88.059,2.924,2.924,0,0,0,1.451-2.557,3.874,3.874,0,0,0-.26-1.677,1.341,1.341,0,0,0-.838-.931.579.579,0,0,0-.7.293c-.1.184-.067.319-.1.327s-.143-.117-.075-.394a.713.713,0,0,1,.285-.411.906.906,0,0,1,.654-.151,1.677,1.677,0,0,1,1.191,1.1,4,4,0,0,1,.327,1.9,3.041,3.041,0,0,1-1.836,2.842,1.266,1.266,0,0,1-1.065-.226C186.7,170.064,186.663,169.913,186.689,169.905Z" transform="translate(-104.044 -127.188)" fill="#ff9a6c"/>
      <path id="Trazado_159331" data-name="Trazado 159331" d="M176.24,134.63a3.94,3.94,0,0,1,1.342,1.124,6.236,6.236,0,0,1,.5,4.67l-.042.168h.168a6.557,6.557,0,0,1,4.352,3.832,5.182,5.182,0,0,1,.344,1.677,9.668,9.668,0,0,1-.21,1.786,12.623,12.623,0,0,0-.252,1.92,3.169,3.169,0,0,0,.528,2,8.2,8.2,0,0,0,3.354,2.515,11.226,11.226,0,0,1,3.127,2.046,8.443,8.443,0,0,1,2.515,5.66,8.728,8.728,0,0,1-.889,4.192c-.444.922-.838,1.367-.788,1.392s.109-.092.293-.3a7.431,7.431,0,0,0,.662-1.006,8.569,8.569,0,0,0-1.492-10.221,11.738,11.738,0,0,0-3.228-2.155,7.907,7.907,0,0,1-3.161-2.356c-.746-1.031-.411-2.364-.218-3.572a10.061,10.061,0,0,0,.21-1.878,5.542,5.542,0,0,0-.394-1.8,6.859,6.859,0,0,0-4.679-4.008l.134.21a6.3,6.3,0,0,0-.688-4.863,2.843,2.843,0,0,0-1.056-.838,1.568,1.568,0,0,0-.436-.184Z" transform="translate(-102.357 -122.341)" fill="#455a64"/>
      <path id="Trazado_159332" data-name="Trazado 159332" d="M188.543,173.659a4.821,4.821,0,0,0-1.92-1.258h.143a2.221,2.221,0,0,0-.411-.075,1.92,1.92,0,0,0-1.492.184h0a3.53,3.53,0,0,0-1.937,1.677,4.192,4.192,0,0,0,.495,4.326,3.211,3.211,0,0,0,5.869-1.107,3.991,3.991,0,0,0-.746-3.748Z" transform="translate(-103.375 -128.418)" fill="#455a64"/>
      <path id="Trazado_159333" data-name="Trazado 159333" d="M192.742,265.5l.126-28.365,2.641,5.24,16.5-16.4s-7.982-14.522-11.68-17.331-18.136-5.735-19.067-6.288c0,0-3.74,6.305-15.394,9.8s-21.431-11.546-21.431-11.546l-13.256.587s-1.124,19.905-1.325,33.538c-.067,4.008.168,7.5.268,9.751.444,9.9,10.422,26.923,10.422,26.923s14.17,5.031,29.162,3.194S192.742,265.5,192.742,265.5Z" transform="translate(-94.863 -132.999)" fill="#455a64"/>
      <path id="Trazado_159334" data-name="Trazado 159334" d="M127.492,201.29c-6.917,1.434-13.105,10.154-20.492,27.208l20.123,15.042Z" transform="translate(-91.172 -133.109)" fill="#455a64"/>
      <path id="Trazado_159335" data-name="Trazado 159335" d="M205.785,223.44a3.219,3.219,0,0,1,.126.889c.05.579.092,1.409.126,2.44.067,2.071.059,4.922-.134,8.074s-.52,5.978-.838,8.024c-.159,1.023-.3,1.845-.419,2.406a3.026,3.026,0,0,1-.235.838,26.981,26.981,0,0,1,.3-3.354c.226-2.046.5-4.871.7-8.007s.252-5.978.277-8.032a25.988,25.988,0,0,1,.1-3.278Z" transform="translate(-106.908 -136.687)" fill="#263238"/>
      <path id="Trazado_159336" data-name="Trazado 159336" d="M131.724,218.14a5.224,5.224,0,0,1-.1,1.115c-.117.838-.268,1.819-.436,3-.369,2.515-.838,6.037-1.157,9.919a89.062,89.062,0,0,0-.184,9.978c.059,1.2.109,2.205.143,3.027a5.192,5.192,0,0,1,0,1.115,4.436,4.436,0,0,1-.2-1.1c-.1-.713-.2-1.744-.3-3.027a70.169,70.169,0,0,1,0-10.062,95.5,95.5,0,0,1,1.35-9.894c.235-1.258.436-2.281.6-2.977a3.983,3.983,0,0,1,.293-1.1Z" transform="translate(-94.775 -135.831)" fill="#263238"/>
      <path id="Trazado_159337" data-name="Trazado 159337" d="M166.47,230.052l.671,27.082a2.515,2.515,0,0,1-2.44,2.557l-11.411.268a2.515,2.515,0,0,1-2.515-2.331L148.929,230.8a2.515,2.515,0,0,1,2.39-2.666l12.577-.562a2.515,2.515,0,0,1,2.574,2.482Z" transform="translate(-97.945 -137.354)" fill="#263238"/>
      <path id="Trazado_159338" data-name="Trazado 159338" d="M158,233.988a1.056,1.056,0,1,0,1.006-1.1A1.056,1.056,0,0,0,158,233.988Z" transform="translate(-99.411 -138.214)" fill="#fff"/>
      <path id="Trazado_159339" data-name="Trazado 159339" d="M147.3,238.492s-3.094,4.016-4.192,5.785-1.308,7.37-1.308,7.37v3.9l-6.179,2.742,4.771,13.306,9.374-8.108,9.466-1.778s4.368-4.494,5.031-6.506a9.323,9.323,0,0,0,.528-3.547,67.229,67.229,0,0,0,2.3-6.381,23.971,23.971,0,0,0,.226-4.57s-1.216-.293-2.163,1.727l1.484-3.421s-.973-2.515-3.094.05-5.626,6.959-5.626,6.959l-4.016,3.5-.545-.579s7.068-9.433,6.825-11.059-1.794-1.635-3.354.151-7.865,10.674-8.72,10.8-1.165-1.065-1.165-1.065l.453-3.3.31-.7Z" transform="translate(-95.796 -138.827)" fill="#ffbf9d"/>
      <path id="Trazado_159340" data-name="Trazado 159340" d="M164.08,252.593a1.627,1.627,0,0,0,.285-.335c.176-.226.419-.553.713-.964.587-.838,1.375-1.979,2.188-3.287s1.492-2.515,1.97-3.429c.235-.444.419-.838.537-1.065a2.227,2.227,0,0,0,.176-.4,1.517,1.517,0,0,0-.243.369l-.6,1.031c-.511.838-1.216,2.079-2.021,3.354s-1.576,2.515-2.13,3.354c-.26.394-.478.729-.662,1a2.18,2.18,0,0,0-.218.377Z" transform="translate(-100.393 -139.865)" fill="#ff9a6c"/>
      <path id="Trazado_159341" data-name="Trazado 159341" d="M166.71,258.367a29.339,29.339,0,0,0,1.912-2.725,27.664,27.664,0,0,0,1.736-2.842,29.346,29.346,0,0,0-1.912,2.725,26.638,26.638,0,0,0-1.736,2.842Z" transform="translate(-100.818 -141.43)" fill="#ff9a6c"/>
      <path id="Trazado_159342" data-name="Trazado 159342" d="M108.288,236.31S97.833,263.7,97.346,273.2c-.453,8.636,7.026,13.851,12.661,13.03,13.248-1.92,33.589-22.773,33.589-22.773l-7.647-8.125-17.868,8.007,5.551-15.553Z" transform="translate(-89.61 -138.766)" fill="#ffbf9d"/>
      <g id="Grupo_108835" data-name="Grupo 108835" transform="translate(68.707 100.369)" opacity="0.3">
        <path id="Trazado_159343" data-name="Trazado 159343" d="M218.222,262.67c2.222-5.416.562-11.965-3.354-16.266s-9.869-6.5-15.713-6.708a28.105,28.105,0,0,0-25.707,41.453,23.643,23.643,0,0,0,8.259-2.029C185.2,277.327,218.222,262.67,218.222,262.67Z" transform="translate(-170.067 -239.679)"/>
      </g>
      <circle id="Elipse_5117" data-name="Elipse 5117" cx="22.295" cy="22.295" r="22.295" transform="matrix(0.859, -0.512, 0.512, 0.859, 65.616, 119.916)" fill="#dce736"/>
      <path id="Trazado_159344" data-name="Trazado 159344" d="M198.7,280.783,187.14,271.09l3.387-4.033,7.747,6.5,11.889-12.636,3.84,3.605Z" transform="translate(-104.118 -142.742)" fill="#fff"/>
    </g>
  </g>
</svg>
