<svg xmlns="http://www.w3.org/2000/svg" width="157" height="157" viewBox="0 0 157 157">
  <g id="Grupo_109457" data-name="Grupo 109457" transform="translate(-725 -1405)">
    <g id="Elipse_4730" data-name="Elipse 4730" transform="translate(725 1405)" fill="#fff" stroke="#75b62f" stroke-width="4">
      <circle cx="78.5" cy="78.5" r="78.5" stroke="none"/>
      <circle cx="78.5" cy="78.5" r="76.5" fill="none"/>
    </g>
    <g id="Grupo_108809" data-name="Grupo 108809" transform="translate(681.931 1094.088)">
      <path id="Trazado_158386" data-name="Trazado 158386" d="M80.165,358.292c.18-.034.16-.187.19-.313,1.353-5.92,5.19-9.494,10.882-11.03a15.893,15.893,0,0,1,15.682,3.724,12.727,12.727,0,0,1,.37,18.735.972.972,0,0,0-.2,1.379,14.883,14.883,0,0,0,1.79,2.537,1.382,1.382,0,0,1,.423,1.552c-.281.636-.871.656-1.461.668a9.962,9.962,0,0,1-6.058-1.905,1.429,1.429,0,0,0-1.33-.216c-6.632,1.656-12.437.3-17.133-4.849a12.159,12.159,0,0,1-2.868-5.71c-.058-.267.016-.609-.282-.8Zm2.322,2.617a10.4,10.4,0,0,0,4.092,7.715c4.215,3.371,8.958,4.007,14.037,2.363a1.663,1.663,0,0,1,1.862.338,7.128,7.128,0,0,0,2.531,1.467c.183.064.377.233.579.027-.289-.6-.6-1.17-.849-1.771-.662-1.615-.616-1.72.611-2.9a10.3,10.3,0,0,0,3.5-7.237,9.879,9.879,0,0,0-2.233-7.237c-4.748-6.111-14.661-6.841-20.475-1.5A10.449,10.449,0,0,0,82.487,360.91Z" transform="translate(-0.086 0)" fill="#040404"/>
      <path id="Trazado_158387" data-name="Trazado 158387" d="M80.079,483.893c.439-.452.52-1.1.915-1.593a7.61,7.61,0,0,1,4.225-2.482c1.126-.294,2.28-.479,3.465-.722a7.954,7.954,0,0,1-2.752-7.658,5.377,5.377,0,0,1,6.063-4.7c4.308.261,5.769,3.59,5.4,6.982a7.652,7.652,0,0,1-2.867,5.375c1.187.239,2.305.449,3.416.694a8.415,8.415,0,0,1,2.851,1.187,4.92,4.92,0,0,1,2.394,4.388c-.022,1.912-.032,3.825.009,5.737a2.215,2.215,0,0,1-.657,1.8h-.984l-.653-.825c0-2.258-.019-4.516,0-6.773a2.682,2.682,0,0,0-1.3-2.387,5.718,5.718,0,0,0-1.7-.783,21.981,21.981,0,0,0-6.193-.85,12.909,12.909,0,0,0-3.009.159,12.8,12.8,0,0,0-4.9,1.385,2.715,2.715,0,0,0-1.451,2.545c.038,2.231.008,4.462.006,6.693l-.636.838c-.546,0-1.306.214-1.579-.06s-.06-1.033-.06-1.579Zm11.635-14.86c-1.968-.043-3.166.781-3.512,2.542a5.916,5.916,0,0,0,.958,4.73,2.8,2.8,0,0,0,2.57,1.419,2.713,2.713,0,0,0,2.2-1.207,5.963,5.963,0,0,0,1.236-4.036A3.166,3.166,0,0,0,91.715,469.033Z" transform="translate(0 -62.648)" fill="#030404"/>
      <path id="Trazado_158388" data-name="Trazado 158388" d="M207.556,492.853a2.21,2.21,0,0,1-.657-1.8q.063-2.824.007-5.651a4.962,4.962,0,0,1,2.736-4.676,14.267,14.267,0,0,1,4.9-1.48l1.047-.17a7.927,7.927,0,0,1-2.925-6.695c.069-2.139.8-4,2.83-5a6.212,6.212,0,0,1,6.33.221c2.305,1.457,2.666,3.8,2.382,6.277a7.539,7.539,0,0,1-2.825,5.165c1.212.246,2.322.458,3.425.7a8.465,8.465,0,0,1,2.569,1.021,4.982,4.982,0,0,1,2.651,4.646q-.066,2.866.006,5.733a2.051,2.051,0,0,1-.672,1.714h-.984l-.64-.835c0-2.26-.023-4.52,0-6.78a2.655,2.655,0,0,0-1.313-2.38,5.493,5.493,0,0,0-1.469-.7,20.973,20.973,0,0,0-6.591-.92,11.11,11.11,0,0,0-2.774.149,12.653,12.653,0,0,0-5,1.419,2.7,2.7,0,0,0-1.41,2.5c.03,2.239.007,4.478.006,6.718l-.653.829Zm10.8-15.187a2.843,2.843,0,0,0,2.619-1.478A6.043,6.043,0,0,0,222,472.324a3.173,3.173,0,0,0-3.626-3.344c-1.951.032-3.067.894-3.368,2.72a5.942,5.942,0,0,0,1.011,4.566A2.822,2.822,0,0,0,218.358,477.666Z" transform="translate(-66.001 -62.591)" fill="#030404"/>
      <path id="Trazado_158389" data-name="Trazado 158389" d="M144.279,492.91a1.7,1.7,0,0,1-.731-1.6c.032-1.965.045-3.932,0-5.9a4.91,4.91,0,0,1,2.688-4.617,14.06,14.06,0,0,1,4.893-1.492c.322-.054.645-.1,1.089-.172a7.737,7.737,0,0,1-2.6-3.931,8.539,8.539,0,0,1-.2-3.97,5.41,5.41,0,0,1,6.085-4.48c3.528.272,5.546,2.618,5.4,6.272A7.868,7.868,0,0,1,158,479.1c1.181.239,2.281.453,3.378.689a8.513,8.513,0,0,1,2.575,1.006,4.963,4.963,0,0,1,2.691,4.622c-.039,1.965-.028,3.931,0,5.9a1.7,1.7,0,0,1-.73,1.6h-.82a2,2,0,0,1-.683-.811q-.01-3.024-.019-6.049c0-2.2-.606-3.107-2.715-3.8a19.689,19.689,0,0,0-6.589-.962,18.2,18.2,0,0,0-7.186,1.206,3.077,3.077,0,0,0-2.114,3.224c.066,2.121,0,4.246,0,6.369a2.008,2.008,0,0,1-.689.818ZM155.1,469.034c-1.8-.011-2.968.724-3.349,2.244a5.9,5.9,0,0,0,1.1,5.308,2.65,2.65,0,0,0,2.23,1.146,2.679,2.679,0,0,0,2.3-1.185,5.853,5.853,0,0,0,1.21-4.536C158.331,469.983,157.184,469.019,155.1,469.034Z" transform="translate(-33.052 -62.648)" fill="#030303"/>
      <path id="Trazado_158390" data-name="Trazado 158390" d="M210.32,520.35l.653-.829,3.125-.019,1.622-.015,4.446.013h6.053l3.3.015.64.835Z" transform="translate(-67.781 -90.088)" fill="#fdfdfd"/>
      <path id="Trazado_158391" data-name="Trazado 158391" d="M83.581,520.355l.636-.838,3.307-.019,1.622,0L93.6,519.5l4.416.007,1.632.005,3.12.022.653.826Z" transform="translate(-1.862 -90.092)" fill="#fdfdfd"/>
      <path id="Trazado_158392" data-name="Trazado 158392" d="M166.1,519.547a2,2,0,0,0,.683.811h-20a2,2,0,0,0,.689-.818l3.254-.035,1.622,0,4.447,0,4.419,0h1.633Z" transform="translate(-34.733 -90.095)" fill="#fdfdfd"/>
      <path id="Trazado_158393" data-name="Trazado 158393" d="M140.384,398.3c-.138.7-.509,1.16-1.268,1.122-.66-.034-1.015-.548-1.017-1.43-.006-3.606-.026-7.213.006-10.819.024-2.833,1.846-5.134,4.84-6.233a10.293,10.293,0,0,1,3.684-.657c1.086.011,2.171,0,3.465,0a9.414,9.414,0,0,1-1.92-1.46A10.23,10.23,0,0,1,146,368.092c.852-2.473,2.816-3.712,5.343-4.142,4.185-.711,7.741,1.466,8.568,5.332a10.806,10.806,0,0,1-.9,7.171,8.937,8.937,0,0,1-3.422,3.77c2.614-.039,5.226.309,7.807-.156a9.942,9.942,0,0,0,5.026-2.909c.291-.277.207-.6.207-.913,0-8.551.059-17.1-.029-25.653a4.051,4.051,0,0,1,4.254-4.284c5.735.094,11.474.03,17.21.031,2.659,0,4.16,1.5,4.16,4.158q0,12.908,0,25.817c0,2.666-1.485,4.153-4.153,4.155-4.317,0-8.633.012-12.949-.012a1.44,1.44,0,0,0-1.233.588,24.147,24.147,0,0,1-11.187,7.8c-.259.082-.519.164-.784.228-1.481.362-1.482.36-1.483,1.853,0,2.322-.019,4.645,0,6.967.006.732-.151,1.348-.942,1.5s-1.186-.375-1.379-1.078a.137.137,0,0,0,0-.152c.012-.3.035-.6.036-.9.007-2.9,0-5.791.019-8.687,0-1.017.361-1.362,1.356-1.451a11.371,11.371,0,0,0,1.7-.244,20.726,20.726,0,0,0,10.115-6.348,13.951,13.951,0,0,0,3.232-4.784,1.31,1.31,0,0,0-1.484-1.9,1.606,1.606,0,0,0-1.023.62c-1.252,1.335-2.483,2.689-3.751,4.009a12.434,12.434,0,0,1-9.795,4.1c-2.591-.091-5.188,0-7.782.013-2.291-.005-4.584-.063-6.873,0a6.648,6.648,0,0,0-3.784,1.384,3.792,3.792,0,0,0-1.713,3.1C140.353,390.822,140.375,394.559,140.384,398.3Zm12.362-19.734a4.323,4.323,0,0,0,3.656-2.11,8.618,8.618,0,0,0,1.442-5.662,4.548,4.548,0,0,0-5.094-4.61c-2.472-.1-4.3,1.062-4.838,3.248a8.365,8.365,0,0,0,1.286,7.148A4.2,4.2,0,0,0,152.747,378.561Zm28.525-29.907q-4.178-.015-8.355-.029c-1.6,0-2.008.411-2.008,2.044q0,11.43,0,22.861v.835c.748-.715,1.394-1.406,2.115-2.005a3.7,3.7,0,0,1,4.562-.051,3.185,3.185,0,0,1,1.262,3.743c-.177.734-.579,1.377-.81,2.1h3.24q4.336.022,8.672.041c1.566,0,2-.425,2-1.976q0-12.81,0-25.62c0-.191.007-.383-.008-.573a1.388,1.388,0,0,0-1.419-1.391C187.437,348.625,184.354,348.645,181.272,348.654Z" transform="translate(-30.212 -0.016)" fill="#030304"/>
      <path id="Trazado_158394" data-name="Trazado 158394" d="M168.61,412.432c2.594-.011,5.191-.1,7.782-.013a12.433,12.433,0,0,0,9.795-4.1c1.267-1.32,2.5-2.674,3.751-4.009a1.606,1.606,0,0,1,1.023-.62,1.31,1.31,0,0,1,1.484,1.9,13.951,13.951,0,0,1-3.232,4.784,20.726,20.726,0,0,1-10.115,6.348,11.387,11.387,0,0,1-1.7.244c-.995.089-1.351.434-1.356,1.451-.014,2.9-.012,5.791-.019,8.687,0,.3-.023.6-.036.9l-.156.11-7.184-.014c-.011-.353-.03-.706-.031-1.059Q168.612,419.735,168.61,412.432Z" transform="translate(-46.087 -29.855)" fill="#dce736"/>
      <path id="Trazado_158395" data-name="Trazado 158395" d="M155.2,421.889q0,7.3.008,14.606c0,.353.02.706.031,1.059l-6.245.025q-.014-4.87-.029-9.74a5.541,5.541,0,0,0-.02-.9,1.068,1.068,0,0,0-1.169-1.014,1.052,1.052,0,0,0-1.084,1.1c-.017.217,0,.436-.005.655q-.012,4.952-.024,9.9l-3.813.01c-.009-3.737-.032-7.474-.02-11.211a3.791,3.791,0,0,1,1.713-3.1,6.648,6.648,0,0,1,3.784-1.384C150.615,421.826,152.908,421.883,155.2,421.889Z" transform="translate(-32.676 -39.312)" fill="#dce736"/>
      <path id="Trazado_158396" data-name="Trazado 158396" d="M150.819,441.986q.012-4.952.024-9.9c0-.218-.012-.438.005-.655a1.052,1.052,0,0,1,1.084-1.1,1.068,1.068,0,0,1,1.169,1.014,5.546,5.546,0,0,1,.02.9q.016,4.87.029,9.74c-.138.641-.464,1.139-1.173,1.133A1.139,1.139,0,0,1,150.819,441.986Z" transform="translate(-36.834 -43.716)" fill="#030304"/>
      <path id="Trazado_158397" data-name="Trazado 158397" d="M183.66,454.473l.156-.11a.137.137,0,0,1,0,.152Z" transform="translate(-53.915 -56.217)" fill="#75dff6"/>
      <path id="Trazado_158398" data-name="Trazado 158398" d="M84.975,363.419a10.449,10.449,0,0,1,3.66-8.735c5.814-5.337,15.727-4.607,20.475,1.5a9.879,9.879,0,0,1,2.233,7.237l-3.591,0a1.315,1.315,0,0,0-1.529-1.121c-.7.026-1.41.033-2.113,0a1.366,1.366,0,0,0-1.615,1.128l-1.723-.006a1.242,1.242,0,0,0-1.426-1.118c-.782.013-1.565.012-2.348,0a1.243,1.243,0,0,0-1.427,1.115H93.826a1.265,1.265,0,0,0-1.451-1.118c-.817.015-1.635-.006-2.452.006a1.26,1.26,0,0,0-1.352,1.121Z" transform="translate(-2.574 -2.509)" fill="#eaedef"/>
      <path id="Trazado_158399" data-name="Trazado 158399" d="M100.8,376.769l1.723.006a1.321,1.321,0,0,0,1.575,1.162,20.8,20.8,0,0,1,2.2,0,1.262,1.262,0,0,0,1.48-1.165l3.591,0a10.3,10.3,0,0,1-3.5,7.237c-1.228,1.176-1.274,1.281-.611,2.9.246.6.56,1.173.849,1.771-.2.205-.4.037-.579-.027A7.127,7.127,0,0,1,105,387.184a1.663,1.663,0,0,0-1.862-.338c-5.079,1.644-9.822,1.009-14.037-2.362A10.4,10.4,0,0,1,85,376.768l3.6.01a1.34,1.34,0,0,0,1.583,1.16,20.952,20.952,0,0,1,2.2,0,1.236,1.236,0,0,0,1.469-1.166H95.6a1.194,1.194,0,0,0,1.378,1.165c.788-.02,1.576-.028,2.363,0A1.221,1.221,0,0,0,100.8,376.769Z" transform="translate(-2.603 -15.858)" fill="#c2cacd"/>
      <path id="Trazado_158400" data-name="Trazado 158400" d="M88.208,507.8l-3.307.019c0-2.231.032-4.463-.006-6.693a2.715,2.715,0,0,1,1.451-2.545,12.8,12.8,0,0,1,4.9-1.385,12.91,12.91,0,0,1,3.009-.159q.009,5.38.019,10.76l-4.449.006c0-1.66,0-3.32.012-4.981a.778.778,0,0,0-.411-.817.86.86,0,0,0-.862.03,1.145,1.145,0,0,0-.372,1.029C88.206,504.643,88.2,506.221,88.208,507.8Z" transform="translate(-2.545 -78.394)" fill="#609627"/>
      <path id="Trazado_158401" data-name="Trazado 158401" d="M104.428,507.829q-.009-5.38-.019-10.76a21.981,21.981,0,0,1,6.193.85,5.719,5.719,0,0,1,1.7.783,2.682,2.682,0,0,1,1.3,2.387c-.022,2.258,0,4.515,0,6.773l-3.12-.022c0-1.661.012-3.323,0-4.984-.006-.742-.6-1.152-1.194-.829-.411.224-.442.648-.441,1.069q.006,2.37,0,4.739Z" transform="translate(-12.695 -78.426)" fill="#609627"/>
      <path id="Trazado_158402" data-name="Trazado 158402" d="M100.476,480.222a2.8,2.8,0,0,1-2.57-1.42,5.916,5.916,0,0,1-.958-4.73c.346-1.761,1.545-2.585,3.512-2.542Q100.468,475.876,100.476,480.222Z" transform="translate(-8.745 -65.145)" fill="#f3dacb"/>
      <path id="Trazado_158403" data-name="Trazado 158403" d="M104.427,480.224q-.008-4.346-.016-8.692a3.166,3.166,0,0,1,3.449,3.448,5.963,5.963,0,0,1-1.236,4.036A2.713,2.713,0,0,1,104.427,480.224Z" transform="translate(-12.696 -65.146)" fill="#edc8b9"/>
      <path id="Trazado_158404" data-name="Trazado 158404" d="M235.237,507.843h-4.421q-.009-5.381-.017-10.762a20.973,20.973,0,0,1,6.591.92,5.493,5.493,0,0,1,1.469.7,2.655,2.655,0,0,1,1.313,2.38c-.027,2.26-.006,4.52,0,6.78l-3.3-.015c0-1.634.013-3.269,0-4.9-.005-.523-.147-.983-.828-.97-.656.012-.813.4-.809.971C235.242,504.574,235.236,506.209,235.237,507.843Z" transform="translate(-78.432 -78.431)" fill="#609627"/>
      <path id="Trazado_158405" data-name="Trazado 158405" d="M220.849,497.047q.009,5.381.017,10.762l-4.446-.013c0-1.632.016-3.266,0-4.9,0-.526-.159-.979-.835-.964-.657.015-.805.412-.8.978.014,1.633.01,3.266.013,4.9l-3.125.019c0-2.24.025-4.479-.005-6.718a2.7,2.7,0,0,1,1.41-2.5,12.654,12.654,0,0,1,5-1.419A11.113,11.113,0,0,1,220.849,497.047Z" transform="translate(-68.482 -78.397)" fill="#609627"/>
      <path id="Trazado_158406" data-name="Trazado 158406" d="M230.794,471.535a3.173,3.173,0,0,1,3.626,3.344,6.043,6.043,0,0,1-1.022,3.865,2.843,2.843,0,0,1-2.619,1.478Q230.786,475.879,230.794,471.535Z" transform="translate(-78.422 -65.146)" fill="#edc8b9"/>
      <path id="Trazado_158407" data-name="Trazado 158407" d="M227.058,471.538q-.008,4.343-.015,8.687a2.822,2.822,0,0,1-2.342-1.4,5.942,5.942,0,0,1-1.011-4.566C223.99,472.432,225.107,471.57,227.058,471.538Z" transform="translate(-74.686 -65.149)" fill="#f3dacb"/>
      <path id="Trazado_158408" data-name="Trazado 158408" d="M151.469,507.838l-3.254.035c.008-2.123.07-4.248,0-6.369a3.077,3.077,0,0,1,2.114-3.224,18.2,18.2,0,0,1,7.186-1.206q.009,5.382.018,10.762l-4.447,0c0-1.633.016-3.266,0-4.9,0-.525-.153-.981-.829-.969-.656.011-.812.4-.807.972C151.471,504.572,151.466,506.205,151.469,507.838Z" transform="translate(-35.479 -78.43)" fill="#609627"/>
      <path id="Trazado_158409" data-name="Trazado 158409" d="M167.622,507.836q-.009-5.381-.018-10.762a19.687,19.687,0,0,1,6.589.962c2.109.689,2.711,1.6,2.715,3.8q.005,3.025.019,6.049l-3.254-.039c0-1.662.012-3.323,0-4.985-.006-.74-.607-1.151-1.2-.826-.411.226-.44.649-.439,1.071q.007,2.37,0,4.74Z" transform="translate(-45.564 -78.428)" fill="#609627"/>
      <path id="Trazado_158410" data-name="Trazado 158410" d="M167.594,471.533c2.088-.016,3.235.948,3.492,2.977a5.853,5.853,0,0,1-1.21,4.536,2.679,2.679,0,0,1-2.3,1.185Q167.587,475.882,167.594,471.533Z" transform="translate(-45.55 -65.147)" fill="#edc8b9"/>
      <path id="Trazado_158411" data-name="Trazado 158411" d="M163.755,471.533q-.008,4.349-.016,8.7a2.65,2.65,0,0,1-2.23-1.146,5.9,5.9,0,0,1-1.1-5.308C160.787,472.257,161.954,471.522,163.755,471.533Z" transform="translate(-41.711 -65.147)" fill="#f3dacb"/>
      <path id="Trazado_158412" data-name="Trazado 158412" d="M218.177,513.148c0-1.633,0-3.266-.013-4.9-.005-.566.143-.963.8-.979.676-.015.83.438.835.964.016,1.633,0,3.266,0,4.9Z" transform="translate(-71.86 -83.735)" fill="#4ebd9c"/>
      <path id="Trazado_158413" data-name="Trazado 158413" d="M240.039,513.15c0-1.635.005-3.269-.008-4.9,0-.571.153-.958.809-.971.68-.012.823.448.828.97.017,1.634,0,3.269,0,4.9Z" transform="translate(-83.234 -83.737)" fill="#498388"/>
      <path id="Trazado_158414" data-name="Trazado 158414" d="M91.786,513.112c0-1.578,0-3.157-.012-4.736a1.145,1.145,0,0,1,.372-1.029.86.86,0,0,1,.862-.03.778.778,0,0,1,.411.817c-.011,1.66-.009,3.32-.012,4.981Z" transform="translate(-6.124 -83.706)" fill="#4ebd9c"/>
      <path id="Trazado_158415" data-name="Trazado 158415" d="M113.647,513.093q0-2.369,0-4.739c0-.421.03-.845.442-1.069.591-.323,1.188.087,1.194.829.014,1.661,0,3.323,0,4.984Z" transform="translate(-17.498 -83.684)" fill="#498388"/>
      <path id="Trazado_158416" data-name="Trazado 158416" d="M154.982,513.144c0-1.633,0-3.266-.012-4.9,0-.569.151-.961.807-.972.676-.012.824.444.829.969.014,1.633,0,3.266,0,4.9Z" transform="translate(-38.993 -83.735)" fill="#4ebd9c"/>
      <path id="Trazado_158417" data-name="Trazado 158417" d="M176.844,513.1q0-2.37,0-4.74c0-.421.028-.845.439-1.071.59-.324,1.191.086,1.2.826.014,1.661,0,3.323,0,4.985Z" transform="translate(-50.367 -83.684)" fill="#498388"/>
      <path id="Trazado_158418" data-name="Trazado 158418" d="M228.075,351.173c3.082-.009,6.165-.029,9.247-.019a1.388,1.388,0,0,1,1.419,1.391c.014.19.008.382.008.573q0,12.81,0,25.62c0,1.551-.43,1.98-2,1.976q-4.336-.013-8.672-.041,0-5.166,0-10.331c.988-.186,1.291-.5,1.295-1.436q.014-3.75,0-7.5c0-.944-.323-1.275-1.3-1.42Q228.075,355.578,228.075,351.173Zm4.751,11.95c0,1.912,0,3.825,0,5.738,0,.892.41,1.428,1.087,1.455.711.029,1.187-.532,1.189-1.452q.009-5.656,0-11.311c0-.923-.472-1.481-1.185-1.455-.68.026-1.089.559-1.091,1.451C232.822,359.406,232.826,361.264,232.826,363.122Z" transform="translate(-77.015 -2.535)" fill="#c3cbce"/>
      <path id="Trazado_158419" data-name="Trazado 158419" d="M216.844,351.165q0,4.406,0,8.812a1.327,1.327,0,0,0-.989,1.487q.037,3.688,0,7.376a1.375,1.375,0,0,0,.994,1.494q0,5.165,0,10.331h-3.24c.231-.725.633-1.369.81-2.1a3.185,3.185,0,0,0-1.262-3.743,3.7,3.7,0,0,0-4.562.051c-.721.6-1.367,1.291-2.115,2.005v-.835q0-11.43,0-22.861c0-1.634.405-2.048,2.008-2.044Q212.666,351.146,216.844,351.165Zm-4.432,15.768c0-.735.022-1.471-.006-2.205a1.135,1.135,0,1,0-2.268.019q-.034,2.164,0,4.329a1.155,1.155,0,0,0,1.143,1.23,1.171,1.171,0,0,0,1.128-1.25C212.429,368.349,212.412,367.641,212.412,366.933Z" transform="translate(-65.784 -2.527)" fill="#eaedef"/>
      <path id="Trazado_158420" data-name="Trazado 158420" d="M168.638,387.709a4.548,4.548,0,0,1,5.094,4.61,8.618,8.618,0,0,1-1.442,5.662,4.323,4.323,0,0,1-3.656,2.11Q168.636,393.9,168.638,387.709Z" transform="translate(-46.1 -21.546)" fill="#edc8b9"/>
      <path id="Trazado_158421" data-name="Trazado 158421" d="M163.08,387.709q0,6.191,0,12.382a4.2,4.2,0,0,1-3.549-1.987,8.365,8.365,0,0,1-1.286-7.147C158.785,388.772,160.607,387.613,163.08,387.709Z" transform="translate(-40.541 -21.546)" fill="#f3dacb"/>
      <path id="Trazado_158422" data-name="Trazado 158422" d="M97.753,375.558a1.236,1.236,0,0,1-1.469,1.166,20.952,20.952,0,0,0-2.2,0,1.34,1.34,0,0,1-1.583-1.16,1.26,1.26,0,0,1,1.352-1.121c.817-.012,1.634.009,2.452-.006A1.265,1.265,0,0,1,97.753,375.558Z" transform="translate(-6.501 -14.648)" fill="#040404"/>
      <path id="Trazado_158423" data-name="Trazado 158423" d="M126.769,375.552a1.263,1.263,0,0,1-1.48,1.165,20.786,20.786,0,0,0-2.2,0,1.321,1.321,0,0,1-1.575-1.162,1.366,1.366,0,0,1,1.615-1.128c.7.034,1.409.027,2.113,0A1.315,1.315,0,0,1,126.769,375.552Z" transform="translate(-21.591 -14.64)" fill="#040404"/>
      <path id="Trazado_158424" data-name="Trazado 158424" d="M112.285,375.559a1.221,1.221,0,0,1-1.46,1.166c-.787-.03-1.576-.022-2.363,0a1.194,1.194,0,0,1-1.378-1.165,1.243,1.243,0,0,1,1.427-1.115c.783.011,1.566.012,2.348,0A1.242,1.242,0,0,1,112.285,375.559Z" transform="translate(-14.087 -14.648)" fill="#040404"/>
      <path id="Trazado_158425" data-name="Trazado 158425" d="M237.975,368.483c0-1.858,0-3.716,0-5.574,0-.892.411-1.425,1.091-1.451.713-.027,1.183.531,1.185,1.454q.009,5.656,0,11.311c0,.919-.478,1.481-1.189,1.452-.677-.028-1.086-.564-1.087-1.455C237.971,372.308,237.975,370.395,237.975,368.483Z" transform="translate(-82.163 -7.895)" fill="#040404"/>
      <path id="Trazado_158426" data-name="Trazado 158426" d="M227,379.915a1.375,1.375,0,0,1-.994-1.494q.044-3.688,0-7.376a1.327,1.327,0,0,1,.989-1.487c.975.145,1.295.476,1.3,1.42q.014,3.75,0,7.5C228.295,379.413,227.991,379.73,227,379.915Z" transform="translate(-75.941 -12.109)" fill="#030304"/>
      <path id="Trazado_158427" data-name="Trazado 158427" d="M216.358,380.4c0,.708.017,1.416,0,2.124a1.171,1.171,0,0,1-1.128,1.25,1.155,1.155,0,0,1-1.143-1.23q-.03-2.164,0-4.329a1.135,1.135,0,1,1,2.268-.019C216.379,378.929,216.358,379.665,216.358,380.4Z" transform="translate(-69.73 -15.994)" fill="#040404"/>
    </g>
  </g>
</svg>
