<svg xmlns="http://www.w3.org/2000/svg" width="157" height="157" viewBox="0 0 157 157">
  <g id="Grupo_109457" data-name="Grupo 109457" transform="translate(5650 10293)">
    <g id="Elipse_4730" data-name="Elipse 4730" transform="translate(-5650 -10293)" fill="#fff" stroke="#75b62f" stroke-width="4">
      <circle cx="78.5" cy="78.5" r="78.5" stroke="none"/>
      <circle cx="78.5" cy="78.5" r="76.5" fill="none"/>
    </g>
    <g id="Grupo_108808" data-name="Grupo 108808" transform="translate(-6021.182 -10625.162)">
      <path id="Trazado_158341" data-name="Trazado 158341" d="M398.036,431.1a5.946,5.946,0,0,1,2.038-2.6c.34-.193.086-.392-.043-.564a7.957,7.957,0,0,1-1.429-5.175c.054-2.729.005-5.46.016-8.19a4.731,4.731,0,0,1,5-5.007c2.131-.011,4.262-.015,6.392,0a4.726,4.726,0,0,1,4.933,4.792c.058,3.095.039,6.193,0,9.289a7.2,7.2,0,0,1-2.6,5.535,7.814,7.814,0,0,1,3.174,7.027c-.047,1.23.014,2.464-.018,3.7-.013.521.151.725.679.683a13.434,13.434,0,0,1,1.4,0,4.917,4.917,0,0,1,4.965,4.294c.094.607.27.736.847.738,2.712.011,2.693.029,2.719-2.651a1.351,1.351,0,0,0-.773-1.407,4.031,4.031,0,0,1-2.121-3.605c-.037-1.2-.029-2.4-.005-3.6a1.455,1.455,0,0,1,1.533-1.6q2.845-.066,5.693,0a1.472,1.472,0,0,1,1.553,1.59c.027,1.231.048,2.466-.013,3.695a4.15,4.15,0,0,1-2.273,3.627.993.993,0,0,0-.632,1.078,12.854,12.854,0,0,1,0,2c-.067.733.242.9.912.872,1.3-.046,2.6-.045,3.894,0,.649.022.853-.175.846-.836-.033-3,.117-6-.045-8.988a7.266,7.266,0,0,1,7.429-8.033c.176-.263-.084-.427-.179-.6a5.9,5.9,0,0,1-.839-2.536,40.488,40.488,0,0,1,.06-8.072,8.036,8.036,0,0,1,10.156-6.66c.6.151.774-.019,1.009-.526a4.511,4.511,0,0,1,5.006-2.59,4.62,4.62,0,0,1,3.638,4.116,4.452,4.452,0,0,1-3.08,4.612c-.687.22-.7.508-.641,1.125a55.652,55.652,0,0,1,.054,7.878,6.461,6.461,0,0,1-1.193,3.206c.889.185,1.717.145,2.508.383a6.8,6.8,0,0,1,5,6.276c.1,3.393.068,6.792.033,10.187-.009.81.173,1.113,1.032,1.061a36.84,36.84,0,0,1,3.794,0c.683.029.905-.213.824-.856a3.964,3.964,0,0,1,0-.8c.089-1.149.033-2.1-1.252-2.763a3.507,3.507,0,0,1-1.647-3.139c-.048-1.23-.037-2.464-.012-3.695A1.5,1.5,0,0,1,468,432.745q2.745-.05,5.493,0a1.506,1.506,0,0,1,1.657,1.688q.028,1.7,0,3.4a4.207,4.207,0,0,1-2.274,3.831,1.011,1.011,0,0,0-.623,1.083,21.847,21.847,0,0,1,0,2.2c-.028.542.2.722.7.66a2.546,2.546,0,0,1,.3,0,6.975,6.975,0,0,0,2.18-.053c.726-.254.386-1.2.652-1.814a5.056,5.056,0,0,1,4.673-3.15c1.2-.029,2.391-.043,3.587-.064,2.125.02,4.252.011,6.376.078.716.022.868-.207.874-.89.027-2.79-.176-5.584.115-8.369.044-.415-.1-.488-.471-.525a4.567,4.567,0,0,0-5.363,4.093c-.143.939-.551,1.546-1.543,1.65-1.235-.324-1.523-.715-1.425-1.979A7.423,7.423,0,0,1,486,429.15c-2.155-1.819-2.731-4.2-2.606-6.845.022-.465-.051-.94.014-1.4a1.667,1.667,0,0,0-1.169-2.008,4.789,4.789,0,0,1-2.47-5.563,4.978,4.978,0,0,1,4.725-3.763q5.292-.079,10.586,0a4.657,4.657,0,0,1,4.656,4.738c.028,3.129,0,6.259.006,9.389a6.728,6.728,0,0,1-1.338,4.095c-.312.423-.289.6.15.914a4.22,4.22,0,0,1,1.769,3.614q0,11.336-.005,22.672a8.881,8.881,0,0,1-2.513,6.182,4.885,4.885,0,0,1,2.37,2.934,4.285,4.285,0,0,1-4,5.358,13.842,13.842,0,0,1-2.1-.011c-.884-.108-1.044.255-1.006,1.05.065,1.395.033,2.8.01,4.193a1.447,1.447,0,0,1-1.156,1.544,1.419,1.419,0,0,1-1.675-.768,1.9,1.9,0,0,1-.15-.972c-.007-1.4-.048-2.8.015-4.194.033-.745-.249-.892-.91-.85a19.017,19.017,0,0,1-2.5,0c-.677-.046-.93.137-.9.863.059,1.4.016,2.8.016,4.194,0,.888-.285,1.584-1.262,1.747-.878.147-1.411-.293-1.734-1.374q.02-8.027.046-16.056c0-.487-.127-.755-.674-.722-.76.046-1.523.053-2.285.076-.431-.018-.862-.052-1.293-.052q-23.86,0-47.719,0a7.21,7.21,0,0,1-1.1-.034,1.453,1.453,0,0,1-.082-2.856,6.087,6.087,0,0,1,1.192-.067q23.909-.017,47.819-.029c.4,0,.8-.025,1.2-.039a12.735,12.735,0,0,0,2.368.086c.524.032.575-.3.572-.709-.009-1.125,0-2.251,0-3.377,0-2.883,0-2.883-2.956-2.484-.363-.021-.728-.06-1.092-.06q-31.014,0-62.027,0c-.2,0-.4.017-.6,0-.525-.051-.692.185-.688.7.016,1.7.02,3.4-.027,5.093-.019.7.3.818.9.809,1.931-.027,3.862-.011,5.793-.009a7.519,7.519,0,0,1,.9.024,1.535,1.535,0,0,1,1.466,1.486,1.477,1.477,0,0,1-1.565,1.463c-2.2.025-4.395.018-6.592,0-.519,0-.881.015-.875.718.039,5.325.044,10.65.06,15.976-.408,1.211-1.078,1.7-2,1.409a1.508,1.508,0,0,1-1.053-1.625c0-1.432-.027-2.864.011-4.3.016-.617-.1-.906-.808-.851a18.135,18.135,0,0,1-2.595,0c-.68-.045-.93.134-.9.862.061,1.4.026,2.8.015,4.195-.009,1.142-.515,1.748-1.442,1.767-.955.019-1.53-.631-1.543-1.795-.016-1.431-.027-2.863.008-4.295.014-.553-.125-.778-.712-.731-.628.05-1.265,0-1.9.013a4.308,4.308,0,0,1-4.414-2.919,1.519,1.519,0,0,0-.216-.3v-2.2a5.65,5.65,0,0,1,2.557-2.847,8.311,8.311,0,0,1-1.438-1.951c-.4-.849-.749-1.728-1.119-2.593Zm96.484,19.537c3.017.178,3.06.134,2.779-2.849,0-.022-.038-.04-.1-.1-.4.165-.81.365-1.242.506-.472.154-.961.252-1.442.375-2.65,0-5.3.033-7.95-.015-1-.018-.7.633-.725,1.133s-.165,1.03.733,1.007C489.22,450.622,491.871,450.649,494.52,450.637Zm-84.9,0c.761.012,1.525-.008,2.284.042.889.058.628-.585.619-1.012-.01-.452.307-1.158-.638-1.111-.759.039-1.519.051-2.278.075-.4-.022-.791-.046-1.186-.066-2.452-.125-4.986.472-7.388-1.017,0,.994.022,1.813-.008,2.63-.019.512.282.495.635.493Q405.638,450.65,409.618,450.639Zm0,13.25q-3.542-.012-7.083-.026a1.286,1.286,0,0,0-1.486,1.259c-.066.811.518,1.344,1.49,1.348,2.361.009,4.722-.011,7.083-.018.362.007.725.028,1.087.02,1.963-.045,1.711.387,1.755-1.8.012-.576-.141-.858-.771-.816C411,463.9,410.307,463.881,409.616,463.889Zm84.7.012c-2.222-.013-4.445-.051-6.667-.031-1.995.019-1.719-.413-1.768,1.8-.012.58.144.83.776.821,2.554-.04,5.108-.036,7.662-.048.592.008,1.187.058,1.775.015a1.29,1.29,0,0,0,0-2.575C495.507,463.837,494.912,463.891,494.32,463.9Zm-84.7-23.382c.794.024,1.588.044,2.381.072.371.013.552-.137.542-.524a53.316,53.316,0,0,0-.1-5.477,4.285,4.285,0,0,0-4.624-3.713c-.4.117-1.218-.524-1.134.448.193,2.223.065,4.443.092,6.664C406.81,440.756,406.784,440.756,409.616,440.519Zm-.812-27.924c-1.827-.017-3.655-.069-5.482-.037a1.712,1.712,0,0,0-1.7,1.741c-.025.465.027.934-.015,1.4-.058.641.165.874.834.861,2.193-.042,4.388-.027,6.582-.034.365,0,.729.013,1.094.013,2.006,0,2.224-.271,1.843-2.282a1.852,1.852,0,0,0-1.972-1.714C409.6,412.526,409.2,412.574,408.8,412.595Zm7.981,32.957a13.193,13.193,0,0,0,2.082.085c.9.081.837-.374.551-.957-.478-.975-1.368-1.288-3.036-1.078h-15a3.471,3.471,0,0,0,3.238,1.983C408.676,445.614,412.731,445.568,416.785,445.551Zm62.185.009,14.331,0a3.552,3.552,0,0,0,3.392-1.422c.3-.368.347-.66-.294-.63-.761.036-1.523.046-2.284.067-4.39-.008-8.78-.027-13.169-.018-1.31,0-1.83.455-2.165,1.733C478.753,445.448,478.7,445.616,478.97,445.56Zm-27.393-28.247a10.961,10.961,0,0,0,2.04-.31c.611-.065.657-.363.5-.874a5.2,5.2,0,0,0-10.008,2.741C446.595,418.319,449.121,417.988,451.577,417.313Zm0,3.2q-3.561.679-7.123,1.356c-.224.043-.4.048-.47.372a4.62,4.62,0,0,0,2.929,5.369,6.945,6.945,0,0,0,3.055.147,4.036,4.036,0,0,0,4.359-3.67c.115-1.368.021-2.754.021-4.179A21.353,21.353,0,0,0,451.576,420.515ZM409.623,453.7q-3.991-.015-7.982-.029c-.279,0-.549-.084-.626.393a6.062,6.062,0,0,0,4.435,6.6,16.815,16.815,0,0,0,4.172.161c.729.012,1.46-.006,2.187.044.562.039.754-.148.737-.721-.037-1.26.016-2.523-.021-3.783-.026-.883.41-2.124-.192-2.553C411.716,453.377,410.55,453.708,409.623,453.7Zm82.7-25.94a4.05,4.05,0,0,0,4.418-3.94c.039-1.193-.006-2.388.022-3.582.012-.489-.1-.737-.652-.7-.726.053-1.456.039-2.184.054-2.287-.015-4.574-.017-6.862-.054-.514-.008-.7.144-.686.674.035,1.16-.028,2.323.023,3.482a4.137,4.137,0,0,0,3.843,4.092A6.606,6.606,0,0,0,492.321,427.761Zm-35.759,7.07a1.682,1.682,0,0,1,1.377,1.9c-.013,2.326,0,4.652,0,6.978,0,1.961,0,1.928,1.945,1.919.693,0,.826-.267.816-.883-.03-1.993-.011-3.987-.011-5.981,0-1.329.041-2.66-.015-3.987a3.886,3.886,0,0,0-4.108-3.905c-1.561-.017-3.123-.008-4.683-.062-.787-.028-1.325.009-1.269,1.059a1.266,1.266,0,0,1-1.35,1.317c-.735.044-1.478-.328-1.45-1.058.054-1.463-.8-1.369-1.764-1.313a10.577,10.577,0,0,1-1.694-.005c-.738-.075-.962.169-.956.933q.057,6.483,0,12.968c0,.678.161.919.877.911,3.258-.036,6.517-.043,9.775,0,.8.011.919-.282.909-.983-.037-2.66-.021-5.32-.012-7.98C454.954,435.429,455.312,435.04,456.562,434.831ZM406.808,419.56v-.009c-1.494,0-2.988.023-4.482-.012-.563-.013-.75.155-.73.725.041,1.194-.012,2.391.026,3.585a4.075,4.075,0,0,0,3.474,3.9,11.622,11.622,0,0,0,2.88.047,4.137,4.137,0,0,0,3.977-4.175c.042-1.128-.013-2.259.02-3.386.016-.525-.162-.69-.683-.68C409.8,419.578,408.3,419.56,406.808,419.56Zm84.783,34.122v-.011c-1.7,0-3.393.018-5.089-.011-.523-.009-.687.154-.68.676.026,1.929.039,3.859-.005,5.787-.015.659.24.763.815.749,1.529-.036,3.06,0,4.589-.014a5.98,5.98,0,0,0,6.115-6.6c-.03-.517-.221-.587-.657-.582C494.983,453.692,493.287,453.682,491.591,453.682Zm-1.263-37.118v-.008h4.589c1.852,0,1.852,0,1.83-1.888-.018-1.457-.617-2.1-2.035-2.111q-4.889-.025-9.777-.008a2.074,2.074,0,0,0-2.32,1.948,2.134,2.134,0,0,0,2.326,2.062C486.736,416.573,488.532,416.564,490.328,416.564Zm-49.9,21.824c0-2.161,0-4.323,0-6.484,0-.252.132-.6-.116-.737-.3-.167-.553.126-.8.28a4.065,4.065,0,0,0-1.834,3.753q.008,4.239,0,8.478c0,1.976,0,1.947,1.935,1.947.666,0,.841-.209.83-.855C440.4,442.644,440.426,440.516,440.426,438.388Zm56.908-2.223c0-1.2.005-2.4,0-3.593-.007-1.132-.463-1.72-1.332-1.739-.909-.02-1.426.6-1.433,1.76-.01,2,0,3.992,0,5.989,0,2.128,0,2.111,2.159,2.008.477-.023.631-.151.62-.631C497.315,438.694,497.334,437.43,497.334,436.165Zm-96.306-.068v2.492c0,2.155,0,2.139,2.145,1.993.471-.032.632-.18.629-.65-.016-2.525.008-5.05-.017-7.575a1.356,1.356,0,0,0-1.362-1.518c-.863-.013-1.377.548-1.391,1.57C401.016,433.639,401.029,434.868,401.028,436.1Zm69.747-.372c-.76-.008-1.582-.3-1.462,1.092.151,1.729.472,2.475,1.49,2.443.947-.03,1.372-.719,1.373-2.226C472.176,435.721,472.176,435.721,470.775,435.725Zm-43.421,0c-.565-.032-1.322-.211-1.2,1.126.148,1.681.434,2.389,1.415,2.413s1.446-.7,1.446-2.256C429.011,435.721,429.011,435.721,427.354,435.721Zm29.114-22.961a1.531,1.531,0,1,0-.083-3.062,1.531,1.531,0,1,0,.083,3.062Z" transform="translate(0 -23.128)" fill="#030302"/>
      <path id="Trazado_158342" data-name="Trazado 158342" d="M477.819,351.033a2.147,2.147,0,0,1,1.516,2.484c-.078,2.493,0,4.992-.037,7.488a1.5,1.5,0,0,0,.691,1.405q3.433,2.486,6.8,5.062a4.829,4.829,0,0,1-1.42,8.407,5.837,5.837,0,0,1-1.965.279c-3.727,0-7.455,0-11.182,0a4.908,4.908,0,0,1-5.017-3.334c-.712-2.117.021-4.151,2.044-5.66,2.106-1.57,4.2-3.156,6.328-4.694a1.582,1.582,0,0,0,.766-1.469c-.044-2.5.03-4.993-.039-7.488a2.312,2.312,0,0,1,1.315-2.477Zm-.8,14.163c-2.087,1.526-4.179,3.045-6.257,4.583a1.817,1.817,0,0,0-.677,2.13,1.8,1.8,0,0,0,1.856,1.251c3.485.023,6.971-.016,10.456-.033.164.021.328.057.492.062,1.484.044,2.38-.383,2.674-1.266.324-.974-.023-1.664-1.31-2.621-1.891-1.405-3.8-2.793-5.659-4.234C477.966,364.585,477.489,364.526,477.014,365.2Z" transform="translate(-28.638 -15)" fill="#030302"/>
      <path id="Trazado_158343" data-name="Trazado 158343" d="M398.036,492.231c.37.865.714,1.744,1.119,2.593a8.311,8.311,0,0,0,1.438,1.951,5.65,5.65,0,0,0-2.557,2.847Z" transform="translate(0 -58.686)" fill="#fdfdfd"/>
      <path id="Trazado_158344" data-name="Trazado 158344" d="M427.989,504.605c-.016-5.325-.022-10.651-.06-15.976-.005-.7.356-.721.875-.718,2.2.013,4.4.02,6.592,0a1.477,1.477,0,0,0,1.565-1.463,1.535,1.535,0,0,0-1.466-1.486,7.526,7.526,0,0,0-.9-.024c-1.931,0-3.862-.018-5.793.009-.6.009-.92-.106-.9-.809.047-1.7.043-3.4.027-5.093,0-.513.163-.749.688-.7.2.019.4,0,.6,0q31.014,0,62.027,0c.364,0,.728.039,1.092.06q.01,3.242.019,6.484c-.4.014-.8.039-1.2.039q-23.909.015-47.819.029a6.092,6.092,0,0,0-1.192.067,1.453,1.453,0,0,0,.082,2.856,7.205,7.205,0,0,0,1.1.034q23.859,0,47.719,0c.431,0,.861.034,1.293.052q.017,8.3.035,16.6c-.265.015-.531.041-.8.041q-31.545,0-63.092,0C428.322,504.618,428.155,504.61,427.989,504.605Z" transform="translate(-12.414 -52.911)" fill="#d0996e"/>
      <path id="Trazado_158345" data-name="Trazado 158345" d="M545.713,453.688c.992-.1,1.4-.711,1.543-1.65a4.567,4.567,0,0,1,5.363-4.093c.375.037.515.11.471.525-.291,2.785-.088,5.579-.115,8.369-.006.683-.158.912-.874.89-2.124-.067-4.25-.057-6.375-.078Z" transform="translate(-61.379 -40.266)" fill="#838cfc"/>
      <path id="Trazado_158346" data-name="Trazado 158346" d="M538.206,511.374q-.018-8.3-.035-16.6c.761-.023,1.525-.03,2.285-.076.546-.033.676.235.674.722q-.033,8.028-.046,16.056Z" transform="translate(-58.244 -59.709)" fill="#b1805d"/>
      <path id="Trazado_158347" data-name="Trazado 158347" d="M488.824,451.978c-1.25.209-1.608.6-1.612,1.829-.009,2.66-.026,5.321.012,7.98.01.7-.113.994-.909.983-3.258-.046-6.517-.039-9.775,0-.716.008-.881-.233-.877-.911q.042-6.484,0-12.968c-.006-.764.217-1.007.955-.933a10.574,10.574,0,0,0,1.694.005c.964-.056,1.819-.151,1.764,1.313-.027.73.715,1.1,1.45,1.058a1.266,1.266,0,0,0,1.35-1.317c-.055-1.05.482-1.087,1.269-1.059,1.56.055,3.122.046,4.683.063Q488.824,450,488.824,451.978Z" transform="translate(-32.262 -40.275)" fill="#ff642b"/>
      <path id="Trazado_158348" data-name="Trazado 158348" d="M409.339,428.706c1.494,0,2.988.019,4.482-.01.521-.01.7.155.683.68-.034,1.128.022,2.259-.02,3.386a4.137,4.137,0,0,1-3.977,4.175,11.622,11.622,0,0,1-2.88-.047,4.075,4.075,0,0,1-3.474-3.9c-.038-1.194.015-2.391-.026-3.585-.019-.57.168-.739.73-.725,1.494.034,2.988.012,4.482.012Z" transform="translate(-2.531 -32.274)" fill="#fcd1a3"/>
      <path id="Trazado_158349" data-name="Trazado 158349" d="M554.024,487.1c1.7,0,3.392.01,5.088-.008.435,0,.626.065.657.582a5.979,5.979,0,0,1-6.115,6.6c-1.529.013-3.06-.022-4.589.014-.576.013-.83-.09-.815-.749.044-1.928.031-3.858.005-5.787-.006-.522.157-.685.68-.676,1.7.029,3.392.011,5.089.011Z" transform="translate(-62.433 -56.542)" fill="#ccbeb9"/>
      <path id="Trazado_158350" data-name="Trazado 158350" d="M555.153,436.909a6.606,6.606,0,0,1-2.077.029,4.137,4.137,0,0,1-3.843-4.092c-.051-1.159.012-2.322-.023-3.482-.016-.531.172-.683.686-.674,2.287.036,4.575.039,6.862.054,0,.5-.016,1,.01,1.5C556.893,432.624,556.831,434.96,555.153,436.909Z" transform="translate(-62.832 -32.276)" fill="#fee4c1"/>
      <path id="Trazado_158351" data-name="Trazado 158351" d="M411.695,494.249a16.815,16.815,0,0,1-4.172-.161,6.062,6.062,0,0,1-4.435-6.6c.077-.477.347-.394.626-.393q3.992.01,7.982.029Q411.695,490.685,411.695,494.249Z" transform="translate(-2.072 -56.548)" fill="#a5e5ee"/>
      <path id="Trazado_158352" data-name="Trazado 158352" d="M550.484,420.735c-1.8,0-3.592.01-5.387,0a2.134,2.134,0,0,1-2.326-2.062,2.074,2.074,0,0,1,2.32-1.948q4.888-.016,9.777.008c1.418.007,2.017.654,2.035,2.111.022,1.887.022,1.887-1.83,1.887h-4.589Z" transform="translate(-60.156 -27.299)" fill="#fde16f"/>
      <path id="Trazado_158353" data-name="Trazado 158353" d="M498.188,452.033q0-1.98,0-3.96a3.886,3.886,0,0,1,4.108,3.905c.056,1.327.015,2.658.015,3.987,0,1.994-.019,3.988.011,5.981.01.616-.123.88-.816.883-1.945.009-1.945.042-1.945-1.919,0-2.326-.009-4.652,0-6.978A1.682,1.682,0,0,0,498.188,452.033Z" transform="translate(-41.626 -40.33)" fill="#ff642b"/>
      <path id="Trazado_158354" data-name="Trazado 158354" d="M482.572,437.6a6.945,6.945,0,0,1-3.055-.147,4.62,4.62,0,0,1-2.929-5.369c.07-.324.245-.33.47-.372q3.562-.676,7.123-1.356C484.25,432.9,484.347,435.46,482.572,437.6Z" transform="translate(-32.605 -32.969)" fill="#fee4c1"/>
      <path id="Trazado_158355" data-name="Trazado 158355" d="M468.619,455.77c0,2.128-.023,4.256.014,6.383.012.646-.164.856-.83.855-1.935,0-1.935.029-1.935-1.947q0-4.239,0-8.478a4.065,4.065,0,0,1,1.834-3.753c.243-.154.5-.447.8-.281.248.14.115.485.116.737C468.623,451.448,468.619,453.609,468.619,455.77Z" transform="translate(-28.193 -40.51)" fill="#ff642b"/>
      <path id="Trazado_158356" data-name="Trazado 158356" d="M484.279,421.518c-2.456.675-4.982,1.006-7.464,1.557a5.167,5.167,0,0,1,5.255-6.276A9.233,9.233,0,0,1,484.279,421.518Z" transform="translate(-32.702 -27.333)" fill="#d0996e"/>
      <path id="Trazado_158357" data-name="Trazado 158357" d="M550.73,471.8l-14.331,0-.189-.265c.335-1.277.855-1.73,2.165-1.733,4.389-.009,8.779.01,13.168.018C551.768,470.676,551,471.135,550.73,471.8Z" transform="translate(-57.43 -49.359)" fill="#fee4c1"/>
      <path id="Trazado_158358" data-name="Trazado 158358" d="M419.166,471.813c-4.054.017-8.109.063-12.163.034a3.471,3.471,0,0,1-3.238-1.983h15C418.893,470.514,419.357,471.1,419.166,471.813Z" transform="translate(-2.381 -49.389)" fill="#fcd1a3"/>
      <path id="Trazado_158359" data-name="Trazado 158359" d="M411.562,420.695c-2.194.007-4.389-.008-6.582.034-.669.013-.892-.22-.834-.861.042-.462-.01-.932.015-1.4a1.712,1.712,0,0,1,1.7-1.741c1.827-.032,3.655.02,5.482.037A16.934,16.934,0,0,1,411.562,420.695Z" transform="translate(-2.536 -27.302)" fill="#5c525f"/>
      <path id="Trazado_158360" data-name="Trazado 158360" d="M414.774,448.084A4.285,4.285,0,0,1,419.4,451.8a53.325,53.325,0,0,1,.1,5.477c.01.387-.171.537-.542.524-.794-.029-1.587-.049-2.381-.072,0-1.394-.069-2.793.028-4.18A6.813,6.813,0,0,0,414.774,448.084Z" transform="translate(-6.957 -40.335)" fill="#31389c"/>
      <path id="Trazado_158361" data-name="Trazado 158361" d="M565.988,453.344c0,1.265-.019,2.529.009,3.793.011.48-.143.608-.62.631-2.159.1-2.159.119-2.159-2.009,0-2-.007-3.992,0-5.989.006-1.161.524-1.78,1.433-1.76.868.019,1.325.607,1.332,1.739C565.993,450.949,565.988,452.146,565.988,453.344Z" transform="translate(-68.654 -40.307)" fill="#838cfc"/>
      <path id="Trazado_158362" data-name="Trazado 158362" d="M403.154,453.281c0-1.229-.012-2.458,0-3.688.013-1.021.528-1.583,1.391-1.57a1.356,1.356,0,0,1,1.362,1.518c.025,2.525,0,5.05.017,7.575,0,.47-.158.618-.629.65-2.146.146-2.145.162-2.145-1.993Q403.153,454.528,403.154,453.281Z" transform="translate(-2.125 -40.312)" fill="#31389c"/>
      <path id="Trazado_158363" data-name="Trazado 158363" d="M413.963,448.018a6.813,6.813,0,0,1,1.827,5.461c-.1,1.387-.025,2.786-.028,4.18-2.832.237-2.806.237-2.84-2.529-.027-2.221.1-4.441-.092-6.664C412.746,447.494,413.564,448.135,413.963,448.018Z" transform="translate(-6.146 -40.268)" fill="#31389c"/>
      <path id="Trazado_158364" data-name="Trazado 158364" d="M559.381,436.906c1.678-1.948,1.74-4.285,1.614-6.671-.026-.5-.008-1-.01-1.5.728-.015,1.459,0,2.184-.054.556-.04.664.208.652.7-.028,1.194.017,2.39-.022,3.582A4.05,4.05,0,0,1,559.381,436.906Z" transform="translate(-67.06 -32.273)" fill="#fcd1a3"/>
      <path id="Trazado_158365" data-name="Trazado 158365" d="M556.806,507.1c-2.554.012-5.109.008-7.662.048-.632.009-.788-.241-.776-.821.049-2.209-.227-1.778,1.768-1.8,2.222-.02,4.445.018,6.667.031A4.374,4.374,0,0,1,556.806,507.1Z" transform="translate(-62.482 -63.789)" fill="#5c525f"/>
      <path id="Trazado_158366" data-name="Trazado 158366" d="M411.757,507.123c-2.361.008-4.722.027-7.083.018-.972,0-1.556-.537-1.49-1.348a1.286,1.286,0,0,1,1.486-1.259q3.541.015,7.083.026Q411.755,505.842,411.757,507.123Z" transform="translate(-2.138 -63.8)" fill="#5c525f"/>
      <path id="Trazado_158367" data-name="Trazado 158367" d="M417.863,494.193q0-3.564,0-7.128c.926.007,2.093-.324,2.71.116.6.429.166,1.67.192,2.553.037,1.26-.016,2.523.021,3.783.017.572-.175.76-.737.721C419.323,494.186,418.592,494.2,417.863,494.193Z" transform="translate(-8.241 -56.492)" fill="#68d1df"/>
      <path id="Trazado_158368" data-name="Trazado 158368" d="M538.184,484.81q-.01-3.242-.019-6.484c2.956-.4,2.956-.4,2.956,2.484,0,1.126-.006,2.252,0,3.377,0,.407-.048.74-.571.709A12.738,12.738,0,0,1,538.184,484.81Z" transform="translate(-58.242 -52.829)" fill="#b1805d"/>
      <path id="Trazado_158369" data-name="Trazado 158369" d="M486.9,437.17c1.775-2.14,1.678-4.7,1.609-7.244a21.361,21.361,0,0,1,2.771-.6c0,1.425.093,2.811-.021,4.179A4.036,4.036,0,0,1,486.9,437.17Z" transform="translate(-36.935 -32.539)" fill="#fcd1a3"/>
      <path id="Trazado_158370" data-name="Trazado 158370" d="M411.742,479.708q-3.98.016-7.961.034c-.352,0-.653.019-.635-.493.03-.817.008-1.636.008-2.63,2.4,1.489,4.936.892,7.388,1.017.4.02.791.044,1.186.066Q411.735,478.706,411.742,479.708Z" transform="translate(-2.124 -52.198)" fill="#31389c"/>
      <path id="Trazado_158371" data-name="Trazado 158371" d="M556.953,480.419c-2.65.012-5.3-.015-7.948.056-.9.023-.755-.5-.733-1.007s-.271-1.151.725-1.133c2.649.047,5.3.015,7.95.015Q556.95,479.385,556.953,480.419Z" transform="translate(-62.433 -52.91)" fill="#838cfc"/>
      <path id="Trazado_158372" data-name="Trazado 158372" d="M416.685,420.687a16.938,16.938,0,0,0-.222-3.927c.4-.02.792-.068,1.187-.056a1.852,1.852,0,0,1,1.972,1.714c.381,2.011.162,2.283-1.843,2.282C417.414,420.7,417.05,420.692,416.685,420.687Z" transform="translate(-7.659 -27.294)" fill="#493e4c"/>
      <path id="Trazado_158373" data-name="Trazado 158373" d="M488.086,421.52a9.233,9.233,0,0,0-2.209-4.719,5.147,5.147,0,0,1,4.753,3.535c.153.511.107.809-.5.874A10.961,10.961,0,0,1,488.086,421.52Z" transform="translate(-36.509 -27.335)" fill="#b1805d"/>
      <path id="Trazado_158374" data-name="Trazado 158374" d="M521.462,456.362c1.4,0,1.4,0,1.4,1.309,0,1.507-.426,2.2-1.373,2.226-1.018.032-1.339-.714-1.49-2.443C519.88,456.065,520.7,456.354,521.462,456.362Z" transform="translate(-50.687 -43.765)" fill="#a5e5ee"/>
      <path id="Trazado_158375" data-name="Trazado 158375" d="M447.341,456.359c1.657,0,1.657,0,1.657,1.283,0,1.559-.462,2.279-1.446,2.256s-1.267-.732-1.415-2.413C446.018,456.148,446.776,456.327,447.341,456.359Z" transform="translate(-19.987 -43.766)" fill="#a5e5ee"/>
      <path id="Trazado_158376" data-name="Trazado 158376" d="M496.908,414.908a1.531,1.531,0,1,1-.083-3.062,1.531,1.531,0,1,1,.083,3.062Z" transform="translate(-40.44 -25.276)" fill="#b1805d"/>
      <path id="Trazado_158377" data-name="Trazado 158377" d="M417.855,507.114q0-1.282,0-2.562c.691-.008,1.385.013,2.074-.034.63-.043.783.24.771.816-.044,2.187.208,1.755-1.755,1.8C418.58,507.142,418.218,507.121,417.855,507.114Z" transform="translate(-8.236 -63.791)" fill="#493e4c"/>
      <path id="Trazado_158378" data-name="Trazado 158378" d="M563.14,479.8q0-1.035-.006-2.07c.481-.123.97-.221,1.442-.375.432-.141.845-.341,1.242-.506.063.062.1.081.1.1C566.2,479.937,566.157,479.981,563.14,479.8Z" transform="translate(-68.62 -52.294)" fill="#838cfc"/>
      <path id="Trazado_158379" data-name="Trazado 158379" d="M562.806,507.112a4.373,4.373,0,0,0,0-2.539c.592-.01,1.186-.064,1.775-.022a1.29,1.29,0,0,1,0,2.575C563.992,507.169,563.4,507.12,562.806,507.112Z" transform="translate(-68.482 -63.8)" fill="#493e4c"/>
      <path id="Trazado_158380" data-name="Trazado 158380" d="M417.847,480.424q-.006-1-.013-2.006c.759-.024,1.519-.036,2.278-.075.945-.047.628.659.638,1.111.009.427.271,1.07-.619,1.012C419.372,480.416,418.608,480.435,417.847,480.424Z" transform="translate(-8.229 -52.913)" fill="#31389c"/>
      <path id="Trazado_158381" data-name="Trazado 158381" d="M429.834,471.768c.191-.717-.273-1.3-.4-1.949,1.668-.21,2.558.1,3.036,1.078.286.583.351,1.037-.551.957A13.2,13.2,0,0,1,429.834,471.768Z" transform="translate(-13.049 -49.345)" fill="#d0996e"/>
      <path id="Trazado_158382" data-name="Trazado 158382" d="M561.057,471.761c.271-.661,1.037-1.12.814-1.985.761-.021,1.523-.032,2.284-.067.641-.03.59.262.294.63A3.552,3.552,0,0,1,561.057,471.761Z" transform="translate(-67.756 -49.325)" fill="#d0996e"/>
      <path id="Trazado_158383" data-name="Trazado 158383" d="M536.195,472.76l.189.265C536.117,473.081,536.166,472.914,536.195,472.76Z" transform="translate(-57.413 -50.593)" fill="#d0996e"/>
      <path id="Trazado_158384" data-name="Trazado 158384" d="M484.552,383.2c-3.485.016-6.971.056-10.456.033a1.8,1.8,0,0,1-1.856-1.251,1.817,1.817,0,0,1,.677-2.13c2.078-1.539,4.17-3.057,6.257-4.583a26.874,26.874,0,0,0,2.636,2.031c.639.515,1.35.946,1.954,1.5A3.539,3.539,0,0,1,484.552,383.2Z" transform="translate(-30.798 -25.073)" fill="#5c525f"/>
      <path id="Trazado_158385" data-name="Trazado 158385" d="M489.558,382.847a3.539,3.539,0,0,0-.788-4.4c-.6-.55-1.315-.981-1.954-1.5a26.875,26.875,0,0,1-2.635-2.031c.475-.67.951-.611,1.575-.128,1.864,1.44,3.768,2.828,5.659,4.234,1.287.957,1.634,1.647,1.31,2.621-.295.884-1.19,1.311-2.674,1.266C489.886,382.9,489.722,382.868,489.558,382.847Z" transform="translate(-35.804 -24.72)" fill="#493e4c"/>
    </g>
  </g>
</svg>
