<svg xmlns="http://www.w3.org/2000/svg" width="1240" height="435.5" viewBox="0 0 1240 435.5">
  <g id="Grupo_109474" data-name="Grupo 109474" transform="translate(-180 -1586.348)">
    <path id="Rectángulo_40275" data-name="Rectángulo 40275" d="M-4163,872h1148c25.4,0,46,17.621,46,39.357v356.785c0,21.736-20.6,39.357-46,39.357H-4163c-25.4,0-46-17.621-46-39.357V911.357C-4209,889.621-4188.4,872-4163,872Z" transform="translate(4389 714.348)" fill="#f3f9ff"/>
    <g id="Grupo_109428" data-name="Grupo 109428" transform="translate(-14.029 18.542)">
      <g id="Grupo_108844" data-name="Grupo 108844" transform="translate(277.029 1608.737)">
        <g id="Controlar_y_reportar_egresos_e_ingresos" data-name="Controlar y reportar egresos e ingresos" transform="translate(0 32)" style="isolation: isolate">
          <text id="Controlar_y_reportar" data-name="Controlar y reportar" transform="translate(15 23)" fill="#12263f" font-size="22" font-family="Roboto-Bold, Roboto" font-weight="700" style="isolation: isolate"><tspan x="0" y="0">Controlar y reportar</tspan></text>
          <text id="egresos_e_ingresos" data-name="egresos e ingresos" transform="translate(19.769 52.671)" fill="#12263f" font-size="22" font-family="Roboto-Bold, Roboto" font-weight="700" style="isolation: isolate"><tspan x="0" y="0">egresos e ingresos</tspan></text>
        </g>
        <g id="Planear_y_conseguir_recursos_necesarios" data-name="Planear y conseguir recursos necesarios" transform="translate(333.185 32)" style="isolation: isolate">
          <text id="Planear_y_conseguir" data-name="Planear y conseguir" transform="translate(-0.337 23)" fill="#12263f" font-size="22" font-family="Roboto-Bold, Roboto" font-weight="700" style="isolation: isolate"><tspan x="0" y="0">Planear y conseguir</tspan></text>
          <text id="recursos_necesarios" data-name="recursos necesarios" transform="translate(-2 52.671)" fill="#12263f" font-size="22" font-family="Roboto-Bold, Roboto" font-weight="700" style="isolation: isolate"><tspan x="0" y="0">recursos necesarios</tspan></text>
        </g>
        <g id="Revisar_cuentas_y_efectuar_pagos" data-name="Revisar cuentas y efectuar pagos" transform="translate(700.273 34.473)" style="isolation: isolate">
          <text id="Revisar_cuentas" data-name="Revisar cuentas" transform="translate(3.167 23)" fill="#12263f" font-size="22" font-family="Roboto-Bold, Roboto" font-weight="700" style="isolation: isolate"><tspan x="0" y="0">Revisar cuentas</tspan></text>
          <text id="y_efectuar_pagos" data-name="y efectuar pagos" transform="translate(0 52.671)" fill="#12263f" font-size="22" font-family="Roboto-Bold, Roboto" font-weight="700" style="isolation: isolate"><tspan x="0" y="0">y efectuar pagos</tspan></text>
        </g>
        <g id="Elaborar_presupuestos_preliminar_y_final" data-name="Elaborar presupuestos preliminar y final" transform="translate(166.083 260.371)" style="isolation: isolate">
          <text id="Elaborar_presupuestos" data-name="Elaborar presupuestos" transform="translate(-17.911 23)" fill="#12263f" font-size="22" font-family="Roboto-Bold, Roboto" font-weight="700" style="isolation: isolate"><tspan x="0" y="0">Elaborar presupuestos</tspan></text>
          <text id="preliminares_y_finales" data-name="preliminares y finales" transform="translate(-12.91 52.671)" fill="#12263f" font-size="22" font-family="Roboto-Bold, Roboto" font-weight="700" style="isolation: isolate"><tspan x="0" y="0">preliminares y finales</tspan></text>
        </g>
        <g id="Establecer_gastos_prioritarios" data-name="Establecer gastos prioritarios" transform="translate(518.762 260.371)" style="isolation: isolate">
          <text id="Establecer_gastos" data-name="Establecer gastos" transform="translate(0 23)" fill="#12263f" font-size="22" font-family="Roboto-Bold, Roboto" font-weight="700" style="isolation: isolate"><tspan x="0" y="0">Establecer gastos</tspan></text>
          <text id="prioritarios" transform="translate(33.385 52.671)" fill="#12263f" font-size="22" font-family="Roboto-Bold, Roboto" font-weight="700" style="isolation: isolate"><tspan x="0" y="0">prioritarios</tspan></text>
        </g>
        <g id="Reunirse_periódicamente_con_el_comité_organizador" data-name="Reunirse periódicamente con el comité organizador" transform="translate(816.157 293.899)" style="isolation: isolate">
          <text id="Reunirse_periódicamente" data-name="Reunirse periódicamente" transform="translate(-8.442 -10)" fill="#12263f" font-size="22" font-family="Roboto-Bold, Roboto" font-weight="700" style="isolation: isolate"><tspan x="0" y="0">Reunirse periódicamente</tspan></text>
          <text id="con_el_comité_organizador" data-name="con el comité organizador" transform="translate(-13 19.671)" fill="#12263f" font-size="22" font-family="Roboto-Bold, Roboto" font-weight="700" style="isolation: isolate"><tspan x="0" y="0">con el comité organizador</tspan></text>
        </g>
      </g>
      <g id="Grupo_109427" data-name="Grupo 109427" transform="translate(273.446 1528.242)">
        <path id="Trazado_160933" data-name="Trazado 160933" d="M389.025,277.374l.466-26.186a7.162,7.162,0,0,1,.051-.734c-3.834-3.647-7.66-7.572-11.66-11.678-20.823-21.378-46.739-47.983-96.115-47.983-28.051,0-48.525,8.592-64.8,19.929l18.318,4.05c.034.009.065.021.1.028.148.034.291.074.432.12.083.025.166.048.245.074.134.046.263.1.392.152.088.037.176.071.263.108.108.051.212.108.318.162s.2.1.293.155.154.1.229.146a6.784,6.784,0,0,1,1.18.939c.048.048.1.092.148.139.072.076.139.159.206.238s.162.178.236.273c.053.065.1.136.154.2.079.115.162.228.24.346.042.064.078.131.118.2.078.127.152.254.222.386.035.067.064.139.1.208.065.132.129.263.182.4.037.081.062.162.094.245.042.125.092.252.129.383.032.1.053.2.081.3s.055.226.078.341.042.245.062.367c.012.1.03.2.039.3.014.134.021.268.026.4,0,.069.012.131.016.2l.4,22.567c10.806-7.372,23.207-11.98,40.507-11.98,31.914,0,47.163,15.657,66.469,35.476,4.826,4.953,9.931,10.188,15.532,15.307Z" transform="translate(140.992)" fill="#ffc500"/>
        <path id="Trazado_160934" data-name="Trazado 160934" d="M203.867,277.374l.469-26.186a7.053,7.053,0,0,1,.2-1.532c-3.557-3.42-7.118-7.071-10.826-10.88-20.825-21.378-46.739-47.983-96.117-47.983-28.189,0-48.724,8.676-65.038,20.095l17.573,3.884c.034.009.065.021.1.028.146.034.291.074.432.12.081.025.166.048.245.074.132.046.263.1.392.152.086.037.175.071.261.108.108.051.212.108.318.162s.2.1.295.155c.078.044.152.1.228.146a6.784,6.784,0,0,1,1.18.939c.048.048.1.092.148.139.072.076.139.159.21.238s.159.178.233.273c.055.065.1.136.152.2.081.115.166.228.242.346.042.064.078.131.116.2.078.127.154.254.222.386.037.067.065.139.1.208.065.132.127.263.182.4.034.081.06.162.092.245.042.125.09.252.129.383.03.1.055.2.081.3s.056.226.079.341.042.245.06.367c.014.1.03.2.039.3.014.134.021.268.028.4,0,.069.012.131.014.2l.413,23.23c11.035-7.76,23.657-12.643,41.476-12.643,31.915,0,47.165,15.657,66.47,35.476,4.771,4.9,9.814,10.069,15.341,15.131Z" fill="#ff4b39"/>
        <path id="Trazado_160935" data-name="Trazado 160935" d="M298.532,240.06l-.471-26.188-24.072-5.322c-6.188,5.542-11.761,11.263-17.008,16.65-19.306,19.821-34.553,35.476-66.469,35.476-17.993,0-30.689-4.976-41.8-12.871l-.39,21.854c0,.065-.011.129-.014.2-.005.136-.011.268-.026.4-.009.1-.025.2-.039.3-.018.125-.037.247-.06.369s-.053.228-.079.341-.051.2-.081.3c-.039.132-.086.258-.129.383-.032.083-.058.164-.092.245-.055.136-.118.268-.18.4-.034.071-.064.141-.1.208-.071.132-.146.259-.222.386a2.1,2.1,0,0,1-.118.194c-.076.118-.161.235-.242.346-.049.071-.1.139-.152.206-.072.1-.155.185-.233.273s-.138.161-.21.238c-.048.049-.1.094-.148.141a6.857,6.857,0,0,1-1.18.937c-.074.048-.148.1-.228.145-.1.056-.194.1-.295.159s-.21.109-.318.161c-.085.039-.175.072-.261.108-.129.055-.259.108-.392.154-.079.026-.162.048-.245.074-.141.044-.286.085-.432.118-.034.007-.065.019-.1.026l-19.068,4.219c16.6,12.041,37.6,21.367,66.836,21.367,49.376,0,75.292-26.606,96.113-47.985,4.184-4.293,8.175-8.392,12.188-12.179A7.068,7.068,0,0,1,298.532,240.06Z" transform="translate(69.667 13.576)" fill="#ff7f0b"/>
        <path id="Trazado_160936" data-name="Trazado 160936" d="M483.691,240.135l-.469-26.188-24.861-5.5c-6.269,5.6-11.905,11.38-17.208,16.825-19.306,19.821-34.553,35.476-66.469,35.476-17.471,0-29.948-4.7-40.83-12.2l-.374,21.183c0,.065-.012.129-.016.2-.005.136-.012.268-.026.4-.009.1-.026.2-.039.3-.019.125-.037.247-.062.369s-.053.228-.076.341-.055.2-.083.3c-.039.132-.085.258-.131.383-.03.083-.058.164-.088.245-.057.136-.12.268-.184.4a2.277,2.277,0,0,1-.1.208c-.069.132-.143.259-.221.386-.039.067-.076.134-.118.194-.076.118-.161.235-.24.346-.053.071-.1.139-.152.206-.076.1-.155.185-.233.273s-.139.161-.21.238c-.048.049-.1.094-.15.141a6.842,6.842,0,0,1-1.179.937c-.076.048-.15.1-.228.145-.1.056-.194.1-.295.159s-.212.109-.319.161c-.085.039-.175.072-.261.108-.129.055-.259.108-.39.154-.081.026-.166.048-.245.074-.141.044-.286.085-.431.118-.037.007-.067.019-.1.026l-19.816,4.381c16.562,11.964,37.505,21.2,66.6,21.2,49.376,0,75.29-26.606,96.111-47.983,4.468-4.584,8.715-8.939,13-12.938A7.043,7.043,0,0,1,483.691,240.135Z" transform="translate(210.657 13.5)" fill="#00bd9c"/>
        <path id="Trazado_160937" data-name="Trazado 160937" d="M668.849,240.211l-.469-26.188-25.649-5.671c-6.347,5.652-12.048,11.5-17.407,17-19.306,19.821-34.555,35.476-66.467,35.476-16.95,0-29.2-4.417-39.851-11.526l-.367,20.509c0,.065-.009.129-.012.2-.005.136-.012.268-.028.4-.011.1-.025.2-.037.3-.021.125-.039.247-.063.369s-.051.228-.078.341-.051.2-.081.3c-.037.132-.087.258-.129.383-.03.083-.058.164-.09.245-.055.136-.118.268-.183.4a2.246,2.246,0,0,1-.1.208c-.071.132-.145.259-.221.386-.039.067-.076.134-.117.194-.078.118-.164.235-.243.346-.051.071-.1.139-.152.206-.074.1-.155.185-.233.274s-.138.161-.212.238c-.046.049-.1.094-.148.141a6.771,6.771,0,0,1-1.177.937c-.076.048-.15.1-.228.145-.1.056-.194.1-.295.159s-.212.109-.321.161c-.083.039-.173.072-.261.108-.127.055-.258.108-.388.154-.081.026-.166.048-.247.074-.141.044-.284.085-.431.118-.037.007-.065.019-.1.026l-20.571,4.547c16.523,11.882,37.4,21.039,66.365,21.039,49.375,0,75.29-26.606,96.111-47.985,4.777-4.905,9.306-9.55,13.9-13.771C668.863,240.373,668.85,240.294,668.849,240.211Z" transform="translate(351.644 13.425)" fill="#af58ba"/>
        <path id="Trazado_160938" data-name="Trazado 160938" d="M574.183,277.374l.464-26.036c-4.15-3.893-8.272-8.12-12.6-12.562-20.822-21.378-46.738-47.983-96.111-47.983-27.917,0-48.329,8.507-64.567,19.765l19.069,4.214c.032.009.064.021.1.028.148.034.291.074.431.12.083.025.168.048.247.074.134.046.263.1.392.152.088.037.176.071.261.108.109.051.214.108.319.162s.2.1.295.155c.078.044.152.1.228.146a6.838,6.838,0,0,1,1.179.939c.048.048.1.092.15.139.071.076.139.159.206.238s.162.178.236.273c.053.065.1.136.152.2.079.115.164.228.242.346.044.064.076.131.116.2.078.127.154.254.222.386.037.067.065.139.1.208.065.132.129.263.182.4.032.081.06.162.092.245.042.125.09.252.129.383.03.1.055.2.081.3s.058.226.081.341.041.245.058.367c.016.1.03.2.039.3.014.134.023.268.028.4,0,.069.011.131.012.2l.392,21.909c10.58-6.988,22.75-11.321,39.533-11.321,31.912,0,47.161,15.657,66.467,35.474,4.879,5.011,10.046,10.309,15.726,15.484Z" transform="translate(281.98)" fill="#0099de"/>
      </g>
    </g>
  </g>
</svg>
