<svg xmlns="http://www.w3.org/2000/svg" width="399.567" height="419.361" viewBox="0 0 399.567 419.361">
  <g id="Date_picker-pana" data-name="Date picker-pana" transform="translate(-28.38 -25.1)">
    <g id="freepik--background-complete--inject-4" transform="translate(28.38 25.1)">
      <rect id="Rectángulo_41167" data-name="Rectángulo 41167" width="203.93" height="203.93" transform="translate(106.741 39.43)" fill="#ebebeb"/>
      <rect id="Rectángulo_41168" data-name="Rectángulo 41168" width="91.756" height="126.317" transform="translate(8.998 48.336)" fill="#e0e0e0"/>
      <rect id="Rectángulo_41169" data-name="Rectángulo 41169" width="94.759" height="126.317" transform="translate(0.259 48.336)" fill="#ebebeb"/>
      <rect id="Rectángulo_41170" data-name="Rectángulo 41170" width="76.707" height="107.739" transform="translate(9.294 57.168)" fill="#fafafa"/>
      <path id="Trazado_158592" data-name="Trazado 158592" d="M38.44,201.27h76.679V173H38.44Z" transform="translate(-29.146 -36.363)" fill="#f5f5f5"/>
      <path id="Trazado_158593" data-name="Trazado 158593" d="M88.928,139.181l2.476,5.783s-5.663,4.13-4.841,10.5,5.543,19.244,5.543,19.244h9.913s4.961-17.941,4.841-20.9-4.37-8.74-4.37-8.74l2.245-5.894S95.894,133.749,88.928,139.181Z" transform="translate(-32.805 -33.604)" fill="#e0e0e0"/>
      <path id="Trazado_158594" data-name="Trazado 158594" d="M88.133,159.054c-1.922-1.728-4.305-3.88-5.09-6.809a3.88,3.88,0,0,1,.434-3.427,3.492,3.492,0,0,1,2.892-1.229,9.174,9.174,0,0,1,2.772.684l-.453,1.219a7.9,7.9,0,0,0-2.356-.6,2.171,2.171,0,0,0-1.848.721,2.772,2.772,0,0,0-.213,2.3c.693,2.55,2.91,4.564,4.7,6.171Z" transform="translate(-32.526 -34.427)" fill="#e0e0e0"/>
      <path id="Trazado_158595" data-name="Trazado 158595" d="M107.174,159.86l-.924-.868a15.493,15.493,0,0,0,2.836-4.508,6.67,6.67,0,0,0,.573-2.245,2.771,2.771,0,0,0-.6-1.931,2.439,2.439,0,0,0-2.116-.767,3.64,3.64,0,0,0-2.19,1.118l-.924-.924a5.026,5.026,0,0,1,2.984-1.5,3.834,3.834,0,0,1,3.233,1.21,4.093,4.093,0,0,1,.924,2.836,7.862,7.862,0,0,1-.665,2.7,16.989,16.989,0,0,1-3.132,4.878Z" transform="translate(-34.126 -34.476)" fill="#e0e0e0"/>
      <path id="Trazado_158596" data-name="Trazado 158596" d="M104.942,139.43a8.97,8.97,0,0,1-2.273.573,34.783,34.783,0,0,1-11.3.092,9.147,9.147,0,0,1-2.291-.536,15.335,15.335,0,0,1,2.328.194,51.165,51.165,0,0,0,5.608.277,52.82,52.82,0,0,0,5.6-.36A17.2,17.2,0,0,1,104.942,139.43Z" transform="translate(-33.003 -33.807)" fill="#ebebeb"/>
      <path id="Trazado_158597" data-name="Trazado 158597" d="M116.159,102.416c-.924-1.3-5.543-2.966-7.132-3.224-7.141-1.183-14.6-1.293-21.47.924s-13.082,7.178-15.77,13.858c-1.386,3.455-1.848,7.3-3.621,10.56-2.328,4.231-6.5,6.91-9.719,10.449A25.748,25.748,0,0,0,57.1,168.064l19.253.231c-.471-7.566-.453-15.317,1.848-22.56s7.04-14.033,13.932-17.174c7.252-3.289,16.463-2.494,24.343-1.367Z" transform="translate(-30.158 -30.679)" fill="#ebebeb"/>
      <path id="Trazado_158598" data-name="Trazado 158598" d="M66.331,87c2.134,3.289-.61,8.656-3.409,11.41s-6.365,5.063-7.668,8.767,0,7.816-.61,11.687a11.594,11.594,0,0,1-16.2,8.675V87Z" transform="translate(-29.146 -29.814)" fill="#ebebeb"/>
      <path id="Trazado_158599" data-name="Trazado 158599" d="M60.115,162.786s1.053,1.46.628,2.4-5.432,7.631-3.548,12.232a52.29,52.29,0,0,0,5.645,9.626h11.7s5.765-9.1,5.645-12.13c-.2-5.035-3.871-10.255-3.871-10.255l.924-1.848S66.4,159.644,60.115,162.786Z" transform="translate(-30.542 -35.48)" fill="#e0e0e0"/>
      <path id="Trazado_158600" data-name="Trazado 158600" d="M115.131,194.694v-7.927c0-5.146,0-12.647-.065-22.172,0-18.967-.065-45.878-.1-77.677l.212.212H38.5l.166-.157c0,40.354,0,77.677-.046,107.739l-.194-.194,55.773.1,15.465.046h.074l-15.419.055-55.893.1H38.23V86.65h77.15v.323c0,31.863-.083,58.812-.111,77.816,0,9.469,0,16.962-.055,22.089v7.335A.969.969,0,0,1,115.131,194.694Z" transform="translate(-29.13 -29.787)" fill="#e0e0e0"/>
      <path id="Trazado_158601" data-name="Trazado 158601" d="M130.477,77.42a32.851,32.851,0,0,1-4.333,4.619,56.523,56.523,0,0,1-4.675,4.231,32.621,32.621,0,0,1,4.342-4.619,55.357,55.357,0,0,1,4.665-4.231Z" transform="translate(-35.469 -29.084)" fill="#e0e0e0"/>
      <path id="Trazado_158602" data-name="Trazado 158602" d="M28.38,77.39a41.989,41.989,0,0,1,4.85,4.259,43.108,43.108,0,0,1,4.518,4.619A44.178,44.178,0,0,1,32.9,82a44.632,44.632,0,0,1-4.518-4.61Z" transform="translate(-28.38 -29.082)" fill="#e0e0e0"/>
      <path id="Trazado_158603" data-name="Trazado 158603" d="M28.66,213.391a41.962,41.962,0,0,1,4.3-4.758,42.84,42.84,0,0,1,4.619-4.453,44.348,44.348,0,0,1-4.305,4.786,43.605,43.605,0,0,1-4.61,4.425Z" transform="translate(-28.401 -38.738)" fill="#e0e0e0"/>
      <path id="Trazado_158604" data-name="Trazado 158604" d="M130.179,213.495c-.129.083-1.691-2.476-4.12-5.238s-4.749-4.665-4.619-4.776a6.864,6.864,0,0,1,1.607,1.136,30.043,30.043,0,0,1,3.4,3.326,30.718,30.718,0,0,1,2.845,3.806,6.614,6.614,0,0,1,.887,1.746Z" transform="translate(-35.466 -38.684)" fill="#e0e0e0"/>
      <rect id="Rectángulo_41171" data-name="Rectángulo 41171" width="169.119" height="78" transform="translate(175.023 292.314)" fill="#f5f5f5"/>
      <path id="Trazado_158605" data-name="Trazado 158605" d="M383.239,416.212H222V346H383.239Zm-160.167-1.053H382.186V347.007H223.072Z" transform="translate(-43.125 -49.538)" fill="#e0e0e0"/>
      <rect id="Rectángulo_41172" data-name="Rectángulo 41172" width="41.314" height="78" transform="translate(344.142 292.314)" fill="#e0e0e0"/>
      <path id="Trazado_158606" data-name="Trazado 158606" d="M222.572,369.435h160.2a.212.212,0,0,0,0-.425h-160.2a.213.213,0,0,0,0,.425Z" transform="translate(-43.152 -51.29)" fill="#e0e0e0"/>
      <path id="Trazado_158607" data-name="Trazado 158607" d="M309.785,367.479a176.153,176.153,0,0,0,.055-21.184.222.222,0,0,0-.434,0,176.146,176.146,0,0,0,.055,21.184.166.166,0,0,0,.323,0Z" transform="translate(-49.759 -49.547)" fill="#e0e0e0"/>
      <path id="Trazado_158608" data-name="Trazado 158608" d="M356.149,357.6a2.19,2.19,0,1,1-2.19-2.189A2.189,2.189,0,0,1,356.149,357.6Z" transform="translate(-53.007 -50.254)" fill="#e0e0e0"/>
      <path id="Trazado_158609" data-name="Trazado 158609" d="M265.159,357.6a2.18,2.18,0,1,1-.635-1.548A2.189,2.189,0,0,1,265.159,357.6Z" transform="translate(-46.078 -50.254)" fill="#e0e0e0"/>
      <path id="Trazado_158610" data-name="Trazado 158610" d="M311.279,383.82a2.19,2.19,0,1,1-2.19-2.18A2.19,2.19,0,0,1,311.279,383.82Z" transform="translate(-49.59 -52.252)" fill="#e0e0e0"/>
      <path id="Trazado_158611" data-name="Trazado 158611" d="M238.993,425.94l-8.7,48.964h4.9l16.056-48.964Z" transform="translate(-43.756 -55.626)" fill="#e0e0e0"/>
      <path id="Trazado_158612" data-name="Trazado 158612" d="M386.93,425.94l7.28,49.047h-4.9L374.68,425.94Z" transform="translate(-54.752 -55.626)" fill="#e0e0e0"/>
      <path id="Trazado_158613" data-name="Trazado 158613" d="M422.32,425.94l8.25,49.047h-4.906L410.07,425.94Z" transform="translate(-57.447 -55.626)" fill="#e0e0e0"/>
      <path id="Trazado_158614" data-name="Trazado 158614" d="M311.119,407.67a2.18,2.18,0,1,1-.635-1.548,2.19,2.19,0,0,1,.635,1.548Z" transform="translate(-49.578 -54.067)" fill="#e0e0e0"/>
      <path id="Trazado_158615" data-name="Trazado 158615" d="M222.572,395.585h160.2a.212.212,0,1,0,0-.425h-160.2a.212.212,0,1,0,0,.425Z" transform="translate(-43.152 -53.282)" fill="#e0e0e0"/>
      <rect id="Rectángulo_41173" data-name="Rectángulo 41173" width="10.412" height="51.135" transform="translate(294.405 256.66) rotate(89.427)" fill="#e0e0e0"/>
      <rect id="Rectángulo_41174" data-name="Rectángulo 41174" width="16.177" height="56.992" transform="matrix(0.005, 1, -1, 0.005, 299.143, 275.905)" fill="#f5f5f5"/>
      <path id="Trazado_158616" data-name="Trazado 158616" d="M340.375,339.817a60.238,60.238,0,0,1-.277-8.084,60.321,60.321,0,0,1,.277-8.093,58.544,58.544,0,0,1,.277,8.093A58.35,58.35,0,0,1,340.375,339.817Z" transform="translate(-52.116 -47.835)" fill="#e0e0e0"/>
      <path id="Trazado_158617" data-name="Trazado 158617" d="M342.974,339.817a60.238,60.238,0,0,1-.277-8.084,60.321,60.321,0,0,1,.277-8.093,58.538,58.538,0,0,1,.277,8.093A60.135,60.135,0,0,1,342.974,339.817Z" transform="translate(-52.314 -47.835)" fill="#e0e0e0"/>
      <path id="Trazado_158618" data-name="Trazado 158618" d="M299.857,339.817a58.454,58.454,0,0,1-.277-8.084,58.653,58.653,0,0,1,.277-8.093,60.336,60.336,0,0,1,.277,8.093,60.244,60.244,0,0,1-.277,8.084Z" transform="translate(-49.033 -47.835)" fill="#e0e0e0"/>
      <path id="Trazado_158619" data-name="Trazado 158619" d="M302.444,339.817a60.238,60.238,0,0,1-.277-8.084,60.336,60.336,0,0,1,.277-8.093,58.529,58.529,0,0,1,.277,8.093A58.344,58.344,0,0,1,302.444,339.817Z" transform="translate(-49.227 -47.835)" fill="#e0e0e0"/>
      <path id="Trazado_158620" data-name="Trazado 158620" d="M308.13,332.657c0-.157,5.746-.277,12.841-.277s12.841.12,12.841.277-5.756.277-12.841.277S308.13,332.814,308.13,332.657Z" transform="translate(-49.684 -48.501)" fill="#e0e0e0"/>
      <rect id="Rectángulo_41175" data-name="Rectángulo 41175" width="10.412" height="70.332" transform="matrix(0.005, 1, -1, 0.005, 320.576, 265.416)" fill="#ebebeb"/>
      <path id="Trazado_158621" data-name="Trazado 158621" d="M364.268,321.714a3.344,3.344,0,1,1,2.363-1,3.372,3.372,0,0,1-2.363,1Z" transform="translate(-53.699 -47.175)" fill="#e0e0e0"/>
      <rect id="Rectángulo_41176" data-name="Rectángulo 41176" width="2.079" height="47.079" transform="translate(301.432 270.133) rotate(90)" fill="#e0e0e0"/>
      <rect id="Rectángulo_41177" data-name="Rectángulo 41177" width="65.039" height="67.801" transform="translate(329.887 0.018)" fill="#e0e0e0"/>
      <rect id="Rectángulo_41178" data-name="Rectángulo 41178" width="65.039" height="67.801" transform="translate(325.48 0.018)" fill="#fafafa"/>
      <path id="Trazado_158622" data-name="Trazado 158622" d="M445.746,92.929H380.67V25.1h65.076Zm-65.039,0H445.7V25.137H380.707Z" transform="translate(-55.208 -25.1)" fill="#e0e0e0"/>
      <rect id="Rectángulo_41179" data-name="Rectángulo 41179" width="47.55" height="49.564" transform="translate(334.22 9.128)" fill="#fff"/>
      <path id="Trazado_158623" data-name="Trazado 158623" d="M389.435,89a7.861,7.861,0,0,1-1.173,1.367c-.758.8-1.848,1.848-3.021,3.067s-2.3,2.226-3.1,2.975a8.474,8.474,0,0,1-1.377,1.146,7.057,7.057,0,0,1,1.146-1.377c.758-.794,1.848-1.848,3.03-3.067s2.3-2.236,3.113-2.975A8.082,8.082,0,0,1,389.435,89Z" transform="translate(-55.215 -29.966)" fill="#e0e0e0"/>
      <path id="Trazado_158624" data-name="Trazado 158624" d="M441.62,88.86a7.862,7.862,0,0,1,1.367,1.173c.8.758,1.848,1.848,3.067,3.021s2.226,2.3,2.975,3.113a7.328,7.328,0,0,1,1.136,1.367,7.557,7.557,0,0,1-1.358-1.155c-.794-.758-1.848-1.848-3.067-3.03s-2.236-2.3-2.975-3.113a7.675,7.675,0,0,1-1.146-1.377Z" transform="translate(-59.85 -29.956)" fill="#e0e0e0"/>
      <path id="Trazado_158625" data-name="Trazado 158625" d="M441.48,34.425a7.861,7.861,0,0,1,1.173-1.367c.758-.8,1.848-1.848,3.021-3.067s2.3-2.226,3.113-2.975a8.7,8.7,0,0,1,1.367-1.146,6.874,6.874,0,0,1-1.164,1.358c-.758.8-1.848,1.894-3.03,3.076s-2.3,2.236-3.113,2.975a7.675,7.675,0,0,1-1.367,1.146Z" transform="translate(-59.839 -25.159)" fill="#e0e0e0"/>
      <path id="Trazado_158626" data-name="Trazado 158626" d="M389.3,34.545a7.863,7.863,0,0,1-1.358-1.164c-.794-.767-1.848-1.848-3.058-3.03s-2.236-2.291-2.975-3.1a7.048,7.048,0,0,1-1.146-1.377,8.511,8.511,0,0,1,1.358,1.173c.8.758,1.848,1.848,3.067,3.03s2.236,2.3,2.984,3.113a7.326,7.326,0,0,1,1.127,1.358Z" transform="translate(-55.215 -25.159)" fill="#e0e0e0"/>
      <path id="Trazado_158627" data-name="Trazado 158627" d="M437.56,84.519V80.907c0-2.347,0-5.765-.055-10.1,0-8.684-.046-21.054-.092-35.864l.185.185H390.185l.212-.212V84.492l-.185-.185,34.339.092H437.4a.859.859,0,0,1,.231,0H424.663l-34.45.092H390V34.53h47.818v.434c0,14.855-.074,27.263-.092,35.975,0,4.324,0,7.723-.046,10.061v3.317a.8.8,0,0,1-.12.2Z" transform="translate(-55.919 -25.818)" fill="#e0e0e0"/>
      <rect id="Rectángulo_41180" data-name="Rectángulo 41180" width="15.872" height="15.872" transform="translate(350.064 25.979)" fill="#ebebeb"/>
    </g>
    <g id="freepik--Calendar--inject-4" transform="translate(123.351 52.298)">
      <rect id="Rectángulo_41181" data-name="Rectángulo 41181" width="203.93" height="203.93" transform="translate(0.157 0.268)" fill="#fff"/>
      <path id="Trazado_158628" data-name="Trazado 158628" d="M335.267,258.738c0-1.774-.083-81.668-.212-203.93l.212.212H131.356l.24-.24V258.71l-.212-.2,203.93.2-203.93.213h-.2V54.54H335.563v.2C335.35,177.07,335.267,256.964,335.267,258.738Z" transform="translate(-131.18 -54.54)" fill="#263238"/>
      <path id="Trazado_158629" data-name="Trazado 158629" d="M316.668,156.49H243.13a8.61,8.61,0,0,1-8.61-8.61h0a8.61,8.61,0,0,1,8.61-8.61h73.538a8.619,8.619,0,0,1,8.619,8.61h0a8.619,8.619,0,0,1-8.619,8.61Z" transform="translate(-139.05 -60.993)" fill="#dce736"/>
      <g id="Grupo_108817" data-name="Grupo 108817" transform="translate(95.47 78.277)" opacity="0.6">
        <path id="Trazado_158630" data-name="Trazado 158630" d="M316.668,156.49H243.13a8.61,8.61,0,0,1-8.61-8.61h0a8.61,8.61,0,0,1,8.61-8.61h73.538a8.619,8.619,0,0,1,8.619,8.61h0a8.619,8.619,0,0,1-8.619,8.61Z" transform="translate(-234.52 -139.27)" fill="#fff"/>
      </g>
      <path id="Trazado_158631" data-name="Trazado 158631" d="M278.166,182.43H154.49a8.619,8.619,0,0,1-8.61-8.619h0a8.61,8.61,0,0,1,8.61-8.61H278.166a8.619,8.619,0,0,1,8.619,8.61h0a8.62,8.62,0,0,1-8.619,8.62Z" transform="translate(-132.299 -62.967)" fill="#dce736"/>
      <g id="Grupo_108818" data-name="Grupo 108818" transform="translate(13.581 102.233)" opacity="0.6">
        <path id="Trazado_158632" data-name="Trazado 158632" d="M278.166,182.43H154.49a8.619,8.619,0,0,1-8.61-8.619h0a8.61,8.61,0,0,1,8.61-8.61H278.166a8.619,8.619,0,0,1,8.619,8.61h0a8.62,8.62,0,0,1-8.619,8.62Z" transform="translate(-145.88 -165.2)" fill="#fff"/>
      </g>
      <circle id="Elipse_5110" data-name="Elipse 5110" cx="8.73" cy="8.73" r="8.73" transform="translate(89.442 87.746) rotate(-48.88)" fill="#dce736"/>
      <circle id="Elipse_5111" data-name="Elipse 5111" cx="8.73" cy="8.73" r="8.73" transform="translate(140.855 117.33) rotate(-76.66)" fill="#dce736"/>
      <path id="Trazado_158633" data-name="Trazado 158633" d="M153.759,85.675a.48.48,0,0,1-.3-.111l-2.467-2.208a.453.453,0,0,1-.157-.314.462.462,0,0,1,.129-.342l2.457-2.651a.461.461,0,0,1,.647.656l-2.153,2.282,2.116,1.848a.536.536,0,0,1-.268.841Z" transform="translate(-132.676 -56.473)" fill="#263238"/>
      <path id="Trazado_158634" data-name="Trazado 158634" d="M330.963,85.676a.434.434,0,0,1-.314-.12.462.462,0,0,1,0-.656l2.162-2.3L330.7,80.752a.462.462,0,1,1,.619-.684l2.411,2.153a.471.471,0,0,1,.157.323.489.489,0,0,1-.12.333l-2.439,2.661A.425.425,0,0,1,330.963,85.676Z" transform="translate(-146.36 -56.474)" fill="#263238"/>
      <path id="Trazado_158635" data-name="Trazado 158635" d="M236.939,85.322v-4.5l-2.208,3.7h-.776l-2.2-3.6v4.4H230.13V77.83h1.441l2.772,4.619,2.772-4.619h1.423v7.492Z" transform="translate(-138.715 -56.314)" fill="#263238"/>
      <path id="Trazado_158636" data-name="Trazado 158636" d="M246.121,82.167v3.289h-1.561v-.721a1.848,1.848,0,0,1-1.737.776c-1.349,0-2.153-.748-2.153-1.746s.721-1.718,2.476-1.718h1.33c0-.721-.434-1.136-1.33-1.136a2.771,2.771,0,0,0-1.663.536l-.591-1.164a4.379,4.379,0,0,1,2.476-.693C245.1,79.618,246.121,80.431,246.121,82.167Zm-1.663,1.5v-.591h-1.146c-.785,0-1.025.3-1.025.674s.351.7.924.7a1.238,1.238,0,0,0,1.247-.785Z" transform="translate(-139.518 -56.448)" fill="#263238"/>
      <path id="Trazado_158637" data-name="Trazado 158637" d="M253.734,79.71l-2.605,6.107a2.374,2.374,0,0,1-2.384,1.848,2.559,2.559,0,0,1-1.608-.527l.61-1.183a1.5,1.5,0,0,0,.924.36c.462,0,.721-.2.924-.721v-.046l-2.485-5.8h1.746l1.617,3.908,1.626-3.908Z" transform="translate(-140.009 -56.457)" fill="#263238"/>
      <path id="Trazado_158638" data-name="Trazado 158638" d="M333.112,103.9c0,.129-44.114.24-98.528.24S136,104.03,136,103.9s44.114-.24,98.547-.24S333.112,103.762,333.112,103.9Z" transform="translate(-131.547 -58.281)" fill="#e0e0e0"/>
      <path id="Trazado_158639" data-name="Trazado 158639" d="M155.483,123.855v-3.086l-1.506,2.541h-.536l-1.534-2.485v3.021H150.79V118.7h.979l1.931,3.2,1.848-3.2h.979v5.146Z" transform="translate(-132.673 -59.426)" fill="#263238"/>
      <path id="Trazado_158640" data-name="Trazado 158640" d="M158,121.948a2.18,2.18,0,1,1,2.171,2.032A2.032,2.032,0,0,1,158,121.948Zm3.178,0a1,1,0,1,0-.261.769A1.007,1.007,0,0,0,161.178,121.948Z" transform="translate(-133.222 -59.496)" fill="#263238"/>
      <path id="Trazado_158641" data-name="Trazado 158641" d="M167.57,121.686v2.263h-1.146v-2.106c0-.637-.286-.924-.795-.924s-.924.333-.924,1.062v1.959H163.56V120h1.1v.462a1.7,1.7,0,0,1,1.3-.517,1.543,1.543,0,0,1,1.607,1.746Z" transform="translate(-133.646 -59.52)" fill="#263238"/>
      <path id="Trazado_158642" data-name="Trazado 158642" d="M180.681,119.68H179v-.97h4.481v.97h-1.644v4.176h-1.192Z" transform="translate(-134.822 -59.427)" fill="#263238"/>
      <path id="Trazado_158643" data-name="Trazado 158643" d="M188.379,120v3.954h-1.09v-.471a1.589,1.589,0,0,1-1.219.527,1.571,1.571,0,0,1-1.691-1.774V120h1.146v2.06c0,.665.3.924.795.924s.924-.342.924-1.072V120Z" transform="translate(-135.23 -59.525)" fill="#263238"/>
      <path id="Trazado_158644" data-name="Trazado 158644" d="M193.661,122.295H190.7a1.053,1.053,0,0,0,1.127.795,1.349,1.349,0,0,0,1-.388l.61.665A2.1,2.1,0,0,1,191.8,124a2.051,2.051,0,0,1-2.254-2.032,2.014,2.014,0,0,1,2.106-2.042,1.959,1.959,0,0,1,2.06,2.051C193.717,122.073,193.661,122.193,193.661,122.295Zm-3-.674h1.949a.989.989,0,0,0-1.949,0Z" transform="translate(-135.625 -59.519)" fill="#263238"/>
      <path id="Trazado_158645" data-name="Trazado 158645" d="M187.856,145.5v5.146h-.527v-4.684H186.11v-.471Z" transform="translate(-135.363 -61.466)"/>
      <path id="Trazado_158646" data-name="Trazado 158646" d="M216.04,150.174v.471h-3.6v-.379l2.134-2.088c.582-.573.693-.924.693-1.275,0-.591-.416-.924-1.2-.924a1.746,1.746,0,0,0-1.4.573l-.379-.323a2.319,2.319,0,0,1,1.848-.739c1.035,0,1.7.536,1.7,1.4a2.134,2.134,0,0,1-.841,1.607l-1.755,1.718Z" transform="translate(-137.356 -61.466)"/>
      <path id="Trazado_158647" data-name="Trazado 158647" d="M242.915,149.168c0,.859-.619,1.515-1.848,1.515a2.661,2.661,0,0,1-1.848-.656l.259-.416a2.245,2.245,0,0,0,1.589.591c.85,0,1.321-.4,1.321-1.035s-.434-1.025-1.386-1.025h-.37v-.388l1.423-1.783h-2.624V145.5h3.28v.379l-1.46,1.848C242.361,147.81,242.915,148.345,242.915,149.168Z" transform="translate(-139.408 -61.467)"/>
      <path id="Trazado_158648" data-name="Trazado 158648" d="M270.49,149.288h-1.035v1.358h-.527v-1.358H266v-.379l2.772-3.409h.582l-2.624,3.317h2.236v-1.183h.508v1.183h1.035Z" transform="translate(-141.447 -61.467)"/>
      <path id="Trazado_158649" data-name="Trazado 158649" d="M160.972,172.577v.388l-2.106,4.758h-.573l2.116-4.675h-2.642v.924h-.527V172.54Z" transform="translate(-133.165 -63.526)"/>
      <path id="Trazado_158650" data-name="Trazado 158650" d="M188.4,176.291c0,.924-.776,1.478-2,1.478s-1.977-.573-1.977-1.478a1.284,1.284,0,0,1,.989-1.266,1.155,1.155,0,0,1-.8-1.127c0-.841.711-1.358,1.792-1.358s1.848.517,1.848,1.358a1.164,1.164,0,0,1-.822,1.127,1.293,1.293,0,0,1,.979,1.266Zm-.545,0c0-.628-.545-1.025-1.46-1.025s-1.441.4-1.441,1.025.536,1.035,1.441,1.035,1.46-.406,1.46-1.044Zm-1.46-1.478c.8,0,1.284-.351,1.284-.924s-.508-.924-1.284-.924-1.266.351-1.266.924S185.6,174.813,186.4,174.813Z" transform="translate(-135.234 -63.526)"/>
      <path id="Trazado_158651" data-name="Trazado 158651" d="M215.556,175.111c0,1.746-.924,2.661-2.347,2.661a2.319,2.319,0,0,1-1.219-.286l.212-.425a1.783,1.783,0,0,0,1,.249c1.109,0,1.848-.711,1.848-2.116v-.416a1.654,1.654,0,0,1-1.58.924,1.561,1.561,0,0,1-1.728-1.543,1.6,1.6,0,0,1,1.755-1.58C214.816,172.542,215.556,173.485,215.556,175.111Zm-.73-1.025c0-.564-.471-1.1-1.358-1.1a1.127,1.127,0,0,0-1.256,1.118c0,.674.5,1.109,1.293,1.109a1.192,1.192,0,0,0,1.321-1.127Z" transform="translate(-137.315 -63.529)"/>
      <path id="Trazado_158652" data-name="Trazado 158652" d="M238.857,172.58v5.146h-.527v-4.675h-1.21v-.471Z" transform="translate(-139.248 -63.529)"/>
      <path id="Trazado_158653" data-name="Trazado 158653" d="M240.37,175.155c0-1.644.859-2.614,2.051-2.614s2.06.97,2.06,2.614-.868,2.614-2.06,2.614S240.37,176.79,240.37,175.155Zm3.566,0c0-1.377-.619-2.134-1.515-2.134s-1.515.758-1.515,2.134.619,2.125,1.515,2.125S243.936,176.522,243.936,175.155Z" transform="translate(-139.495 -63.526)"/>
      <path id="Trazado_158654" data-name="Trazado 158654" d="M267.39,172.58v5.146h-.49v-4.675h-1.21v-.471Z" transform="translate(-141.423 -63.529)"/>
      <path id="Trazado_158655" data-name="Trazado 158655" d="M270.257,172.58v5.146h-.527v-4.675h-1.21v-.471Z" transform="translate(-141.639 -63.529)"/>
      <path id="Trazado_158656" data-name="Trazado 158656" d="M293.857,172.58v5.146h-.527v-4.675h-1.21v-.471Z" transform="translate(-143.436 -63.529)"/>
      <path id="Trazado_158657" data-name="Trazado 158657" d="M298.82,177.254v.471h-3.6v-.379l2.134-2.088c.582-.573.693-.924.693-1.275,0-.591-.425-.924-1.21-.924a1.765,1.765,0,0,0-1.4.573l-.37-.323a2.3,2.3,0,0,1,1.848-.73c1.044,0,1.7.527,1.7,1.386a2.1,2.1,0,0,1-.841,1.607l-1.746,1.718Z" transform="translate(-143.66 -63.529)"/>
      <path id="Trazado_158658" data-name="Trazado 158658" d="M321.166,172.58v5.146h-.536v-4.675h-1.21v-.471Z" transform="translate(-145.515 -63.529)"/>
      <path id="Trazado_158659" data-name="Trazado 158659" d="M326.015,176.245c0,.859-.628,1.524-1.848,1.524a2.642,2.642,0,0,1-1.848-.665l.249-.416a2.273,2.273,0,0,0,1.6.591c.85,0,1.321-.4,1.321-1.035s-.434-1.016-1.386-1.016h-.37v-.416l1.423-1.792h-2.624v-.471h3.3v.416l-1.45,1.848C325.461,174.813,326.015,175.423,326.015,176.245Z" transform="translate(-145.736 -63.527)"/>
      <path id="Trazado_158660" data-name="Trazado 158660" d="M158.746,199.508v5.146h-.527v-4.693H157v-.471Z" transform="translate(-133.146 -65.579)"/>
      <path id="Trazado_158661" data-name="Trazado 158661" d="M164.633,203.307h-1.025v1.349h-.527v-1.349h-2.9v-.388l2.772-3.409h.582l-2.624,3.326h2.226v-1.192h.517v1.192h.979Z" transform="translate(-133.388 -65.58)"/>
      <path id="Trazado_158662" data-name="Trazado 158662" d="M186.336,199.508v5.146H185.8v-4.693h-1.21v-.471Z" transform="translate(-135.247 -65.579)"/>
      <path id="Trazado_158663" data-name="Trazado 158663" d="M191.275,203.141c0,.878-.61,1.561-1.848,1.561a2.633,2.633,0,0,1-1.848-.665l.259-.416a2.217,2.217,0,0,0,1.571.591c.878,0,1.34-.425,1.34-1.044s-.407-1.081-1.718-1.081h-1.062l.259-2.578H191v.453h-2.356l-.176,1.644h.665C190.74,201.626,191.275,202.235,191.275,203.141Z" transform="translate(-135.475 -65.58)"/>
      <path id="Trazado_158664" data-name="Trazado 158664" d="M213.367,199.508v5.146h-.527v-4.693h-1.21v-.471Z" transform="translate(-137.307 -65.579)"/>
      <path id="Trazado_158665" data-name="Trazado 158665" d="M218.682,203.119a1.607,1.607,0,0,1-1.755,1.58c-1.367,0-2.106-.924-2.106-2.578s.924-2.651,2.347-2.651a2.31,2.31,0,0,1,1.219.277l-.212.425a1.848,1.848,0,0,0-1-.24c-1.109,0-1.848.711-1.848,2.106v.416a1.644,1.644,0,0,1,1.571-.878,1.552,1.552,0,0,1,1.783,1.543Zm-.517,0c0-.674-.5-1.109-1.293-1.109a1.192,1.192,0,0,0-1.321,1.127c0,.564.462,1.1,1.358,1.1a1.127,1.127,0,0,0,1.275-1.109Z" transform="translate(-137.55 -65.577)"/>
      <path id="Trazado_158666" data-name="Trazado 158666" d="M240.647,199.508v5.146h-.527v-4.693h-1.21v-.471Z" transform="translate(-139.384 -65.579)"/>
      <path id="Trazado_158667" data-name="Trazado 158667" d="M245.742,199.507v.379l-2.153,4.767h-.573l2.116-4.675H242.49v.924H242V199.47Z" transform="translate(-139.619 -65.577)"/>
      <path id="Trazado_158668" data-name="Trazado 158668" d="M267.657,199.508v5.146h-.527v-4.693h-1.21v-.471Z" transform="translate(-141.441 -65.579)"/>
      <path id="Trazado_158669" data-name="Trazado 158669" d="M273.082,203.221c0,.924-.776,1.478-2,1.478s-1.986-.573-1.986-1.478a1.284,1.284,0,0,1,.989-1.266,1.155,1.155,0,0,1-.8-1.127c0-.841.711-1.358,1.8-1.358s1.848.517,1.848,1.358a1.164,1.164,0,0,1-.822,1.127,1.293,1.293,0,0,1,.97,1.266Zm-.545,0c0-.628-.545-1.025-1.45-1.025s-1.45.4-1.45,1.025.536,1.035,1.45,1.035,1.45-.406,1.45-1.044Zm-1.45-1.413c.794,0,1.275-.36,1.275-.924s-.508-.924-1.275-.924-1.275.351-1.275.924S270.283,201.807,271.086,201.807Z" transform="translate(-141.683 -65.577)"/>
      <path id="Trazado_158670" data-name="Trazado 158670" d="M294.977,199.508v5.146h-.527v-4.693h-1.21v-.471Z" transform="translate(-143.522 -65.579)"/>
      <path id="Trazado_158671" data-name="Trazado 158671" d="M300.155,202.041c0,1.746-.924,2.661-2.356,2.661a2.319,2.319,0,0,1-1.219-.286l.212-.425a1.848,1.848,0,0,0,1,.249c1.109,0,1.848-.721,1.848-2.116a3.741,3.741,0,0,0,0-.416,1.654,1.654,0,0,1-1.57.924,1.571,1.571,0,0,1-1.737-1.543,1.6,1.6,0,0,1,1.755-1.58C299.406,199.472,300.155,200.415,300.155,202.041Zm-.73-1.025c0-.564-.471-1.1-1.358-1.1a1.127,1.127,0,0,0-1.256,1.118c0,.674.5,1.109,1.293,1.109a1.192,1.192,0,0,0,1.321-1.127Z" transform="translate(-143.757 -65.579)"/>
      <path id="Trazado_158672" data-name="Trazado 158672" d="M323.259,204.184v.471h-3.612v-.379l2.143-2.088c.573-.573.684-.924.684-1.275,0-.591-.416-.924-1.2-.924a1.765,1.765,0,0,0-1.4.573l-.379-.323a2.319,2.319,0,0,1,1.848-.73c1.044,0,1.7.527,1.7,1.386a2.134,2.134,0,0,1-.841,1.607l-1.755,1.718Z" transform="translate(-145.521 -65.58)"/>
      <path id="Trazado_158673" data-name="Trazado 158673" d="M324.25,202.084c0-1.644.859-2.614,2.051-2.614s2.06.97,2.06,2.614-.868,2.614-2.06,2.614S324.25,203.72,324.25,202.084Zm3.566,0c0-1.377-.619-2.134-1.515-2.134s-1.515.758-1.515,2.134.619,2.125,1.515,2.125S327.816,203.452,327.816,202.084Z" transform="translate(-145.883 -65.577)"/>
      <path id="Trazado_158674" data-name="Trazado 158674" d="M160.84,229.035v.471h-3.6v-.37l2.134-2.1c.582-.573.693-.924.693-1.266,0-.6-.416-.924-1.2-.924a1.737,1.737,0,0,0-1.4.573l-.379-.314a2.31,2.31,0,0,1,1.848-.739c1.044,0,1.709.527,1.709,1.386a2.116,2.116,0,0,1-.85,1.608l-1.746,1.718Z" transform="translate(-133.152 -67.473)"/>
      <path id="Trazado_158675" data-name="Trazado 158675" d="M163.267,224.37v5.137h-.527v-4.665h-1.21v-.471Z" transform="translate(-133.491 -67.473)"/>
      <path id="Trazado_158676" data-name="Trazado 158676" d="M187.239,229.035v.471h-3.612v-.37l2.143-2.1c.573-.573.684-.924.684-1.266,0-.6-.416-.924-1.2-.924a1.765,1.765,0,0,0-1.4.573l-.379-.314a2.328,2.328,0,0,1,1.848-.739c1.044,0,1.7.527,1.7,1.386a2.134,2.134,0,0,1-.841,1.607l-1.755,1.718Z" transform="translate(-135.162 -67.473)"/>
      <path id="Trazado_158677" data-name="Trazado 158677" d="M191.75,229.035v.471h-3.6v-.37l2.134-2.1c.582-.573.693-.924.693-1.266,0-.6-.416-.924-1.2-.924a1.746,1.746,0,0,0-1.4.573l-.379-.314a2.319,2.319,0,0,1,1.848-.739c1.035,0,1.7.527,1.7,1.386a2.134,2.134,0,0,1-.841,1.607l-1.755,1.718Z" transform="translate(-135.506 -67.473)"/>
      <path id="Trazado_158678" data-name="Trazado 158678" d="M214.47,229.035v.471h-3.6v-.37l2.134-2.1c.582-.573.693-.924.693-1.266,0-.6-.425-.924-1.21-.924a1.765,1.765,0,0,0-1.4.573l-.37-.314a2.31,2.31,0,0,1,1.848-.739c1.044,0,1.7.527,1.7,1.386a2.1,2.1,0,0,1-.841,1.607l-1.746,1.718Z" transform="translate(-137.237 -67.473)"/>
      <path id="Trazado_158679" data-name="Trazado 158679" d="M218.875,228.028c0,.859-.628,1.524-1.848,1.524a2.661,2.661,0,0,1-1.848-.665l.249-.416a2.254,2.254,0,0,0,1.6.6c.85,0,1.321-.4,1.321-1.044s-.434-1.016-1.386-1.016h-.37v-.388l1.423-1.783h-2.624v-.471h3.317v.37l-1.45,1.848C218.321,226.633,218.875,227.206,218.875,228.028Z" transform="translate(-137.577 -67.473)"/>
      <path id="Trazado_158680" data-name="Trazado 158680" d="M241.39,229.034v.471h-3.6v-.37l2.134-2.1c.582-.573.693-.924.693-1.266,0-.6-.416-.924-1.21-.924a1.7,1.7,0,0,0-1.4.573l-.379-.323a2.31,2.31,0,0,1,1.848-.739c1.044,0,1.709.527,1.709,1.386a2.106,2.106,0,0,1-.85,1.607l-1.746,1.718Z" transform="translate(-139.287 -67.472)"/>
      <path id="Trazado_158681" data-name="Trazado 158681" d="M246.632,228.158H245.6v1.349h-.527v-1.349h-2.9v-.379l2.772-3.409h.591l-2.707,3.354h2.236v-1.192h.508v1.192h1.062Z" transform="translate(-139.632 -67.473)"/>
      <path id="Trazado_158682" data-name="Trazado 158682" d="M268.9,229.035v.471h-3.612v-.37l2.143-2.1c.573-.573.684-.924.684-1.266,0-.6-.416-.924-1.2-.924a1.765,1.765,0,0,0-1.4.573l-.37-.314a2.291,2.291,0,0,1,1.848-.739c1.044,0,1.7.527,1.7,1.386a2.134,2.134,0,0,1-.841,1.607l-1.746,1.718Z" transform="translate(-141.382 -67.473)"/>
      <path id="Trazado_158683" data-name="Trazado 158683" d="M273.4,227.991c0,.924-.61,1.561-1.848,1.561a2.624,2.624,0,0,1-1.848-.665l.249-.416a2.217,2.217,0,0,0,1.58.6c.878,0,1.34-.434,1.34-1.053s-.406-1.072-1.718-1.072h-1.09l.259-2.578h2.818v.471h-2.356l-.176,1.635h.665C272.813,226.476,273.4,227.086,273.4,227.991Z" transform="translate(-141.729 -67.473)"/>
      <path id="Trazado_158684" data-name="Trazado 158684" d="M295.96,229.035v.471h-3.612v-.37l2.143-2.1c.582-.573.693-.924.693-1.266,0-.6-.425-.924-1.21-.924a1.765,1.765,0,0,0-1.4.573l-.37-.314a2.31,2.31,0,0,1,1.848-.739c1.044,0,1.7.527,1.7,1.386a2.1,2.1,0,0,1-.841,1.607l-1.746,1.718Z" transform="translate(-143.442 -67.473)"/>
      <path id="Trazado_158685" data-name="Trazado 158685" d="M300.822,227.969a1.608,1.608,0,0,1-1.755,1.58c-1.367,0-2.106-.924-2.106-2.568s.924-2.661,2.347-2.661a2.4,2.4,0,0,1,1.219.277l-.212.425a1.848,1.848,0,0,0-1-.24c-1.109,0-1.848.711-1.848,2.106a3.564,3.564,0,0,0,0,.425,1.635,1.635,0,0,1,1.571-.924,1.552,1.552,0,0,1,1.783,1.58Zm-.527,0c0-.674-.5-1.109-1.293-1.109a1.182,1.182,0,0,0-1.321,1.118c0,.564.471,1.109,1.358,1.109a1.127,1.127,0,0,0,1.256-1.1Z" transform="translate(-143.805 -67.469)"/>
      <path id="Trazado_158686" data-name="Trazado 158686" d="M323.259,229.035v.471h-3.612v-.37l2.143-2.1c.573-.573.684-.924.684-1.266,0-.6-.416-.924-1.2-.924a1.765,1.765,0,0,0-1.4.573l-.379-.314a2.328,2.328,0,0,1,1.848-.739c1.044,0,1.7.527,1.7,1.386a2.134,2.134,0,0,1-.841,1.607l-1.755,1.718Z" transform="translate(-145.521 -67.473)"/>
      <path id="Trazado_158687" data-name="Trazado 158687" d="M327.869,224.367v.37l-2.153,4.767h-.573l2.116-4.665h-2.642v.924h-.527V224.33Z" transform="translate(-145.871 -67.47)"/>
      <path id="Trazado_158688" data-name="Trazado 158688" d="M160.84,252.844v.471h-3.6v-.379l2.134-2.088c.582-.573.693-.924.693-1.275,0-.591-.416-.924-1.2-.924a1.737,1.737,0,0,0-1.4.573l-.379-.323a2.31,2.31,0,0,1,1.848-.739c1.044,0,1.709.536,1.709,1.395a2.116,2.116,0,0,1-.85,1.607l-1.746,1.718Z" transform="translate(-133.152 -69.285)"/>
      <path id="Trazado_158689" data-name="Trazado 158689" d="M165.822,251.88c0,.924-.776,1.469-2,1.469s-1.977-.564-1.977-1.469a1.284,1.284,0,0,1,.989-1.266,1.155,1.155,0,0,1-.8-1.127c0-.841.711-1.367,1.792-1.367s1.848.527,1.848,1.367a1.164,1.164,0,0,1-.822,1.127,1.293,1.293,0,0,1,.979,1.266Zm-.545,0c0-.637-.545-1.025-1.46-1.025s-1.441.388-1.441,1.025.536,1.035,1.441,1.035,1.46-.406,1.46-1.044Zm-1.441-1.46c.8,0,1.284-.36,1.284-.924s-.508-.924-1.284-.924-1.266.351-1.266.924S163.023,250.42,163.835,250.42Z" transform="translate(-133.515 -69.282)"/>
      <path id="Trazado_158690" data-name="Trazado 158690" d="M188.69,252.844v.471h-3.6v-.379l2.134-2.088c.582-.573.693-.924.693-1.275,0-.591-.416-.924-1.2-.924a1.737,1.737,0,0,0-1.4.573l-.379-.323a2.31,2.31,0,0,1,1.848-.739c1.044,0,1.709.536,1.709,1.395a2.115,2.115,0,0,1-.85,1.607l-1.718,1.681Z" transform="translate(-135.273 -69.285)"/>
      <path id="Trazado_158691" data-name="Trazado 158691" d="M193.445,250.7c0,1.746-.924,2.651-2.356,2.651a2.31,2.31,0,0,1-1.219-.277l.212-.425a1.848,1.848,0,0,0,1,.24c1.109,0,1.848-.711,1.848-2.106a3.616,3.616,0,0,0,0-.416,1.644,1.644,0,0,1-1.571.878,1.561,1.561,0,0,1-1.737-1.543,1.607,1.607,0,0,1,1.755-1.58C192.743,248.119,193.445,249.071,193.445,250.7Zm-.7-1.025c0-.564-.471-1.1-1.358-1.1a1.127,1.127,0,0,0-1.256,1.118c0,.674.5,1.109,1.293,1.109a1.192,1.192,0,0,0,1.321-1.127Z" transform="translate(-135.63 -69.281)"/>
      <path id="Trazado_158692" data-name="Trazado 158692" d="M216.155,251.838c0,.859-.619,1.515-1.848,1.515a2.661,2.661,0,0,1-1.848-.656l.259-.416a2.263,2.263,0,0,0,1.589.591c.859,0,1.33-.4,1.33-1.035s-.434-1.025-1.395-1.025h-.36v-.388l1.423-1.783h-2.633v-.471h3.307v.379l-1.45,1.848C215.61,250.433,216.155,251.015,216.155,251.838Z" transform="translate(-137.37 -69.286)"/>
      <path id="Trazado_158693" data-name="Trazado 158693" d="M217.27,250.784c0-1.635.859-2.614,2.051-2.614s2.051.979,2.051,2.614-.859,2.615-2.051,2.615S217.27,252.383,217.27,250.784Zm3.566,0c0-1.367-.619-2.125-1.515-2.125s-1.515.758-1.515,2.125.619,2.134,1.515,2.134S220.836,252.115,220.836,250.784Z" transform="translate(-137.736 -69.286)"/>
      <path id="Trazado_158694" data-name="Trazado 158694" d="M245.115,251.838c0,.859-.628,1.515-1.848,1.515a2.661,2.661,0,0,1-1.848-.656l.259-.416a2.273,2.273,0,0,0,1.6.591c.85,0,1.321-.4,1.321-1.035s-.434-1.025-1.386-1.025h-.37v-.388l1.423-1.783h-2.624v-.471h3.3v.379l-1.45,1.848C244.561,250.433,245.115,251.015,245.115,251.838Z" transform="translate(-139.575 -69.286)"/>
      <path id="Trazado_158695" data-name="Trazado 158695" d="M247.626,248.17v5.146h-.536v-4.675h-1.21v-.471Z" transform="translate(-139.915 -69.286)"/>
      <path id="Trazado_158696" data-name="Trazado 158696" d="M296.945,149.131c0,.878-.61,1.552-1.848,1.552a2.661,2.661,0,0,1-1.848-.656l.259-.416a2.254,2.254,0,0,0,1.58.591c.878,0,1.34-.425,1.34-1.053s-.416-1.072-1.718-1.072h-1.1l.268-2.578h2.772v.462h-2.356l-.176,1.635h.665C296.354,147.606,296.945,148.216,296.945,149.131Z" transform="translate(-143.522 -61.467)"/>
      <path id="Trazado_158697" data-name="Trazado 158697" d="M324.132,149.1a1.589,1.589,0,0,1-1.746,1.58c-1.367,0-2.116-.924-2.116-2.568s.924-2.661,2.356-2.661a2.319,2.319,0,0,1,1.219.286l-.212.425a1.847,1.847,0,0,0-1-.249c-1.118,0-1.848.721-1.848,2.116a3.741,3.741,0,0,0,0,.416,1.644,1.644,0,0,1,1.57-.878,1.552,1.552,0,0,1,1.774,1.534Zm-.517,0c0-.674-.5-1.109-1.293-1.109A1.192,1.192,0,0,0,321,149.117c0,.564.471,1.1,1.358,1.1a1.127,1.127,0,0,0,1.256-1.1Z" transform="translate(-145.58 -61.463)"/>
      <path id="Trazado_158698" data-name="Trazado 158698" d="M212.744,118.71l-1.681,5.146h-1.275l-1.127-3.483-1.164,3.483h-1.275l-1.681-5.146h1.229l1.164,3.612,1.21-3.612h1.1l1.173,3.64,1.2-3.64Z" transform="translate(-136.767 -59.427)" fill="#263238"/>
      <path id="Trazado_158699" data-name="Trazado 158699" d="M217.559,122.3h-2.984a1.053,1.053,0,0,0,1.127.795,1.349,1.349,0,0,0,1-.388l.61.665a2.1,2.1,0,0,1-1.635.637,2.051,2.051,0,0,1-2.254-2.032,2.014,2.014,0,0,1,2.106-2.032,1.949,1.949,0,0,1,2.06,2.042C217.587,122.074,217.568,122.194,217.559,122.3Zm-3-.674h1.949a.989.989,0,0,0-1.949,0Z" transform="translate(-137.443 -59.52)" fill="#263238"/>
      <path id="Trazado_158700" data-name="Trazado 158700" d="M222.761,118.38v5.451h-1.1v-.462a1.5,1.5,0,0,1-1.229.517,2.032,2.032,0,0,1,0-4.065,1.515,1.515,0,0,1,1.183.471V118.38Zm-1.127,3.474a1.007,1.007,0,1,0-.264.766,1.016,1.016,0,0,0,.264-.766Z" transform="translate(-137.822 -59.402)" fill="#263238"/>
      <path id="Trazado_158701" data-name="Trazado 158701" d="M235.114,119.68H233.47v-.97h4.481v.97h-1.644v4.176h-1.192Z" transform="translate(-138.97 -59.427)" fill="#263238"/>
      <path id="Trazado_158702" data-name="Trazado 158702" d="M242.969,121.567v2.263h-1.146v-2.106c0-.637-.3-.924-.794-.924s-.924.333-.924,1.062v1.959H238.96V118.37h1.146v1.9a1.737,1.737,0,0,1,1.256-.462,1.543,1.543,0,0,1,1.608,1.755Z" transform="translate(-139.388 -59.401)" fill="#263238"/>
      <path id="Trazado_158703" data-name="Trazado 158703" d="M248.408,120v3.954h-1.09v-.471a1.608,1.608,0,0,1-1.229.527,1.571,1.571,0,0,1-1.691-1.774V120h1.146v2.06c0,.665.3.924.8.924s.924-.342.924-1.072V120Z" transform="translate(-139.801 -59.525)" fill="#263238"/>
      <path id="Trazado_158704" data-name="Trazado 158704" d="M265.192,119.657v1.367h2.383v.924h-2.383V123.8H264V118.65h3.889v.924Z" transform="translate(-141.295 -59.422)" fill="#263238"/>
      <path id="Trazado_158705" data-name="Trazado 158705" d="M271.368,119.94v1.053h-.249a.979.979,0,0,0-1.053,1.109v1.848H268.92V120h1.09v.517A1.608,1.608,0,0,1,271.368,119.94Z" transform="translate(-141.669 -59.52)" fill="#263238"/>
      <path id="Trazado_158706" data-name="Trazado 158706" d="M272.17,118.657a.656.656,0,0,1,.711-.637.647.647,0,0,1,.711.619.711.711,0,0,1-1.423,0Zm.139,1.192h1.146V123.8h-1.146Z" transform="translate(-141.917 -59.374)" fill="#263238"/>
      <path id="Trazado_158707" data-name="Trazado 158707" d="M289.6,123.339l.407-.924a3.039,3.039,0,0,0,1.691.536c.711,0,1-.24,1-.554,0-.924-2.993-.3-2.993-2.208,0-.878.7-1.6,2.171-1.6a3.409,3.409,0,0,1,1.783.453l-.37.924a2.864,2.864,0,0,0-1.423-.406c-.711,0-.979.268-.979.591,0,.924,2.993.286,2.993,2.18,0,.859-.721,1.589-2.189,1.589a3.7,3.7,0,0,1-2.088-.582Z" transform="translate(-143.244 -59.418)" fill="#263238"/>
      <path id="Trazado_158708" data-name="Trazado 158708" d="M298.5,121.7v2.254h-1.072v-.5a1.3,1.3,0,0,1-1.2.554c-.924,0-1.478-.517-1.478-1.2s.49-1.183,1.691-1.183h.924c0-.49-.3-.776-.924-.776a1.848,1.848,0,0,0-1.136.37l-.406-.8a3.058,3.058,0,0,1,1.7-.471C297.8,119.94,298.5,120.494,298.5,121.7Zm-1.146,1v-.4h-.785c-.536,0-.7.194-.7.462s.24.48.637.48A.85.85,0,0,0,297.355,122.693Z" transform="translate(-143.637 -59.52)" fill="#263238"/>
      <path id="Trazado_158709" data-name="Trazado 158709" d="M302.443,123.688a1.635,1.635,0,0,1-.924.249,1.293,1.293,0,0,1-1.469-1.413V120.9h-.61v-.924h.61v-.924h1.136v.924h.989v.924h-.989v1.607a.462.462,0,0,0,.5.517.8.8,0,0,0,.462-.139Z" transform="translate(-143.994 -59.453)" fill="#263238"/>
      <path id="Trazado_158710" data-name="Trazado 158710" d="M315.66,123.339l.406-.924a3.049,3.049,0,0,0,1.7.536c.7,0,.989-.24.989-.554,0-.924-2.993-.3-2.993-2.208,0-.878.711-1.6,2.171-1.6a3.409,3.409,0,0,1,1.783.453l-.37.924a2.836,2.836,0,0,0-1.423-.407c-.7,0-.979.259-.979.582,0,.924,2.993.3,2.993,2.19,0,.859-.711,1.589-2.18,1.589A3.7,3.7,0,0,1,315.66,123.339Z" transform="translate(-145.229 -59.418)" fill="#263238"/>
      <path id="Trazado_158711" data-name="Trazado 158711" d="M325.068,120v3.954h-1.09v-.471a1.608,1.608,0,0,1-1.229.527,1.571,1.571,0,0,1-1.691-1.774V120H322.2v2.06c0,.665.3.924.8.924s.924-.342.924-1.072V120Z" transform="translate(-145.639 -59.525)" fill="#263238"/>
      <path id="Trazado_158712" data-name="Trazado 158712" d="M330.6,121.685v2.263h-1.146v-2.106c0-.637-.3-.924-.8-.924s-.924.333-.924,1.062v1.959H326.58v-3.945h1.1v.462a1.7,1.7,0,0,1,1.3-.527,1.552,1.552,0,0,1,1.617,1.755Z" transform="translate(-146.061 -59.52)" fill="#263238"/>
    </g>
    <g id="freepik--Character--inject-4" transform="translate(277.698 72.908)">
      <path id="Trazado_158713" data-name="Trazado 158713" d="M380.986,440.619l2.273,21.535s-21.138,9.506-21.119,13.534l41.924-2.836-2.106-33.7Z" transform="translate(-303.115 -104.44)" fill="#455a64"/>
      <g id="Grupo_108819" data-name="Grupo 108819" transform="translate(59.025 334.71)" opacity="0.3">
        <path id="Trazado_158714" data-name="Trazado 158714" d="M380.986,440.619l2.273,21.535s-21.138,9.506-21.119,13.534l41.924-2.836-2.106-33.7Z" transform="translate(-362.14 -439.15)"/>
      </g>
      <g id="Grupo_108820" data-name="Grupo 108820" transform="translate(91.015 354.986)" opacity="0.6">
        <path id="Trazado_158715" data-name="Trazado 158715" d="M398.7,461.137a1.709,1.709,0,0,1,1.312,1.848,1.654,1.654,0,0,1-1.848,1.321,1.848,1.848,0,0,1-1.386-2,1.7,1.7,0,0,1,2.069-1.155" transform="translate(-396.768 -461.097)" fill="#fff"/>
      </g>
      <g id="Grupo_108821" data-name="Grupo 108821" transform="translate(58.948 365.022)" opacity="0.6">
        <path id="Trazado_158716" data-name="Trazado 158716" d="M404.021,475.351l-.342-3.391-40.067,3.982s-1.848.924-1.515,2.245Z" transform="translate(-362.057 -471.96)" fill="#fff"/>
      </g>
      <path id="Trazado_158717" data-name="Trazado 158717" d="M384.21,463.851c0,.2,1.053.231,2.106.822s1.644,1.413,1.848,1.321-.2-1.256-1.487-1.949S384.154,463.666,384.21,463.851Z" transform="translate(-304.796 -106.303)" fill="#263238"/>
      <path id="Trazado_158718" data-name="Trazado 158718" d="M379.59,466.154c0,.2.868.49,1.626,1.312s1.016,1.718,1.219,1.7.259-1.192-.7-2.189S379.581,466.006,379.59,466.154Z" transform="translate(-304.444 -106.49)" fill="#263238"/>
      <path id="Trazado_158719" data-name="Trazado 158719" d="M377.116,471.718c.185,0,.406-1.007-.2-2.1s-1.589-1.46-1.663-1.284.564.73,1.044,1.635S376.912,471.718,377.116,471.718Z" transform="translate(-304.113 -106.659)" fill="#263238"/>
      <path id="Trazado_158720" data-name="Trazado 158720" d="M384.249,458.428c.1.176,1.016-.166,2.18-.166s2.088.3,2.18.12-.822-.85-2.19-.831S384.138,458.271,384.249,458.428Z" transform="translate(-304.799 -105.841)" fill="#263238"/>
      <path id="Trazado_158721" data-name="Trazado 158721" d="M383.85,453.482a3.935,3.935,0,0,0,2.1-.157,9.629,9.629,0,0,0,2.153-.822,9.959,9.959,0,0,0,1.164-.721,2.587,2.587,0,0,0,.6-.536.924.924,0,0,0,0-1.1,1.155,1.155,0,0,0-.924-.406,2.6,2.6,0,0,0-.776.166,6.606,6.606,0,0,0-1.275.536,7.482,7.482,0,0,0-1.848,1.4c-.924.97-1.192,1.755-1.118,1.792s.527-.61,1.46-1.423a8.224,8.224,0,0,1,1.848-1.183,7.476,7.476,0,0,1,1.183-.453c.434-.148.813-.176.924,0s.055.1,0,.24a2.771,2.771,0,0,1-.443.388,11.942,11.942,0,0,1-1.072.711,12.184,12.184,0,0,1-1.977.924,14.459,14.459,0,0,0-2,.647Z" transform="translate(-304.769 -105.246)" fill="#263238"/>
      <path id="Trazado_158722" data-name="Trazado 158722" d="M383.907,453.54a3.307,3.307,0,0,0,.416-2.06,6.754,6.754,0,0,0-.443-2.282,7.041,7.041,0,0,0-.619-1.238,1.746,1.746,0,0,0-1.414-.97.979.979,0,0,0-.831.647,2.662,2.662,0,0,0-.166.785,4.757,4.757,0,0,0,.092,1.414,4.851,4.851,0,0,0,1.044,2.106c.924,1.035,1.765,1.219,1.774,1.146a9.043,9.043,0,0,1-1.377-1.45,4.852,4.852,0,0,1-.794-1.931,4.443,4.443,0,0,1,0-1.219c0-.443.185-.813.351-.785a1.5,1.5,0,0,1,.776.637,7.139,7.139,0,0,1,1.146,3.178C383.962,452.736,383.759,453.522,383.907,453.54Z" transform="translate(-304.539 -105.037)" fill="#263238"/>
      <path id="Trazado_158723" data-name="Trazado 158723" d="M376.1,274.29s-20.629,79.866-21.248,87.4,25.821,73.085,25.821,73.085L401,430.937s-1.293-95.96-1.949-97.845,5.192-49.047,5.192-49.047Z" transform="translate(-302.559 -91.885)" fill="#263238"/>
      <path id="Trazado_158724" data-name="Trazado 158724" d="M390.831,441.83l.222,21.646s-21.941,7.5-22.283,11.511l42,.434L411.8,442.3Z" transform="translate(-303.62 -104.644)" fill="#455a64"/>
      <g id="Grupo_108822" data-name="Grupo 108822" transform="translate(98.408 357.259)" opacity="0.6">
        <path id="Trazado_158725" data-name="Trazado 158725" d="M406.83,463.643a1.728,1.728,0,0,1,1.136,1.986A1.654,1.654,0,0,1,406,466.738a1.848,1.848,0,0,1-1.192-2.106,1.709,1.709,0,0,1,2.171-.97" transform="translate(-404.77 -463.558)" fill="#fff"/>
      </g>
      <g id="Grupo_108823" data-name="Grupo 108823" transform="translate(65.17 368.006)" opacity="0.6">
        <path id="Trazado_158726" data-name="Trazado 158726" d="M410.77,477.962V475.19l-40.261.249s-1.848.767-1.709,2.088Z" transform="translate(-368.792 -475.19)" fill="#fff"/>
      </g>
      <path id="Trazado_158727" data-name="Trazado 158727" d="M392.16,464.986c0,.213,1.025.333,2.014,1.016s1.506,1.561,1.7,1.478-.083-1.266-1.3-2.079S392.114,464.811,392.16,464.986Z" transform="translate(-305.402 -106.395)" fill="#263238"/>
      <path id="Trazado_158728" data-name="Trazado 158728" d="M387.34,466.854c-.055.2.822.573,1.5,1.46s.859,1.848,1.062,1.8.36-1.155-.5-2.245S387.349,466.66,387.34,466.854Z" transform="translate(-305.034 -106.544)" fill="#263238"/>
      <path id="Trazado_158729" data-name="Trazado 158729" d="M384.353,472.205c.185.046.5-.97,0-2.106s-1.441-1.607-1.534-1.432.49.776.878,1.718S384.15,472.178,384.353,472.205Z" transform="translate(-304.69 -106.685)" fill="#263238"/>
      <path id="Trazado_158730" data-name="Trazado 158730" d="M392.69,459.61c.083.185,1.035-.074,2.19,0s2.051.5,2.162.323-.739-.924-2.1-1.035S392.6,459.444,392.69,459.61Z" transform="translate(-305.441 -105.943)" fill="#263238"/>
      <g id="Grupo_108824" data-name="Grupo 108824" transform="translate(87.257 341.473)" opacity="0.3">
        <path id="Trazado_158731" data-name="Trazado 158731" d="M392.7,446.47l.037,3.852,20.648.342.111-3.474Z" transform="translate(-392.7 -446.47)"/>
      </g>
      <path id="Trazado_158732" data-name="Trazado 158732" d="M392.73,454.669a3.962,3.962,0,0,0,2.106,0,9.334,9.334,0,0,0,2.217-.619,10.12,10.12,0,0,0,1.229-.61,2.709,2.709,0,0,0,.647-.48.924.924,0,0,0,.12-1.081,1.136,1.136,0,0,0-.924-.5,2.567,2.567,0,0,0-.794.092,7.126,7.126,0,0,0-1.321.416,7.485,7.485,0,0,0-1.968,1.219c-1,.878-1.349,1.635-1.284,1.681s.582-.564,1.6-1.284a8.664,8.664,0,0,1,1.9-1.007,8.016,8.016,0,0,1,1.21-.342c.453-.1.831-.1.924.1s0,.111-.055.231a2.311,2.311,0,0,1-.471.351,11.35,11.35,0,0,1-1.136.61,12.067,12.067,0,0,1-2.051.73,14.614,14.614,0,0,0-1.949.49Z" transform="translate(-305.445 -105.371)" fill="#263238"/>
      <path id="Trazado_158733" data-name="Trazado 158733" d="M392.782,454.706a3.326,3.326,0,0,0,.61-2.014,6.773,6.773,0,0,0-.231-2.31,6.411,6.411,0,0,0-.5-1.293,1.746,1.746,0,0,0-1.312-1.1,1.007,1.007,0,0,0-.924.564,2.889,2.889,0,0,0-.24.767,4.93,4.93,0,0,0,0,1.423,4.822,4.822,0,0,0,.85,2.19c.785,1.109,1.635,1.376,1.654,1.312a8.743,8.743,0,0,1-1.229-1.58,4.933,4.933,0,0,1-.619-2,4.489,4.489,0,0,1,.074-1.21c.074-.443.249-.8.416-.748a1.549,1.549,0,0,1,.721.7,7.194,7.194,0,0,1,.49,1.155,7.527,7.527,0,0,1,.351,2.106C392.92,453.912,392.68,454.679,392.782,454.706Z" transform="translate(-305.247 -105.113)" fill="#263238"/>
      <path id="Trazado_158734" data-name="Trazado 158734" d="M425.8,268.7,378.61,270l6.772,83.968,4.2,80.938,24.482.859c1.247-15.622.8-47.7.8-47.7l1.755-13.793,6.227-48.585c.471-2.06,2.208-12.361,3.991-20.611,1.016-4.739,2.513-10.883,2.827-12.888C430.6,286.244,425.8,268.7,425.8,268.7Z" transform="translate(-304.37 -91.459)" fill="#263238"/>
      <path id="Trazado_158735" data-name="Trazado 158735" d="M381.466,291a1.487,1.487,0,0,1,0,.379c0,.268,0,.637,0,1.1,0,1-.092,2.42-.166,4.24s-.175,4.093-.249,6.707-.212,5.6-.268,8.887c-.185,6.587-.277,14.43-.249,23.142s.277,18.283.767,28.316,1.275,19.586,2.134,28.251c.48,4.333.924,8.444,1.423,12.287.249,1.922.462,3.779.721,5.543s.508,3.492.748,5.118c.443,3.261.97,6.2,1.386,8.777s.813,4.8,1.155,6.615.582,3.2.758,4.176c.074.462.139.822.185,1.09a2.191,2.191,0,0,1,.046.37,1.718,1.718,0,0,1-.1-.36l-.231-1.081c-.194-.979-.471-2.374-.841-4.157s-.794-4.019-1.229-6.605-1-5.543-1.469-8.767q-.37-2.448-.776-5.118c-.268-1.783-.49-3.64-.748-5.543-.545-3.834-.979-7.954-1.46-12.287-.924-8.666-1.663-18.228-2.18-28.27s-.684-19.632-.73-28.344.129-16.565.351-23.152c.083-3.289.231-6.273.342-8.887s.222-4.869.333-6.707.194-3.243.249-4.231c0-.471.065-.831.083-1.1S381.466,291,381.466,291Z" transform="translate(-304.482 -93.158)" fill="#455a64"/>
      <path id="Trazado_158736" data-name="Trazado 158736" d="M424.22,85.137a7.973,7.973,0,0,1,13.137-6.384A7.067,7.067,0,0,0,439.2,80.12a6.569,6.569,0,0,0,2.725.111,9.617,9.617,0,0,1,8.684,14.7,10.356,10.356,0,0,1,4.231,17.11,6.7,6.7,0,0,1-2.624,10.975,4.767,4.767,0,0,0-2.032.924c-1.441,1.552.7,4.287-.36,6.116-.8,1.395-3.058,1.487-3.7,2.975-.434,1.072.24,2.245.323,3.391.185,2.5-2.43,4.324-4.878,4.841-4.859,1.007-10.024-1.044-13.544-4.545s-5.543-8.268-6.587-13.109c-2.457-11.391.1-23.2,2.651-34.561" transform="translate(-307.556 -76.849)" fill="#263238"/>
      <path id="Trazado_158737" data-name="Trazado 158737" d="M420.372,89.11a3.123,3.123,0,1,1,4.24-4.555c.323.342.619.795,1.09.85s.841-.277,1.229-.508a3.08,3.08,0,0,1,4.61,3.178c1.608-.582,3.76-.277,4.471,1.275a3.113,3.113,0,0,1-1.617,3.788,6.772,6.772,0,0,1-4.444.323,17.664,17.664,0,0,1-9.322-5.174" transform="translate(-307.459 -77.358)" fill="#dce736"/>
      <path id="Trazado_158738" data-name="Trazado 158738" d="M431,90.071c0,.083.564-.083.97-.6s.453-1.062.36-1.081-.286.416-.637.859A8.046,8.046,0,0,0,431,90.071Z" transform="translate(-308.359 -77.728)" fill="#fff"/>
      <path id="Trazado_158739" data-name="Trazado 158739" d="M424.987,89.2c.111,0,.083-.776.37-1.644s.739-1.478.665-1.543-.693.48-1,1.432a2.347,2.347,0,0,0-.037,1.755Z" transform="translate(-307.89 -77.546)" fill="#fff"/>
      <path id="Trazado_158740" data-name="Trazado 158740" d="M421.81,88.231c.1,0-.055-.795.166-1.691s.693-1.506.61-1.571a2.716,2.716,0,0,0-.776,3.261Z" transform="translate(-307.641 -77.467)" fill="#fff"/>
      <path id="Trazado_158741" data-name="Trazado 158741" d="M433.3,92.163a1.126,1.126,0,0,0,.591-.074,2.587,2.587,0,0,0,1.672-2.208c0-.379-.046-.6-.092-.591a5.672,5.672,0,0,1-.7,1.728,5.747,5.747,0,0,1-1.469,1.146Z" transform="translate(-308.535 -77.796)" fill="#fff"/>
      <path id="Trazado_158742" data-name="Trazado 158742" d="M396.446,123.481a4.924,4.924,0,0,1-2.984-5.839,5.94,5.94,0,0,1-.8-8.6,4.167,4.167,0,0,1,2.864-7.188,5.645,5.645,0,0,1,6.578-7.243,5.174,5.174,0,0,1,8.315-4.619c2.707-3.289,8.536-3.187,11.086.194a6.984,6.984,0,0,1,9.414,3.446c2.208-1.848,5.829-.924,7.622,1.293s2.088,5.368,1.7,8.213a4.749,4.749,0,0,1,.268,8.268,8.167,8.167,0,0,1-2.088,11.169,9.4,9.4,0,0,1-5.118,9.109" transform="translate(-305.327 -77.667)" fill="#263238"/>
      <path id="Trazado_158743" data-name="Trazado 158743" d="M431.666,109.819l1.376-3.354-21-4.471c-6.467-.85-13.682,5.543-14.246,12.01-.637,7.234-1.118,16.1-.388,21.535,1.441,10.9,9.756,11.16,9.756,11.16l-.277,18.421L431,156.454Z" transform="translate(-305.773 -78.758)" fill="#ffbe9d"/>
      <path id="Trazado_158744" data-name="Trazado 158744" d="M400.55,123.268a1.4,1.4,0,0,0,1.312,1.441,1.34,1.34,0,0,0,1.469-1.229,1.4,1.4,0,0,0-1.312-1.441,1.34,1.34,0,0,0-1.469,1.229Z" transform="translate(-306.04 -80.29)" fill="#263238"/>
      <path id="Trazado_158745" data-name="Trazado 158745" d="M400.228,119.884c.166.185,1.238-.573,2.772-.536s2.587.822,2.772.637-.092-.406-.564-.767a3.806,3.806,0,0,0-2.2-.739,3.7,3.7,0,0,0-2.19.656C400.3,119.505,400.145,119.829,400.228,119.884Z" transform="translate(-306.014 -80.019)" fill="#263238"/>
      <path id="Trazado_158746" data-name="Trazado 158746" d="M416.09,124.058A1.4,1.4,0,0,0,417.4,125.5a1.34,1.34,0,0,0,1.469-1.229,1.4,1.4,0,0,0-1.312-1.441,1.34,1.34,0,0,0-1.469,1.229Z" transform="translate(-307.224 -80.35)" fill="#263238"/>
      <path id="Trazado_158747" data-name="Trazado 158747" d="M416.558,120.584c.166.185,1.247-.573,2.772-.527s2.587.813,2.772.637-.083-.416-.554-.776a3.853,3.853,0,0,0-2.2-.739,3.7,3.7,0,0,0-2.189.656C416.642,120.178,416.475,120.5,416.558,120.584Z" transform="translate(-307.258 -80.073)" fill="#263238"/>
      <path id="Trazado_158748" data-name="Trazado 158748" d="M409.691,131.6a10.161,10.161,0,0,0-2.43-.5c-.379-.046-.739-.129-.8-.4a1.978,1.978,0,0,1,.286-1.127c.379-.924.785-1.848,1.2-2.892a60.258,60.258,0,0,0,2.772-7.585,54.367,54.367,0,0,0-3.335,7.391c-.406,1.016-.794,1.986-1.155,2.91a2.244,2.244,0,0,0-.24,1.5.988.988,0,0,0,.619.582,2.578,2.578,0,0,0,.647.1,9.9,9.9,0,0,0,2.439.018Z" transform="translate(-306.452 -80.067)" fill="#263238"/>
      <path id="Trazado_158749" data-name="Trazado 158749" d="M408,150a28.759,28.759,0,0,0,15.04-3.557s-3.862,7.539-15.1,6.273Z" transform="translate(-306.603 -82.149)" fill="#eb996e"/>
      <path id="Trazado_158750" data-name="Trazado 158750" d="M417.58,112.159c.055.425,1.561.554,3.243,1.136s2.966,1.358,3.27,1.053c.139-.148,0-.582-.5-1.09a3.529,3.529,0,0,0-2.291-1.4,5.617,5.617,0,0,0-2.67-.259C417.968,111.706,417.561,111.965,417.58,112.159Z" transform="translate(-307.337 -79.491)" fill="#263238"/>
      <path id="Trazado_158751" data-name="Trazado 158751" d="M400.537,114.787c.277.333,1.3,0,2.541-.092s2.31.176,2.541-.185c.1-.176-.074-.517-.545-.831a3.7,3.7,0,0,0-4.111.259C400.555,114.27,400.417,114.621,400.537,114.787Z" transform="translate(-306.036 -79.615)" fill="#263238"/>
      <path id="Trazado_158752" data-name="Trazado 158752" d="M421.272,101.673a5.293,5.293,0,0,1-1.4,2.273,1.848,1.848,0,0,1-2.448,0,2.421,2.421,0,0,1-3.7-.462,3.3,3.3,0,0,1-4,.185l-3.27.536c-1.192.185-2.661.268-3.326-.73-.157-.231-.268-.517-.508-.647a1.487,1.487,0,0,0-.831,0,2.827,2.827,0,0,1-2.374-1.275,8.314,8.314,0,0,1-1.072-2.587c-.4-1.386-.674-3.16.48-4.019a3.538,3.538,0,0,1,1.589-.536,8.315,8.315,0,0,1,3.437-.074,6.033,6.033,0,0,1,3.243,2.624,1.524,1.524,0,0,1,1.035-1.848,2.993,2.993,0,0,1,2.254.333,6.014,6.014,0,0,1,2.393,2.263,4.906,4.906,0,0,1,4.24,2.919,3.557,3.557,0,0,1,2.772-.351,1.219,1.219,0,0,1,.813.573.564.564,0,0,1-.333.813" transform="translate(-305.847 -78.17)" fill="#263238"/>
      <path id="Trazado_158753" data-name="Trazado 158753" d="M410.209,102.085a3.594,3.594,0,0,1-5.709,3.889,3.307,3.307,0,0,1-3.834,1.94,5.2,5.2,0,0,1-2.9,4.425,4.009,4.009,0,0,1-.083,2.966,2.467,2.467,0,0,1-1.3,1.386,2.772,2.772,0,0,1-2.236-.277,3.963,3.963,0,0,1-2.162-2.337,2.319,2.319,0,0,1,1.173-2.772,8.62,8.62,0,0,1-2-3.224,2.772,2.772,0,0,1-.065-2.134,1.229,1.229,0,0,1,1.848-.5,3.252,3.252,0,0,1,.406-3.381,3.289,3.289,0,0,1,3.233-1.1,2.661,2.661,0,0,1,4.5-1.718" transform="translate(-305.306 -78.498)" fill="#263238"/>
      <path id="Trazado_158754" data-name="Trazado 158754" d="M425.87,101.579a2.716,2.716,0,0,1,2.605-2.476,6.735,6.735,0,0,1,3.742,1.118,4.619,4.619,0,0,1,5.22-1.044c1.718.794,2.771,2.541,4.13,3.825a9.562,9.562,0,0,1,2.079,2.153,1.949,1.949,0,0,1-.49,2.651,3.381,3.381,0,0,1,.656,5.922c-.314.212-.693.406-.841.767a1.469,1.469,0,0,0,.046.924,34.915,34.915,0,0,1,1.386,4.444c.222,1.534-.194,3.317-1.534,4.093-.351.212-.785.36-.924.73a1.229,1.229,0,0,0,0,.795,14.3,14.3,0,0,0,.97,2.457,3.7,3.7,0,0,1,.268,2.568,1.691,1.691,0,0,1-2.088,1.109,5.414,5.414,0,0,1-.813,5.007c-1.155,1.33-4.758,1.774-6.8.37l.074-4.989c.323-.859-.785-5.6-.166-6.522,0,0,1.312,3.326-2.014,2.605-1.109.24-3.039-3.086-3.123-4.213a3.021,3.021,0,0,1,1.681-2.772,5.109,5.109,0,0,1-.924-6.467,2.772,2.772,0,0,1-.249-5.294,5.608,5.608,0,0,1-3.187-7.723" transform="translate(-307.904 -78.519)" fill="#263238"/>
      <path id="Trazado_158755" data-name="Trazado 158755" d="M432.88,124.967c.148-.074,6.264-2.19,6.365,4.148s-6.273,5.137-6.291,4.952S432.88,124.967,432.88,124.967Z" transform="translate(-308.503 -80.483)" fill="#ffbe9d"/>
      <path id="Trazado_158756" data-name="Trazado 158756" d="M435,131.825a2.073,2.073,0,0,0,.3.157,1.081,1.081,0,0,0,.822,0,2.707,2.707,0,0,0,1.219-2.467,3.64,3.64,0,0,0-.333-1.58,1.3,1.3,0,0,0-.841-.831.564.564,0,0,0-.647.314c-.083.176,0,.3-.074.314s-.139-.1-.092-.36a.73.73,0,0,1,.24-.406.85.85,0,0,1,.61-.166,1.543,1.543,0,0,1,1.173.924,3.7,3.7,0,0,1,.406,1.755,2.864,2.864,0,0,1-1.561,2.772,1.164,1.164,0,0,1-1.016-.148C435,131.973,435,131.835,435,131.825Z" transform="translate(-308.664 -80.653)" fill="#eb996e"/>
      <path id="Trazado_158757" data-name="Trazado 158757" d="M414.269,135.074a2.245,2.245,0,0,0-1.9-.665,2.217,2.217,0,0,0-1.635,1.183,2.014,2.014,0,0,0-.1,1.663A1.912,1.912,0,0,0,414.26,137c.185-.776.49-1.7-.194-2.116" transform="translate(-306.798 -81.231)" fill="#eb996e"/>
      <path id="Trazado_158758" data-name="Trazado 158758" d="M412.5,122.67a16.765,16.765,0,0,1,.406-1.672,7.012,7.012,0,0,1,2.827-3.594,6.89,6.89,0,0,1,10.615,6.245,6.948,6.948,0,0,1-1.607,3.954,6.7,6.7,0,0,1-1.552,1.349,6.245,6.245,0,0,1-1.792.813,6.929,6.929,0,0,1-6.467-1.413,7.077,7.077,0,0,1-2.291-3.963c-.194-1.09-.12-1.718-.166-1.718a5.544,5.544,0,0,0,0,1.746,6.956,6.956,0,0,0,2.263,4.12,7.1,7.1,0,0,0,6.679,1.543,6.91,6.91,0,0,0,1.848-.841,6.733,6.733,0,0,0,1.7-1.414,7.16,7.16,0,0,0,.6-8.49,6.707,6.707,0,0,0-1.413-1.635,6.994,6.994,0,0,0-1.755-1.1,7.15,7.15,0,0,0-3.741-.554,7.225,7.225,0,0,0-3.095,1.146,7.03,7.03,0,0,0-2.818,3.769,5.625,5.625,0,0,0-.24,1.709Z" transform="translate(-306.943 -79.83)" fill="#455a64"/>
      <path id="Trazado_158759" data-name="Trazado 158759" d="M393.477,121.328a16.08,16.08,0,0,1,.407-1.672,6.975,6.975,0,0,1,2.827-3.6,6.883,6.883,0,0,1,6.559-.5,6.559,6.559,0,0,1,1.672,1.062,6.79,6.79,0,0,1,1.34,1.552,6.993,6.993,0,0,1,1.044,4.139,6.892,6.892,0,0,1-1.617,3.945,6.467,6.467,0,0,1-1.543,1.358,6.8,6.8,0,0,1-8.195-.61,7,7,0,0,1-2.291-3.954,14.951,14.951,0,0,1-.166-1.718,5.544,5.544,0,0,0,0,1.737,7.049,7.049,0,0,0,2.263,4.13,7.188,7.188,0,0,0,2.9,1.571,7.072,7.072,0,0,0,7.308-2.263,7.132,7.132,0,0,0,.591-8.49,7.065,7.065,0,0,0-6.9-3.326,7.086,7.086,0,0,0-5.913,4.906,5.341,5.341,0,0,0-.286,1.737Z" transform="translate(-305.5 -79.727)" fill="#455a64"/>
      <path id="Trazado_158760" data-name="Trazado 158760" d="M427.66,122.78a8.2,8.2,0,0,0,2.485,1.247,9.165,9.165,0,0,0,2.688.73,14.576,14.576,0,0,0-2.559-1.062,17.211,17.211,0,0,0-2.615-.915Z" transform="translate(-308.105 -80.347)" fill="#455a64"/>
      <path id="Trazado_158761" data-name="Trazado 158761" d="M408,120.773a11.836,11.836,0,0,1,2.328,0,12.471,12.471,0,0,1,2.189.767,3.2,3.2,0,0,0-2.134-1.118,3.15,3.15,0,0,0-2.384.351Z" transform="translate(-306.608 -80.16)" fill="#455a64"/>
      <path id="Trazado_158762" data-name="Trazado 158762" d="M422.33,129.1a2.5,2.5,0,0,0,1.136-.351,5.543,5.543,0,0,0,2.993-4.693,2.245,2.245,0,0,0-.166-1.183c-.055,0,0,.453-.083,1.164a5.959,5.959,0,0,1-2.864,4.49,10.379,10.379,0,0,0-1.016.573Z" transform="translate(-307.699 -80.354)" fill="#fff"/>
      <path id="Trazado_158763" data-name="Trazado 158763" d="M403.5,127.565a2.116,2.116,0,0,0,1.072-.351A5.294,5.294,0,0,0,407.4,122.8a2.208,2.208,0,0,0-.129-1.118,9.477,9.477,0,0,0-.12,1.09A5.866,5.866,0,0,1,404.442,127C403.879,127.362,403.482,127.519,403.5,127.565Z" transform="translate(-306.265 -80.263)" fill="#fff"/>
      <path id="Trazado_158764" data-name="Trazado 158764" d="M414.79,133.11c.12,0,.259.471.092,1.229a3.954,3.954,0,0,1-1.783,2.411,3.88,3.88,0,0,1-2.966.434c-.748-.2-1.1-.554-1.044-.647s.48,0,1.146,0a4.167,4.167,0,0,0,4.028-2.42C414.549,133.535,414.66,133.1,414.79,133.11Z" transform="translate(-306.69 -81.134)" fill="#263238"/>
      <path id="Trazado_158765" data-name="Trazado 158765" d="M434.158,94.019a1.45,1.45,0,0,1,.342-.2,6.135,6.135,0,0,1,1.053-.49,5.885,5.885,0,0,1,4.305,0,8.878,8.878,0,0,1,4.508,4.786,11.288,11.288,0,0,1,.822,3.982,6.044,6.044,0,0,1-.333,2.189,4.176,4.176,0,0,1-1.358,1.848l-.055-.379a5.063,5.063,0,0,1,1.487,8.462,4.138,4.138,0,0,1-.323.268v-.388a3.991,3.991,0,0,1,2.032,2.467,6.743,6.743,0,0,1,.2,3.086,25.3,25.3,0,0,1-2,5.358,12.236,12.236,0,0,0-.758,2.494c-.148.831-.231,1.663-.37,2.467a7.687,7.687,0,0,1-1.9,4.083,8.37,8.37,0,0,1-5.8,2.772,7.17,7.17,0,0,1-1.765-.157,3.578,3.578,0,0,1-.591-.185,10.746,10.746,0,0,0,2.347.166,8.315,8.315,0,0,0,5.543-2.772,7.391,7.391,0,0,0,1.765-3.926c.12-.785.194-1.617.342-2.476a12.78,12.78,0,0,1,.758-2.578,25.871,25.871,0,0,0,1.959-5.266,6.467,6.467,0,0,0-.194-2.873,3.566,3.566,0,0,0-1.792-2.2l-.323-.148.277-.24c.092-.083.194-.157.286-.249a4.712,4.712,0,0,0,1.441-4.37,4.776,4.776,0,0,0-2.772-3.344l-.36-.148.3-.231a4.462,4.462,0,0,0,1.552-3.7,10.939,10.939,0,0,0-.758-3.834,8.666,8.666,0,0,0-4.268-4.684,5.857,5.857,0,0,0-4.157-.148,6.875,6.875,0,0,0-1.062.416,1.708,1.708,0,0,1-.379.139Z" transform="translate(-308.561 -78.073)" fill="#455a64"/>
      <path id="Trazado_158766" data-name="Trazado 158766" d="M435.422,92.78a1.949,1.949,0,0,1,.591.527,4.925,4.925,0,0,1,.961,1.959,5.137,5.137,0,0,1-.185,3.233,5.358,5.358,0,0,1-5.543,3.224l.194-.074a6.578,6.578,0,0,1-4.859,2.014,6.041,6.041,0,0,1-1.534-.231,1.422,1.422,0,0,1-.517-.222,15.62,15.62,0,0,0,2.042.176,6.615,6.615,0,0,0,4.545-2.042l.074-.074h.111a4.888,4.888,0,0,0,5.358-5.94A6.669,6.669,0,0,0,435.422,92.78Z" transform="translate(-307.867 -78.062)" fill="#455a64"/>
      <path id="Trazado_158767" data-name="Trazado 158767" d="M440.457,94.1a1.252,1.252,0,0,1,.166.194,4.193,4.193,0,0,1,.388.647,6.826,6.826,0,0,1,.656,2.7,7.122,7.122,0,0,1-1.053,3.973,6.836,6.836,0,0,1-4.083,2.919,7,7,0,0,1-4.287-.2l.268-.092a5.072,5.072,0,0,1-2.772,2.171,4.859,4.859,0,0,1-2.771.074,4.619,4.619,0,0,1-1.617-.795,1.671,1.671,0,0,1-.462-.443,6.993,6.993,0,0,0,2.143.924,4.739,4.739,0,0,0,2.578-.148,4.822,4.822,0,0,0,2.494-2.051l.092-.157.176.065a6.68,6.68,0,0,0,4.01.166,6.532,6.532,0,0,0,3.843-2.707,6.873,6.873,0,0,0,1.081-3.7A8.462,8.462,0,0,0,440.457,94.1Z" transform="translate(-307.894 -78.163)" fill="#455a64"/>
      <path id="Trazado_158768" data-name="Trazado 158768" d="M308.258,194.014l.924.924a.554.554,0,0,0,.36.2.508.508,0,0,0,.407-.314,2.291,2.291,0,0,0,.139-1.848,3.9,3.9,0,0,0-1.025-1.561,1.109,1.109,0,0,0-.758-.388,1.173,1.173,0,0,0-.739.4c-.277.277-.554.554-.8.85a.665.665,0,0,0-.222.508.647.647,0,0,0,.249.342c.416.37,1.025.545,1.432.924" transform="translate(-298.881 -85.544)" fill="#eb996e"/>
      <path id="Trazado_158769" data-name="Trazado 158769" d="M315.628,176.5c-1.4-.12-7.7-1.053-7.7-1.053L298.25,177.3s.3,2.772,2.291,2.578,4.176-.185,4.176-.185l3.464.573s-4.952,3.021-5.026,3.7a2.773,2.773,0,0,0,.277,1.349,4.98,4.98,0,0,0-.3,3.5l-.046,4.527,4.425,3.344a3.7,3.7,0,0,0,.471-2.43c-.259-1.284-1.968-2.1-1.968-2.1l1.136-1.848,1.626-.5s10.329,3.381,12.768,3.317l2.051,1.968,7.834-9.626S317.032,176.614,315.628,176.5Z" transform="translate(-298.25 -84.358)" fill="#ffbe9d"/>
      <path id="Trazado_158770" data-name="Trazado 158770" d="M309.306,186.57c0,.129-1.321.619-2.855,1.469s-2.679,1.737-2.772,1.644a9.719,9.719,0,0,1,5.617-3.113Z" transform="translate(-298.664 -85.205)" fill="#eb996e"/>
      <path id="Trazado_158771" data-name="Trazado 158771" d="M310.309,182.78a29.874,29.874,0,0,1-3.1,1.589,26.635,26.635,0,0,1-3.095,1.617A9.377,9.377,0,0,1,307,183.972,9.137,9.137,0,0,1,310.309,182.78Z" transform="translate(-298.696 -84.916)" fill="#eb996e"/>
      <path id="Trazado_158772" data-name="Trazado 158772" d="M314.15,177.39a19.783,19.783,0,0,1-2.568,1.765,8.574,8.574,0,0,1-2.772,1.432,16.188,16.188,0,0,1,2.55-1.848,7.715,7.715,0,0,1,2.79-1.349Z" transform="translate(-299.054 -84.506)" fill="#eb996e"/>
      <path id="Trazado_158773" data-name="Trazado 158773" d="M436.956,186.5,425.87,241.476s8.5,21.83,7.169,31.937c-.767,5.866-4.342,18.643-4.342,18.643L372.859,273.34a5.7,5.7,0,0,1-3.7-6.282c2.42-14.56,9.9-58.886,12.869-68.808,5.016-16.823,20.509-36.381,20.509-36.381h0l.3-5.719,28.233.407-.166,5.774S440.143,172.724,436.956,186.5Z" transform="translate(-303.645 -82.888)" fill="#dce736"/>
      <path id="Trazado_158774" data-name="Trazado 158774" d="M413.763,168.675c3.381-.924,3.852.36,9.294,2.772s6.467,15.65,6.467,15.65l-7.612,13.423-40.354,23.262s-8.222,5.839-21.082-3c-4.721-3.243-36.7-24.371-36.7-24.371l9.312-14.07,37.758,16.99Z" transform="translate(-300.194 -83.819)" fill="#dce736"/>
      <g id="Grupo_108825" data-name="Grupo 108825" transform="translate(91.008 110.133)" opacity="0.3">
        <path id="Trazado_158775" data-name="Trazado 158775" d="M399.809,218.528l33.665-21.9a2.772,2.772,0,0,1,1.386-.573,1.848,1.848,0,0,1,1.626,1.959,4.472,4.472,0,0,1-1.2,2.531c-3.15,3.788-7.806,5.94-12.306,7.964-7.677,3.455-18.542,8.435-26.219,11.89Z" transform="translate(-396.76 -196.06)"/>
      </g>
      <path id="Trazado_158776" data-name="Trazado 158776" d="M408.866,173.28s-.055.055-.166.148l-.527.406-2.042,1.5-7.557,5.451L373.519,198.63c-.554.388-1.109.776-1.617,1.146l-.12.074-.12-.055L344.8,187.8l-8.037-3.7-2.171-1.016-.564-.268-.185-.111a.513.513,0,0,1,.2.065l.582.231,2.208.924,8.121,3.529,26.912,11.9h-.231l1.617-1.146,25.129-17.729,7.649-5.321,2.1-1.432.554-.36Q408.819,173.271,408.866,173.28Z" transform="translate(-300.96 -84.193)" fill="#263238"/>
      <path id="Trazado_158777" data-name="Trazado 158777" d="M428.273,198.7a3.7,3.7,0,0,1-.591.462c-.4.3-.988.711-1.755,1.238-1.534,1.062-3.769,2.559-6.55,4.388-5.543,3.7-13.285,8.666-21.951,13.987-4.333,2.651-8.481,5.155-12.389,7.206-.49.268-.979.508-1.478.721l-.739.333-.758.259a14.894,14.894,0,0,1-2.993.656,17.444,17.444,0,0,1-5.478-.24,20.539,20.539,0,0,1-4.305-1.367c-.619-.24-1.155-.545-1.672-.785s-.924-.536-1.349-.776c-.794-.5-1.4-.924-1.783-1.2a4.479,4.479,0,0,1-.591-.462,5.074,5.074,0,0,1,.647.388c.406.277,1.016.647,1.848,1.118l1.358.73c.517.222,1.062.517,1.672.748a21.249,21.249,0,0,0,4.268,1.275,16.121,16.121,0,0,0,11.179-1.792c3.871-2.051,8.01-4.619,12.343-7.224,8.656-5.312,16.407-10.264,22.015-13.858l6.633-4.268,1.8-1.155a5.069,5.069,0,0,1,.619-.379Z" transform="translate(-303.249 -86.128)" fill="#263238"/>
      <path id="Trazado_158778" data-name="Trazado 158778" d="M436.322,170.837c-.055.074-.868-.665-2.411-1.487a14.052,14.052,0,0,0-13.054-.2c-1.561.776-2.4,1.487-2.457,1.413s.176-.222.554-.536a11.089,11.089,0,0,1,1.746-1.183,13.738,13.738,0,0,1,6.716-1.681,13.571,13.571,0,0,1,6.661,1.894,11.435,11.435,0,0,1,1.718,1.229C436.165,170.615,436.35,170.818,436.322,170.837Z" transform="translate(-307.399 -83.727)" fill="#263238"/>
      <path id="Trazado_158779" data-name="Trazado 158779" d="M433.1,162.643a5.185,5.185,0,0,1-1.053.3c-.684.166-1.681.37-2.929.573a57.056,57.056,0,0,1-19.622-.24c-1.238-.231-2.227-.453-2.91-.647a4.793,4.793,0,0,1-1.044-.323,4.249,4.249,0,0,1,1.081.148c.693.129,1.691.3,2.938.49a71.05,71.05,0,0,0,9.747.822,71.954,71.954,0,0,0,9.765-.582c1.247-.166,2.245-.314,2.938-.425A4.352,4.352,0,0,1,433.1,162.643Z" transform="translate(-306.421 -83.357)" fill="#263238"/>
      <path id="Trazado_158780" data-name="Trazado 158780" d="M420.31,229a23.322,23.322,0,0,1,1.349,2.725c.785,1.7,1.9,4.028,3.224,6.569s2.578,4.795,3.5,6.467a20.5,20.5,0,0,1,1.45,2.67,17.212,17.212,0,0,1-1.737-2.494c-1.007-1.589-2.328-3.834-3.649-6.384s-2.393-4.915-3.1-6.652a15.7,15.7,0,0,1-1.035-2.9Z" transform="translate(-307.545 -88.436)" fill="#263238"/>
      <path id="Trazado_158781" data-name="Trazado 158781" d="M380.87,284.925a19.5,19.5,0,0,0,1.848-4.093,19.827,19.827,0,0,0,.351-4.462,8.472,8.472,0,0,1-2.162,8.555Z" transform="translate(-304.542 -92.043)" fill="#263238"/>
      <path id="Trazado_158782" data-name="Trazado 158782" d="M398.842,281.31a2.957,2.957,0,0,1,.268,1.414,8.61,8.61,0,0,1-2.485,6.328c-.637.628-1.118.924-1.155.85a14.568,14.568,0,0,0,2.605-3.936A14.782,14.782,0,0,0,398.842,281.31Z" transform="translate(-305.654 -92.42)" fill="#263238"/>
      <path id="Trazado_158783" data-name="Trazado 158783" d="M416.881,285.79a12.093,12.093,0,0,1-3.261,9.987,29.885,29.885,0,0,0,2.319-4.767,30.277,30.277,0,0,0,.942-5.22Z" transform="translate(-307.036 -92.761)" fill="#263238"/>
      <path id="Trazado_158784" data-name="Trazado 158784" d="M429.313,289.39a4.8,4.8,0,0,1,.37,1.691,14.9,14.9,0,0,1-1.543,8.139,4.37,4.37,0,0,1-.97,1.432,29.82,29.82,0,0,0,1.848-5.478A30.989,30.989,0,0,0,429.313,289.39Z" transform="translate(-308.068 -93.035)" fill="#263238"/>
    </g>
    <g id="freepik--Plant--inject-4" transform="translate(39.93 243.081)">
      <rect id="Rectángulo_41182" data-name="Rectángulo 41182" width="74.037" height="10.172" transform="translate(31.88 138.615)" fill="#263238"/>
      <path id="Trazado_158785" data-name="Trazado 158785" d="M75.25,411h74.3v10.43H75.25Zm74.037.249H75.5v9.913h73.788Z" transform="translate(-43.5 -272.469)" fill="#263238"/>
      <path id="Trazado_158786" data-name="Trazado 158786" d="M143.122,418.44l-10.661,52.567H93.031l-10.3-49.186Z" transform="translate(-44.069 -273.035)" fill="#263238"/>
      <path id="Trazado_158787" data-name="Trazado 158787" d="M143.122,469.96l-5.691,7.816H89.511L82.73,469.96Z" transform="translate(-44.069 -276.959)" fill="#455a64"/>
      <path id="Trazado_158788" data-name="Trazado 158788" d="M118.457,411.131c.139,0,.333-24.362.416-54.4s0-54.405-.111-54.405-.333,24.353-.416,54.405S118.31,411.131,118.457,411.131Z" transform="translate(-46.778 -264.193)" fill="#263238"/>
      <path id="Trazado_158789" data-name="Trazado 158789" d="M100.62,354.12a2.116,2.116,0,0,0,.194.564c.176.416.388.924.665,1.58l.48,1.136c.148.425.314.924.49,1.377s.37,1.035.573,1.589.351,1.173.545,1.848a72.686,72.686,0,0,1,2.069,9.063,111.207,111.207,0,0,1,1.155,11.336,154.082,154.082,0,0,1-.591,20.713c-.24,2.642-.48,4.776-.656,6.254-.074.684-.139,1.247-.185,1.7a2.383,2.383,0,0,0,0,.591,2.355,2.355,0,0,0,.139-.582c.074-.443.166-1,.277-1.681.24-1.469.536-3.6.822-6.245a135.581,135.581,0,0,0,.748-20.777,104.482,104.482,0,0,0-1.2-11.391,68.366,68.366,0,0,0-2.19-9.091c-.212-.637-.379-1.247-.591-1.848l-.61-1.58-.536-1.377c-.185-.407-.37-.785-.527-1.118l-.758-1.543a3.011,3.011,0,0,0-.314-.517Z" transform="translate(-45.432 -268.137)" fill="#263238"/>
      <path id="Trazado_158790" data-name="Trazado 158790" d="M102.66,332.8a6.721,6.721,0,0,0,.24.8l.767,2.263c.176.49.36,1.035.573,1.626l.582,1.959c.434,1.413.924,3.012,1.386,4.813.231.924.48,1.848.739,2.772l.693,3.076c.517,2.125.924,4.425,1.367,6.836.813,4.832,1.534,10.162,2.032,15.826s.674,11.04.739,15.946-.046,9.331-.249,13.035c-.065,1.848-.185,3.529-.277,5.007s-.176,2.772-.268,3.769-.139,1.792-.185,2.383a4.806,4.806,0,0,0,0,.841,5.174,5.174,0,0,0,.139-.822q.1-.924.277-2.384c.12-1.025.249-2.3.36-3.769s.268-3.15.36-5.007c.249-3.7.351-8.139.36-13.054s-.231-10.329-.7-15.992-1.238-11.021-2.079-15.872c-.49-2.411-.924-4.712-1.423-6.836l-.721-3.086c-.277-.97-.536-1.912-.776-2.772-.471-1.8-1.007-3.4-1.46-4.8-.231-.7-.443-1.358-.647-1.959l-.591-1.644c-.36-.924-.647-1.672-.859-2.236a3.935,3.935,0,0,0-.379-.721Z" transform="translate(-45.587 -266.513)" fill="#263238"/>
      <path id="Trazado_158791" data-name="Trazado 158791" d="M123.537,415.712a1.33,1.33,0,0,0,0-.286,3.692,3.692,0,0,1,.074-.831c0-.776.12-1.848.212-3.233.185-2.836.434-6.883.748-11.862.637-10.014,1.571-23.854,3.252-39.069.859-7.6,1.848-14.828,2.9-21.378.554-3.27,1.053-6.384,1.617-9.238s1.081-5.589,1.6-8.047,1.035-4.619,1.469-6.605.841-3.612,1.192-4.97l.767-3.141c.074-.333.139-.6.185-.822a.8.8,0,0,0,.046-.277,1,1,0,0,0-.092.268l-.24.8c-.212.748-.5,1.792-.868,3.113s-.822,3.012-1.275,4.961-1.035,4.139-1.543,6.6-1.127,5.137-1.663,8.047-1.109,6.005-1.672,9.238c-1.062,6.559-2.079,13.784-2.947,21.406-1.681,15.234-2.55,29.083-3.1,39.106-.268,5.007-.462,9.072-.573,11.871,0,1.377-.092,2.457-.12,3.233v.841A.924.924,0,0,0,123.537,415.712Z" transform="translate(-47.174 -264.469)" fill="#263238"/>
      <path id="Trazado_158792" data-name="Trazado 158792" d="M118.2,314.5c.323-3.455,3.806-6.06,7.271-6.1s6.7,2.042,8.823,4.785a27.54,27.54,0,0,1,4.24,9.423c2.337,8.13,3.612,16.629,2.614,25.073s-4.407,16.629-10.43,22.6c-.989.924-2.254,1.931-3.594,1.644a4.333,4.333,0,0,1-1.9-1.173A56.151,56.151,0,0,1,107,328.1c.1-3.187.517-6.513,2.282-9.174s5.894-5.488,8.906-4.416" transform="translate(-45.916 -264.655)" fill="#dce736"/>
      <path id="Trazado_158793" data-name="Trazado 158793" d="M147.13,284.049l4.878,8.841c.12.2.268.434.5.453s.453-.222.591-.434L166.032,273.1l-2.975-1.681Z" transform="translate(-48.973 -261.839)" fill="#dce736"/>
      <g id="Grupo_108826" data-name="Grupo 108826" transform="translate(98.157 9.581)" opacity="0.2">
        <path id="Trazado_158794" data-name="Trazado 158794" d="M147.13,284.049l4.878,8.841c.12.2.268.434.5.453s.453-.222.591-.434L166.032,273.1l-2.975-1.681Z" transform="translate(-147.13 -271.42)"/>
      </g>
      <path id="Trazado_158795" data-name="Trazado 158795" d="M118.5,299.186l44.012-25.979a1.977,1.977,0,0,0,1.072-1.118c.185-.647-.3-1.275-.776-1.755a30.339,30.339,0,0,0-23.53-9.238,26.884,26.884,0,0,0-21.248,13.229c-4.24,7.585-4.388,17.627.49,24.833" transform="translate(-46.515 -261.049)" fill="#dce736"/>
      <path id="Trazado_158796" data-name="Trazado 158796" d="M156.448,265.228a2.3,2.3,0,0,0-.582-.074c-.379,0-.924-.083-1.663-.074a32.952,32.952,0,0,0-6.107.48A35.725,35.725,0,0,0,119.6,291.345a33.581,33.581,0,0,0-1.09,6.023c-.074.721,0,.924-.065,1.284a2.153,2.153,0,0,0,.342.924,7.206,7.206,0,0,1-.074-2.217,38.543,38.543,0,0,1,1.247-5.95A36.621,36.621,0,0,1,154.2,265.246,22.252,22.252,0,0,0,156.448,265.228Z" transform="translate(-46.789 -261.356)" fill="#263238"/>
      <path id="Trazado_158797" data-name="Trazado 158797" d="M125.25,282.92a10.031,10.031,0,0,0,2.226,1.016c1.4.554,3.363,1.256,5.543,1.959s4.2,1.247,5.663,1.607a10.559,10.559,0,0,0,2.4.453,11.658,11.658,0,0,0-2.3-.813l-5.608-1.755-5.543-1.8A12.685,12.685,0,0,0,125.25,282.92Z" transform="translate(-47.307 -262.715)" fill="#263238"/>
      <path id="Trazado_158798" data-name="Trazado 158798" d="M132.707,262.77a31.032,31.032,0,0,0-.249,9.839,31.105,31.105,0,0,0,.259-4.915,30.942,30.942,0,0,0-.009-4.924Z" transform="translate(-47.835 -261.18)" fill="#263238"/>
      <path id="Trazado_158799" data-name="Trazado 158799" d="M165.009,273.234a20.559,20.559,0,0,0-3.2-1.127c-2-.61-4.786-1.4-7.89-2.143s-5.94-1.321-8-1.681a19.2,19.2,0,0,0-3.363-.453,24.936,24.936,0,0,0,3.289.822c2.042.453,4.85,1.081,7.954,1.848s5.885,1.469,7.908,1.986a22.98,22.98,0,0,0,3.3.748Z" transform="translate(-48.625 -261.566)" fill="#263238"/>
      <path id="Trazado_158800" data-name="Trazado 158800" d="M138.739,306.629c3.779-2.873,7.788-3.437,12.537-3.252A38.294,38.294,0,0,1,165,306.925c7.391,3.252,14.394,8.037,18.828,14.782s5.986,15.761,2.661,23.152a3.307,3.307,0,0,1-1.506,1.848,3.585,3.585,0,0,1-2.485-.194c-8.435-2.771-16.943-5.543-24.7-9.848s-14.828-10.282-18.957-18.126a15.706,15.706,0,0,1-2-6.023,7.474,7.474,0,0,1,1.94-5.885" transform="translate(-48.186 -264.27)" fill="#dce736"/>
      <path id="Trazado_158801" data-name="Trazado 158801" d="M138.82,305.94a2.7,2.7,0,0,0,.6.24l1.774.61,1.275.425c.471.176.924.379,1.5.591,1.072.425,2.31.859,3.621,1.5l2.069.924c.711.333,1.432.739,2.189,1.127,1.534.748,3.076,1.709,4.73,2.679a82.087,82.087,0,0,1,10,7.391,82.6,82.6,0,0,1,8.629,8.971c1.173,1.506,2.319,2.919,3.261,4.342.48.7.979,1.367,1.395,2.032s.813,1.321,1.2,1.931c.795,1.219,1.377,2.393,1.94,3.4.277.508.545.97.776,1.4l.582,1.219.831,1.672a2.585,2.585,0,0,0,.323.573,3.315,3.315,0,0,0-.231-.61c-.185-.443-.434-1.016-.739-1.718L184,343.393c-.212-.443-.471-.924-.73-1.432-.545-1.025-1.109-2.217-1.848-3.446l-1.183-1.968c-.416-.674-.924-1.34-1.377-2.06-.924-1.441-2.079-2.873-3.252-4.4a77,77,0,0,0-8.656-9.063,78.822,78.822,0,0,0-10.088-7.437c-1.663-.924-3.233-1.912-4.776-2.651-.767-.388-1.5-.785-2.226-1.109l-2.088-.924c-1.321-.619-2.578-1.025-3.7-1.432-.545-.2-1.053-.4-1.524-.545l-1.293-.388-1.848-.517a2.772,2.772,0,0,0-.591-.083Z" transform="translate(-48.341 -264.468)" fill="#263238"/>
      <path id="Trazado_158802" data-name="Trazado 158802" d="M170.83,323.27a89.319,89.319,0,0,0,9.238,2.966,87.766,87.766,0,0,0,9.359,2.467,89.325,89.325,0,0,0-9.238-2.966,88.459,88.459,0,0,0-9.359-2.467Z" transform="translate(-50.778 -265.788)" fill="#263238"/>
      <path id="Trazado_158803" data-name="Trazado 158803" d="M171.191,343.656a14.309,14.309,0,0,0,.2-2.873c0-1.774.055-4.222,0-6.929s-.222-5.155-.37-6.929a15.77,15.77,0,0,0-.36-2.855,16.227,16.227,0,0,0,0,2.882c.055,1.94.129,4.305.212,6.91s.12,4.98.176,6.92A16.741,16.741,0,0,0,171.191,343.656Z" transform="translate(-50.761 -265.849)" fill="#263238"/>
      <path id="Trazado_158804" data-name="Trazado 158804" d="M152.4,333.832c.139,0,.61-4.97,1.035-11.132s.647-11.151.508-11.16-.61,4.97-1.035,11.086S152.249,333.823,152.4,333.832Z" transform="translate(-49.371 -264.894)" fill="#263238"/>
      <path id="Trazado_158805" data-name="Trazado 158805" d="M174.194,310.99a15.9,15.9,0,0,0-2.947-.083c-1.848,0-4.333.065-7.1.157s-5.294.2-7.1.314a15.84,15.84,0,0,0-2.938.277,16.3,16.3,0,0,0,2.947.092c1.848,0,4.333-.065,7.1-.157s5.294-.2,7.1-.314A16.253,16.253,0,0,0,174.194,310.99Z" transform="translate(-49.504 -264.844)" fill="#263238"/>
      <path id="Trazado_158806" data-name="Trazado 158806" d="M129.763,371.954a2.689,2.689,0,0,0,.065-.582c0-.443.046-1.007.074-1.7.074-1.469.083-3.6,0-6.236s-.222-5.765-.545-9.238-.841-7.261-1.543-11.225-1.607-7.7-2.513-11.086-1.848-6.365-2.772-8.85-1.635-4.49-2.217-5.839l-.674-1.571a2.236,2.236,0,0,0-.268-.527,2.771,2.771,0,0,0,.166.573c.157.416.342.924.582,1.589.517,1.377,1.229,3.391,2.06,5.885s1.728,5.5,2.633,8.86,1.728,7.086,2.448,11.031,1.219,7.723,1.589,11.179.554,6.578.656,9.238.148,4.749.139,6.217v1.691A2.671,2.671,0,0,0,129.763,371.954Z" transform="translate(-46.859 -265.165)" fill="#263238"/>
      <path id="Trazado_158807" data-name="Trazado 158807" d="M128.11,345.45a12.936,12.936,0,0,0,1.755,1.922c1.136,1.136,2.772,2.661,4.619,4.277s3.566,3.021,4.841,4.009a12.014,12.014,0,0,0,2.143,1.487,13.052,13.052,0,0,0-1.9-1.783l-4.73-4.111-4.693-4.148A14.237,14.237,0,0,0,128.11,345.45Z" transform="translate(-47.525 -267.477)" fill="#263238"/>
      <path id="Trazado_158808" data-name="Trazado 158808" d="M113,356.126a21.887,21.887,0,0,0,1.848-2.6l4.351-6.347,4.444-6.282a20.185,20.185,0,0,0,1.774-2.661,18.925,18.925,0,0,0-2.079,2.43c-1.219,1.552-2.855,3.742-4.573,6.208s-3.2,4.767-4.231,6.467A17.283,17.283,0,0,0,113,356.126Z" transform="translate(-46.374 -266.928)" fill="#263238"/>
      <path id="Trazado_158809" data-name="Trazado 158809" d="M120.93,319.39c-.083.12,4.545,3.233,10.338,6.957s10.541,6.642,10.615,6.513-4.545-3.233-10.338-6.957S120.995,319.27,120.93,319.39Z" transform="translate(-46.978 -265.492)" fill="#263238"/>
      <path id="Trazado_158810" data-name="Trazado 158810" d="M106.8,333.543a88.686,88.686,0,0,0,7-6.467,86.175,86.175,0,0,0,6.633-6.846,86.526,86.526,0,0,0-7,6.467,84.367,84.367,0,0,0-6.633,6.846Z" transform="translate(-45.902 -265.556)" fill="#263238"/>
      <path id="Trazado_158811" data-name="Trazado 158811" d="M98.5,331.942l-3.926-.3a19.678,19.678,0,0,1-8.028-2.448,32.094,32.094,0,0,0-3.7-1.848c-4.915-1.968-10.393-1.617-15.705-1.848A64.918,64.918,0,0,1,42.2,319.119a2.458,2.458,0,0,1-1.09-.988c-.813-1.487.7-2.772,2-3.612,6.689-4.13,13.507-8.315,21.1-10.347s16.2-1.7,22.68,2.772c7.6,5.229,10.375,15.983,11.659,25.119" transform="translate(-40.882 -264.242)" fill="#dce736"/>
      <path id="Trazado_158812" data-name="Trazado 158812" d="M41,317.842a3.7,3.7,0,0,0,.674-.314l1.848-.979c1.635-.859,3.982-2.134,6.957-3.557a65.389,65.389,0,0,1,10.772-4.148,35.468,35.468,0,0,1,13.932-1.127,23.789,23.789,0,0,1,12.721,5.46,28.3,28.3,0,0,1,6.679,9.3c1.4,2.975,2.254,5.543,2.882,7.243.3.831.527,1.5.7,2a5.49,5.49,0,0,0,.277.693,3.114,3.114,0,0,0-.176-.721c-.157-.517-.36-1.192-.61-2.042a66.712,66.712,0,0,0-2.772-7.335,28.167,28.167,0,0,0-6.633-9.506,24.14,24.14,0,0,0-12.98-5.626,35.679,35.679,0,0,0-14.153,1.183,63,63,0,0,0-10.8,4.287c-2.956,1.469-5.284,2.772-6.892,3.7l-1.848,1.072A4.118,4.118,0,0,0,41,317.842Z" transform="translate(-40.891 -264.544)" fill="#263238"/>
      <path id="Trazado_158813" data-name="Trazado 158813" d="M51.3,323.016c.083.12,5.275-3.243,11.6-7.5s11.391-7.825,11.317-7.945-5.284,3.233-11.613,7.5S51.217,322.9,51.3,323.016Z" transform="translate(-41.676 -264.592)" fill="#263238"/>
      <path id="Trazado_158814" data-name="Trazado 158814" d="M57.3,307.27a12.8,12.8,0,0,0,3.779.684,12.72,12.72,0,0,0,3.862-.056,25.869,25.869,0,0,0-3.815-.388,26.186,26.186,0,0,0-3.825-.24Z" transform="translate(-42.133 -264.569)" fill="#263238"/>
      <path id="Trazado_158815" data-name="Trazado 158815" d="M81.92,304.06a10.246,10.246,0,0,0,1.709,2.661,11.642,11.642,0,0,0,2.153,2.457,10.051,10.051,0,0,0-1.7-2.661,11.539,11.539,0,0,0-2.162-2.457Z" transform="translate(-44.007 -264.325)" fill="#263238"/>
      <path id="Trazado_158816" data-name="Trazado 158816" d="M76.88,326.679a13.513,13.513,0,0,0,2.5-1.349c1.5-.924,3.529-2.245,5.7-3.825s4.074-3.058,5.451-4.148a15.61,15.61,0,0,0,2.153-1.848,14.42,14.42,0,0,0-2.374,1.552l-5.543,4.019c-2.162,1.571-4.148,2.947-5.543,3.936A18.093,18.093,0,0,0,76.88,326.679Z" transform="translate(-43.624 -265.197)" fill="#263238"/>
      <path id="Trazado_158817" data-name="Trazado 158817" d="M94.205,352.452c3.788-1,8.315,2.688,9.081,6.532s-.656,7.77-2.347,11.308a56.906,56.906,0,0,1-15.705,20.5c-6.827,5.4-15.28,8.869-23.965,8.823,1.607-7.446-.416-15.216.471-22.773a29.628,29.628,0,0,1,26.237-25.979c2.42-.268,5.22-.647,6.19,1.589" transform="translate(-42.435 -267.873)" fill="#dce736"/>
      <path id="Trazado_158818" data-name="Trazado 158818" d="M61.31,399.763a2.668,2.668,0,0,0,.545-.249,10.735,10.735,0,0,0,1.413-.924,14.781,14.781,0,0,0,3.742-5.007c.61-1.173,1.284-2.448,1.94-3.862s1.321-2.919,2.042-4.5a42.947,42.947,0,0,1,2.5-4.822,37.329,37.329,0,0,1,3.446-4.684c2.6-3.049,5.377-5.691,7.8-8.2a54.145,54.145,0,0,0,5.94-7.151,25.942,25.942,0,0,0,2.9-5.543c.24-.7.416-1.247.508-1.626a2.669,2.669,0,0,0,.12-.582c-.055,0-.268.776-.822,2.134a28.372,28.372,0,0,1-3.021,5.4,56.357,56.357,0,0,1-5.977,7c-2.42,2.494-5.22,5.118-7.843,8.2a37.1,37.1,0,0,0-3.511,4.749,43.016,43.016,0,0,0-2.5,4.887l-2,4.527c-.637,1.4-1.293,2.688-1.848,3.862a15.262,15.262,0,0,1-3.538,5.026C62.031,399.357,61.282,399.708,61.31,399.763Z" transform="translate(-42.438 -268.022)" fill="#263238"/>
      <path id="Trazado_158819" data-name="Trazado 158819" d="M82.139,395.612a12.01,12.01,0,0,0-.351-2.55c-.3-1.561-.785-3.7-1.441-6.033s-1.358-4.416-1.922-5.9a11.411,11.411,0,0,0-1.035-2.356,13.407,13.407,0,0,0,.684,2.476c.471,1.515,1.109,3.6,1.765,5.922s1.2,4.444,1.589,5.977a13.525,13.525,0,0,0,.711,2.467Z" transform="translate(-43.662 -270.014)" fill="#263238"/>
      <path id="Trazado_158820" data-name="Trazado 158820" d="M62.09,376.842a15.387,15.387,0,0,0,2.67-.61c1.635-.425,3.889-1.007,6.4-1.58s4.795-1,6.467-1.312a15.742,15.742,0,0,0,2.679-.591,12.415,12.415,0,0,0-2.772.222c-1.681.222-3.991.6-6.467,1.173s-4.776,1.21-6.384,1.728a12.857,12.857,0,0,0-2.6.97Z" transform="translate(-42.497 -269.555)" fill="#263238"/>
      <path id="Trazado_158821" data-name="Trazado 158821" d="M97.327,381.312a15.356,15.356,0,0,0-.416-2.956c-.333-1.848-.859-4.3-1.571-7.012s-1.46-5.146-2.051-6.892a16.235,16.235,0,0,0-1.09-2.772,19.4,19.4,0,0,0,.739,2.882c.5,1.774,1.192,4.2,1.9,6.91s1.293,5.174,1.718,6.966A18.182,18.182,0,0,0,97.327,381.312Z" transform="translate(-44.79 -268.713)" fill="#263238"/>
      <path id="Trazado_158822" data-name="Trazado 158822" d="M71.5,359.807a103.909,103.909,0,0,0,10.569-.924A105.58,105.58,0,0,0,92.582,357.5c0-.139-4.749.24-10.569.859S71.491,359.622,71.5,359.807Z" transform="translate(-43.214 -268.392)" fill="#263238"/>
      <path id="Trazado_158823" data-name="Trazado 158823" d="M75.25,422.029c0,.148,16.629.268,37.148.268s37.139-.12,37.139-.268-16.629-.259-37.139-.259S75.25,421.89,75.25,422.029Z" transform="translate(-43.5 -273.289)" fill="#455a64"/>
      <path id="Trazado_158824" data-name="Trazado 158824" d="M87.78,445.2c0,.148,11.206.259,25.018.259s25.027-.111,25.027-.259-11.2-.268-25.027-.268S87.78,445.05,87.78,445.2Z" transform="translate(-44.454 -275.053)" fill="#455a64"/>
      <path id="Trazado_158825" data-name="Trazado 158825" d="M88.25,448.509c0,.148,11.012.268,24.584.268s24.593-.12,24.593-.268-11-.259-24.593-.259S88.25,448.361,88.25,448.509Z" transform="translate(-44.49 -275.305)" fill="#455a64"/>
      <path id="Trazado_158826" data-name="Trazado 158826" d="M87.3,442.468c0,.148,11.594.259,25.868.259s25.868-.111,25.868-.259-11.585-.268-25.868-.268S87.3,442.32,87.3,442.468Z" transform="translate(-44.417 -274.845)" fill="#455a64"/>
    </g>
    <g id="freepik--Floor--inject-4" transform="translate(50.626 443.445)">
      <path id="Trazado_158827" data-name="Trazado 158827" d="M417.453,478.17c0,.139-81.714.24-182.487.24s-182.506-.1-182.506-.24,81.7-.24,182.506-.24S417.453,478.041,417.453,478.17Z" transform="translate(-52.46 -477.93)" fill="#263238"/>
    </g>
  </g>
</svg>
