<svg xmlns="http://www.w3.org/2000/svg" width="391.382" height="378.358" viewBox="0 0 391.382 378.358">
  <g id="Fill_out-pana" data-name="Fill out-pana" transform="translate(-23.42 -29.12)">
    <g id="freepik--background-complete--inject-41" transform="translate(37.999 29.12)">
      <rect id="Rectángulo_41221" data-name="Rectángulo 41221" width="192.236" height="270.649" transform="translate(162.699 56.64)" fill="#ebebeb"/>
      <path id="Trazado_159345" data-name="Trazado 159345" d="M419.545,58.566a25.591,25.591,0,0,1,6.244-2.712l1.287-6.184,10.45-.19,1.5,6.141a25.547,25.547,0,0,1,6.348,2.5l5.277-3.455,7.523,7.255-3.273,5.4a25.643,25.643,0,0,1,2.712,6.253l6.184,1.287.181,10.45-6.132,1.5a25.692,25.692,0,0,1-2.5,6.339l3.455,5.286-7.264,7.514-5.4-3.273a25.616,25.616,0,0,1-6.244,2.721l-1.287,6.184-10.45.181-1.5-6.132a25.694,25.694,0,0,1-6.339-2.5l-5.286,3.455-7.514-7.263,3.273-5.4a25.2,25.2,0,0,1-2.721-6.253l-6.184-1.287-.181-10.45,6.132-1.5a25.964,25.964,0,0,1,2.5-6.339l-3.455-5.277,7.264-7.523Zm5.571,13.922a7.926,7.926,0,1,1,0,.017Z" transform="translate(-89.57 -31.896)" fill="#e0e0e0"/>
      <path id="Trazado_159346" data-name="Trazado 159346" d="M428.277,75.564a8.4,8.4,0,0,1,2.09-1.848,11.107,11.107,0,0,1,7.307-1.727,11.279,11.279,0,0,1,4.975,1.727,11.542,11.542,0,0,1-4.4,21.03,10.8,10.8,0,0,1-3.455.052,10.614,10.614,0,0,1-3.178-.864A11.363,11.363,0,0,1,426.48,77.8a8.542,8.542,0,0,1,1.727-2.151c.06.052-.674.734-1.537,2.271a11.167,11.167,0,0,0-1.244,7.177,10.96,10.96,0,0,0,1.926,4.673,10.948,10.948,0,0,0,10.761,4.4,10.882,10.882,0,0,0,8.948-9.267,11.1,11.1,0,0,0-.993-6.253,10.969,10.969,0,0,0-3.783-4.318,10.8,10.8,0,0,0-4.733-1.727,11.15,11.15,0,0,0-7.125,1.494A17.862,17.862,0,0,0,428.277,75.564Z" transform="translate(-92.731 -34.955)" fill="#e0e0e0"/>
      <path id="Trazado_159347" data-name="Trazado 159347" d="M419.505,58.54a2.108,2.108,0,0,1-.345-.181l-1.036-.6-4.111-2.392h.13l-7.212,7.566v-.207L410.385,68l.173.043-.052.1a25.3,25.3,0,0,0-2.453,6.3v.121h-.121l-6.132,1.52.173-.225q.1,4.94.207,10.45l-.259-.13,6.184,1.27h.164l.043.155a25.1,25.1,0,0,0,2.695,6.175l.086.147-.086.147-3.265,5.4-.043-.354,7.523,7.255h-.371l5.277-3.455.155-.1.164.1a25.72,25.72,0,0,0,6.262,2.461h.181l.052.181c.466,1.917.985,4.016,1.5,6.132l-.311-.233,10.45-.19-.311.25,1.287-6.184.043-.19.19-.052a25.288,25.288,0,0,0,6.158-2.677h0l.173-.1.164.1,5.4,3.282h-.4l7.255-7.514v.4l-3.455-5.286-.112-.155.1-.173a25.288,25.288,0,0,0,2.47-6.253l.043-.19h.181l6.141-1.494-.233.3q-.086-5.355-.173-10.45l.233.285-6.184-1.3h-.173l-.043-.173a25.566,25.566,0,0,0-2.677-6.184l-.086-.147.035-.181,3.282-5.4.043.337-7.505-7.281h.311l-5.294,3.455-.112.078-.121-.069a25.332,25.332,0,0,0-6.279-2.487h-.13V55.69c-.544-2.237-1.028-4.241-1.486-6.141l.19.147-10.45.13.138-.112c-.535,2.47-.967,4.491-1.33,6.175v.06h-.06a27.086,27.086,0,0,0-4.785,1.84l-1.123.587a2.59,2.59,0,0,1-.371.19,4.053,4.053,0,0,1,.345-.233c.242-.147.6-.371,1.106-.639a25.317,25.317,0,0,1,4.767-1.943l-.069.078c.337-1.727.743-3.714,1.244-6.193v-.112h.112l10.45-.233h.147v.147c.466,1.9.967,3.9,1.52,6.132l-.155-.155a25.85,25.85,0,0,1,6.409,2.5h-.242l5.268-3.455.164-.1.147.13,7.531,7.246.155.147-.112.181c-1.062,1.727-2.142,3.558-3.265,5.407v-.285A26.054,26.054,0,0,1,457.8,73.49l-.216-.207,6.184,1.287H464v.242q.1,5.087.2,10.442v.25l-.233.052-6.132,1.511.225-.225a26.1,26.1,0,0,1-2.522,6.417v-.328l3.455,5.286.138.207-.181.181-7.255,7.523-.173.181-.225-.13-5.329-3.247h.328a25.763,25.763,0,0,1-6.322,2.746l.225-.242-1.287,6.184-.052.25H438.6l-10.45.173h-.25l-.06-.242c-.518-2.125-1.028-4.215-1.494-6.141l.225.233a26.515,26.515,0,0,1-6.417-2.531h.32l-5.286,3.455-.2.13-.173-.164c-2.591-2.531-5.182-4.992-7.514-7.272l-.164-.164.121-.19,3.282-5.4v.294a26.124,26.124,0,0,1-2.729-6.322l.155.173-6.184-1.3h-.2v-.2q-.095-5.5-.164-10.45v-.181l.173-.043,6.141-1.486-.147.147a25.713,25.713,0,0,1,2.557-6.357v.19l-3.455-5.294-.069-.112.1-.086,7.3-7.523.06-.06.069.043,3.973,2.479,1.028.648A4.06,4.06,0,0,1,419.505,58.54Z" transform="translate(-89.53 -31.87)" fill="#e0e0e0"/>
      <path id="Trazado_159348" data-name="Trazado 159348" d="M367.876,34.673a15.64,15.64,0,0,1,3.748-1.624l.769-3.7,6.253-.112.864,3.671a15.192,15.192,0,0,1,3.8,1.494l3.161-2.073,4.5,4.318-1.961,3.23a15.064,15.064,0,0,1,1.7,3.766l3.705.777.112,6.253-3.679.864a15.19,15.19,0,0,1-1.494,3.8l2.073,3.161L387.11,63,383.8,61.075a15.391,15.391,0,0,1-3.731,1.641l-.769,3.705-6.262.1-.864-3.671a15.132,15.132,0,0,1-3.791-1.494l-3.161,2.073-4.5-4.318,1.917-3.308a15.728,15.728,0,0,1-1.624-3.74l-3.7-.769-.112-6.262,3.671-.864a15.339,15.339,0,0,1,1.494-3.792L360.3,37.22l4.318-4.508,3.23,1.961Zm3.342,8.334a6.7,6.7,0,1,0,4.716-2.057,6.711,6.711,0,0,0-4.716,2.057Z" transform="translate(-83.503 -29.136)" fill="#f5f5f5"/>
      <path id="Trazado_159349" data-name="Trazado 159349" d="M373.107,44.837a5.018,5.018,0,0,1,1.244-1.1A6.685,6.685,0,0,1,378.73,42.7a6.806,6.806,0,0,1,5.381,3.774,6.183,6.183,0,0,1,.613,1.883,6.357,6.357,0,0,1,0,2.064,6.84,6.84,0,0,1-5.657,5.873,6.685,6.685,0,0,1-2.073,0,6.866,6.866,0,0,1-4.7-2.859,6.728,6.728,0,0,1-1.157-2.936A6.659,6.659,0,0,1,372,46.089a5.182,5.182,0,0,1,1.054-1.287,7.843,7.843,0,0,0-.924,1.365,6.59,6.59,0,0,0,3.083,9.259,6.046,6.046,0,0,0,1.814.5,5.718,5.718,0,0,0,1.952-.043,6.478,6.478,0,0,0,5.355-5.545,5.917,5.917,0,0,0,0-1.952,6.451,6.451,0,0,0-.561-1.788,6.633,6.633,0,0,0-2.271-2.591,6.486,6.486,0,0,0-2.8-1.054,6.728,6.728,0,0,0-4.318.864C373.53,44.422,373.133,44.871,373.107,44.837Z" transform="translate(-85.392 -30.966)" fill="#f5f5f5"/>
      <path id="Trazado_159350" data-name="Trazado 159350" d="M367.855,34.656l-.207-.1-.613-.363L364.6,32.756h.069l-4.318,4.526v-.121l2.081,3.152v.121a15.686,15.686,0,0,0-1.468,3.774v.069h-.069l-3.671.915.1-.138c0,1.969.078,4.059.121,6.253l-.121-.147,3.705.769h.1v.1a15.287,15.287,0,0,0,1.615,3.7l.052.086-.052.086-1.952,3.23v-.207l4.508,4.318h-.225l3.161-2.073.1-.06.095.052a15.2,15.2,0,0,0,3.748,1.468h.112v.112c.285,1.149.6,2.4.907,3.671l-.19-.138,6.253-.112-.181.147c.242-1.166.51-2.427.769-3.7v-.121h.112a15.477,15.477,0,0,0,3.688-1.606h0l.1-.06.1.06,3.23,1.961h-.242c1.468-1.52,2.919-3.014,4.318-4.5v.242l-2.073-3.161-.06-.1.052-.1a15.124,15.124,0,0,0,1.477-3.748V51.36h.1l3.671-.864-.138.181q-.052-3.2-.1-6.253l.147.173-3.705-.777h-.1v-.1a15.3,15.3,0,0,0-1.6-3.705l-.06-.086.06-.086,1.961-3.222v.19q-2.371-2.293-4.491-4.318h.181l-3.17,2.064-.069.052h-.069a15.21,15.21,0,0,0-3.705-1.589h-.078v-.069c-.32-1.339-.613-2.539-.864-3.679l.112.086-6.253.078.086-.06c-.32,1.477-.579,2.686-.795,3.7h0a16.409,16.409,0,0,0-2.919,1.131l-.674.354a.8.8,0,0,1-.225.112l.216-.138c.138-.086.354-.225.656-.38a15.063,15.063,0,0,1,2.859-1.166l-.043.052c.2-1.01.44-2.228.743-3.714v-.06h.069l6.253-.138h.086v.1c.285,1.131.579,2.332.864,3.671l-.086-.1a15.3,15.3,0,0,1,3.826,1.494h-.138l3.213-2.09.1-.069.086.086,4.508,4.318.086.086-.06.112-1.961,3.23v-.173a15.314,15.314,0,0,1,1.65,3.783l-.13-.121,3.705.769h.138v.138c.043,2.038.078,4.12.121,6.262v.138l-.138.043-3.679.864.138-.138a15.381,15.381,0,0,1-1.5,3.843v-.19l2.116,3.2.078.121-.1.112-4.318,4.5-.1.112-.13-.078-3.239-1.961h.2a15.416,15.416,0,0,1-3.783,1.641l.138-.138c-.268,1.27-.527,2.531-.777,3.7v.155h-.155l-6.253.1h-.155V66.5c-.311-1.27-.613-2.522-.864-3.679l.138.138a15.848,15.848,0,0,1-3.99-1.468h.19l-3.161,2.073-.121.078-.1-.078c-1.555-1.511-3.083-2.98-4.491-4.318l-.1-.1.078-.112,1.961-3.23v.173A15.547,15.547,0,0,1,360.85,52.2l.121.112-3.705-.838h-.121v-.121c0-2.194-.06-4.318-.1-6.253v-.112h.1l3.679-.864-.095.1a15.32,15.32,0,0,1,1.52-3.826v.121l-2.056-3.17-.043-.069.052-.052c1.779-1.822,3.247-3.334,4.37-4.474h.043l2.384,1.486.6.389Z" transform="translate(-83.481 -29.12)" fill="#f5f5f5"/>
      <rect id="Rectángulo_41222" data-name="Rectángulo 41222" width="113.064" height="187.158" transform="translate(3.757 19.32)" fill="#e0e0e0"/>
      <rect id="Rectángulo_41223" data-name="Rectángulo 41223" width="113.064" height="187.158" transform="translate(0 19.32)" fill="#ebebeb"/>
      <rect id="Rectángulo_41224" data-name="Rectángulo 41224" width="103.442" height="179.566" transform="translate(4.811 23.112)" fill="#fafafa"/>
      <rect id="Rectángulo_41225" data-name="Rectángulo 41225" width="63.61" height="132.902" transform="translate(24.502 46.448)" fill="#ebebeb"/>
      <path id="Trazado_159351" data-name="Trazado 159351" d="M68.67,174.582c-.147-12.411,11.02-24.528,23.319-26.264,5.864-.864,12.091.337,17.567-1.909,9.777-4.007,12.886-17,22.732-20.849l.449,96.058H68.67Z" transform="translate(-44.167 -42.267)" fill="#e0e0e0"/>
      <path id="Trazado_159352" data-name="Trazado 159352" d="M354.013,418.677a16.678,16.678,0,0,1,4.111-1.788l.864-4.068,6.866-.121.993,4.033a17.04,17.04,0,0,1,4.172,1.641l3.455-2.271,4.94,4.767-2.151,3.55a16.963,16.963,0,0,1,1.788,4.111l4.068.864.121,6.909-4.068.941a17.179,17.179,0,0,1-1.641,4.172l2.271,3.455-4.767,4.94-3.558-2.151a16.68,16.68,0,0,1-4.111,1.788l-.864,4.068-6.866.121-.993-4.042a17.014,17.014,0,0,1-4.172-1.632l-3.455,2.271-4.94-4.776,2.151-3.55a16.679,16.679,0,0,1-1.788-4.111l-4.068-.864-.121-6.866,4.1-.959a17.041,17.041,0,0,1,1.641-4.172l-2.271-3.455,4.767-4.949,3.558,2.159Zm3.662,9.155a7.367,7.367,0,1,0,5.175-2.252A7.376,7.376,0,0,0,357.675,427.832Z" transform="translate(-81.464 -81.412)" fill="#f5f5f5"/>
    </g>
    <g id="freepik--Table--inject-41" transform="translate(23.42 407.124)">
      <path id="Trazado_159353" data-name="Trazado 159353" d="M409.81,466.894H414.8v.078c-19.433.1-98.571.173-193.187.173l-140.157-.069-42.467-.1H27.445l11.547-.043,42.467-.069,140.157-.069c94.615,0,173.754.078,193.187.173v.009h-3.757C410.216,466.911,409.81,466.894,409.81,466.894Z" transform="translate(-23.42 -466.79)" fill="#263238"/>
    </g>
    <g id="freepik--Form--inject-41" transform="translate(183.701 71.423)">
      <rect id="Rectángulo_41226" data-name="Rectángulo 41226" width="193.575" height="273.137" transform="translate(0.225 0.233)" fill="#fff"/>
      <path id="Trazado_159354" data-name="Trazado 159354" d="M402.8,351.47c0-1.822-.086-111.785-.207-273.137l.207.2H209.242l.225-.225c0,102.354,0,197-.043,273.137l-.181-.181,193.575.181-193.575.181H209V78.1H403.007v.207C402.886,239.685,402.8,349.648,402.8,351.47Z" transform="translate(-209 -78.1)" fill="#263238"/>
      <rect id="Rectángulo_41227" data-name="Rectángulo 41227" width="82.636" height="18.949" rx="6.69" transform="translate(13.257 181.579)" fill="#f5f5f5"/>
      <rect id="Rectángulo_41228" data-name="Rectángulo 41228" width="80.805" height="18.949" rx="6.69" transform="translate(101.318 181.579)" fill="#f5f5f5"/>
      <rect id="Rectángulo_41229" data-name="Rectángulo 41229" width="170.394" height="18.949" rx="6.69" transform="translate(12.869 220.41)" fill="#f5f5f5"/>
      <path id="Trazado_159355" data-name="Trazado 159355" d="M262.65,279.475c0,.121-7.98.225-17.835.225s-17.835-.1-17.835-.225,7.98-.225,17.835-.225S262.65,279.354,262.65,279.475Z" transform="translate(-211.451 -105.522)" fill="#263238"/>
      <path id="Trazado_159356" data-name="Trazado 159356" d="M361.565,279.475c0,.121-6.288.225-14.043.225s-14.052-.1-14.052-.225,6.287-.225,14.052-.225S361.565,279.354,361.565,279.475Z" transform="translate(-225.969 -105.522)" fill="#263238"/>
      <path id="Trazado_159357" data-name="Trazado 159357" d="M285.366,324.215c0,.121-12.955.225-28.933.225s-28.933-.1-28.933-.225,12.955-.225,28.933-.225S285.366,324.094,285.366,324.215Z" transform="translate(-211.522 -111.621)" fill="#263238"/>
      <rect id="Rectángulo_41230" data-name="Rectángulo 41230" width="173.434" height="20.711" rx="6.51" transform="translate(9.829 138.559)" fill="#e0e0e0"/>
      <path id="Trazado_159358" data-name="Trazado 159358" d="M352.71,250.485c0,.13-15.391.225-34.366.225s-34.374-.1-34.374-.225,15.391-.225,34.374-.225S352.71,250.364,352.71,250.485Z" transform="translate(-219.22 -101.57)" fill="#263238"/>
      <rect id="Rectángulo_41231" data-name="Rectángulo 41231" width="173.434" height="20.711" rx="6.51" transform="translate(9.829 12.636)" fill="#e0e0e0"/>
      <path id="Trazado_159359" data-name="Trazado 159359" d="M352.71,104.685c0,.121-15.391.225-34.366.225s-34.374-.1-34.374-.225,15.391-.225,34.374-.225S352.71,104.555,352.71,104.685Z" transform="translate(-219.22 -81.694)" fill="#263238"/>
      <path id="Trazado_159360" data-name="Trazado 159360" d="M402.807,122.475c0,.13-43.374.233-96.87.233s-96.887-.1-96.887-.233,43.374-.225,96.887-.225S402.807,122.354,402.807,122.475Z" transform="translate(-209.007 -84.119)" fill="#ebebeb"/>
      <path id="Trazado_159361" data-name="Trazado 159361" d="M402.807,228.565c0,.13-43.374.225-96.87.225s-96.887-.1-96.887-.225,43.374-.225,96.887-.225S402.807,228.444,402.807,228.565Z" transform="translate(-209.007 -98.582)" fill="#ebebeb"/>
      <rect id="Rectángulo_41232" data-name="Rectángulo 41232" width="82.636" height="18.949" rx="6.69" transform="translate(13.257 59.127)" fill="#f5f5f5"/>
      <rect id="Rectángulo_41233" data-name="Rectángulo 41233" width="80.805" height="18.949" rx="6.69" transform="translate(101.318 59.127)" fill="#f5f5f5"/>
      <rect id="Rectángulo_41234" data-name="Rectángulo 41234" width="170.394" height="18.949" rx="6.69" transform="translate(12.869 97.958)" fill="#f5f5f5"/>
      <path id="Trazado_159362" data-name="Trazado 159362" d="M262.65,137.695c0,.121-7.98.225-17.835.225s-17.835-.1-17.835-.225,7.98-.225,17.835-.225S262.65,137.574,262.65,137.695Z" transform="translate(-211.451 -86.194)" fill="#263238"/>
      <path id="Trazado_159363" data-name="Trazado 159363" d="M361.565,137.695c0,.121-6.288.225-14.043.225s-14.052-.1-14.052-.225,6.287-.225,14.052-.225S361.565,137.574,361.565,137.695Z" transform="translate(-225.969 -86.194)" fill="#263238"/>
      <path id="Trazado_159364" data-name="Trazado 159364" d="M285.366,182.435c0,.121-12.955.225-28.933.225s-28.933-.1-28.933-.225,12.955-.225,28.933-.225S285.366,182.314,285.366,182.435Z" transform="translate(-211.522 -92.293)" fill="#263238"/>
      <path id="Trazado_159365" data-name="Trazado 159365" d="M405.361,368.535c0,.13-12.636.225-28.225.225s-28.216-.1-28.216-.225,12.627-.225,28.216-.225S405.361,368.414,405.361,368.535Z" transform="translate(-228.075 -117.663)" fill="#263238"/>
      <path id="Trazado_159366" data-name="Trazado 159366" d="M295.488,158.724a9.736,9.736,0,0,1-1.339.337,15.831,15.831,0,0,1-9.975-1.425,5.58,5.58,0,0,1-1.529-1.166,3.593,3.593,0,0,1-.924-1.84,2.712,2.712,0,0,1,.44-2.142,2.073,2.073,0,0,1,2.185-.691,1.555,1.555,0,0,1,.959.8,2,2,0,0,1,.164,1.261,4.543,4.543,0,0,1-1.192,2.22,10.943,10.943,0,0,1-4.318,2.962,10.459,10.459,0,0,1-5.6.5,6.175,6.175,0,0,1-2.738-1.2,3.256,3.256,0,0,1-1.33-2.764,3.006,3.006,0,0,1,.6-1.511,2.4,2.4,0,0,1,1.365-.95,1.727,1.727,0,0,1,1.615.535,2.427,2.427,0,0,1,.579,1.6,3.342,3.342,0,0,1-.4,1.641,3.74,3.74,0,0,1-1.175,1.235,10.494,10.494,0,0,1-3.092,1.235c-2.1.6-4.387,1.244-6.719.717a6.3,6.3,0,0,1-3.092-1.676,4.448,4.448,0,0,1-1.347-3.308,2.962,2.962,0,0,1,.941-2.1,2.151,2.151,0,0,1,2.28-.242,1.727,1.727,0,0,1,.959,2.03,3.369,3.369,0,0,1-1.347,1.788,17.636,17.636,0,0,1-7.773,2.954,7.972,7.972,0,0,1-4.051-.354,4.085,4.085,0,0,1-2.487-3.057,2.772,2.772,0,0,1,2.056-3.1,1.935,1.935,0,0,1,1.848.656,2.988,2.988,0,0,1,.648,1.8,3.61,3.61,0,0,1-.4,1.822,4.249,4.249,0,0,1-1.226,1.339,9.5,9.5,0,0,1-3.17,1.33c-2.116.561-4.318.959-6.322.225a5.407,5.407,0,0,1-2.4-1.727,3.956,3.956,0,0,1-.864-2.669,3.731,3.731,0,0,1,1.157-2.341,2.53,2.53,0,0,1,2.306-.691h.086v.086a6.693,6.693,0,0,1-1.727,4.595,6.969,6.969,0,0,1-3.032,2.064,5.64,5.64,0,0,1-2.263.294c-.518-.078-.777-.147-.777-.147a5.994,5.994,0,0,0,3-.276,6.909,6.909,0,0,0,2.928-2.056,6.538,6.538,0,0,0,1.589-4.457l.1.112a2.315,2.315,0,0,0-2.064.648,3.455,3.455,0,0,0-1.045,2.168,4.33,4.33,0,0,0,3.075,4.077,10.8,10.8,0,0,0,6.115-.268,9.173,9.173,0,0,0,3.04-1.287A3.9,3.9,0,0,0,250.9,157.1a3.17,3.17,0,0,0,.345-1.624,2.591,2.591,0,0,0-.553-1.546,1.529,1.529,0,0,0-1.468-.527,2.375,2.375,0,0,0-1.727,2.652,3.662,3.662,0,0,0,2.237,2.712,7.54,7.54,0,0,0,3.835.32,17.135,17.135,0,0,0,7.557-2.885,3,3,0,0,0,1.183-1.529,1.287,1.287,0,0,0-.725-1.52,1.727,1.727,0,0,0-1.788.181,2.5,2.5,0,0,0-.786,1.779,4,4,0,0,0,1.218,2.962,5.856,5.856,0,0,0,2.867,1.555c2.176.5,4.413-.1,6.5-.7a10.312,10.312,0,0,0,2.962-1.175,3.282,3.282,0,0,0,1.045-1.08,2.945,2.945,0,0,0,.345-1.425,2,2,0,0,0-.466-1.321,1.278,1.278,0,0,0-1.209-.406,2.427,2.427,0,0,0-1.632,2.09,2.859,2.859,0,0,0,1.226,2.392,5.9,5.9,0,0,0,2.591,1.131,10.131,10.131,0,0,0,5.389-.475,10.45,10.45,0,0,0,4.206-2.841,4.24,4.24,0,0,0,1.123-2.038,1.416,1.416,0,0,0-.864-1.727,1.727,1.727,0,0,0-1.848.579,2.436,2.436,0,0,0-.406,1.9,4.129,4.129,0,0,0,2.3,2.833,15.762,15.762,0,0,0,5.916,1.727,16.979,16.979,0,0,0,3.921-.138l1.01-.19A2.3,2.3,0,0,1,295.488,158.724Z" transform="translate(-212.281 -88.136)" fill="#dce736"/>
      <path id="Trazado_159367" data-name="Trazado 159367" d="M394.77,157.6a5.787,5.787,0,0,1-1.088.535,9.7,9.7,0,0,1-3.4.717,10.468,10.468,0,0,1-5.337-1.244,6.633,6.633,0,0,1-2.591-2.289,3.014,3.014,0,0,1-.466-1.874,2.591,2.591,0,0,1,1-1.779,1.641,1.641,0,0,1,1.054-.345,1.589,1.589,0,0,1,1.045.44,2.591,2.591,0,0,1,.7,2.133,3.774,3.774,0,0,1-1.088,2.047,8.793,8.793,0,0,1-1.883,1.442,11.228,11.228,0,0,1-4.724,1.511,8.991,8.991,0,0,1-5.182-.959,5.131,5.131,0,0,1-2-1.935,3.9,3.9,0,0,1-.458-1.382,3.541,3.541,0,0,1,2.271-3.532,2,2,0,0,1,1.555.155,2.41,2.41,0,0,1,1.036,1.157,3.584,3.584,0,0,1-.112,3.031,6.3,6.3,0,0,1-2.056,2.263,11.392,11.392,0,0,1-11.8.708,8.966,8.966,0,0,1-2.436-1.814,4.111,4.111,0,0,1-1.209-2.772,2.738,2.738,0,0,1,1.658-2.461,1.658,1.658,0,0,1,1.555.181,2.246,2.246,0,0,1,.864,1.261,3.273,3.273,0,0,1-.579,2.8,8.731,8.731,0,0,1-2,1.917,12.161,12.161,0,0,1-9.734,2.125,6.538,6.538,0,0,1-3.956-2.366,3.636,3.636,0,0,1-.734-2.1,3.956,3.956,0,0,1,.518-2.073,2.591,2.591,0,0,1,1.6-1.27,2.254,2.254,0,0,1,1.883.423,3.455,3.455,0,0,1,1.278,3.17,4.258,4.258,0,0,1-1.529,2.591,5.631,5.631,0,0,1-2.254,1.14,10.952,10.952,0,0,1-3.455.216l-.864-.078a1.219,1.219,0,0,1-.3,0,1.339,1.339,0,0,1,.3,0h.907a11.678,11.678,0,0,0,3.455-.294,5.58,5.58,0,0,0,2.159-1.14,4.034,4.034,0,0,0,1.339-2.539,3.221,3.221,0,0,0-1.192-2.9,2,2,0,0,0-1.65-.354,2.341,2.341,0,0,0-1.391,1.14,3.455,3.455,0,0,0,.216,3.8,6.253,6.253,0,0,0,3.757,2.211,11.78,11.78,0,0,0,9.431-2.056,8.422,8.422,0,0,0,1.883-1.84,2.833,2.833,0,0,0,.51-2.436,1.8,1.8,0,0,0-.682-1.019,1.227,1.227,0,0,0-1.157-.138,2.306,2.306,0,0,0-1.373,2.064,3.705,3.705,0,0,0,1.1,2.461,8.714,8.714,0,0,0,2.323,1.727,11.15,11.15,0,0,0,5.761,1.235,10.822,10.822,0,0,0,5.562-1.926,5.83,5.83,0,0,0,1.952-2.056,3.17,3.17,0,0,0,.112-2.652,1.727,1.727,0,0,0-2.073-1.08,3.118,3.118,0,0,0-1.969,3.075,3.385,3.385,0,0,0,.406,1.218,4.673,4.673,0,0,0,1.84,1.779,8.585,8.585,0,0,0,4.914.933,10.891,10.891,0,0,0,4.543-1.46,8.455,8.455,0,0,0,1.814-1.365,3.455,3.455,0,0,0,1-1.848,2.246,2.246,0,0,0-.587-1.848,1.278,1.278,0,0,0-1.684-.078,2.323,2.323,0,0,0-.864,1.555,2.859,2.859,0,0,0,.415,1.727,6.487,6.487,0,0,0,2.479,2.2,10.287,10.287,0,0,0,5.182,1.3,10.468,10.468,0,0,0,3.368-.622C394.4,157.788,394.752,157.572,394.77,157.6Z" transform="translate(-227.07 -88.038)" fill="#dce736"/>
      <path id="Trazado_159368" data-name="Trazado 159368" d="M299.428,202.1a1.729,1.729,0,0,1-.328.164l-.993.449c-.864.389-2.168.959-3.869,1.6a31.611,31.611,0,0,1-6.408,1.727,24.479,24.479,0,0,1-4.146.25,13.956,13.956,0,0,1-4.612-.691,5.5,5.5,0,0,1-3.507-3.653,3.6,3.6,0,0,1,.345-2.755,3.109,3.109,0,0,1,2.384-1.606,2.651,2.651,0,0,1,2.479,1.6,4.077,4.077,0,0,1,.216,3.075,6.045,6.045,0,0,1-1.805,2.591,11.829,11.829,0,0,1-2.712,1.727,9.3,9.3,0,0,1-6.555.769,6.659,6.659,0,0,1-4.56-5.027,5.38,5.38,0,0,1,0-1.822,3.455,3.455,0,0,1,.743-1.727,2.306,2.306,0,0,1,1.658-.959,1.658,1.658,0,0,1,1.6,1.114,4.448,4.448,0,0,1-.639,3.671,11.124,11.124,0,0,1-2.418,2.867,10.226,10.226,0,0,1-13.534-.207,5.761,5.761,0,0,1-1.727-3.092,3.532,3.532,0,0,1,.112-1.8,3.679,3.679,0,0,1,1.01-1.477,2.953,2.953,0,0,1,1.615-.751,2.125,2.125,0,0,1,1.727.527,3.291,3.291,0,0,1,.769,3.239,6.046,6.046,0,0,1-1.788,2.712,14.405,14.405,0,0,1-2.513,1.874,14.553,14.553,0,0,1-5.64,1.917,12.773,12.773,0,0,1-5.545-.492,6.132,6.132,0,0,1-2.28-1.373,4.258,4.258,0,0,1-1.235-2.228,3.886,3.886,0,0,1,.225-2.427,2.384,2.384,0,0,1,1.814-1.408,2.686,2.686,0,0,1,2.107.579,1.969,1.969,0,0,1,.665,1.917,3,3,0,0,1-.993,1.632,6.58,6.58,0,0,1-1.46.967,16.186,16.186,0,0,1-2.841,1.088,15.9,15.9,0,0,1-4.146.613,9.5,9.5,0,0,1-1.46-.06h1.46a17.041,17.041,0,0,0,4.094-.691,17.274,17.274,0,0,0,2.8-1.114,6.261,6.261,0,0,0,1.4-.95,2.79,2.79,0,0,0,.864-1.5,1.727,1.727,0,0,0-.6-1.676,2.47,2.47,0,0,0-1.891-.5,2.09,2.09,0,0,0-1.581,1.261,3.558,3.558,0,0,0-.19,2.228,4.707,4.707,0,0,0,3.316,3.342,12.273,12.273,0,0,0,5.381.449,14.165,14.165,0,0,0,7.92-3.714,5.606,5.606,0,0,0,1.676-2.531,2.876,2.876,0,0,0-.656-2.816,2.047,2.047,0,0,0-2.746.242,3.256,3.256,0,0,0-.864,1.287,3.143,3.143,0,0,0-.095,1.581,5.372,5.372,0,0,0,1.632,2.85,9.794,9.794,0,0,0,12.955.181,10.415,10.415,0,0,0,2.323-2.755,4.958,4.958,0,0,0,.665-1.615,3.022,3.022,0,0,0-.052-1.667,1.244,1.244,0,0,0-1.166-.864,1.909,1.909,0,0,0-1.33.795,4,4,0,0,0-.648,3.178,6.236,6.236,0,0,0,4.249,4.69,8.9,8.9,0,0,0,6.253-.725c1.883-.907,3.688-2.22,4.318-4.094a3.688,3.688,0,0,0-.19-2.781,2.263,2.263,0,0,0-2.107-1.4,2.755,2.755,0,0,0-2.1,1.416,3.222,3.222,0,0,0-.32,2.487,5.182,5.182,0,0,0,3.282,3.455,13.6,13.6,0,0,0,4.508.708,24.129,24.129,0,0,0,4.1-.216,32.076,32.076,0,0,0,6.383-1.615c1.727-.613,3.006-1.157,3.9-1.511l1.011-.415Z" transform="translate(-212.024 -94.388)" fill="#dce736"/>
    </g>
    <g id="freepik--Plant--inject-41" transform="translate(320.818 280.741)">
      <path id="Trazado_159369" data-name="Trazado 159369" d="M399.923,412.394s-19.865-22.87-27.378-45.775-3.93-20.244-3.93-20.244,10.122,22.214,17.809,32.949S407.8,405.8,407.8,405.8Z" transform="translate(-367.761 -323.978)" fill="#455a64"/>
      <path id="Trazado_159370" data-name="Trazado 159370" d="M409.279,350.448a1.157,1.157,0,0,0-2.151.734c1.209,8.041,3.826,26.895,3.731,39.124-.138,15.883,0,22.024,0,22.024h8.248s-1.468-32.82-3.342-42.855C414.487,362.462,411.706,354.663,409.279,350.448Z" transform="translate(-373.126 -324.467)" fill="#455a64"/>
      <path id="Trazado_159371" data-name="Trazado 159371" d="M414.85,409.212a87.767,87.767,0,0,0,6.806-24.692c.682-5.856-.535-13.758-2.341-24.3a64.283,64.283,0,0,1-1.045-11.685,1.969,1.969,0,0,1,3.705-.924c.993,1.779,3.887,7.859,4.621,11.677,2,10.416,4.267,15.624,2.539,25.5s-8.11,25.1-8.11,25.1Z" transform="translate(-374.18 -324.017)" fill="#455a64"/>
      <path id="Trazado_159372" data-name="Trazado 159372" d="M423.466,407.88s21.825-46.889,23.319-53.85,6.65-22.982,7.255-22.076,1.52,9.371-2.418,19.053-20.728,58.307-20.728,58.307H423.44" transform="translate(-375.351 -322.02)" fill="#455a64"/>
      <path id="Trazado_159373" data-name="Trazado 159373" d="M406.082,407.84a4.2,4.2,0,0,1-.613-.415c-.389-.294-.976-.708-1.727-1.3a77.944,77.944,0,0,1-5.864-5.182,98.812,98.812,0,0,1-15.831-20.322,133.474,133.474,0,0,1-10.8-23.406c-1.1-3.118-1.891-5.666-2.418-7.436-.259-.864-.449-1.572-.579-2.047a4.45,4.45,0,0,1-.164-.717,4.011,4.011,0,0,1,.259.691l.656,2.021c.579,1.727,1.425,4.318,2.591,7.376a141.742,141.742,0,0,0,10.9,23.319,102.853,102.853,0,0,0,15.658,20.322c2.34,2.323,4.318,4.085,5.752,5.268.691.6,1.261,1.036,1.632,1.356A5.193,5.193,0,0,1,406.082,407.84Z" transform="translate(-367.804 -324.079)" fill="#263238"/>
      <path id="Trazado_159374" data-name="Trazado 159374" d="M413.958,385.906a9.5,9.5,0,0,1-.19-1.382l-.406-3.757c-.345-3.17-.864-7.548-1.658-12.35s-1.632-9.138-2.3-12.256l-.795-3.7a7.007,7.007,0,0,1-.242-1.365,9.366,9.366,0,0,1,.415,1.321c.25.864.57,2.116.941,3.671.751,3.109,1.667,7.428,2.444,12.247s1.261,9.215,1.52,12.394c.13,1.6.216,2.885.259,3.783a7.854,7.854,0,0,1,.009,1.39Z" transform="translate(-373.297 -324.635)" fill="#263238"/>
      <path id="Trazado_159375" data-name="Trazado 159375" d="M420.415,347.34a3.038,3.038,0,0,1,.259.6c.164.44.38,1.019.656,1.727s.622,1.684.933,2.79.743,2.341,1.062,3.757l.544,2.2c.181.769.311,1.581.475,2.41.354,1.667.579,3.455.864,5.372a80.321,80.321,0,0,1-.864,24.787c-.406,1.866-.751,3.653-1.226,5.286-.225.82-.415,1.624-.648,2.375s-.475,1.477-.7,2.159c-.415,1.39-.924,2.591-1.33,3.671s-.786,1.986-1.131,2.721l-.777,1.727a2.859,2.859,0,0,1-.3.57,4.662,4.662,0,0,1,.216-.613c.181-.432.406-1.011.7-1.727s.682-1.658,1.054-2.738.864-2.3,1.261-3.679c.207-.691.432-1.416.665-2.159s.406-1.555.622-2.375c.458-1.632.786-3.412,1.175-5.268a82.809,82.809,0,0,0,.864-24.667c-.25-1.883-.458-3.679-.795-5.337-.155-.864-.276-1.641-.449-2.41s-.345-1.5-.51-2.2c-.294-1.416-.691-2.66-.993-3.757s-.6-2.047-.864-2.816l-.57-1.727A2.99,2.99,0,0,1,420.415,347.34Z" transform="translate(-374.641 -324.123)" fill="#263238"/>
      <path id="Trazado_159376" data-name="Trazado 159376" d="M454.388,333.05a1.894,1.894,0,0,1,0,.207,4.527,4.527,0,0,1-.1.613c-.1.527-.216,1.321-.432,2.332-.415,2.021-1.123,4.923-2.211,8.438s-2.591,7.661-4.318,12.2-3.809,9.5-5.743,14.752-3.455,10.364-4.906,15.045-2.755,8.835-4.042,12.29a79.949,79.949,0,0,1-3.455,8.023c-.449.924-.864,1.615-1.114,2.1l-.3.535a.8.8,0,0,1-.121.173l.078-.2c.078-.147.164-.337.268-.561.233-.484.6-1.192,1.028-2.133.864-1.857,2.056-4.586,3.3-8.049s2.591-7.644,3.938-12.307,2.911-9.8,4.88-15.08,4-10.217,5.787-14.743,3.308-8.637,4.431-12.135,1.874-6.383,2.349-8.386c.242-.993.389-1.779.518-2.306.052-.242.1-.44.138-.6A.639.639,0,0,1,454.388,333.05Z" transform="translate(-375.924 -322.175)" fill="#263238"/>
      <path id="Trazado_159377" data-name="Trazado 159377" d="M380.2,320.969a1.883,1.883,0,0,0-3.092,1.917,53.123,53.123,0,0,0,2.738,7.056c3,6.374,11.815,29.244,15.935,41.81s9.941,36,9.941,36l8.809-1.434s-8.058-38.5-15.935-52.382C392.265,342.794,385.943,326.678,380.2,320.969Z" transform="translate(-369.024 -320.458)" fill="#455a64"/>
      <path id="Trazado_159378" data-name="Trazado 159378" d="M401.53,388.94a4.916,4.916,0,0,1,.458,1.062c.259.691.613,1.727,1.019,2.954.812,2.513,1.8,6.046,2.8,9.924s1.831,7.445,2.41,10.019c.268,1.218.484,2.237.665,3.049a5.182,5.182,0,0,1,.181,1.14,5.374,5.374,0,0,1-.363-1.1c-.207-.8-.484-1.814-.8-3.014-.674-2.651-1.563-6.132-2.539-9.984s-1.943-7.41-2.669-9.941l-.864-3a6.044,6.044,0,0,1-.294-1.114Z" transform="translate(-372.364 -329.794)" fill="#263238"/>
      <path id="Trazado_159379" data-name="Trazado 159379" d="M410.3,407.092a.862.862,0,0,1-.052-.233,5.7,5.7,0,0,0-.1-.7c-.1-.6-.173-1.511-.363-2.66a98.229,98.229,0,0,0-1.848-9.716,138.826,138.826,0,0,0-4.12-14.078c-1.805-5.182-4.077-10.856-6.642-16.686-5.182-11.66-10.364-22-13.758-29.65-1.727-3.809-3.049-6.909-3.93-9.094-.449-1.08-.769-1.926-.993-2.5-.1-.268-.173-.484-.242-.656a.864.864,0,0,1-.069-.233,1.073,1.073,0,0,1,.112.216l.285.639c.259.6.622,1.425,1.071,2.47.933,2.151,2.306,5.234,4.059,9.034,3.455,7.6,8.7,17.913,13.888,29.589,2.591,5.847,4.837,11.5,6.624,16.738a133.615,133.615,0,0,1,4.025,14.138,98.683,98.683,0,0,1,1.727,9.768c.155,1.157.216,2.064.276,2.677a3.815,3.815,0,0,0,.052.7A.864.864,0,0,1,410.3,407.092Z" transform="translate(-369.183 -320.515)" fill="#263238"/>
      <path id="Trazado_159380" data-name="Trazado 159380" d="M418.927,414.027a8.635,8.635,0,0,1-.3-1.477c-.173-1.036-.406-2.4-.682-4.051-.6-3.455-1.537-8.11-2.867-13.231s-2.807-9.673-3.947-12.955l-1.382-3.869a9.945,9.945,0,0,1-.466-1.434,8.509,8.509,0,0,1,.639,1.373c.38.864.907,2.194,1.52,3.817a127.13,127.13,0,0,1,4.085,12.955,134.413,134.413,0,0,1,2.747,13.292c.25,1.727.44,3.109.535,4.077a11.225,11.225,0,0,1,.121,1.5Z" transform="translate(-373.421 -328.167)" fill="#263238"/>
      <rect id="Rectángulo_41235" data-name="Rectángulo 41235" width="34.383" height="41.888" transform="translate(29.2 84.599)" fill="#dce736"/>
      <g id="Grupo_108836" data-name="Grupo 108836" transform="translate(29.2 84.599)" opacity="0.3">
        <rect id="Rectángulo_41236" data-name="Rectángulo 41236" width="34.383" height="41.888"/>
      </g>
      <rect id="Rectángulo_41237" data-name="Rectángulo 41237" width="30.505" height="41.888" transform="translate(22.109 84.599)" fill="#dce736"/>
    </g>
    <g id="freepik--Character--inject-41" transform="translate(28.914 93.356)">
      <path id="Trazado_159381" data-name="Trazado 159381" d="M105.025,155.286l-.976,78.7c-.164,13.378,2.323,33.07,23.492,32.37h0c18.327-2,23.19-19.338,23.319-31.826.069-5.925.138-10.865.181-11.47,0,0,20.055-1.641,21.747-21.454.82-9.57.864-29.425.769-47.39a37.026,37.026,0,0,0-34.348-36.628l-1.917-.147C116.581,117.146,104.757,134.566,105.025,155.286Z" transform="translate(-39.905 -105.395)" fill="#ffbe9d"/>
      <path id="Trazado_159382" data-name="Trazado 159382" d="M154.484,238.23s-12.549-.181-25.254-9.5c0,0,5.234,14.942,25.15,14.6Z" transform="translate(-43.338 -120.568)" fill="#eb996e"/>
      <path id="Trazado_159383" data-name="Trazado 159383" d="M143.4,168.867c-.389.406-2.677-1.442-6-1.529s-5.8,1.537-6.141,1.114c-.173-.19.233-.924,1.321-1.684a8.291,8.291,0,0,1,4.932-1.4,7.98,7.98,0,0,1,4.759,1.727C143.268,167.934,143.6,168.694,143.4,168.867Z" transform="translate(-43.609 -111.929)" fill="#263238"/>
      <path id="Trazado_159384" data-name="Trazado 159384" d="M144.362,176.961a2.7,2.7,0,0,1-2.781,2.513,2.591,2.591,0,0,1-2.591-2.591,2.686,2.686,0,0,1,2.772-2.513,2.591,2.591,0,0,1,2.6,2.591Z" transform="translate(-44.669 -113.157)" fill="#263238"/>
      <path id="Trazado_159385" data-name="Trazado 159385" d="M155,192.124c0-.173,1.917-.363,5.009-.527.786,0,1.537-.13,1.727-.648a3.956,3.956,0,0,0-.345-2.341l-1.943-6.115c-2.591-8.637-4.379-15.771-4.033-15.874s2.729,6.849,5.3,15.546c.622,2.142,1.209,4.172,1.727,6.123a4.488,4.488,0,0,1,.181,3.083,1.943,1.943,0,0,1-1.365,1.045,5.269,5.269,0,0,1-1.33.086C156.874,192.426,155,192.305,155,192.124Z" transform="translate(-46.852 -112.1)" fill="#263238"/>
      <path id="Trazado_159386" data-name="Trazado 159386" d="M141.74,154.607c-.32.743-2.98.181-6.158.345s-5.8.864-6.167.164c-.164-.345.328-1.019,1.408-1.676a10.027,10.027,0,0,1,4.664-1.313,9.82,9.82,0,0,1,4.724.933C141.334,153.6,141.878,154.235,141.74,154.607Z" transform="translate(-43.36 -110.123)" fill="#263238"/>
      <path id="Trazado_159387" data-name="Trazado 159387" d="M178.268,161.683c-.345.6-2.936-.06-6.046-.155s-5.743.3-6.046-.328c-.138-.294.38-.864,1.468-1.313a11.09,11.09,0,0,1,4.647-.769,11.323,11.323,0,0,1,4.612,1.14C177.923,160.819,178.423,161.4,178.268,161.683Z" transform="translate(-48.372 -111.076)" fill="#263238"/>
      <path id="Trazado_159388" data-name="Trazado 159388" d="M103.625,178.245c-.328-.173-13.335-5.027-13.888,8.559s13.18,11.349,13.24,10.96S103.625,178.245,103.625,178.245Z" transform="translate(-37.952 -113.552)" fill="#ffbe9d"/>
      <path id="Trazado_159389" data-name="Trazado 159389" d="M99.586,193.135c-.06-.043-.25.155-.656.32a2.358,2.358,0,0,1-1.727,0c-1.416-.587-2.531-2.911-2.5-5.363a7.833,7.833,0,0,1,.8-3.36A2.712,2.712,0,0,1,97.366,183a1.192,1.192,0,0,1,1.365.7c.173.389.069.656.147.682s.3-.216.207-.777a1.485,1.485,0,0,0-.492-.864,1.814,1.814,0,0,0-1.3-.406,3.351,3.351,0,0,0-2.591,2.012,8.17,8.17,0,0,0-.976,3.748c0,2.746,1.278,5.363,3.213,6.046a2.591,2.591,0,0,0,2.185-.268C99.543,193.463,99.629,193.161,99.586,193.135Z" transform="translate(-38.499 -114.243)" fill="#eb996e"/>
      <path id="Trazado_159390" data-name="Trazado 159390" d="M150.1,205.669c.147-.345-2.513-1.14-4.387-3.645a15.372,15.372,0,0,1-1.883-3.541c-.4-.993-.7-1.606-.864-1.563s-.112.708.112,1.788a10.114,10.114,0,0,0,1.727,3.973,8.084,8.084,0,0,0,3.455,2.651C149.356,205.755,150.056,205.781,150.1,205.669Z" transform="translate(-45.198 -116.231)" fill="#263238"/>
      <path id="Trazado_159391" data-name="Trazado 159391" d="M178.429,170.317c-.4.4-2.686-1.442-6.046-1.529s-5.8,1.537-6.149,1.114c-.173-.19.242-.924,1.321-1.684a8.291,8.291,0,0,1,4.932-1.4,8.006,8.006,0,0,1,4.768,1.727C178.291,169.384,178.619,170.136,178.429,170.317Z" transform="translate(-48.378 -112.127)" fill="#263238"/>
      <path id="Trazado_159392" data-name="Trazado 159392" d="M178.882,178.081a2.7,2.7,0,0,1-2.781,2.513A2.591,2.591,0,0,1,173.51,178a2.7,2.7,0,0,1,2.781-2.513A2.591,2.591,0,0,1,178.882,178.081Z" transform="translate(-49.375 -113.31)" fill="#263238"/>
      <path id="Trazado_159393" data-name="Trazado 159393" d="M185.607,126.007a10.727,10.727,0,0,0-13.37-4.232,14.682,14.682,0,0,0-25.28-12.661,5.977,5.977,0,0,0-2.928-4.016,11.789,11.789,0,0,0-4.871-1.46,23.319,23.319,0,0,0-21.307,9.293,25.383,25.383,0,0,0-21.514,7.851c-6.383,7.073-7.592,23.457-.6,37.613l1.641,8.87c2.194,0,4.2.155,5.553,1.365,1.84,1.65,2.66,4.759,5.709,3.584,1.555-.6,2.971-3.861,3.455-5.441a77.437,77.437,0,0,0,3.351-32.733,24.813,24.813,0,0,1,7.669-5.536l-.233.216c5.536-1.926,11.8-3.817,17.049-1.218,4.077,2.012,6.478,6.244,9.5,9.613a31.092,31.092,0,0,0,22.171,10.243c.294,5.579-.173,13.465.121,19l4.776-8.879h0a21.269,21.269,0,0,0,1.01-1.969l.1-.207h0c.864-.7,1.5-1.978,2.954-3.636a11.694,11.694,0,0,0,1.926-11.979,10.718,10.718,0,0,0,3.109-13.681Z" transform="translate(-38.127 -103.495)" fill="#263238"/>
      <path id="Trazado_159394" data-name="Trazado 159394" d="M193.13,159.86Z" transform="translate(-52.05 -111.179)" fill="#263238"/>
      <path id="Trazado_159395" data-name="Trazado 159395" d="M187.471,129.8a1.424,1.424,0,0,1,.1.294,4.2,4.2,0,0,1,.121.864,5.882,5.882,0,0,1-.786,3.178,6.228,6.228,0,0,1-1.52,1.727,5.415,5.415,0,0,1-2.479,1.054,6.132,6.132,0,0,1-5.666-2.133l.337-.285a3.679,3.679,0,0,1,.959,2.66,4.862,4.862,0,0,1-1.52,3.455,5.51,5.51,0,0,1-3.213,1.373,8.637,8.637,0,0,1-5.579-1.537,18.2,18.2,0,0,1-2.988-2.539,8.637,8.637,0,0,1-.95-1.071,9.639,9.639,0,0,1,1.071.95,21.421,21.421,0,0,0,3.04,2.392,8.412,8.412,0,0,0,5.363,1.39,5.182,5.182,0,0,0,2.962-1.278,4.483,4.483,0,0,0,1.365-3.109,3.3,3.3,0,0,0-.864-2.349l.337-.294a5.761,5.761,0,0,0,5.251,2.021,5.3,5.3,0,0,0,3.8-2.591,6.045,6.045,0,0,0,.864-3.031A8.443,8.443,0,0,0,187.471,129.8Z" transform="translate(-48.118 -107.081)" fill="#455a64"/>
      <path id="Trazado_159396" data-name="Trazado 159396" d="M169.36,112.56a.605.605,0,0,1,.294.13,6.453,6.453,0,0,1,.751.51,6.642,6.642,0,0,1,2.056,2.66,5.234,5.234,0,0,1-.466,4.9,4.042,4.042,0,0,1-2.479,1.727,4.1,4.1,0,0,1-3.17-.613,3.869,3.869,0,0,1-.751-.751l.389-.225a3.792,3.792,0,0,1-.1,3.057,4.12,4.12,0,0,1-1.969,2.021,5.493,5.493,0,0,1-4.629,0,7.436,7.436,0,0,1-2.5-1.874,3.687,3.687,0,0,1-.665-.933s.276.3.786.812a7.937,7.937,0,0,0,2.5,1.727,5.26,5.26,0,0,0,4.318-.078,3.809,3.809,0,0,0,1.727-1.84,3.394,3.394,0,0,0,.086-2.695l-.725-1.667,1.114,1.451a3.031,3.031,0,0,0,.648.639,3.645,3.645,0,0,0,2.816.553,3.6,3.6,0,0,0,2.22-1.5,4.923,4.923,0,0,0,.51-4.543,6.858,6.858,0,0,0-1.866-2.643C169.714,112.81,169.334,112.595,169.36,112.56Z" transform="translate(-47.004 -104.731)" fill="#455a64"/>
      <path id="Trazado_159397" data-name="Trazado 159397" d="M299.794,226.93,268.4,250.888a4.068,4.068,0,0,0-.6,5.89h0a4.051,4.051,0,0,0,5.553.544l31.092-24.183,4.206-8.3Z" transform="translate(-62.094 -120.038)" fill="#dce736"/>
      <path id="Trazado_159398" data-name="Trazado 159398" d="M309.785,225.93l2.22,2.591-2.4,4.767a1.909,1.909,0,0,1-2.09-2.168,1.727,1.727,0,0,1-1.9-2.176s-1.632-.147-.708-1.866Z" transform="translate(-67.249 -120.186)" fill="#fff" opacity="0.5"/>
      <path id="Trazado_159399" data-name="Trazado 159399" d="M268.65,254.737l5.147,6.288,1.727-1.339-4.932-6.426Z" transform="translate(-62.345 -123.912)" fill="#263238"/>
      <path id="Trazado_159400" data-name="Trazado 159400" d="M265.821,311.52l-1.131-.207,23.095-40.368L284.123,259.3s-4.232-16.574-.708-20.806c0,0,7.713-9.086,10.217-8.956s4.5.622,5,2.5c0,0,4.258-.5,5.381.864a21.53,21.53,0,0,1,2,3.006s4.629-.38,5.882,3.627c0,0,4.379,2.254,4.759,5.5s-.864,18.4-2.254,22.274-6.512,12.014-8.006,24.027-6.8,19.813-11.5,37.363l-12.774,5.052Z" transform="translate(-61.805 -120.678)" fill="#ffbe9d"/>
      <path id="Trazado_159401" data-name="Trazado 159401" d="M303.054,232.14a23.5,23.5,0,0,0-2.695,3.127,29.232,29.232,0,0,0-1.65,3.783,7.825,7.825,0,0,1,4.318-6.909Z" transform="translate(-66.443 -121.033)" fill="#eb996e"/>
      <path id="Trazado_159402" data-name="Trazado 159402" d="M311.554,236.92a25.236,25.236,0,0,0-2.634,2.8,25.929,25.929,0,0,0-1.727,3.455,5.823,5.823,0,0,1,1.3-3.731A6.046,6.046,0,0,1,311.554,236.92Z" transform="translate(-67.593 -121.684)" fill="#eb996e"/>
      <path id="Trazado_159403" data-name="Trazado 159403" d="M318.458,241c.1.121-1.054,1.131-2.107,2.651s-1.624,2.945-1.771,2.893a6.132,6.132,0,0,1,1.339-3.187A6.046,6.046,0,0,1,318.458,241Z" transform="translate(-68.607 -122.241)" fill="#eb996e"/>
      <path id="Trazado_159404" data-name="Trazado 159404" d="M293.2,242.367a9,9,0,0,0-2.591-.44,8.637,8.637,0,0,0-2.487.786c-.043,0,.121-.328.544-.639a3.783,3.783,0,0,1,3.878-.259A1.52,1.52,0,0,1,293.2,242.367Z" transform="translate(-64.998 -122.295)" fill="#eb996e"/>
      <path id="Trazado_159405" data-name="Trazado 159405" d="M303.892,248.615a10.367,10.367,0,0,0-1.909-2.28,10.581,10.581,0,0,0-2.7-1.235c.017-.155.354-.147.933-.078a4.6,4.6,0,0,1,3.5,2.669C303.935,248.235,303.952,248.6,303.892,248.615Z" transform="translate(-66.521 -122.782)" fill="#eb996e"/>
      <path id="Trazado_159406" data-name="Trazado 159406" d="M314.257,251.109a11.954,11.954,0,0,0-2.841-1.477,11.349,11.349,0,0,0-3.2-.155c0-.06.3-.268.915-.415a5.182,5.182,0,0,1,4.543,1.226C314.128,250.721,314.3,251.075,314.257,251.109Z" transform="translate(-67.74 -123.324)" fill="#eb996e"/>
      <path id="Trazado_159407" data-name="Trazado 159407" d="M43.279,302.44s-14.173,80.391-13.473,87.913,4.448,19.476,12.955,21.523a37.613,37.613,0,0,0,16.41,0l-10.2-98.744Z" transform="translate(-29.781 -130.616)" fill="#dce736"/>
      <path id="Trazado_159408" data-name="Trazado 159408" d="M86.829,251.94S69.884,264.031,66.1,267.529c-15.667,14.812-18.94,20.875-20.728,25.91S56.255,414.811,56.255,414.811l2.591,20.34h0l118.9.3h0V331.562L159.9,258.435,148.9,255.308l-2.22-8.714S133.027,236.506,110.5,236.23c-6.909-.1-16.738,2.634-22.214,6.909h0Z" transform="translate(-31.883 -121.59)" fill="#7f7f7f"/>
      <path id="Trazado_159409" data-name="Trazado 159409" d="M161,262.233s12.221-.544,13.3-.3c3.766.864,14.1,10.364,25.91,22.041,11.228,11.141,33.355,34.331,33.355,34.331s3.973-4.007,8.507,1.347l17.455-25.392s26.221,3.213,30.3,23c0,0-8.032,15.339-14.613,26.3,0,0-24.347,40.411-43.581,33.087-17.567-6.7-39.6-24.563-42.7-28.38l-25.91-18.457s-17.723-33.787-9.889-50.68Z" transform="translate(-46.325 -125.085)" fill="#dce736"/>
      <path id="Trazado_159410" data-name="Trazado 159410" d="M155.444,257.432a2.756,2.756,0,0,1-.622-.13l-1.727-.466c-1.529-.389-3.757-.924-6.538-1.451a183.578,183.578,0,0,0-21.946-2.7,149.41,149.41,0,0,0-22.1.069c-2.824.242-5.087.6-6.642.864l-1.788.354a2.194,2.194,0,0,1-.63.086,2.987,2.987,0,0,1,.6-.19l1.771-.449a59.386,59.386,0,0,1,6.65-1.045,135.923,135.923,0,0,1,22.171-.216,162.565,162.565,0,0,1,21.963,2.867c2.781.579,5,1.166,6.529,1.624l1.727.561A2.7,2.7,0,0,1,155.444,257.432Z" transform="translate(-38.461 -123.713)" fill="#263238"/>
      <path id="Trazado_159411" data-name="Trazado 159411" d="M111.408,249.9a19.44,19.44,0,0,1-.864-4.448,20.6,20.6,0,0,1-.363-4.517,20.288,20.288,0,0,1,.864,4.448A19.491,19.491,0,0,1,111.408,249.9Z" transform="translate(-40.735 -122.232)" fill="#263238"/>
      <path id="Trazado_159412" data-name="Trazado 159412" d="M116.58,249.46a14.19,14.19,0,0,1-.622-9c.155,0-.078,2.038.1,4.517S116.727,249.416,116.58,249.46Z" transform="translate(-41.467 -122.167)" fill="#263238"/>
      <g id="Grupo_108837" data-name="Grupo 108837" transform="translate(55.335 128.447)" opacity="0.3">
        <path id="Trazado_159413" data-name="Trazado 159413" d="M93.85,254.025c18.6,3.291,37.466,0,57.158,2.358-19-3.938-38.813-5.8-57.158-2.358" transform="translate(-93.85 -252.217)"/>
      </g>
      <g id="Grupo_108838" data-name="Grupo 108838" transform="translate(13.916 202.579)" opacity="0.3">
        <path id="Trazado_159414" data-name="Trazado 159414" d="M54.622,416.886c-10.468-24.52-9.224-52.226-7.773-78.836Z" transform="translate(-45.893 -338.05)"/>
      </g>
      <path id="Trazado_159415" data-name="Trazado 159415" d="M45.41,322.73a1.476,1.476,0,0,1,.052.311c0,.233.069.535.112.907.086.864.216,2.012.371,3.515.3,3.083.743,7.488,1.278,12.955,1.062,10.9,2.513,25.971,4.249,42.6s3.455,31.662,4.854,42.527c.682,5.433,1.27,9.829,1.727,12.86.2,1.494.354,2.669.458,3.5.052.38.086.682.112.915a1.727,1.727,0,0,1,0,.311,1.294,1.294,0,0,1-.069-.3l-.164-.907c-.13-.864-.32-2-.553-3.455-.475-3.031-1.123-7.419-1.857-12.843-1.477-10.856-3.273-25.91-5.009-42.527s-3.126-31.705-4.094-42.614c-.466-5.432-.864-9.846-1.114-12.955-.112-1.5-.207-2.677-.268-3.515a4.087,4.087,0,0,0-.06-.924,1.443,1.443,0,0,1-.026-.354Z" transform="translate(-31.911 -133.382)" fill="#263238"/>
      <path id="Trazado_159416" data-name="Trazado 159416" d="M126.838,307.471a3.967,3.967,0,0,1-.76.043h-2.2c-1.9,0-4.664,0-8.067.095-6.814.155-16.22.656-26.541,1.874s-19.588,2.98-26.247,4.465c-3.334.717-6.046,1.339-7.868,1.8l-2.142.5a4.542,4.542,0,0,1-.751.138,4.243,4.243,0,0,1,.725-.242l2.116-.6c1.84-.518,4.517-1.192,7.842-1.961a248.364,248.364,0,0,1,52.857-6.3c3.455,0,6.175,0,8.084.069l2.194.086A4.733,4.733,0,0,1,126.838,307.471Z" transform="translate(-32.845 -131.278)" fill="#263238"/>
      <path id="Trazado_159417" data-name="Trazado 159417" d="M85.744,329.794c-.147,0,.13-11.133.6-24.857s.993-24.857,1.14-24.848-.13,11.133-.613,24.865S85.882,329.8,85.744,329.794Z" transform="translate(-37.405 -127.57)" fill="#263238"/>
      <path id="Trazado_159418" data-name="Trazado 159418" d="M153.993,325.7a6.493,6.493,0,0,1-.44-.7q-.458-.769-1.192-2.047l-4.387-7.54a64.906,64.906,0,0,1-5.5-11.72,38.166,38.166,0,0,1-1.641-7.5,45.215,45.215,0,0,1,0-8.239,43.857,43.857,0,0,1,3.921-15.347,25.591,25.591,0,0,1,3.878-5.778,22.033,22.033,0,0,1,4.647-3.878,17.714,17.714,0,0,1,8.248-2.764,11.469,11.469,0,0,1,3.2.181,29.81,29.81,0,0,0-3.178,0,17.93,17.93,0,0,0-8.067,2.867,21.938,21.938,0,0,0-4.526,3.861,25.29,25.29,0,0,0-3.757,5.7,43.9,43.9,0,0,0-3.843,15.183,45.564,45.564,0,0,0,0,8.127,38.6,38.6,0,0,0,1.589,7.4A67.528,67.528,0,0,0,148.3,315.21l4.241,7.618,1.114,2.1a4.7,4.7,0,0,1,.337.777Z" transform="translate(-44.894 -124.852)" fill="#263238"/>
      <g id="Grupo_108839" data-name="Grupo 108839" transform="translate(20.917 176.439)" opacity="0.3">
        <path id="Trazado_159419" data-name="Trazado 159419" d="M54.423,316.357a142.224,142.224,0,0,0,22.343-2.945,34.227,34.227,0,0,0-1.252,9.993,22.974,22.974,0,0,0,4.966-9.146,13.819,13.819,0,0,0,5.64,9.259,30.332,30.332,0,0,0,.5-10.183q16.678-2,33.131-5.484A224.7,224.7,0,0,0,54,316.029" transform="translate(-54 -307.784)"/>
      </g>
      <path id="Trazado_159420" data-name="Trazado 159420" d="M212.589,376.342a2.359,2.359,0,0,1-.51-.3l-1.425-.95c-1.226-.864-2.988-2.047-5.182-3.576-4.318-3.04-10.286-7.315-16.773-12.152s-12.281-9.328-16.41-12.618c-2.073-1.641-3.748-2.988-4.9-3.93l-1.313-1.088a2.78,2.78,0,0,1-.44-.406,3.457,3.457,0,0,1,.5.337l1.365,1.019,4.983,3.817C176.7,349.724,182.516,354.163,189,359s12.359,9.146,16.678,12.273l5.078,3.7,1.373,1.01a3.6,3.6,0,0,1,.458.363Z" transform="translate(-48.302 -135.917)" fill="#263238"/>
      <path id="Trazado_159421" data-name="Trazado 159421" d="M252.522,347.755c-.078,0,0-1.313-.181-3.394a35.618,35.618,0,0,0-4.8-15.468c-1.062-1.805-1.84-2.85-1.779-2.9a3.515,3.515,0,0,1,.613.691,24.018,24.018,0,0,1,1.434,2.047,31.593,31.593,0,0,1,4.854,15.615,22.344,22.344,0,0,1,0,2.5,3.505,3.505,0,0,1-.138.915Z" transform="translate(-59.224 -133.827)" fill="#263238"/>
      <path id="Trazado_159422" data-name="Trazado 159422" d="M259.465,346.1a25.04,25.04,0,0,1,.216-2.66,33.93,33.93,0,0,0-.121-6.391,33.426,33.426,0,0,0-1.339-6.253c-.492-1.572-.864-2.513-.812-2.548a2.41,2.41,0,0,1,.354.631,18.471,18.471,0,0,1,.76,1.814,27.741,27.741,0,0,1,1.468,12.782c-.1.82-.216,1.486-.32,1.935a2.591,2.591,0,0,1-.207.691Z" transform="translate(-60.812 -134.135)" fill="#263238"/>
      <path id="Trazado_159423" data-name="Trazado 159423" d="M302.032,332.092a.472.472,0,0,0-.2-.328,1.019,1.019,0,0,1-.354-.38c-.1-.181-.164-.4-.285-.6-.233-.44-.812-.769-1.226-1.408a9.129,9.129,0,0,1-1.036-2.28,15.33,15.33,0,0,0-2.971-5.6,25.047,25.047,0,0,0-2.669-2.66,28.5,28.5,0,0,0-3.221-2.461,26.426,26.426,0,0,0-3.455-2.133l-3.455-1.676c-1.088-.518-2.107-1.054-3.1-1.477L277.3,309.9a10.958,10.958,0,0,1-1.2-.544c-.371-.216-.674-.458-.985-.63l-.864-.475c-.276-.147-.51-.345-.717-.475-.423-.268-.795-.415-1.036-.544s-.363-.2-.354-.216a1.726,1.726,0,0,1,.389.138,8.159,8.159,0,0,1,1.1.475,12,12,0,0,0,1.641.864c.337.164.656.406,1,.6s.777.328,1.192.51l2.781,1.123c.993.406,2.03.941,3.135,1.451l3.455,1.65a26.182,26.182,0,0,1,3.5,2.159,26.7,26.7,0,0,1,3.265,2.5,24.182,24.182,0,0,1,2.695,2.721,15.209,15.209,0,0,1,2.954,5.761,9.543,9.543,0,0,0,.941,2.246c.363.6.924.959,1.166,1.46.13.242.181.466.259.63a1.141,1.141,0,0,0,.294.38C302.118,331.911,302.04,332.11,302.032,332.092Z" transform="translate(-62.821 -131.241)" fill="#263238"/>
      <path id="Trazado_159424" data-name="Trazado 159424" d="M178.425,449.172c-.121,0-.225-21.851-.225-48.806s.1-48.806.225-48.806.225,21.851.225,48.806S178.554,449.172,178.425,449.172Z" transform="translate(-50.014 -137.313)" fill="#263238"/>
    </g>
  </g>
</svg>
