<svg xmlns="http://www.w3.org/2000/svg" width="157" height="157" viewBox="0 0 157 157">
  <g id="Grupo_109457" data-name="Grupo 109457" transform="translate(6008 10293)">
    <g id="Elipse_4730" data-name="Elipse 4730" transform="translate(-6008 -10293)" fill="#fff" stroke="#75b62f" stroke-width="4">
      <circle cx="78.5" cy="78.5" r="78.5" stroke="none"/>
      <circle cx="78.5" cy="78.5" r="76.5" fill="none"/>
    </g>
    <g id="Grupo_109381" data-name="Grupo 109381" transform="translate(-9073.533 -12854.631)">
      <path id="Trazado_160561" data-name="Trazado 160561" d="M3112.881,2625.513a8.541,8.541,0,1,1,10.278,1.492,14.636,14.636,0,0,1,4.265,3.815,1.76,1.76,0,0,1,2.2-1.345c.563.065.735-.108.74-.705a50.515,50.515,0,0,1,.122-6.737,13.917,13.917,0,0,1,8.327-11.212c.08-.038.161-.073.237-.118a1.038,1.038,0,0,0,.136-.113,8.551,8.551,0,1,1,10.691,0,16.957,16.957,0,0,1,3.814,2.344,14.119,14.119,0,0,1,5.065,10.9c.024,1.627.036,3.256-.012,4.882-.018.623.142.84.771.765a1.7,1.7,0,0,1,2.145,1.329,14.422,14.422,0,0,1,4.322-3.778,8.605,8.605,0,0,1-4.361-7.986,8.141,8.141,0,0,1,2.533-5.6,8.527,8.527,0,0,1,11.594-.329,8.619,8.619,0,0,1,.47,12.433,18.078,18.078,0,0,1,3.825,1.577,14,14,0,0,1,7.114,12.122c.081,2.305.019,4.616.013,6.924,0,1.267-.5,1.76-1.779,1.765-1.479.006-2.959.016-4.438-.008a.9.9,0,0,0-.932.477,9.2,9.2,0,0,1-1.76,1.962,14.52,14.52,0,0,1,5.669,4.177,13.837,13.837,0,0,1,3.219,8.545c.068,2.425.026,4.853.02,7.279,0,1.209-.516,1.717-1.736,1.717-5.948.005-11.9.015-17.844-.014-.716,0-.885.151-.733.866.2.951.261,1.932.384,2.9.167,1.323-.406,1.931-1.84,1.932q-15.092,0-30.184,0-5.77,0-11.541,0c-1.465,0-2-.611-1.811-2.035.133-1,.2-2.006.416-2.984.162-.737-.221-.667-.689-.666q-7.724.009-15.447,0c-.917,0-1.835.021-2.752-.008a1.344,1.344,0,0,1-1.441-1.368,72.467,72.467,0,0,1,.13-8.867,13.782,13.782,0,0,1,8.369-11.265c.106-.049.2-.116.367-.21a10.347,10.347,0,0,1-1.893-2.194c-.2-.348-.511-.231-.785-.233-1.539-.011-3.078.006-4.616-.01-.936-.009-1.575-.493-1.568-1.33.027-3.015-.3-6.05.149-9.041.905-6.012,4.385-9.9,10.135-11.789C3112.461,2625.7,3112.718,2625.725,3112.881,2625.513Zm11.343,20.938a9.193,9.193,0,0,1-2.816,3.911,17.567,17.567,0,0,1,3.418,1.947c.241-2,.469-3.891.7-5.78q.64-5.013,1.276-10.027a2.592,2.592,0,0,0-.006-1.055c-1.083-3.848-5.85-7.374-9.953-7.352a11.327,11.327,0,0,0-11.681,8.385c-.7,2.735-.269,5.533-.383,8.3-.013.305.171.32.4.318.849-.005,1.7,0,2.559,0a8.557,8.557,0,0,1,15.478-6.262A9.022,9.022,0,0,1,3124.224,2646.451Zm40.673.032a11.393,11.393,0,0,1-.445-2.345,8.522,8.522,0,1,1,17,.261c-.054.655.133.729.667.7.56-.034,1.125-.023,1.686,0,.35.013.542-.044.526-.469a65.08,65.08,0,0,0-.153-6.734,11.338,11.338,0,0,0-21.489-3.262,3.491,3.491,0,0,0-.368,2.046c.444,3.28.852,6.564,1.272,9.847l.69,5.823a16.964,16.964,0,0,1,3.425-1.986A8.954,8.954,0,0,1,3164.9,2646.483Zm-20.356,28.432q9.453,0,18.906.01c.584,0,.809-.043.7-.761-.323-2.07-.525-4.159-.782-6.239q-.741-5.977-1.491-11.952-.759-6.063-1.522-12.126c-.439-3.516-.887-7.03-1.293-10.549-.086-.747-.339-.994-1.135-.991-8.846.029-17.693.011-26.54.007-1.222,0-1.218,0-1.368,1.2q-.794,6.375-1.592,12.75c-1.143,9.262-2.261,18.528-3.445,27.785-.111.866.164.88.835.878C3132.054,2674.908,3138.3,2674.916,3144.54,2674.916Zm.024-45.446v-.022c3.52,0,7.04,0,10.56-.009.3,0,.789.211.767-.411-.093-2.681.292-5.386-.359-8.04a11.328,11.328,0,0,0-22.195,1.106c-.308,2.179-.054,4.372-.16,6.555-.032.663.156.844.827.837C3137.523,2629.451,3141.044,2629.47,3144.564,2629.47Zm-30.88,39.778c2.781,0,5.562-.014,8.342.013.517.005.7-.12.761-.656.481-4.079,1-8.155,1.511-12.23a1.125,1.125,0,0,0-.4-1.089,10.968,10.968,0,0,0-11.37-2.466,10.856,10.856,0,0,0-7.578,8.913c-.4,2.225-.071,4.489-.189,6.731-.038.715.229.8.848.8C3108.3,2669.229,3110.992,2669.248,3113.684,2669.248Zm61.63,0v-.013c2.722,0,5.444-.03,8.165.019.728.013.872-.22.853-.887-.046-1.626.035-3.256-.025-4.881-.177-4.789-2.412-8.321-6.8-10.245-4.423-1.941-8.54-1.141-12.219,1.976a1.241,1.241,0,0,0-.493,1.224c.519,4.016,1.035,8.032,1.5,12.055.079.685.353.771.944.765C3169.929,2669.231,3172.621,2669.248,3175.314,2669.248Zm-62.012-49.775a5.676,5.676,0,1,0,5.748-5.618A5.672,5.672,0,0,0,3113.3,2619.472Zm62.493.185a5.676,5.676,0,1,0-5.744,5.541A5.692,5.692,0,0,0,3175.795,2619.657Zm-53.987,23.976a5.674,5.674,0,1,0-5.591,5.711A5.689,5.689,0,0,0,3121.808,2643.633Zm51.133-5.624a5.667,5.667,0,1,0,5.693,5.609A5.661,5.661,0,0,0,3172.94,2638.01Zm-28.349-39.768a5.658,5.658,0,1,0-.111,11.316,5.658,5.658,0,1,0,.111-11.316Z" transform="translate(0)" fill="#020202"/>
      <path id="Trazado_160562" data-name="Trazado 160562" d="M3218.731,2793.585c-6.243,0-12.486-.008-18.729.011-.671,0-.946-.011-.835-.878,1.184-9.257,2.3-18.523,3.445-27.785q.787-6.376,1.592-12.75c.15-1.2.146-1.2,1.368-1.2,8.847,0,17.693.022,26.54-.007.8,0,1.048.244,1.135.991.406,3.519.855,7.033,1.293,10.549q.756,6.064,1.522,12.126.748,5.976,1.491,11.952c.258,2.08.459,4.169.782,6.239.112.718-.113.762-.7.761Q3228.184,2793.572,3218.731,2793.585Z" transform="translate(-74.191 -118.67)" fill="#f85316"/>
      <path id="Trazado_160563" data-name="Trazado 160563" d="M3245.174,2684.232c-3.52,0-7.041-.019-10.56.017-.671.007-.859-.175-.827-.837.106-2.183-.147-4.376.16-6.555a11.328,11.328,0,0,1,22.194-1.106c.651,2.654.267,5.358.359,8.04.021.623-.469.41-.767.411-3.52.013-7.04.009-10.56.009Z" transform="translate(-100.611 -54.763)" fill="#75b62f"/>
      <path id="Trazado_160564" data-name="Trazado 160564" d="M3122.934,2851.75c-2.692,0-5.384-.018-8.076.014-.619.007-.886-.082-.848-.8.118-2.242-.208-4.506.189-6.731a10.856,10.856,0,0,1,7.578-8.913,10.968,10.968,0,0,1,11.37,2.466,1.126,1.126,0,0,1,.4,1.089c-.516,4.075-1.03,8.151-1.511,12.23-.063.536-.244.661-.761.656C3128.5,2851.736,3125.715,2851.75,3122.934,2851.75Z" transform="translate(-9.251 -182.503)" fill="#75b62f"/>
      <path id="Trazado_160565" data-name="Trazado 160565" d="M3377.5,2851.819c-2.692,0-5.385-.017-8.077.013-.591.006-.864-.08-.943-.765-.463-4.022-.979-8.039-1.5-12.055a1.24,1.24,0,0,1,.493-1.224c3.68-3.118,7.8-3.917,12.22-1.977,4.387,1.924,6.622,5.456,6.8,10.245.06,1.625-.021,3.255.025,4.881.019.667-.125.9-.853.887-2.721-.049-5.443-.02-8.165-.02Z" transform="translate(-202.184 -182.571)" fill="#dce736"/>
      <path id="Trazado_160566" data-name="Trazado 160566" d="M3357.77,2751.745c-.421-3.283-.829-6.567-1.272-9.847a3.49,3.49,0,0,1,.368-2.047,11.338,11.338,0,0,1,21.489,3.262,64.943,64.943,0,0,1,.153,6.734c.016.425-.175.483-.526.469-.561-.02-1.125-.032-1.686,0-.533.032-.721-.042-.667-.7a8.522,8.522,0,1,0-17-.261,11.4,11.4,0,0,0,.445,2.346Z" transform="translate(-194.179 -105.224)" fill="#75b62f"/>
      <path id="Trazado_160567" data-name="Trazado 160567" d="M3132.463,2743.876a8.557,8.557,0,0,0-15.478,6.262c-.86,0-1.71,0-2.559,0-.228,0-.412-.013-.4-.318.114-2.768-.321-5.566.383-8.3a11.328,11.328,0,0,1,11.681-8.386c.032.361.354.446.59.6a12.61,12.61,0,0,1,4.1,4.293A11.87,11.87,0,0,1,3132.463,2743.876Z" transform="translate(-9.251 -105.041)" fill="#dce736"/>
      <path id="Trazado_160568" data-name="Trazado 160568" d="M3150.052,2678.843a5.676,5.676,0,1,1,5.639,5.727A5.671,5.671,0,0,1,3150.052,2678.843Z" transform="translate(-36.75 -59.371)" fill="#fee4c1"/>
      <path id="Trazado_160569" data-name="Trazado 160569" d="M3376.9,2679.027a5.676,5.676,0,1,1-5.57-5.8A5.7,5.7,0,0,1,3376.9,2679.027Z" transform="translate(-201.108 -59.37)" fill="#fee4c1"/>
      <path id="Trazado_160570" data-name="Trazado 160570" d="M3149.426,2780.632a5.674,5.674,0,1,1-5.678-5.624A5.7,5.7,0,0,1,3149.426,2780.632Z" transform="translate(-27.618 -136.999)" fill="#fee4c1"/>
      <path id="Trazado_160571" data-name="Trazado 160571" d="M3383.175,2775.008a5.667,5.667,0,1,1-5.655,5.635A5.692,5.692,0,0,1,3383.175,2775.008Z" transform="translate(-210.235 -136.999)" fill="#fee4c1"/>
      <path id="Trazado_160572" data-name="Trazado 160572" d="M3263.52,2607.436a5.658,5.658,0,1,1-5.717,5.556A5.644,5.644,0,0,1,3263.52,2607.436Z" transform="translate(-118.929 -9.195)" fill="#fee4c1"/>
      <path id="Trazado_160573" data-name="Trazado 160573" d="M3171.33,2743.969a11.864,11.864,0,0,0-1.683-5.847,12.6,12.6,0,0,0-4.1-4.293c-.237-.155-.558-.24-.59-.6,4.1-.021,8.87,3.5,9.953,7.352a2.593,2.593,0,0,1,.006,1.055q-.63,5.015-1.276,10.027l-1.3-.078A9.021,9.021,0,0,0,3171.33,2743.969Z" transform="translate(-48.119 -105.134)" fill="#c8cc32"/>
    </g>
  </g>
</svg>
