<svg xmlns="http://www.w3.org/2000/svg" width="157" height="157" viewBox="0 0 157 157">
  <g id="Grupo_109457" data-name="Grupo 109457" transform="translate(7088 10293)">
    <g id="Elipse_4730" data-name="Elipse 4730" transform="translate(-7088 -10293)" fill="#fff" stroke="#75b62f" stroke-width="4">
      <circle cx="78.5" cy="78.5" r="78.5" stroke="none"/>
      <circle cx="78.5" cy="78.5" r="76.5" fill="none"/>
    </g>
    <g id="Grupo_108813" data-name="Grupo 108813" transform="translate(-7410.648 -10339.118)">
      <path id="Trazado_158530" data-name="Trazado 158530" d="M489.112,85.252A3.209,3.209,0,0,0,487.1,82a2.867,2.867,0,0,0-3.4,1.069,42.061,42.061,0,0,0-2.316,4.324,2.859,2.859,0,0,0,.969,3.43,2.746,2.746,0,0,0,3.548.048C487.6,89.258,488.356,87.055,489.112,85.252ZM494.384,95.6a3,3,0,0,0-3.924-2.881c-1.285.355-2.559.753-3.825,1.17a3,3,0,0,0-1.979,3.726,2.97,2.97,0,0,0,3.606,2.064c1.425-.363,2.831-.817,4.219-1.3A2.87,2.87,0,0,0,494.384,95.6Zm-7.915,10.364a2.645,2.645,0,0,0,1.406,2.134c1.272.736,2.565,1.444,3.894,2.069a2.993,2.993,0,0,0,2.792-5.278,41.332,41.332,0,0,0-3.892-2.07C488.7,101.917,486.5,103.371,486.469,105.963Z" transform="translate(-62.75 -0.921)" fill="#fdfdfd"/>
      <path id="Trazado_158531" data-name="Trazado 158531" d="M371.182,165.417c-.131-.28-.428-.224-.647-.294a7,7,0,0,1-5.041-6.821q-.021-10.42.014-20.84c0-.7-.159-.9-.858-.855-1.112.066-2.231.024-3.347.015a2.908,2.908,0,0,1-2.81-1.752,2.852,2.852,0,0,1,.434-3.206c1.9-2.268,3.789-4.539,5.724-6.773a4.868,4.868,0,0,1,3.868-1.662c4.157.007,8.313,0,12.531,0a13.1,13.1,0,0,0-.927-1.863c-.165-.353-.417-.178-.639-.129-4.344.967-7.673-.966-8.963-5.209q-1.031-3.393-2.06-6.786a7.012,7.012,0,0,1,5.071-9.274,52.8,52.8,0,0,0,17.788-8.757,32.7,32.7,0,0,0,5.373-5.136,5.294,5.294,0,0,0,1.252-2.206,5,5,0,0,1,4.694-3.845,5.084,5.084,0,0,1,5.2,3.527c.806,2.457,1.549,4.935,2.281,7.415a.8.8,0,0,0,.84.685,8.6,8.6,0,0,1,4.631,15.438.676.676,0,0,0-.263.9c.73,2.306,1.416,4.626,2.125,6.94.816,2.667.038,5.038-2.092,6.368a5.211,5.211,0,0,1-6.567-.9,1.157,1.157,0,0,0-.476-.317,35.658,35.658,0,0,0-12.678-1.753,1.37,1.37,0,0,0-.257.092c1.046,1.492,1.524,3.048.249,4.813h.978c11.913,0,23.826.015,35.739-.015a5.734,5.734,0,0,1,4.794,2.23c1.718,2.125,3.528,4.174,5.267,6.283a2.826,2.826,0,0,1,.351,3.216,2.878,2.878,0,0,1-2.692,1.673c-1.171.021-2.345.046-3.514-.01-.628-.03-.775.143-.772.77q.038,10.461.011,20.923a7.061,7.061,0,0,1-5.2,6.882c-.272.074-.623-.09-.824.234Zm39.172-38.423c-2,2.363-3.874,4.533-5.69,6.752a7.6,7.6,0,0,1-6.276,2.892c-10.013-.032-20.026-.005-30.039-.03-.689,0-.869.154-.866.857.03,6.833.017,13.666.019,20.5a5.051,5.051,0,0,0,5.412,5.442q18.283,0,36.566.021c.761,0,.893-.209.892-.918q-.034-17.278-.017-34.557Zm2.1.094a1.268,1.268,0,0,0-.074.2q-.007,17.777-.023,35.556c0,.52.206.571.637.57,5.271-.012,10.542.011,15.813-.017a4.968,4.968,0,0,0,4.981-5.023c.021-7.028,0-14.055.021-21.083,0-.565-.172-.684-.7-.68-2.956.024-5.913-.017-8.868.021A7.406,7.406,0,0,1,418.1,133.8C416.264,131.564,414.377,129.369,412.451,127.088ZM398.241,87.6c-.126.021-.163.016-.177.031-.4.426-.791.859-1.2,1.281-4.9,5.116-10.871,8.561-17.373,11.174-.643.259-.755.509-.556,1.148,1.539,4.944,3.041,9.9,4.558,14.849.536,1.748.535,1.721,2.3,1.37,6.962-1.383,13.927-1.735,20.883.048.611.157.724.048.528-.575-.985-3.134-1.928-6.28-2.888-9.421Q401.288,97.561,398.241,87.6Zm10.953,37.644H387.571q-9.456,0-18.912-.006a3.061,3.061,0,0,0-2.485.967c-1.892,2.2-3.753,4.422-5.626,6.635a1.057,1.057,0,0,0-.2,1.238,1.04,1.04,0,0,0,1.054.541c.222-.011.446,0,.669,0,11.967,0,23.933-.03,35.9.026a6.341,6.341,0,0,0,5.436-2.5C405.228,129.832,407.183,127.625,409.194,125.242Zm3.606-5.178a4.565,4.565,0,0,0,.644-.106,3.158,3.158,0,0,0,2.144-4.218q-3.4-11.125-6.814-22.245c-.927-3.03-1.828-6.069-2.766-9.1a3.154,3.154,0,0,0-4.51-2.032,3.244,3.244,0,0,0-1.488,4.15q3.019,9.846,6.039,19.692c1.163,3.8,2.313,7.606,3.476,11.407A3.213,3.213,0,0,0,412.8,120.064Zm.712,5.178c2.323,2.735,4.493,5.348,6.733,7.9a4.527,4.527,0,0,0,3.526,1.471c5.326.008,10.652,0,15.978.009.507,0,.967-.074,1.206-.566a1.19,1.19,0,0,0-.332-1.367q-2.679-3.156-5.346-6.322a3.083,3.083,0,0,0-2.5-1.127c-1.422.013-2.844,0-4.266,0Zm-35.745-5.7a25.213,25.213,0,0,0,4.012-1.127c.349-.094.241-.272.173-.5q-2.5-8.168-4.985-16.34c-.1-.34-.2-.513-.628-.364-.943.329-1.92.561-2.865.885a4.93,4.93,0,0,0-3.242,6.062c.756,2.672,1.589,5.324,2.452,7.964A5.072,5.072,0,0,0,377.768,119.542Zm36.783-14.134a6.557,6.557,0,0,0,2.241-6.719,6.4,6.4,0,0,0-5.036-4.91c-.576-.144-.81-.062-.585.632.687,2.113,1.312,4.247,1.963,6.373C413.593,102.289,414.055,103.793,414.551,105.408Zm-24.956,17.823c-.717-1.319-1.358-2.486-1.985-3.661-.134-.25-.285-.395-.588-.333a44.887,44.887,0,0,0-4.619,1.107c-.232.073-.458.139-.3.442.4.762.819,1.517,1.236,2.272.116.209.33.173.521.173ZM394.418,121a8.559,8.559,0,0,0-1.358-2.464c-.044-.069-.258-.049-.389-.037-.857.079-1.713.184-2.572.247-.573.042-.529.283-.3.678.389.671.707,1.388,1.135,2.032.308.463.276,1.317,1.015,1.3a5.036,5.036,0,0,0,1.734-.537A1.335,1.335,0,0,0,394.418,121Z" transform="translate(0 0)" fill="#030202"/>
      <path id="Trazado_158532" data-name="Trazado 158532" d="M489.112,85.252c-.756,1.8-1.509,4.006-3.214,5.624a2.746,2.746,0,0,1-3.548-.048,2.859,2.859,0,0,1-.969-3.43,42.061,42.061,0,0,1,2.316-4.324A2.867,2.867,0,0,1,487.1,82,3.209,3.209,0,0,1,489.112,85.252Zm-4.889,4.135a.838.838,0,0,0,.785-.395c.677-1.247,1.361-2.491,1.988-3.763a.888.888,0,0,0-.486-1.255.872.872,0,0,0-1.236.348c-.7,1.235-1.373,2.485-1.983,3.766A.93.93,0,0,0,484.223,89.386Z" transform="translate(-62.75 -0.921)" fill="#050404"/>
      <path id="Trazado_158533" data-name="Trazado 158533" d="M497.914,106.816a2.87,2.87,0,0,1-1.9,2.775c-1.388.488-2.794.941-4.219,1.3a2.97,2.97,0,0,1-3.606-2.064,3,3,0,0,1,1.979-3.726c1.266-.417,2.54-.815,3.825-1.17A3,3,0,0,1,497.914,106.816Zm-6.772,2.215c1.447-.47,2.907-.906,4.334-1.429a.849.849,0,0,0,.381-1.156.864.864,0,0,0-1.046-.628c-1.39.379-2.767.811-4.134,1.27a.868.868,0,0,0-.578,1.073A1.06,1.06,0,0,0,491.142,109.031Z" transform="translate(-66.281 -12.138)" fill="#050404"/>
      <path id="Trazado_158534" data-name="Trazado 158534" d="M492.018,127.56c.029-2.592,2.233-4.046,4.2-3.145a41.33,41.33,0,0,1,3.892,2.07,2.993,2.993,0,0,1-2.791,5.278c-1.328-.626-2.622-1.333-3.894-2.069A2.645,2.645,0,0,1,492.018,127.56Zm6.5,2.465a1,1,0,0,0,.413-1.915c-1.076-.584-2.155-1.162-3.241-1.727-.721-.375-1.347-.257-1.578.318-.283.7.042,1.16.676,1.484,1.016.52,2.016,1.068,3.025,1.6A1.379,1.379,0,0,0,498.518,130.024Z" transform="translate(-68.299 -22.518)" fill="#050404"/>
      <path id="Trazado_158535" data-name="Trazado 158535" d="M420.042,175.948v.96q0,17.278.017,34.557c0,.709-.131.92-.892.918q-18.283-.043-36.566-.021a5.051,5.051,0,0,1-5.412-5.442c0-6.833.011-13.666-.019-20.5,0-.7.177-.859.866-.857,10.013.025,20.026,0,30.039.03a7.6,7.6,0,0,0,6.276-2.892C416.168,180.481,418.046,178.311,420.042,175.948Zm-32.515,32.4c1.393,0,2.787.01,4.179,0a2.036,2.036,0,0,0,2.219-2.242c.01-1,.018-2.006,0-3.008a1.988,1.988,0,0,0-2.1-2.106q-4.263-.028-8.526,0a1.988,1.988,0,0,0-2.092,2.11c-.019,1-.013,2.006,0,3.009a2.04,2.04,0,0,0,2.225,2.237C384.8,208.354,386.162,208.345,387.527,208.345Zm24.818-5.691c.921,0,1.841.008,2.761,0,.8-.01,1.29-.4,1.24-1.026-.057-.72-.522-.986-1.2-.984q-2.8.01-5.606,0c-.683,0-1.146.268-1.2.989-.046.629.435,1.011,1.246,1.02C410.5,202.662,411.424,202.654,412.345,202.654Zm-.042,5.357c.92,0,1.841-.011,2.761,0,.7.011,1.223-.216,1.282-.991.048-.626-.439-1.016-1.245-1.02q-2.762-.012-5.523,0c-.8,0-1.291.4-1.24,1.024.064.775.584,1,1.287.986C410.518,208,411.41,208.011,412.3,208.011Z" transform="translate(-9.687 -48.954)" fill="#b1ba2c"/>
      <path id="Trazado_158536" data-name="Trazado 158536" d="M468.905,176.14c1.926,2.281,3.812,4.476,5.654,6.709a7.406,7.406,0,0,0,6.131,2.837c2.956-.038,5.912,0,8.868-.021.529,0,.7.115.7.68-.02,7.028,0,14.055-.021,21.083a4.968,4.968,0,0,1-4.981,5.023c-5.271.028-10.542,0-15.812.017-.431,0-.638-.051-.637-.57q.028-17.778.023-35.556A1.264,1.264,0,0,1,468.905,176.14Z" transform="translate(-56.454 -49.052)" fill="#dce736"/>
      <path id="Trazado_158537" data-name="Trazado 158537" d="M419.778,95.493q3.05,9.974,6.084,19.9c.96,3.141,1.9,6.288,2.888,9.421.2.623.083.732-.528.575-6.956-1.783-13.92-1.43-20.883-.047-1.77.351-1.769.378-2.3-1.37-1.517-4.95-3.02-9.905-4.558-14.849-.2-.639-.087-.89.556-1.148,6.5-2.613,12.477-6.058,17.372-11.174.4-.422.8-.855,1.2-1.281C419.615,95.509,419.651,95.514,419.778,95.493Z" transform="translate(-21.536 -7.894)" fill="#ff642b"/>
      <path id="Trazado_158538" data-name="Trazado 158538" d="M411.316,172.364c-2.011,2.383-3.966,4.59-5.792,6.9a6.34,6.34,0,0,1-5.436,2.5c-11.966-.056-23.932-.026-35.9-.026-.223,0-.447-.009-.669,0a1.04,1.04,0,0,1-1.054-.541,1.057,1.057,0,0,1,.2-1.238c1.873-2.213,3.735-4.437,5.626-6.635a3.061,3.061,0,0,1,2.485-.967q9.456.018,18.912.006Z" transform="translate(-2.122 -47.122)" fill="#b1ba2c"/>
      <path id="Trazado_158539" data-name="Trazado 158539" d="M456.166,122.131a3.213,3.213,0,0,1-3.275-2.448c-1.162-3.8-2.312-7.606-3.476-11.407q-3.014-9.847-6.039-19.692a3.244,3.244,0,0,1,1.488-4.15,3.154,3.154,0,0,1,4.51,2.032c.938,3.027,1.839,6.065,2.766,9.1q3.4,11.124,6.814,22.245a3.158,3.158,0,0,1-2.144,4.218A4.566,4.566,0,0,1,456.166,122.131Z" transform="translate(-43.365 -2.067)" fill="#ebebeb"/>
      <path id="Trazado_158540" data-name="Trazado 158540" d="M471.174,172.367h15c1.422,0,2.844.01,4.266,0a3.083,3.083,0,0,1,2.5,1.127q2.676,3.158,5.346,6.322a1.19,1.19,0,0,1,.333,1.367c-.239.491-.7.567-1.206.566-5.326-.008-10.652,0-15.978-.009a4.526,4.526,0,0,1-3.526-1.471C475.667,177.715,473.5,175.1,471.174,172.367Z" transform="translate(-57.662 -47.125)" fill="#dce736"/>
      <path id="Trazado_158541" data-name="Trazado 158541" d="M390.12,141.572a5.072,5.072,0,0,1-5.083-3.417c-.863-2.64-1.7-5.292-2.452-7.964a4.93,4.93,0,0,1,3.242-6.062c.945-.324,1.922-.556,2.865-.885.425-.149.525.024.628.364q2.485,8.172,4.985,16.34c.069.224.176.4-.173.5A25.214,25.214,0,0,1,390.12,141.572Z" transform="translate(-12.352 -22.03)" fill="#ebebeb"/>
      <path id="Trazado_158542" data-name="Trazado 158542" d="M469.684,119.682c-.5-1.615-.957-3.12-1.418-4.624-.65-2.126-1.276-4.26-1.963-6.373-.225-.694.009-.776.585-.632a6.4,6.4,0,0,1,5.036,4.91A6.557,6.557,0,0,1,469.684,119.682Z" transform="translate(-55.133 -14.274)" fill="#ff642b"/>
      <path id="Trazado_158543" data-name="Trazado 158543" d="M414.467,164.088h-5.732c-.191,0-.406.036-.521-.173-.417-.755-.833-1.51-1.236-2.272-.16-.3.066-.369.3-.442a44.891,44.891,0,0,1,4.619-1.107c.3-.061.454.084.588.333C413.109,161.6,413.75,162.769,414.467,164.088Z" transform="translate(-24.872 -40.856)" fill="#ff642b"/>
      <path id="Trazado_158544" data-name="Trazado 158544" d="M427.2,161.081a1.335,1.335,0,0,1-.734,1.223,5.036,5.036,0,0,1-1.734.537c-.739.013-.708-.841-1.015-1.3-.427-.644-.745-1.361-1.135-2.032-.23-.4-.273-.636.3-.678.859-.064,1.714-.168,2.572-.247.132-.012.345-.032.389.037A8.559,8.559,0,0,1,427.2,161.081Z" transform="translate(-32.782 -40.084)" fill="#f8f8f8"/>
      <path id="Trazado_158545" data-name="Trazado 158545" d="M486.369,91.493a.931.931,0,0,1-.932-1.3c.61-1.28,1.285-2.531,1.983-3.766a.873.873,0,0,1,1.236-.348.888.888,0,0,1,.486,1.255c-.627,1.272-1.311,2.516-1.988,3.763A.841.841,0,0,1,486.369,91.493Z" transform="translate(-64.895 -3.027)" fill="#ff642b"/>
      <path id="Trazado_158546" data-name="Trazado 158546" d="M493.237,111.094a1.059,1.059,0,0,1-1.042-.87.868.868,0,0,1,.578-1.073c1.366-.459,2.744-.892,4.134-1.27a.864.864,0,0,1,1.046.628.849.849,0,0,1-.381,1.156C496.143,110.188,494.684,110.625,493.237,111.094Z" transform="translate(-68.375 -14.201)" fill="#ff642b"/>
      <path id="Trazado_158547" data-name="Trazado 158547" d="M500.594,132.129a1.379,1.379,0,0,1-.705-.239c-1.009-.533-2.009-1.082-3.025-1.6-.634-.324-.959-.781-.676-1.484.232-.575.857-.693,1.578-.318,1.086.565,2.165,1.143,3.241,1.727a1,1,0,0,1-.413,1.915Z" transform="translate(-70.375 -24.622)" fill="#ff642b"/>
      <path id="Trazado_158548" data-name="Trazado 158548" d="M391.724,234.426c-1.365,0-2.731.009-4.1,0a2.04,2.04,0,0,1-2.224-2.237c-.01-1-.017-2.006,0-3.009a1.988,1.988,0,0,1,2.092-2.11q4.263-.029,8.526,0a1.988,1.988,0,0,1,2.1,2.106c.021,1,.013,2.006,0,3.008a2.036,2.036,0,0,1-2.219,2.242C394.511,234.436,393.117,234.426,391.724,234.426Zm.041-5.357c-.558,0-1.116-.02-1.673,0-.881.038-2.093-.385-2.55.167-.442.534-.095,1.7-.141,2.588-.025.473.12.607.6.6,1.812-.028,3.626.006,5.438-.019.881-.012,2.125.391,2.545-.161.446-.587.105-1.759.144-2.674.017-.4-.106-.522-.51-.514C394.331,229.085,393.048,229.069,391.765,229.069Z" transform="translate(-13.885 -75.035)" fill="#010100"/>
      <path id="Trazado_158549" data-name="Trazado 158549" d="M444.826,228.391c-.92,0-1.841.008-2.761,0-.811-.009-1.292-.391-1.246-1.02.052-.721.516-.991,1.2-.989q2.8.009,5.606,0c.683,0,1.147.264,1.2.984.05.626-.436,1.016-1.24,1.026C446.667,228.4,445.747,228.391,444.826,228.391Z" transform="translate(-42.169 -74.691)" fill="#020100"/>
      <path id="Trazado_158550" data-name="Trazado 158550" d="M444.783,239.329c-.893,0-1.785-.012-2.678,0-.7.012-1.224-.211-1.287-.986-.051-.626.437-1.02,1.24-1.024q2.762-.014,5.523,0c.806,0,1.294.394,1.245,1.02-.059.775-.577,1-1.282.991C446.624,239.318,445.7,239.329,444.783,239.329Z" transform="translate(-42.168 -80.273)" fill="#020100"/>
      <path id="Trazado_158551" data-name="Trazado 158551" d="M393.767,231.051c1.283,0,2.566.016,3.849-.009.4-.008.527.112.51.514-.039.915.3,2.088-.144,2.675-.42.552-1.664.149-2.545.161-1.812.024-3.626-.009-5.438.019-.475.007-.62-.127-.6-.6.047-.887-.3-2.054.141-2.588.457-.552,1.669-.129,2.55-.167C392.651,231.031,393.21,231.051,393.767,231.051Z" transform="translate(-15.887 -77.017)" fill="#fdfdfd"/>
    </g>
  </g>
</svg>
