<svg xmlns="http://www.w3.org/2000/svg" width="157" height="157" viewBox="0 0 157 157">
  <g id="Grupo_109457" data-name="Grupo 109457" transform="translate(6368 10293)">
    <g id="Elipse_4730" data-name="Elipse 4730" transform="translate(-6368 -10293)" fill="#fff" stroke="#75b62f" stroke-width="4">
      <circle cx="78.5" cy="78.5" r="78.5" stroke="none"/>
      <circle cx="78.5" cy="78.5" r="76.5" fill="none"/>
    </g>
    <g id="Grupo_108811" data-name="Grupo 108811" transform="translate(-7179.735 -10349.439)">
      <path id="Trazado_158447" data-name="Trazado 158447" d="M930.313,178.376c1.172.332,1.423.718,1.245,1.918a4.507,4.507,0,0,1-4.255,3.829c-5.9.064-11.807.027-17.711.033a2.244,2.244,0,0,1-1.208-.486q-4.556-2.883-9.115-5.762c-2.77-1.755-2.941-4.8-.393-7a124.363,124.363,0,0,1-18.454-.029,4.086,4.086,0,0,1,1.878,3.6,3.821,3.821,0,0,1-1.921,3.285q-4.846,3.084-9.694,6.166a1.777,1.777,0,0,1-1.014.225c-5.668,0-11.335.006-17-.006a4.614,4.614,0,0,1-4.837-4.675q-.091-3.5,0-7a6.269,6.269,0,0,1,5.3-6.261c.412-.081.665-.166.714-.671.061-.632.533-1.366.329-1.842s-1.026-.707-1.568-1.057a23.469,23.469,0,0,1-5.183-4.387c-3.955-4.611-4.055-9.824-.221-14.536a2.609,2.609,0,0,0,.628-1.839c-.035-1.8-.016-3.6-.01-5.4.014-3.662,1.9-6,5.473-6.734.427-.088.476-.3.539-.646a9.64,9.64,0,0,1,4.551-6.747c.34-.211.435-.362.247-.756a8.533,8.533,0,0,1-.738-3.961c.053-2.035-.138-4.076.113-6.1a8.089,8.089,0,0,1,16.117.787,51.873,51.873,0,0,1-.129,7.426,1.362,1.362,0,0,1-.106.516c-.83,1.376-.259,2.1.945,3.007a9.194,9.194,0,0,1,3.483,7.073c.044.649.252.74.839.686,2-.185,4-.309,6-.455,1.257-.091,1.515.083,1.933,1.3-.169,1.057-.882,1.349-1.844,1.379a82.414,82.414,0,0,0-9.95.948,62.376,62.376,0,0,0-18.246,5.374c-3.232,1.588-6.24,3.494-8.348,6.523a7.86,7.86,0,0,0-.091,9.349,19.319,19.319,0,0,0,5.959,5.33c.76.491,1.245.523,1.759-.273a3.26,3.26,0,0,1,.963-.9,1.292,1.292,0,0,0,.609-1.254c-.026-3.012-.011-6.023-.013-9.035a8.782,8.782,0,0,1,.712-3.619,8.114,8.114,0,0,1,15.535,3.124c.046,3.188.013,6.377.011,9.566a1.144,1.144,0,0,0,.42,1.069,9.673,9.673,0,0,1,3.776,7.669c.023.687.288.85.863.888,1.119.072,2.237.159,3.353.255a97.707,97.707,0,0,0,17.768-.254c.637-.061.786-.308.82-.934a9.561,9.561,0,0,1,3.974-7.744c.937-.656,1.184-1.159.617-2.118a2.737,2.737,0,0,1-.25-1.025,52.241,52.241,0,0,1-.125-7.516,8.1,8.1,0,0,1,15.93-1.756c.553,2.151.219,4.349.3,6.525a9.553,9.553,0,0,1-.763,4.667c-.18.366-.029.522.261.7a8.773,8.773,0,0,1,2.514,2.206.423.423,0,0,0,.66.122,18.6,18.6,0,0,0,6.685-5.809,7.766,7.766,0,0,0-.013-8.98,13.561,13.561,0,0,0-2.827-3.152,37.579,37.579,0,0,0-12.276-6.319,77.678,77.678,0,0,0-19.439-3.536c-1.09-.079-1.359-.345-1.534-1.435.359-1.067.659-1.292,1.729-1.212,1.265.1,2.53.2,3.789.344.538.062.741-.013.784-.64a9.741,9.741,0,0,1,4.709-8.056c.313-.194.379-.331.21-.687a8.713,8.713,0,0,1-.748-4.135,48.983,48.983,0,0,1,.153-6.451,8.1,8.1,0,0,1,10.355-6.281.961.961,0,0,0,1.24-.345,5.456,5.456,0,0,1,9.53,2.9,39.112,39.112,0,0,1,.088,3.98c.009,3.72-.006,7.439.008,11.159a5.8,5.8,0,0,1-1.383,4.085.623.623,0,0,0-.145.782.531.531,0,0,1,.057.167,2.808,2.808,0,0,0,2.408,2.688c2.543.708,3.978,3.185,4.013,6.051.024,2.007.011,4.014,0,6.022a1.589,1.589,0,0,0,.359,1.135,12.23,12.23,0,0,1,2.942,5.943c.006.036.088.06.135.089v3.011a7.989,7.989,0,0,0-.636,1.872,16.051,16.051,0,0,1-5.032,6.487,26.514,26.514,0,0,1-3.787,2.586c-.36.2-.413.368-.339.81a2.423,2.423,0,0,0,2.083,2.339,6.085,6.085,0,0,1,4.264,5.793c.034,1.016-.261,1.376-1.328,1.624a1.4,1.4,0,0,1-1.342-1.458c-.274-2.525-1.695-3.748-4.249-3.746-1.032,0-2.065.019-3.1.03-2.384-.008-4.769-.055-7.153-.013a3.634,3.634,0,0,0-3.615,3.612c-.055,2.856-.009,5.713-.026,8.569,0,.423.125.553.548.55,3.768-.024,7.537-.028,11.306-.039,1.4.01,2.81.04,4.215.025a1.892,1.892,0,0,0,2.025-1.68A1.5,1.5,0,0,1,930.313,178.376Zm-19.145-70.748a5.539,5.539,0,0,0-3.194,5.672c.052.4.231.415.519.351q2.317-.514,4.634-1.033c1.75-.355,3.5-.723,5.254-1.058.459-.088.372-.3.286-.621A5.412,5.412,0,0,0,911.168,107.628Zm-47.476.014a5.875,5.875,0,0,0-3.169,5.628c.053.462.3.439.6.373,1.513-.332,3.023-.674,4.534-1.012,1.729-.353,3.455-.718,5.188-1.05.426-.081.509-.228.4-.648A5.439,5.439,0,0,0,863.693,107.642Zm-.13,15.469a5.388,5.388,0,0,0,7.753-3.605,31.518,31.518,0,0,0,.167-5.36l-5.667,1.286c-1.293.25-2.588.484-3.877.752-1.409.293-1.41.307-1.4,1.769A5.371,5.371,0,0,0,863.563,123.111Zm47.774.133a5.361,5.361,0,0,0,7.462-3.973,39.276,39.276,0,0,0,.128-5.113l-5.81,1.286c-1.095.22-2.191.437-3.285.663-1.917.395-1.916.4-1.842,2.366A5.293,5.293,0,0,0,911.337,123.244Zm-.357,36.3a5.341,5.341,0,0,0,7.8-3.834,29.486,29.486,0,0,0-.007-7.682,5.3,5.3,0,0,0-7.617-3.942,4.5,4.5,0,0,0-2.966,3.667,29.144,29.144,0,0,0-.015,8.182A4.6,4.6,0,0,0,910.98,159.543Zm-47.3-15.438c-2.322.99-3.108,2.936-3.131,5.256-.046,4.475-.016,8.951-.011,13.427a5.979,5.979,0,0,0,.656,2.807.793.793,0,0,0,.819.509c1.029-.036,2.06-.026,3.089-.035a6.385,6.385,0,0,1,3.377,1.166c.482.374.778.213,1.133-.112a5.238,5.238,0,0,0,1.842-3.881c.042-4.8.107-9.607-.012-14.406A5.342,5.342,0,0,0,863.685,144.105Zm-2.3,24.681c-2.445-.008-4.892-.061-7.335-.01a3.557,3.557,0,0,0-3.537,3.49c-.1,2.413-.066,4.833-.017,7.248a1.918,1.918,0,0,0,2.054,1.973c3.418.012,6.836-.012,10.254-.022,1.764.01,3.529.009,5.294.039.432.007.544-.144.541-.558-.017-2.854.031-5.709-.027-8.562a3.666,3.666,0,0,0-3.7-3.621C863.739,168.738,862.562,168.777,861.386,168.786ZM923.061,136.9c0-2.355.094-4.621-.025-6.876a6.707,6.707,0,0,0-3.5-5.516.743.743,0,0,0-1,.078,8.048,8.048,0,0,1-10.132.016.79.79,0,0,0-1.079-.062,7.381,7.381,0,0,0-3.558,6.262c-.033.539.184.686.694.762a75.231,75.231,0,0,1,11.624,2.635A62.018,62.018,0,0,1,923.061,136.9Zm-66.709,0c1.222-.519,2.316-1.013,3.432-1.451a70.484,70.484,0,0,1,15.2-3.9c.336-.051.691.016.73-.536a7.761,7.761,0,0,0-3.707-6.559.724.724,0,0,0-.924.144,8.063,8.063,0,0,1-10.134,0,.786.786,0,0,0-1.077-.046,6.622,6.622,0,0,0-3.258,4.329C856.065,131.5,856.5,134.161,856.353,136.9Zm51.825,37.3c0-.529,0-.852,0-1.176.006-4.28,2.664-6.924,6.969-6.928,2.418,0,4.837-.01,7.256.007.489,0,.663-.052.515-.623a7.191,7.191,0,0,0-3.335-4.487.8.8,0,0,0-1.083.074,8.065,8.065,0,0,1-10.126-.022.756.756,0,0,0-1.008-.078,6.887,6.887,0,0,0-3.46,4.978,38.766,38.766,0,0,0-.131,5.123.6.6,0,0,0,.31.582C905.4,172.465,906.716,173.288,908.178,174.2Zm15.867-58.709c0-1.711.015-3.421-.006-5.132a14.116,14.116,0,0,0-.1-3,2.812,2.812,0,0,0-4.545-1.519c-.435.368-.571.64-.078,1.116a6.554,6.554,0,0,1,2.047,3.839,36.934,36.934,0,0,1,.016,9.17c-.083.712-.746,1.514-.548,2.059.219.6,1.107.979,1.725,1.424.372.267.645.988,1.025.816.512-.233.408-.971.465-1.519a4.338,4.338,0,0,0,0-.442Zm-49.853,47.474c-.254,2.524-.824,4.207-2.2,5.48-.948.88-1.448,1.647-.874,2.945.358.81.105,1.768.25,2.726,1.357-.843,2.622-1.642,3.9-2.413a.87.87,0,0,0,.425-.881c-.017-1.177.032-2.357-.017-3.533A7.05,7.05,0,0,0,874.192,162.965ZM908.178,180.4a5.944,5.944,0,0,1,.006-.9,2.778,2.778,0,0,0-1.78-3.321c-1.6-.8-3.06-1.878-4.6-2.809a1.326,1.326,0,0,0-1.881.312,1.2,1.2,0,0,0,.369,1.709C902.86,177.048,905.449,178.67,908.178,180.4Zm-36.833-.069c2.572-1.627,5.059-3.192,7.536-4.773.863-.55,1.053-1.162.622-1.819a1.355,1.355,0,0,0-2.013-.3c-1.33.818-2.648,1.655-3.972,2.481-2.316,1.446-2.316,1.445-2.215,4.191C871.3,180.138,871.313,180.166,871.345,180.33ZM929,140.456a41.8,41.8,0,0,0-.1-5.113,3.531,3.531,0,0,0-2.476-2.856c-.469-.177-.694-.092-.683.487.03,1.622.011,3.246.009,4.869,0,.268,0,.507.282.684C926.992,139.131,927.937,139.761,929,140.456Zm-78.512-.016c1.026-.665,1.929-1.27,2.853-1.842a.814.814,0,0,0,.381-.815c-.012-1.593-.028-3.187.006-4.78.014-.645-.246-.686-.739-.494a3.549,3.549,0,0,0-2.482,3.24C850.421,137.269,850.49,138.8,850.49,140.44Zm7.347,22.382a6.2,6.2,0,0,0-.991,1.709c-.6,1.511-.448,1.707,1.148,1.574.343-.029.5-.1.362-.456A13.754,13.754,0,0,1,857.837,162.822Z" transform="translate(0 -8.423)" fill="#030303"/>
      <path id="Trazado_158448" data-name="Trazado 158448" d="M926.932,85.033c.247.34.642.182.96.261a9.712,9.712,0,0,1,5.045,15.693,1.9,1.9,0,0,0-.513,1.418c.035.854.024,1.713.006,2.568a1.341,1.341,0,0,1-2.136,1.227,6.518,6.518,0,0,1-1.21-.725c-1.364-1.17-2.99-1.188-4.649-1.179-.552,0-.375.307-.353.568a9.75,9.75,0,0,1-10.547,10.5,1.524,1.524,0,0,0-.991.251c-.908.548-1.817,1.093-2.745,1.607a1.362,1.362,0,0,1-2.183-1.25c0-.118-.007-.236,0-.354a6.981,6.981,0,0,0-1.314-4.8c-2.25-3.219-2.063-6.764-.052-10.084a9.009,9.009,0,0,1,8.847-4.579c.818.057.921-.1.879-.887a9.673,9.673,0,0,1,7.263-9.944c.228-.062.552.017.682-.3ZM910.272,113.7c.143.022.177.039.2.029a2.163,2.163,0,0,0,.39-.2,4.106,4.106,0,0,1,3.585-.771,1.572,1.572,0,0,0,.441,0,7.121,7.121,0,0,0,6.53-7.853,2.811,2.811,0,0,0-1.409-2.368,7.164,7.164,0,0,1-2.544-2.662A1.785,1.785,0,0,0,916.329,99a7.123,7.123,0,0,0-7.936,3.221,6.9,6.9,0,0,0,.968,8.327,2.686,2.686,0,0,1,.915,2.348A6.84,6.84,0,0,0,910.272,113.7Zm19.5-10.9c0-.291.015-.438,0-.58a3.325,3.325,0,0,1,1.067-2.916,6.418,6.418,0,0,0,1.573-6.16,6.978,6.978,0,0,0-13.777,1.224,6.829,6.829,0,0,0,5.557,7.162,5.362,5.362,0,0,0,2.106.076C927.611,101.36,928.6,102.13,929.774,102.806Z" transform="translate(-29.049 0)" fill="#030303"/>
      <path id="Trazado_158449" data-name="Trazado 158449" d="M897.384,159.137c.175,1.091.445,1.356,1.534,1.435a77.677,77.677,0,0,1,19.439,3.536,37.578,37.578,0,0,1,12.276,6.319,13.559,13.559,0,0,1,2.827,3.152,7.766,7.766,0,0,1,.013,8.98,18.6,18.6,0,0,1-6.685,5.809.423.423,0,0,1-.66-.122,8.775,8.775,0,0,0-2.514-2.206c-.291-.175-.441-.331-.261-.7a9.549,9.549,0,0,0,.763-4.667c-.081-2.176.253-4.374-.3-6.525a8.1,8.1,0,0,0-15.93,1.756,52.215,52.215,0,0,0,.125,7.516,2.738,2.738,0,0,0,.25,1.025c.567.96.32,1.462-.617,2.118a9.562,9.562,0,0,0-3.974,7.744c-.034.626-.184.873-.82.934a97.71,97.71,0,0,1-17.768.254c-1.117-.1-2.234-.184-3.353-.255-.575-.037-.839-.2-.863-.888a9.673,9.673,0,0,0-3.775-7.669,1.144,1.144,0,0,1-.42-1.069c0-3.189.034-6.378-.011-9.566a8.113,8.113,0,0,0-15.535-3.124,8.778,8.778,0,0,0-.712,3.618c0,3.012-.013,6.023.013,9.035a1.292,1.292,0,0,1-.609,1.254,3.262,3.262,0,0,0-.963.9c-.514.8-1,.764-1.759.273a19.318,19.318,0,0,1-5.959-5.33,7.86,7.86,0,0,1,.091-9.349c2.108-3.03,5.116-4.936,8.347-6.523a62.376,62.376,0,0,1,18.246-5.374,82.414,82.414,0,0,1,9.95-.948c.961-.03,1.675-.323,1.844-1.379C892.2,158.941,894.794,159.144,897.384,159.137Zm-.118,7.588c-6.222-.006-10.363,4.046-10.608,9.527a9.563,9.563,0,0,0,8.964,9.7,9.348,9.348,0,0,1,4.951,1.653c.074.048.155.085.232.129,1.392.789,2.352.225,2.372-1.4.009-.767.027-1.535-.007-2.3a1.965,1.965,0,0,1,.522-1.423,9.194,9.194,0,0,0,1.326-10.331A8.906,8.906,0,0,0,897.266,166.724Z" transform="translate(-2.532 -35.659)" fill="#ca8a65"/>
      <path id="Trazado_158450" data-name="Trazado 158450" d="M1002.13,239.967a1.5,1.5,0,0,0-1.392,1.433,1.892,1.892,0,0,1-2.025,1.68c-1.4.016-2.81-.014-4.215-.025a6.458,6.458,0,0,0,.545-3.167c-.04-1.735-.069-3.475.006-5.208a5.425,5.425,0,0,0-1.61-4.3c1.033-.01,2.065-.029,3.1-.03,2.554,0,3.974,1.222,4.249,3.746a1.4,1.4,0,0,0,1.342,1.458Q1002.128,237.76,1002.13,239.967Z" transform="translate(-71.816 -70.014)" fill="#fbedca"/>
      <path id="Trazado_158451" data-name="Trazado 158451" d="M983.4,230.376a5.426,5.426,0,0,1,1.61,4.3c-.075,1.733-.046,3.472-.006,5.208a6.46,6.46,0,0,1-.545,3.167c-3.769.01-7.538.015-11.306.039-.423,0-.551-.127-.548-.55.018-2.856-.029-5.714.026-8.569a3.634,3.634,0,0,1,3.615-3.612C978.631,230.32,981.016,230.367,983.4,230.376Z" transform="translate(-61.777 -70.013)" fill="#fef5df"/>
      <path id="Trazado_158452" data-name="Trazado 158452" d="M868.444,243.055c-3.418.01-6.836.034-10.254.022a1.918,1.918,0,0,1-2.054-1.973c-.049-2.415-.08-4.835.017-7.248a3.557,3.557,0,0,1,3.537-3.49c2.444-.051,4.89,0,7.336.01a1.391,1.391,0,0,0,.181.389,4.677,4.677,0,0,1,1.254,3.456C868.414,237.165,868.445,240.111,868.444,243.055Z" transform="translate(-5.639 -70.013)" fill="#fdf4de"/>
      <path id="Trazado_158453" data-name="Trazado 158453" d="M978.265,157.206a62.017,62.017,0,0,0-6.984-2.7,75.229,75.229,0,0,0-11.624-2.635c-.51-.076-.727-.223-.694-.762a7.381,7.381,0,0,1,3.558-6.262.79.79,0,0,1,1.079.062,8.047,8.047,0,0,0,10.132-.016.743.743,0,0,1,1-.078,6.707,6.707,0,0,1,3.5,5.516C978.359,152.585,978.265,154.851,978.265,157.206Z" transform="translate(-55.203 -28.727)" fill="#f3ff3c"/>
      <path id="Trazado_158454" data-name="Trazado 158454" d="M867.457,157.206c.149-2.744-.288-5.406.263-8.025a6.622,6.622,0,0,1,3.258-4.329.786.786,0,0,1,1.077.046,8.063,8.063,0,0,0,10.134,0,.724.724,0,0,1,.924-.144,7.761,7.761,0,0,1,3.707,6.559c-.039.552-.393.485-.73.536a70.482,70.482,0,0,0-15.2,3.9C869.773,156.192,868.679,156.687,867.457,157.206Z" transform="translate(-11.104 -28.724)" fill="#75b62f"/>
      <path id="Trazado_158455" data-name="Trazado 158455" d="M881.629,182.234a5.342,5.342,0,0,1,7.761,4.732c.119,4.8.054,9.6.012,14.406a5.237,5.237,0,0,1-1.842,3.881c-.355.325-.651.486-1.133.112a6.385,6.385,0,0,0-3.376-1.166,10.092,10.092,0,0,0,.548-3.717c-.035-4.152-.079-8.306.013-12.456C883.662,185.8,883.278,183.827,881.629,182.234Z" transform="translate(-17.945 -46.552)" fill="#707cb1"/>
      <path id="Trazado_158456" data-name="Trazado 158456" d="M963.378,228.4c-1.462-.912-2.774-1.735-4.093-2.549a.6.6,0,0,1-.31-.582,38.776,38.776,0,0,1,.131-5.123,6.886,6.886,0,0,1,3.461-4.978.756.756,0,0,1,1.008.078,8.065,8.065,0,0,0,10.126.022.8.8,0,0,1,1.083-.074,7.191,7.191,0,0,1,3.335,4.487c.148.572-.026.627-.515.623-2.418-.018-4.837-.01-7.256-.007-4.305,0-6.963,2.647-6.969,6.928C963.378,227.552,963.378,227.875,963.378,228.4Z" transform="translate(-55.201 -62.627)" fill="#31389c"/>
      <path id="Trazado_158457" data-name="Trazado 158457" d="M878.695,182.776c1.649,1.593,2.033,3.57,1.984,5.791-.092,4.15-.048,8.3-.013,12.456a10.092,10.092,0,0,1-.548,3.717c-1.03.009-2.061,0-3.09.035a.793.793,0,0,1-.819-.509,5.982,5.982,0,0,1-.656-2.807c-.005-4.476-.035-8.952.011-13.427C875.587,185.712,876.373,183.766,878.695,182.776Z" transform="translate(-15.01 -47.094)" fill="#808ab1"/>
      <path id="Trazado_158458" data-name="Trazado 158458" d="M973.074,182.232a5.3,5.3,0,0,1,7.617,3.942,29.483,29.483,0,0,1,.007,7.682,5.341,5.341,0,0,1-7.8,3.834,5.486,5.486,0,0,0,2.119-4.353c.089-1.7-.062-3.415.04-5.115A7.676,7.676,0,0,0,973.074,182.232Z" transform="translate(-61.92 -46.569)" fill="#707cb1"/>
      <path id="Trazado_158459" data-name="Trazado 158459" d="M878.612,243.056c0-2.944-.031-5.89.017-8.834a4.677,4.677,0,0,0-1.254-3.456,1.391,1.391,0,0,1-.181-.389c1.176-.01,2.353-.049,3.528-.022a3.666,3.666,0,0,1,3.7,3.621c.058,2.853.01,5.708.027,8.562,0,.414-.109.565-.541.558C882.142,243.065,880.377,243.066,878.612,243.056Z" transform="translate(-15.808 -70.014)" fill="#fbedca"/>
      <path id="Trazado_158460" data-name="Trazado 158460" d="M970.2,182.739a7.675,7.675,0,0,1,1.985,5.989c-.1,1.7.049,3.414-.04,5.115a5.486,5.486,0,0,1-2.119,4.353,4.6,4.6,0,0,1-2.807-3.608,29.148,29.148,0,0,1,.015-8.182A4.5,4.5,0,0,1,970.2,182.739Z" transform="translate(-59.049 -47.076)" fill="#808ab1"/>
      <path id="Trazado_158461" data-name="Trazado 158461" d="M993.42,117.97v6.814a4.339,4.339,0,0,1,0,.442c-.057.549.047,1.287-.465,1.519-.38.172-.653-.549-1.025-.816-.618-.445-1.506-.819-1.725-1.424-.2-.546.465-1.347.548-2.059a36.949,36.949,0,0,0-.016-9.17,6.554,6.554,0,0,0-2.047-3.839c-.493-.475-.357-.747.078-1.116a2.812,2.812,0,0,1,4.545,1.519,14.1,14.1,0,0,1,.1,3C993.434,114.549,993.42,116.26,993.42,117.97Z" transform="translate(-69.375 -10.903)" fill="#808ab1"/>
      <path id="Trazado_158462" data-name="Trazado 158462" d="M975.369,126.268l5.81-1.286a39.265,39.265,0,0,1-.128,5.113,5.362,5.362,0,0,1-7.462,3.974c.144-.909.945-1.437,1.283-2.259C975.619,129.994,975.285,128.121,975.369,126.268Z" transform="translate(-62.252 -19.248)" fill="#f7b9a5"/>
      <path id="Trazado_158463" data-name="Trazado 158463" d="M883.648,126.247l5.667-1.286a31.512,31.512,0,0,1-.167,5.36,5.388,5.388,0,0,1-7.753,3.605,4.358,4.358,0,0,0,1.717-2.474A14.31,14.31,0,0,0,883.648,126.247Z" transform="translate(-17.832 -19.238)" fill="#f7b9a5"/>
      <path id="Trazado_158464" data-name="Trazado 158464" d="M880.838,127.443a14.313,14.313,0,0,1-.536,5.205,4.358,4.358,0,0,1-1.717,2.474,5.371,5.371,0,0,1-3.02-5.158c-.014-1.462-.013-1.475,1.4-1.769C878.25,127.928,879.545,127.693,880.838,127.443Z" transform="translate(-15.022 -20.434)" fill="#fcc8b7"/>
      <path id="Trazado_158465" data-name="Trazado 158465" d="M898.825,219.171a7.05,7.05,0,0,1,1.491,4.324c.048,1.176,0,2.356.017,3.533a.87.87,0,0,1-.425.881c-1.281.771-2.546,1.571-3.9,2.413-.145-.959.108-1.916-.25-2.726-.574-1.3-.074-2.065.874-2.945C898,223.378,898.571,221.7,898.825,219.171Z" transform="translate(-24.633 -64.63)" fill="#fb58a9"/>
      <path id="Trazado_158466" data-name="Trazado 158466" d="M972.236,127.464c-.084,1.853.25,3.726-.5,5.542-.338.822-1.139,1.35-1.283,2.259a5.294,5.294,0,0,1-3.347-4.772c-.075-1.969-.075-1.971,1.842-2.366C970.046,127.9,971.141,127.684,972.236,127.464Z" transform="translate(-59.12 -20.444)" fill="#fcc8b7"/>
      <path id="Trazado_158467" data-name="Trazado 158467" d="M881.645,111.9a5.439,5.439,0,0,1,7.547,3.291c.113.42.029.567-.4.648-1.733.332-3.459.7-5.188,1.05A6.594,6.594,0,0,0,881.645,111.9Z" transform="translate(-17.952 -12.682)" fill="#707cb1"/>
      <path id="Trazado_158468" data-name="Trazado 158468" d="M973.264,111.88a5.412,5.412,0,0,1,7.5,3.311c.087.319.173.533-.286.621-1.755.334-3.5.7-5.254,1.058A6.892,6.892,0,0,0,973.264,111.88Z" transform="translate(-62.096 -12.675)" fill="#707cb1"/>
      <path id="Trazado_158469" data-name="Trazado 158469" d="M959.623,246.047c-2.729-1.729-5.318-3.35-7.884-5.007a1.2,1.2,0,0,1-.369-1.709,1.326,1.326,0,0,1,1.882-.312c1.537.931,3,2.01,4.6,2.809a2.777,2.777,0,0,1,1.78,3.321A5.961,5.961,0,0,0,959.623,246.047Z" transform="translate(-51.445 -74.071)" fill="#fbf2dc"/>
      <path id="Trazado_158470" data-name="Trazado 158470" d="M896.344,245.988c-.032-.163-.041-.192-.042-.22-.1-2.745-.1-2.745,2.215-4.191,1.324-.826,2.643-1.663,3.972-2.481a1.355,1.355,0,0,1,2.013.3c.431.657.24,1.269-.622,1.819C901.4,242.8,898.916,244.361,896.344,245.988Z" transform="translate(-24.998 -74.082)" fill="#fbf2dc"/>
      <path id="Trazado_158471" data-name="Trazado 158471" d="M970.256,112.382a6.892,6.892,0,0,1,1.959,4.99q-2.317.517-4.634,1.033c-.288.064-.467.048-.519-.351A5.539,5.539,0,0,1,970.256,112.382Z" transform="translate(-59.087 -13.177)" fill="#808ab1"/>
      <path id="Trazado_158472" data-name="Trazado 158472" d="M878.673,112.409a6.594,6.594,0,0,1,1.962,4.989c-1.511.338-3.021.68-4.534,1.012-.3.066-.543.089-.6-.373A5.875,5.875,0,0,1,878.673,112.409Z" transform="translate(-14.98 -13.19)" fill="#808ab1"/>
      <path id="Trazado_158473" data-name="Trazado 158473" d="M1004.645,168.248c-1.065-.695-2.01-1.326-2.972-1.93-.282-.177-.282-.416-.282-.684,0-1.623.02-3.246-.009-4.869-.011-.578.215-.664.683-.487a3.532,3.532,0,0,1,2.476,2.856A41.8,41.8,0,0,1,1004.645,168.248Z" transform="translate(-75.643 -36.215)" fill="#f2ead5"/>
      <path id="Trazado_158474" data-name="Trazado 158474" d="M856.142,168.235c0-1.642-.069-3.171.019-4.692a3.548,3.548,0,0,1,2.482-3.24c.493-.192.753-.151.739.494-.034,1.593-.018,3.187-.006,4.78a.815.815,0,0,1-.381.815C858.071,166.965,857.168,167.569,856.142,168.235Z" transform="translate(-5.652 -36.218)" fill="#f2ead5"/>
      <path id="Trazado_158475" data-name="Trazado 158475" d="M869.12,218.895a13.746,13.746,0,0,0,.518,2.827c.136.351-.019.428-.362.456-1.6.133-1.75-.063-1.148-1.574A6.2,6.2,0,0,1,869.12,218.895Z" transform="translate(-11.283 -64.497)" fill="#fb58a9"/>
      <path id="Trazado_158476" data-name="Trazado 158476" d="M912.822,126.454a6.84,6.84,0,0,1,0-.8,2.686,2.686,0,0,0-.915-2.348,6.9,6.9,0,0,1-.969-8.327,7.123,7.123,0,0,1,7.936-3.221,1.785,1.785,0,0,1,1.133.874,7.164,7.164,0,0,0,2.544,2.662,2.811,2.811,0,0,1,1.409,2.368,7.121,7.121,0,0,1-6.53,7.853,1.571,1.571,0,0,1-.441,0,4.106,4.106,0,0,0-3.585.771,2.166,2.166,0,0,1-.39.2C913,126.492,912.965,126.476,912.822,126.454Zm5.453-7.823a1.29,1.29,0,1,0-2.58.01,1.29,1.29,0,1,0,2.58-.01Zm2.669-1.326a1.259,1.259,0,0,0-1.26,1.315,1.21,1.21,0,0,0,1.225,1.327,1.239,1.239,0,0,0,1.312-1.336A1.275,1.275,0,0,0,920.944,117.3Zm-6.66,1.3a1.265,1.265,0,1,0-2.528.031,1.226,1.226,0,0,0,1.326,1.315A1.21,1.21,0,0,0,914.284,118.6Z" transform="translate(-31.599 -12.752)" fill="#fbf2dc"/>
      <path id="Trazado_158477" data-name="Trazado 158477" d="M942.744,105.284c-1.175-.676-2.163-1.446-3.475-1.194a5.361,5.361,0,0,1-2.106-.076,6.987,6.987,0,0,1,1.1-13.821,6.945,6.945,0,0,1,7.117,5.434,6.418,6.418,0,0,1-1.573,6.16,3.325,3.325,0,0,0-1.068,2.916C942.759,104.847,942.744,104.993,942.744,105.284Zm-2.025-4.544a1.382,1.382,0,0,0,.746-2.512c-.978-.982-.966-.993-.038-1.956a3.915,3.915,0,0,0,.356-.393,1.206,1.206,0,0,0-.106-1.685,1.17,1.17,0,0,0-1.735-.165c-.478.39-.909,1.162-1.363,1.164s-.884-.772-1.36-1.162a1.172,1.172,0,0,0-1.737.159,1.2,1.2,0,0,0-.115,1.683c.362.5,1.164.8,1.153,1.369s-.817.865-1.165,1.375a1.233,1.233,0,0,0,.111,1.692,1.218,1.218,0,0,0,1.685.161,4.213,4.213,0,0,0,.534-.462c.9-.873.9-.878,1.822.037A1.854,1.854,0,0,0,940.719,100.74Z" transform="translate(-42.019 -2.479)" fill="#d44713"/>
      <path id="Trazado_158478" data-name="Trazado 158478" d="M931.677,173.867a8.906,8.906,0,0,1,7.751,5.56,9.194,9.194,0,0,1-1.325,10.331,1.966,1.966,0,0,0-.522,1.423c.034.765.016,1.533.007,2.3-.02,1.622-.98,2.185-2.372,1.4-.077-.044-.158-.081-.232-.129a9.348,9.348,0,0,0-4.951-1.653,9.563,9.563,0,0,1-8.964-9.7C921.314,177.913,925.454,173.861,931.677,173.867Zm3.193,17.611a3.127,3.127,0,0,0,.043-.61,3.128,3.128,0,0,1,1.057-2.739,6.352,6.352,0,0,0,1.613-5.985,6.98,6.98,0,0,0-13.718,2.58,6.742,6.742,0,0,0,6.9,5.744,5.451,5.451,0,0,1,3.8.937A1.045,1.045,0,0,0,934.869,191.478Z" transform="translate(-36.943 -42.801)" fill="#030303"/>
      <path id="Trazado_158479" data-name="Trazado 158479" d="M923.6,124.027a1.29,1.29,0,1,1-2.579.01,1.29,1.29,0,1,1,2.579-.01Z" transform="translate(-36.924 -18.149)" fill="#030303"/>
      <path id="Trazado_158480" data-name="Trazado 158480" d="M929.977,122.7a1.275,1.275,0,0,1,1.278,1.305,1.239,1.239,0,0,1-1.312,1.336,1.21,1.21,0,0,1-1.226-1.327A1.259,1.259,0,0,1,929.977,122.7Z" transform="translate(-40.632 -18.149)" fill="#030303"/>
      <path id="Trazado_158481" data-name="Trazado 158481" d="M915.945,124a1.21,1.21,0,0,1-1.2,1.346,1.226,1.226,0,0,1-1.326-1.315,1.265,1.265,0,1,1,2.528-.031Z" transform="translate(-33.26 -18.15)" fill="#030303"/>
      <path id="Trazado_158482" data-name="Trazado 158482" d="M943.953,104.032a1.854,1.854,0,0,1-1.211-.693c-.922-.916-.924-.91-1.822-.037a4.221,4.221,0,0,1-.534.462,1.218,1.218,0,0,1-1.685-.161,1.233,1.233,0,0,1-.111-1.692c.348-.51,1.154-.815,1.165-1.375s-.791-.874-1.153-1.369a1.2,1.2,0,0,1,.115-1.683,1.172,1.172,0,0,1,1.737-.159c.477.39.91,1.164,1.36,1.162s.885-.774,1.363-1.164a1.17,1.17,0,0,1,1.735.165,1.206,1.206,0,0,1,.106,1.685,3.914,3.914,0,0,1-.356.393c-.928.962-.94.973.038,1.956a1.382,1.382,0,0,1-.746,2.512Z" transform="translate(-45.253 -5.77)" fill="#030303"/>
      <path id="Trazado_158483" data-name="Trazado 158483" d="M937.383,193.925a1.042,1.042,0,0,1-.305-.073,5.451,5.451,0,0,0-3.8-.937,6.742,6.742,0,0,1-6.9-5.744,6.98,6.98,0,0,1,13.719-2.58,6.352,6.352,0,0,1-1.613,5.985,3.128,3.128,0,0,0-1.057,2.739A3.113,3.113,0,0,1,937.383,193.925Zm-6.8-7.842a1.287,1.287,0,1,0-1.265,1.309A1.266,1.266,0,0,0,930.584,186.083Zm7.911.006a1.25,1.25,0,0,0-1.249-1.322,1.265,1.265,0,0,0-1.31,1.352,1.28,1.28,0,1,0,2.559-.03Zm-5.3,1.3a1.213,1.213,0,0,0,1.329-1.219,1.232,1.232,0,0,0-1.239-1.4,1.312,1.312,0,0,0-.09,2.618Z" transform="translate(-39.457 -45.248)" fill="#fbf2dc"/>
      <path id="Trazado_158484" data-name="Trazado 158484" d="M932.194,191.5a1.287,1.287,0,1,1-1.263-1.314A1.263,1.263,0,0,1,932.194,191.5Z" transform="translate(-41.067 -50.663)" fill="#030303"/>
      <path id="Trazado_158485" data-name="Trazado 158485" d="M947.474,191.5a1.28,1.28,0,1,1-2.559.03,1.266,1.266,0,0,1,1.311-1.352A1.25,1.25,0,0,1,947.474,191.5Z" transform="translate(-48.436 -50.661)" fill="#030303"/>
      <path id="Trazado_158486" data-name="Trazado 158486" d="M938.509,192.806a1.312,1.312,0,0,1,.09-2.618,1.232,1.232,0,0,1,1.239,1.4A1.213,1.213,0,0,1,938.509,192.806Z" transform="translate(-44.775 -50.665)" fill="#030303"/>
    </g>
  </g>
</svg>
