<svg xmlns="http://www.w3.org/2000/svg" width="157" height="157" viewBox="0 0 157 157">
  <g id="Grupo_109457" data-name="Grupo 109457" transform="translate(6728 10293)">
    <g id="Elipse_4730" data-name="Elipse 4730" transform="translate(-6728 -10293)" fill="#fff" stroke="#75b62f" stroke-width="4">
      <circle cx="78.5" cy="78.5" r="78.5" stroke="none"/>
      <circle cx="78.5" cy="78.5" r="76.5" fill="none"/>
    </g>
    <g id="Grupo_108814" data-name="Grupo 108814" transform="translate(-7297.57 -10341.53)">
      <path id="Trazado_158552" data-name="Trazado 158552" d="M610.046,164.737v-27c.045-.022.12-.034.133-.068a4.344,4.344,0,0,1,4.8-2.974c.569.039.578-.228.578-.658q-.013-14.945,0-29.89a.994.994,0,0,0-.492-.9,5.451,5.451,0,0,1-2.271-4.507c-.012-.942.019-1.885-.008-2.827a4.859,4.859,0,0,1,.89-2.954c1.163-1.712,2.344-3.416,3.434-5.174a5.732,5.732,0,0,1,3.275-2.751h37.182a5.683,5.683,0,0,1,3.473,2.96c.578.968,1.25,1.881,1.871,2.824,2.68,4.076,2.256,2.775,2.294,7.773,0,.162-.008.323-.016.485a5.384,5.384,0,0,1-2.183,4.14,2.7,2.7,0,0,0-.532,2.473c.289.552.791-.089,1.208.031a2.7,2.7,0,0,0,.724.008h11.312c4.309,0,8.619-.014,12.928.006a4.13,4.13,0,1,1-.024,8.26c-1.321.024-1.321.024-1.321,1.363V158.1c0,1.41,0,1.41,1.4,1.443a4.129,4.129,0,0,1,3.91,5.388,4.207,4.207,0,0,1-4.295,2.876q-36.643,0-73.286.02c-2.331,0-4.026-.749-4.864-3.02C610.163,164.773,610.09,164.761,610.046,164.737Zm46.92-71.615c-.025.1.006.155.118.139l1.619.006h2.531c-1.126-1.69-2.158-3.249-3.205-4.8a1.111,1.111,0,0,0-1.063-.6v5.252Zm-5.549,2.968c-.725-.012-1.452-.009-2.176-.042-.4-.018-.589.087-.572.533.031.806-.014,1.615.02,2.421a2.554,2.554,0,0,0,1.921,2.4,2.677,2.677,0,0,0,3.564-2.448c.03-.775-.006-1.552.014-2.327.01-.388-.079-.6-.527-.579C652.914,96.081,652.165,96.077,651.417,96.09Zm-9.061,5.339a2.716,2.716,0,0,0,3.561-2.6c.027-.751-.009-1.5.012-2.256.01-.368-.09-.541-.493-.523-.75.034-1.5.03-2.253.043-.751-.012-1.5,0-2.253-.044-.452-.025-.54.177-.528.57.023.778-.01,1.559.017,2.337A2.59,2.59,0,0,0,642.355,101.429Zm17.318-5.338c-.75-.012-1.5-.008-2.249-.042-.4-.018-.5.154-.491.522.021.777-.017,1.556.015,2.332a2.614,2.614,0,0,0,1.9,2.494,2.668,2.668,0,0,0,3.589-2.433c.035-.78,0-1.562.018-2.342.011-.392-.075-.6-.529-.575C661.18,96.087,660.426,96.079,659.673,96.09Zm-16.488-2.824c.75.011,1.5.006,2.249.039.393.017.507-.134.5-.511-.023-.8.016-1.609-.013-2.413-.03-.847.379-2-.164-2.458-.567-.474-1.689-.141-2.569-.109-.374-.009-.749,0-1.12-.034s-.525.085-.582.456c-.235,1.53-.481,3.059-.755,4.583-.079.436.09.5.456.484C641.849,93.275,642.517,93.277,643.185,93.266Zm8.242,0c.75.009,1.5.005,2.25.032.381.014.521-.128.512-.51-.019-.8.022-1.609-.013-2.412-.036-.845.392-1.993-.178-2.454s-1.694-.138-2.575-.108c-.75-.009-1.5,0-2.251-.034-.392-.016-.51.133-.5.511.021.8-.018,1.61.013,2.414.033.847-.385,2,.17,2.458C649.427,93.633,650.546,93.305,651.427,93.266ZM681.8,159.509a18.034,18.034,0,0,1,1.853.05c.784.1.912-.241.911-.944q-.028-21.847-.014-43.694c0-.135-.01-.27,0-.4.034-.365-.091-.549-.493-.532-.752.03-1.505.03-2.258.043-4.309-.012-8.618,0-12.926-.053-.752-.009-.924.2-.923.934q.033,21.86.016,43.72c0,.135.011.27,0,.4-.036.376.111.52.5.518Q675.14,159.517,681.8,159.509Zm-21.014,1.341a6.613,6.613,0,0,1,1.639-1.115,5.36,5.36,0,0,1,1.914-.174c.666.068.865-.163.862-.843-.025-6.506-.014-13.012-.016-19.519,0-1.24-.5-1.751-1.749-1.764-.4,0-.8.04-1.2.062-.267-.02-.535-.057-.8-.057q-23.356,0-46.713,0c-1.471,0-1.924.459-1.924,1.935q0,11.841,0,23.681c0,1.587.416,2,2.012,2h41.621c.269,0,.538-.015.807-.023.695.008,1.39,0,2.084.03.436.018.6-.16.489-.572A4.043,4.043,0,0,1,660.791,160.85Zm-36.964-57.224v.728q0,13.984.008,27.967c0,.771-.348,1.8.154,2.241.432.38,1.436.12,2.188.122,1.808.007,1.857,0,1.8-1.836a8.367,8.367,0,0,1,4.7-8.333c.2-.1.422-.148.237-.452a7.354,7.354,0,0,0-1.008-1.711,3.961,3.961,0,0,1-.316-5.3,2.454,2.454,0,0,0,.554-1.6,6.886,6.886,0,1,1,13.771-.1,2.616,2.616,0,0,0,.561,1.751,3.993,3.993,0,0,1-.215,5.123,5.888,5.888,0,0,0-1,1.524c-.21.45-.214.631.283.883a7.951,7.951,0,0,1,4.337,5.7,14.959,14.959,0,0,1,.151,3.624c-.019.632.184.776.773.741a18.342,18.342,0,0,1,2.584,0c.7.058.817-.191.815-.841q-.033-14.711-.016-29.423v-.817a5.617,5.617,0,0,1-6.883-1.1c-2.773,2.386-5.174,2.451-8.019.2-.212-.168-.3-.166-.517,0-2.9,2.208-4.927,2.21-7.763,0-.217-.169-.321-.192-.523,0C628.521,104.567,626.313,104.759,623.827,103.625Zm15.12,31.06c2.532,0,5.064-.022,7.595.016.622.009.789-.176.748-.77-.055-.8,0-1.617-.042-2.423a5.419,5.419,0,0,0-3.834-4.8,1.028,1.028,0,0,0-.9.108,6.621,6.621,0,0,1-6.976.011,1.062,1.062,0,0,0-.976-.1,5.427,5.427,0,0,0-3.666,3.966,17.93,17.93,0,0,0-.166,3.3c-.042.565.131.724.7.717C633.938,134.667,636.443,134.686,638.947,134.686ZM656.935,103.6v29.2c0,1.883,0,1.844,1.891,1.895.735.02.882-.209.88-.9q-.035-14.305-.016-28.611c0-.162-.006-.323,0-.485.007-.271-.132-.393-.393-.4A6,6,0,0,1,656.935,103.6Zm-35.868.035a5.417,5.417,0,0,1-1.936.615c-.771-.011-.834.366-.832,1q.026,13.808.011,27.616c0,1.823,0,1.785,1.853,1.839.746.022.923-.2.921-.927q-.038-14.615-.017-29.23Zm55.166,61.417q3.956,0,7.911,0c1.48,0,2.96.01,4.439-.028a1.347,1.347,0,0,0,1.218-2.087,1.549,1.549,0,0,0-1.479-.621q-9.121,0-18.242-.017c-2.018,0-4.036.007-6.054,0a1.4,1.4,0,0,0-1.431.839c-.441,1,.281,1.912,1.531,1.914Q670.179,165.063,676.233,165.055Zm.058-53.822v-.022q6.054,0,12.108.005a1.48,1.48,0,0,0,1.351-.554,1.236,1.236,0,0,0,.14-1.366,1.542,1.542,0,0,0-1.546-.8q-12.068,0-24.136-.015a3.289,3.289,0,0,0-.564.022,1.37,1.37,0,0,0-1.023,1.966,1.535,1.535,0,0,0,1.561.771C668.219,111.227,672.255,111.234,676.291,111.234Zm-13.839,13.005v8.886c0,1.5,0,1.495,1.451,1.567a2.142,2.142,0,0,1,.557.074c.563.185.772.093.768-.591q-.042-9.734-.006-19.469c0-.541-.1-.781-.7-.727a3.756,3.756,0,0,1-1.442-.072c-.642-.205-.641.079-.639.557C662.458,117.722,662.453,120.98,662.453,124.239Zm-23.439.794a4.078,4.078,0,0,0,3.981-3.049,1.963,1.963,0,0,1,.863-1.292,1.268,1.268,0,0,0,.606-1.528,1.388,1.388,0,0,0-1.348-1.074,10.891,10.891,0,0,1-3.37-.732.581.581,0,0,0-.656.066,5.458,5.458,0,0,1-4.5.972.763.763,0,0,0-.868.4,1.252,1.252,0,0,0,.331,1.785,2.584,2.584,0,0,1,1.044,1.547A4.038,4.038,0,0,0,639.014,125.033ZM626.59,96.055c-.752,0-1.5.007-2.256,0-.305,0-.529.039-.51.425a19.355,19.355,0,0,0,.088,2.892,2.684,2.684,0,0,0,2.85,2.2,2.652,2.652,0,0,0,2.552-2.439c.071-.854.022-1.717.05-2.575.012-.388-.137-.514-.519-.5C628.094,96.072,627.342,96.055,626.59,96.055Zm8.331,0c-.751,0-1.5.018-2.254-.007-.417-.014-.58.134-.567.552.025.777-.023,1.559.036,2.333a2.69,2.69,0,0,0,2.785,2.633,2.731,2.731,0,0,0,2.721-2.719c.039-.75-.01-1.5.018-2.253.016-.434-.158-.558-.567-.546C636.37,96.071,635.645,96.054,634.921,96.054Zm-16.566,0c-.754,0-1.508.01-2.261,0-.35-.007-.558.059-.546.479.025.834-.035,1.673.026,2.5a2.747,2.747,0,0,0,5.485-.148c.022-.7-.038-1.4.02-2.1.054-.643-.212-.781-.786-.741C619.649,96.088,619,96.054,618.355,96.054Zm14.3-2.758c1.668,0,3.248-.008,4.828.006.341,0,.392-.2.433-.45.251-1.509.5-3.019.755-4.527.06-.35.018-.553-.42-.545-1.128.022-2.258.012-3.387,0a.421.421,0,0,0-.477.317C633.828,89.8,633.256,91.5,632.658,93.3Zm-7.956,0c1.616,0,3.1-.013,4.576.009a.56.56,0,0,0,.632-.455q.743-2.3,1.517-4.591c.106-.314.158-.49-.285-.482-1.1.021-2.208.015-3.312,0a.538.538,0,0,0-.554.356C626.446,89.82,625.6,91.495,624.7,93.3Zm-7.929,0c1.593,0,2.992,0,4.39,0,.249,0,.461-.009.6-.287q1.191-2.424,2.41-4.834c.137-.273.092-.395-.228-.392-.969.009-1.938-.005-2.906.022a1.111,1.111,0,0,0-.9.486C619.042,89.91,617.956,91.536,616.773,93.3Zm22.256,17.925a4.083,4.083,0,0,0-4.118,3.9c0,.322.009.6.438.605a2.555,2.555,0,0,0,2.477-.994,1.311,1.311,0,0,1,2.068-.407,6.289,6.289,0,0,0,2.709.944c.391.041.587-.021.509-.52A4.163,4.163,0,0,0,639.029,111.222Z" fill="#020101"/>
      <path id="Trazado_158553" data-name="Trazado 158553" d="M660.309,223.445c-.269.008-.538.023-.807.023H617.881c-1.6,0-2.012-.413-2.012-2q0-11.84,0-23.681c0-1.476.453-1.935,1.924-1.935q23.356,0,46.713,0c.267,0,.535.037.8.057a9.377,9.377,0,0,1,.186,2.638q0,9.8,0,19.6a6.6,6.6,0,0,0-1.639,1.115c-.322,0-.644-.005-.965.013a2.9,2.9,0,0,0-2.838,2.292A3.652,3.652,0,0,0,660.309,223.445ZM647.57,205.266a5.365,5.365,0,0,0-3.381-4.8,1.119,1.119,0,0,1-.816-.857,1.336,1.336,0,0,0-2.589.053c-.083.463-.317.593-.7.742a5.471,5.471,0,0,0-2.839,7.761,5.317,5.317,0,0,0,4.735,2.869,2.808,2.808,0,0,1,2.79,2.142,2.763,2.763,0,1,1-5.456.693c-.118-.989-.632-1.473-1.5-1.41-.916.067-1.411.822-1.229,1.975a5.51,5.51,0,0,0,3.5,4.492c.313.131.635.178.683.657a1.22,1.22,0,0,0,1.285,1.108,1.256,1.256,0,0,0,1.346-1.045.918.918,0,0,1,.639-.717,5.5,5.5,0,0,0-1.9-10.651,2.754,2.754,0,0,1-.292-5.5,2.715,2.715,0,0,1,2.968,2.629c.1.958.672,1.536,1.475,1.5C647.077,206.872,647.586,206.218,647.57,205.266Z" transform="translate(-3.069 -58.414)" fill="#609627"/>
      <path id="Trazado_158554" data-name="Trazado 158554" d="M746.354,191.768q-6.665.017-13.331.041c-.393,0-.54-.142-.5-.518.012-.134,0-.27,0-.4q0-21.859-.016-43.72c0-.73.171-.943.923-.934,4.308.05,8.617.042,12.926.053a34.674,34.674,0,0,1-.106,4.785,2.839,2.839,0,0,0-3.011-2.061q-2.421-.009-4.842,0a2.817,2.817,0,0,0-3.109,3.1q-.017,2.421,0,4.842a2.819,2.819,0,0,0,3.087,3.118c1.506.012,3.014-.035,4.519.013a3.024,3.024,0,0,0,3.348-2.038c.157.149.128.344.128.53Q746.362,175.171,746.354,191.768Zm-5.546-20.66c.86,0,1.719.015,2.578,0a1.391,1.391,0,0,0,1.544-1.386c0-.843-.561-1.355-1.542-1.362q-2.578-.018-5.156,0a1.376,1.376,0,0,0-1.556,1.36,1.42,1.42,0,0,0,1.554,1.388C739.09,171.123,739.95,171.108,740.809,171.108Zm-.01,11.019c.887,0,1.773.013,2.659,0a1.375,1.375,0,1,0,.024-2.744q-2.659-.028-5.318,0a1.376,1.376,0,1,0-.024,2.744C739.026,182.142,739.913,182.127,740.8,182.128Zm.042-19.294c-.886,0-1.772-.015-2.658,0a1.36,1.36,0,0,0-1.5,1.329,1.376,1.376,0,0,0,1.441,1.413q2.7.05,5.4,0a1.348,1.348,0,0,0,1.414-1.428,1.326,1.326,0,0,0-1.431-1.311C742.613,162.815,741.727,162.834,740.841,162.834Zm-.031,13.786c.886,0,1.773.018,2.659-.005a1.365,1.365,0,0,0,1.463-1.379,1.334,1.334,0,0,0-1.462-1.365q-2.659-.024-5.317,0a1.369,1.369,0,0,0-1.476,1.364,1.4,1.4,0,0,0,1.475,1.38C739.037,176.636,739.924,176.619,740.81,176.619Z" transform="translate(-64.55 -32.259)" fill="#838cfc"/>
      <path id="Trazado_158555" data-name="Trazado 158555" d="M761.557,151.082a34.684,34.684,0,0,0,.106-4.785c.753-.013,1.506-.012,2.258-.043.4-.017.527.167.493.532-.012.134,0,.269,0,.4q0,21.847.014,43.694c0,.7-.127,1.042-.911.944a18.039,18.039,0,0,0-1.853-.05q.007-16.6.013-33.2c0-.185.029-.381-.128-.53A52.684,52.684,0,0,0,761.557,151.082Z" transform="translate(-79.859 -32.27)" fill="#31389c"/>
      <path id="Trazado_158556" data-name="Trazado 158556" d="M662,181.07c-2.5,0-5.01-.018-7.514.014-.573.007-.746-.152-.7-.717a17.929,17.929,0,0,1,.166-3.3,5.427,5.427,0,0,1,3.666-3.966,1.062,1.062,0,0,1,.976.1,6.621,6.621,0,0,0,6.977-.011,1.028,1.028,0,0,1,.9-.108,5.419,5.419,0,0,1,3.834,4.8c.046.806-.014,1.618.042,2.423.041.593-.126.779-.748.77C667.059,181.048,664.527,181.07,662,181.07Z" transform="translate(-23.048 -46.385)" fill="#609627"/>
      <path id="Trazado_158557" data-name="Trazado 158557" d="M709.2,124.3a6,6,0,0,0,2.362.7c.261,0,.4.124.393.4,0,.162,0,.323,0,.485q0,14.306.016,28.611c0,.695-.146.924-.88.9-1.89-.051-1.891-.012-1.891-1.895V124.3Z" transform="translate(-52.265 -20.7)" fill="#6f6f6f"/>
      <path id="Trazado_158558" data-name="Trazado 158558" d="M630.265,124.377v.909q0,14.615.017,29.23c0,.731-.174.949-.921.927-1.852-.054-1.853-.016-1.853-1.839q0-13.808-.011-27.616c0-.632.062-1.009.832-1A5.417,5.417,0,0,0,630.265,124.377Z" transform="translate(-9.199 -20.739)" fill="#9b9b9b"/>
      <path id="Trazado_158559" data-name="Trazado 158559" d="M734.662,251.181q-6.054,0-12.108,0c-1.249,0-1.972-.915-1.531-1.914a1.4,1.4,0,0,1,1.431-.839c2.018.01,4.036,0,6.054,0q9.121.01,18.242.017a1.549,1.549,0,0,1,1.479.621,1.347,1.347,0,0,1-1.218,2.087c-1.479.038-2.959.026-4.439.028Q738.618,251.185,734.662,251.181Z" transform="translate(-58.429 -86.126)" fill="#3e50b3"/>
      <path id="Trazado_158560" data-name="Trazado 158560" d="M734.73,137.369c-4.036,0-8.072-.007-12.108.007a1.535,1.535,0,0,1-1.561-.771,1.37,1.37,0,0,1,1.023-1.966,3.29,3.29,0,0,1,.564-.022q12.068.009,24.136.015a1.542,1.542,0,0,1,1.546.8,1.236,1.236,0,0,1-.14,1.366,1.48,1.48,0,0,1-1.351.554q-6.053-.014-12.108-.005Z" transform="translate(-58.439 -26.136)" fill="#3e50b3"/>
      <path id="Trazado_158561" data-name="Trazado 158561" d="M720.607,218.146q0-9.8,0-19.6a9.377,9.377,0,0,0-.186-2.638c.4-.022.8-.065,1.2-.061,1.245.013,1.749.524,1.749,1.764,0,6.506-.009,13.012.016,19.519,0,.68-.2.91-.862.843A5.36,5.36,0,0,0,720.607,218.146Z" transform="translate(-58.178 -58.411)" fill="#83c636"/>
      <path id="Trazado_158562" data-name="Trazado 158562" d="M720.862,156.349c0-3.259.006-6.517-.006-9.775,0-.477,0-.762.639-.557a3.756,3.756,0,0,0,1.442.072c.594-.053.7.187.7.727q-.026,9.734.006,19.469c0,.683-.206.776-.768.591a2.142,2.142,0,0,0-.557-.074c-1.45-.072-1.451-.07-1.451-1.567Z" transform="translate(-58.409 -32.11)" fill="#fcfcfc"/>
      <path id="Trazado_158563" data-name="Trazado 158563" d="M665.139,160.986a4.038,4.038,0,0,1-3.921-2.9,2.584,2.584,0,0,0-1.044-1.547,1.252,1.252,0,0,1-.331-1.785.763.763,0,0,1,.868-.4,5.458,5.458,0,0,0,4.5-.972.581.581,0,0,1,.656-.066,10.891,10.891,0,0,0,3.37.732,1.388,1.388,0,0,1,1.348,1.074,1.268,1.268,0,0,1-.606,1.528,1.963,1.963,0,0,0-.863,1.292A4.078,4.078,0,0,1,665.139,160.986Z" transform="translate(-26.126 -35.953)" fill="#fcddb0"/>
      <path id="Trazado_158564" data-name="Trazado 158564" d="M641.934,108.332c.752,0,1.5.017,2.255-.007.382-.012.531.114.519.5-.028.858.021,1.722-.05,2.575a2.652,2.652,0,0,1-2.552,2.439,2.684,2.684,0,0,1-2.85-2.2,19.355,19.355,0,0,1-.088-2.892c-.018-.386.2-.429.51-.425C640.43,108.339,641.182,108.332,641.934,108.332Z" transform="translate(-15.344 -12.277)" fill="#f3ff3c"/>
      <path id="Trazado_158565" data-name="Trazado 158565" d="M659.5,108.329c.724,0,1.449.017,2.173-.007.408-.013.583.112.567.546-.028.75.022,1.5-.018,2.253a2.731,2.731,0,0,1-2.721,2.719,2.69,2.69,0,0,1-2.785-2.633c-.06-.774-.011-1.556-.036-2.333-.014-.418.149-.566.567-.552C658,108.348,658.752,108.329,659.5,108.329Z" transform="translate(-24.583 -12.276)" fill="#d44713"/>
      <path id="Trazado_158566" data-name="Trazado 158566" d="M624.485,108.319c.646,0,1.294.035,1.937-.01.575-.04.841.1.786.741-.059.7,0,1.4-.02,2.1a2.747,2.747,0,0,1-5.485.148c-.06-.83,0-1.669-.026-2.5-.013-.42.2-.486.546-.479C622.977,108.33,623.732,108.32,624.485,108.319Z" transform="translate(-6.13 -12.266)" fill="#d44713"/>
      <path id="Trazado_158567" data-name="Trazado 158567" d="M657.862,96.358c.6-1.792,1.17-3.492,1.732-5.2a.421.421,0,0,1,.477-.317c1.129.009,2.258.018,3.387,0,.439-.009.48.195.42.545-.257,1.508-.5,3.018-.755,4.527-.041.248-.092.453-.433.45C661.11,96.35,659.53,96.358,657.862,96.358Z" transform="translate(-25.204 -3.062)" fill="#d44713"/>
      <path id="Trazado_158568" data-name="Trazado 158568" d="M641.038,96.361c.9-1.8,1.744-3.479,2.573-5.162a.538.538,0,0,1,.554-.356c1.1.013,2.208.019,3.312,0,.444-.008.392.168.285.482q-.777,2.289-1.517,4.591a.56.56,0,0,1-.632.455C644.135,96.348,642.654,96.361,641.038,96.361Z" transform="translate(-16.336 -3.062)" fill="#f3ff3c"/>
      <path id="Trazado_158569" data-name="Trazado 158569" d="M624.271,96.366c1.184-1.762,2.269-3.387,3.368-5a1.111,1.111,0,0,1,.9-.486c.968-.027,1.937-.013,2.906-.022.321,0,.366.119.228.392q-1.214,2.412-2.41,4.834c-.136.278-.349.287-.6.287C627.263,96.365,625.864,96.366,624.271,96.366Z" transform="translate(-7.498 -3.069)" fill="#d44713"/>
      <path id="Trazado_158570" data-name="Trazado 158570" d="M666.745,140.414a4.163,4.163,0,0,1,4.083,3.528c.078.5-.118.561-.509.52a6.289,6.289,0,0,1-2.709-.944,1.311,1.311,0,0,0-2.068.407,2.555,2.555,0,0,1-2.477.994c-.429-.009-.435-.284-.438-.605A4.083,4.083,0,0,1,666.745,140.414Z" transform="translate(-27.716 -29.192)" fill="#9f522d"/>
      <path id="Trazado_158571" data-name="Trazado 158571" d="M697.543,90.756c.88-.029,1.992-.362,2.575.108s.142,1.609.178,2.454c.035.8-.007,1.608.013,2.412.009.383-.131.524-.512.51-.75-.027-1.5-.023-2.25-.032Z" transform="translate(-46.121 -2.942)" fill="#d44713"/>
      <path id="Trazado_158572" data-name="Trazado 158572" d="M694.356,90.875l0,5.452c-.881.039-2,.367-2.573-.1-.555-.454-.137-1.611-.17-2.458-.031-.8.009-1.61-.013-2.414-.01-.378.108-.527.5-.511C692.854,90.873,693.606,90.866,694.356,90.875Z" transform="translate(-42.934 -3.061)" fill="#eb304b"/>
      <path id="Trazado_158573" data-name="Trazado 158573" d="M680.121,90.755c.88-.032,2-.366,2.569.109.543.454.134,1.611.164,2.458.029.8-.01,1.609.013,2.413.011.377-.1.529-.5.511-.749-.033-1.5-.028-2.249-.039Z" transform="translate(-36.937 -2.94)" fill="#f3ff3c"/>
      <path id="Trazado_158574" data-name="Trazado 158574" d="M714.076,108.365c.753-.012,1.507,0,2.258-.044.454-.025.541.182.529.575-.023.78.016,1.562-.018,2.342a2.668,2.668,0,0,1-3.589,2.433,4.09,4.09,0,0,0,.654-1.372A18.551,18.551,0,0,0,714.076,108.365Z" transform="translate(-54.403 -12.274)" fill="#f8bd08"/>
      <path id="Trazado_158575" data-name="Trazado 158575" d="M679.2,108.368c.751-.012,1.5-.009,2.253-.043.4-.018.5.155.493.523-.021.752.015,1.505-.012,2.256a2.716,2.716,0,0,1-3.561,2.6c.176-.581.548-1.073.684-1.683A21.107,21.107,0,0,0,679.2,108.368Z" transform="translate(-36.015 -12.277)" fill="#f8bd08"/>
      <path id="Trazado_158576" data-name="Trazado 158576" d="M696.633,108.362c.748-.013,1.5-.009,2.244-.045.448-.022.537.192.527.579-.019.775.017,1.552-.014,2.327a2.677,2.677,0,0,1-3.564,2.448,10.245,10.245,0,0,0,.691-1.621A21.2,21.2,0,0,0,696.633,108.362Z" transform="translate(-45.216 -12.273)" fill="#d44713"/>
      <path id="Trazado_158577" data-name="Trazado 158577" d="M711.936,108.368a18.551,18.551,0,0,1-.167,3.934,4.09,4.09,0,0,1-.654,1.372,2.614,2.614,0,0,1-1.9-2.494c-.032-.776.006-1.555-.015-2.332-.01-.368.088-.54.491-.522C710.436,108.36,711.187,108.356,711.936,108.368Z" transform="translate(-52.263 -12.278)" fill="#f3ff3c"/>
      <path id="Trazado_158578" data-name="Trazado 158578" d="M694.468,108.366a21.183,21.183,0,0,1-.115,3.689,10.238,10.238,0,0,1-.691,1.621,2.554,2.554,0,0,1-1.921-2.4c-.034-.806.011-1.615-.02-2.421-.017-.446.171-.551.572-.533C693.016,108.357,693.742,108.354,694.468,108.366Z" transform="translate(-43.051 -12.276)" fill="#d44713"/>
      <path id="Trazado_158579" data-name="Trazado 158579" d="M677.019,108.366a21.1,21.1,0,0,1-.143,3.655c-.136.61-.508,1.1-.684,1.683a2.59,2.59,0,0,1-1.936-2.475c-.027-.778.006-1.559-.017-2.337-.011-.393.077-.595.528-.57C675.516,108.363,676.268,108.354,677.019,108.366Z" transform="translate(-33.836 -12.275)" fill="#f3ff3c"/>
      <path id="Trazado_158580" data-name="Trazado 158580" d="M677.362,90.87v5.452c-.668.011-1.335.009-2,.037-.366.016-.534-.048-.456-.484.273-1.524.52-3.053.755-4.583.057-.371.219-.492.582-.456S676.988,90.861,677.362,90.87Z" transform="translate(-34.178 -3.056)" fill="#f3ff3c"/>
      <path id="Trazado_158581" data-name="Trazado 158581" d="M709.266,94.008V91.025a1.111,1.111,0,0,1,1.063.6c1.047,1.549,2.079,3.109,3.205,4.8H711A9.546,9.546,0,0,0,709.266,94.008Z" transform="translate(-52.3 -3.155)" fill="#f8bd08"/>
      <path id="Trazado_158582" data-name="Trazado 158582" d="M709.5,249.543a3.652,3.652,0,0,1-.253-1.876,2.9,2.9,0,0,1,2.838-2.292c.321-.018.644-.009.965-.013A4.042,4.042,0,0,0,712.07,249c.111.412-.053.589-.489.572C710.887,249.545,710.192,249.551,709.5,249.543Z" transform="translate(-52.257 -84.512)" fill="#83c636"/>
      <path id="Trazado_158583" data-name="Trazado 158583" d="M709.266,97.339A9.546,9.546,0,0,1,711,99.754l-1.619-.006-.118-.139Z" transform="translate(-52.3 -6.487)" fill="#fbdb00"/>
      <path id="Trazado_158584" data-name="Trazado 158584" d="M709.257,102.138l.118.139C709.263,102.293,709.232,102.24,709.257,102.138Z" transform="translate(-52.291 -9.016)" fill="#f8bd08"/>
      <path id="Trazado_158585" data-name="Trazado 158585" d="M670.627,208.367c.016.951-.493,1.605-1.278,1.643-.8.038-1.372-.54-1.475-1.5a2.716,2.716,0,0,0-2.968-2.629,2.754,2.754,0,0,0,.292,5.5,5.5,5.5,0,0,1,1.9,10.651.918.918,0,0,0-.639.717,1.256,1.256,0,0,1-1.346,1.045,1.22,1.22,0,0,1-1.285-1.108c-.048-.479-.369-.525-.683-.657a5.51,5.51,0,0,1-3.5-4.492c-.182-1.153.312-1.909,1.229-1.975.866-.062,1.38.421,1.5,1.41a2.763,2.763,0,1,0,5.456-.693,2.808,2.808,0,0,0-2.79-2.142,5.317,5.317,0,0,1-4.735-2.869,5.471,5.471,0,0,1,2.839-7.761c.379-.15.613-.279.7-.742a1.336,1.336,0,0,1,2.589-.053,1.119,1.119,0,0,0,.816.857A5.365,5.365,0,0,1,670.627,208.367Z" transform="translate(-26.126 -61.514)" fill="#020101"/>
      <path id="Trazado_158586" data-name="Trazado 158586" d="M749.339,154.161a52.685,52.685,0,0,1-.009,6.972,3.024,3.024,0,0,1-3.348,2.038c-1.5-.048-3.013,0-4.519-.013a2.819,2.819,0,0,1-3.087-3.118q-.014-2.422,0-4.842a2.817,2.817,0,0,1,3.109-3.1q2.421-.01,4.842,0A2.839,2.839,0,0,1,749.339,154.161Zm-5.452,6.2c.7,0,1.4-.024,2.1.008.5.023.725-.107.712-.666q-.052-2.1,0-4.193c.012-.554-.213-.68-.715-.671-1.37.026-2.743.036-4.112,0-.6-.017-.718.222-.706.755.03,1.317.049,2.636-.006,3.951-.03.7.234.882.878.83C742.647,160.325,743.268,160.364,743.887,160.364Z" transform="translate(-67.64 -35.349)" fill="#020101"/>
      <path id="Trazado_158587" data-name="Trazado 158587" d="M745.46,195.759c-.859,0-1.719.014-2.578,0a1.42,1.42,0,0,1-1.554-1.388,1.376,1.376,0,0,1,1.556-1.36q2.578-.018,5.156,0c.981.007,1.542.52,1.542,1.362a1.391,1.391,0,0,1-1.544,1.386C747.179,195.773,746.319,195.759,745.46,195.759Z" transform="translate(-69.201 -56.909)" fill="#020101"/>
      <path id="Trazado_158588" data-name="Trazado 158588" d="M745.448,219.061c-.886,0-1.773.015-2.659,0a1.376,1.376,0,1,1,.024-2.744q2.659-.024,5.318,0a1.375,1.375,0,1,1-.024,2.744C747.221,219.075,746.335,219.061,745.448,219.061Z" transform="translate(-69.199 -69.193)" fill="#020101"/>
      <path id="Trazado_158589" data-name="Trazado 158589" d="M745.493,181.332c.886,0,1.772-.019,2.658.006a1.326,1.326,0,0,1,1.432,1.311,1.348,1.348,0,0,1-1.414,1.428q-2.7.053-5.4,0a1.376,1.376,0,0,1-1.441-1.413,1.36,1.36,0,0,1,1.5-1.329C743.721,181.317,744.607,181.332,745.493,181.332Z" transform="translate(-69.202 -50.757)" fill="#020101"/>
      <path id="Trazado_158590" data-name="Trazado 158590" d="M745.46,207.413c-.886,0-1.773.017-2.659-.005a1.4,1.4,0,0,1-1.475-1.38,1.369,1.369,0,0,1,1.476-1.364q2.659-.024,5.317,0a1.334,1.334,0,0,1,1.462,1.365,1.365,1.365,0,0,1-1.463,1.379C747.233,207.431,746.346,207.413,745.46,207.413Z" transform="translate(-69.199 -63.053)" fill="#020101"/>
      <path id="Trazado_158591" data-name="Trazado 158591" d="M746.99,163.42c-.619,0-1.24-.039-1.854.01-.645.052-.908-.126-.878-.83.055-1.315.036-2.634.006-3.951-.012-.533.11-.772.706-.755,1.369.04,2.742.029,4.112,0,.5-.009.728.118.715.671q-.048,2.1,0,4.193c.014.558-.21.689-.712.666C748.389,163.4,747.689,163.42,746.99,163.42Z" transform="translate(-70.743 -38.406)" fill="#3e50b3"/>
    </g>
  </g>
</svg>
