<svg xmlns="http://www.w3.org/2000/svg" width="157" height="157" viewBox="0 0 157 157">
  <g id="Grupo_109457" data-name="Grupo 109457" transform="translate(-1074 -1405)">
    <g id="Elipse_4730" data-name="Elipse 4730" transform="translate(1074 1405)" fill="#fff" stroke="#75b62f" stroke-width="4">
      <circle cx="78.5" cy="78.5" r="78.5" stroke="none"/>
      <circle cx="78.5" cy="78.5" r="76.5" fill="none"/>
    </g>
    <g id="Grupo_108810" data-name="Grupo 108810" transform="translate(-5.374 1355.219)">
      <path id="Trazado_158428" data-name="Trazado 158428" d="M1201.63,86.861V154.8a2.218,2.218,0,0,1-1.584.473c-8.712-.013-17.425,0-26.137-.019a1.723,1.723,0,0,0-1.312.523c-3.241,3.113-6.409,6.307-9.849,9.2a5.1,5.1,0,0,1-6.452.532,14.1,14.1,0,0,1-3.653-3.116c-.635-.733-1.251-1.482-1.976-2.344,0,3.449-.008,6.72.008,9.992a2,2,0,0,1-.5,1.573h-33.3a1.572,1.572,0,0,1-.478-1.318c.717-4.684,1.385-9.374,2.246-14.035.185-1,.194-1-.787-1-1.248,0-1.48-.241-1.48-1.516q0-32.966,0-65.934c0-1.237.211-1.451,1.437-1.451q41.208,0,82.417-.013A1.826,1.826,0,0,1,1201.63,86.861Zm-67.236,52.788c-.1,2.241.8,3.735,2.6,4.319,2.975.964,5.472-1.07,5.3-4.318.111-.453.045-.658-.517-.528a15,15,0,0,1-6.869,0C1134.334,138.986,1134.3,139.216,1134.395,139.649Zm19.113-6.02c.69.109.866.556.861,1.2-.018,2.218.034,4.437-.025,6.654a4.685,4.685,0,0,0,.781,2.787c1.577,2.477,3.052,5.018,4.574,7.53.153.252.246.685.691.231.852-.869,1.738-1.7,2.611-2.554.585-.549,1.159-1.11,1.759-1.643.519-.462.9-1.175,1.8-.991.2.04.241-.177.288-.341.107-.373.209-.747.339-1.112.7-1.965,1.425-3.938,3.054-5.352a83.137,83.137,0,0,1,6.646-5.131,1.831,1.831,0,0,1,2.946,1.449,5.127,5.127,0,0,1-.218,1.638,10.8,10.8,0,0,1-1.877,2.727c-.351.355-.318.616.026.967a8.9,8.9,0,0,1,1.878,2.92,4.434,4.434,0,0,1-1.106,5.246,11.587,11.587,0,0,1-4.5,2.91,1.212,1.212,0,0,0-.79.54c.192.208.428.115.633.115q12.527.01,25.052.006a1.069,1.069,0,0,0,.724-.108c.255-.289.124-.637.124-.954q.011-31.549.005-63.1c0-1.2.125-1.046-1.08-1.047q-39.707,0-79.414,0c-1.2,0-1.062-.146-1.062,1.065q0,31.508,0,63.015c0,.139,0,.278,0,.416.012.291-.081.624.407.654.427.026.57-.152.648-.548q.352-1.793.771-3.573a18.268,18.268,0,0,1,1.924-5.634,2.754,2.754,0,0,0,.438-1.548q-.017-12.9-.009-25.805a8.336,8.336,0,0,1,2.025-5.747,7.98,7.98,0,0,1,6.4-2.834,8.644,8.644,0,0,0,5.385-1.35,10.758,10.758,0,0,1,5.949-1.832,15.539,15.539,0,0,1,5.854,1.022c.19.107.377.22.571.321a9.858,9.858,0,0,1,5.724,8.8c.162,4.091.043,8.193.06,12.29,0,.613-.2,1.018-.85,1.113-.865-.025-1.014-.579-1.012-1.3.01-3.774,0-7.549.007-11.323a10.788,10.788,0,0,0-.264-2.138c-1.341-6.729-9.99-8.48-14.544-5.649a11.131,11.131,0,0,1-6.581,1.89,6.513,6.513,0,0,0-6.823,6.729c.131,8.046.04,16.1.04,24.143,0,.167,0,.333,0,.5,0,.311.11.5.45.361,1.573-.653,3.227-.406,4.853-.413.618,0,.958-.142,1.141-.772a2.557,2.557,0,0,1,.976-1.319c.489-.353.517-.53-.04-.842a11.383,11.383,0,0,1-5.158-6.391,22.516,22.516,0,0,1-.845-7.805,6.605,6.605,0,0,1,5.409-6.889,16.616,16.616,0,0,0,6.129-2.453,1.715,1.715,0,0,1,2.111-.042,18.216,18.216,0,0,0,6.443,2.552,6.33,6.33,0,0,1,5.057,5.6,25.238,25.238,0,0,1,0,4.892c-.243,4.522-1.961,8.2-5.969,10.586-.38.226-.52.4-.075.7a2.627,2.627,0,0,1,1.035,1.375c.225.69.653.807,1.309.808,1.678,0,3.382-.228,5,.518.5.232.332-.293.333-.493.017-2,.022-4,0-5.994C1152.5,134.148,1152.721,133.675,1153.508,133.629Zm-27.245,31.977c0-1.249-.007-2.5,0-3.746,0-.6.246-1.047.912-1.057.707-.012.959.445.977,1.083.005.194,0,.388,0,.583,0,2.192.021,4.384-.014,6.576-.009.591.172.733.746.731q9.573-.03,19.146,0c.618,0,.8-.15.791-.78-.025-3.69-.012-7.381.011-11.071,0-.653-.274-1.493.641-1.778s1.166.544,1.544,1.089a25.242,25.242,0,0,0,5.288,6.049c2.255,1.706,3.726,1.643,5.839-.224,3.016-2.664,5.887-5.483,8.8-8.259.337-.322.358-.489.019-.829q-2.205-2.209-4.347-4.48c-.36-.382-.551-.36-.912,0-1.582,1.556-3.2,3.082-4.8,4.614-.975.93-1.422.887-2.13-.267-1.839-3-3.659-6.011-5.484-9.019a4.152,4.152,0,0,0-3.87-2.137c-.86.016-1.721.033-2.579-.009-.485-.023-.657.122-.741.612a13.3,13.3,0,0,1-2.862,6.1,6.254,6.254,0,0,1-9.776.015,13.387,13.387,0,0,1-2.872-6.1c-.086-.483-.224-.651-.721-.629-.942.04-1.887,0-2.83.014a4,4,0,0,0-3.73,2.341,14.175,14.175,0,0,0-1.106,3.209c-1.676,6.93-2.69,13.978-3.77,21.015-.084.545.179.515.541.514,2.22-.006,4.44-.021,6.659.009.539.007.651-.187.638-.674C1126.241,167.938,1126.261,166.772,1126.263,165.607Zm1.368-40.045a22.137,22.137,0,0,0,.232,3.538c.808,3.763,2.7,6.645,6.5,7.96a12.922,12.922,0,0,0,5.008.573,9.646,9.646,0,0,0,9-6.82c.835-2.371.654-4.814.673-7.245a4.591,4.591,0,0,0-3.828-4.9,31.46,31.46,0,0,1-4.507-1.414c-.824-.343-1.532-1.166-2.313-1.209-.818-.045-1.541.849-2.389,1.2a30.309,30.309,0,0,1-4.589,1.434,4.619,4.619,0,0,0-3.785,4.7C1127.621,124.065,1127.631,124.759,1127.631,125.561Zm50.354,10.834c-2.1,1.5-3.988,2.991-5.88,4.482a8.1,8.1,0,0,0-2.392,3.135,26.2,26.2,0,0,0-1.331,3.926.937.937,0,0,0,.293,1.031c.7.674,1.357,1.389,2.033,2.086.886.914.886.912,2.005.266a2.224,2.224,0,0,1,.521-.253,9.515,9.515,0,0,0,3.533-2.116c1.573-1.286,1.818-2.5.85-4.292a11.74,11.74,0,0,0-2.063-2.595c-.653-.662-.631-1.084.013-1.768.474-.5.964-1,1.391-1.543A3.81,3.81,0,0,0,1177.984,136.4ZM1140.955,149c-.808-.8-1.564-1.528-2.3-2.276-.216-.22-.358-.266-.6-.02-.755.768-1.535,1.51-2.317,2.274A4.332,4.332,0,0,0,1140.955,149Zm-.7-3.223c.58.56,1.147,1.083,1.683,1.635.3.306.4.08.544-.134a12.586,12.586,0,0,0,1.692-3.756,5.908,5.908,0,0,0,.107-2.6C1142.583,144.533,1142.509,144.622,1140.254,145.781Zm-3.9-.067a6.343,6.343,0,0,1-3.914-4.717c-.323,2.542.674,4.625,2,6.615Z" transform="translate(0 0)" fill="#030302"/>
      <path id="Trazado_158429" data-name="Trazado 158429" d="M1149.954,107.47a15.541,15.541,0,0,0-5.854-1.022,10.759,10.759,0,0,0-5.949,1.832,8.643,8.643,0,0,1-5.385,1.35,7.979,7.979,0,0,0-6.4,2.834,8.335,8.335,0,0,0-2.025,5.747q.006,12.9.009,25.805a2.754,2.754,0,0,1-.438,1.548,18.274,18.274,0,0,0-1.924,5.634q-.421,1.779-.771,3.573c-.078.4-.221.574-.648.548-.488-.03-.395-.362-.407-.654-.006-.139,0-.278,0-.417q0-31.507,0-63.015c0-1.211-.136-1.065,1.061-1.065q39.707,0,79.414,0c1.205,0,1.08-.153,1.081,1.047q0,31.549-.005,63.1c0,.317.131.665-.124.954H1179.4a3.475,3.475,0,0,1,1.594-1.321,11.8,11.8,0,0,0,4.208-2.568,3.792,3.792,0,0,0,1.005-4.725,8.642,8.642,0,0,0-2.005-2.82c-.664-.6-.576-.952.036-1.484a6.486,6.486,0,0,0,2.128-3.2,1.263,1.263,0,0,0-.415-1.566c-.557-.343-.966.011-1.419.314a15.836,15.836,0,0,1-2.98,2.05,5.124,5.124,0,0,0,.218-1.638,1.831,1.831,0,0,0-2.946-1.449,83.114,83.114,0,0,0-6.646,5.131c-1.63,1.414-2.354,3.387-3.055,5.352-.13.364-.232.739-.339,1.112-.047.164-.092.381-.288.341-.892-.184-1.276.529-1.8.991-.6.533-1.173,1.094-1.759,1.643-.277,0-.35-.228-.464-.417-.956-1.585-1.86-3.205-2.9-4.736a3.976,3.976,0,0,1-.647-2.4c.016-8.927.006-17.855.017-26.782a9.03,9.03,0,0,0-.266-2.128c-1.011-4.193-3.882-6.408-7.922-7.311A6.4,6.4,0,0,0,1149.954,107.47Zm38.838,14.494c.158-.381.432-.485.631-.662a9.138,9.138,0,0,0,3.026-3.78,3.479,3.479,0,0,0-.818-3.84,3.648,3.648,0,0,0-3.958-.695,3.431,3.431,0,0,0-2.356,3.041,1.041,1.041,0,0,0,.461,1.157.914.914,0,0,0,1.021-.052c.361-.251.366-.654.433-1.037a1.88,1.88,0,0,1,2.391-1.453,1.724,1.724,0,0,1,1.034,2.361,4.908,4.908,0,0,1-1.179,1.692,31.417,31.417,0,0,1-4.067,3.29c-.4.293-.722.624-.541,1.18s.6.658,1.117.656c2.051-.008,4.1-.014,6.154,0,.678.006,1.2-.2,1.192-.938s-.548-.939-1.215-.929C1191.038,121.976,1189.958,121.964,1188.792,121.964Zm-18.22,0c.278-.238.4-.343.519-.445a10.961,10.961,0,0,0,3.041-3.374,3.718,3.718,0,0,0-.179-4.021,3.481,3.481,0,0,0-3.542-1.338,3.545,3.545,0,0,0-3.148,3.587.924.924,0,0,0,1.841.114,4.453,4.453,0,0,1,.12-.65,1.919,1.919,0,0,1,2.434-1.169,1.712,1.712,0,0,1,.956,2.262,4.974,4.974,0,0,1-1.317,1.895,33.524,33.524,0,0,1-3.957,3.167c-.406.3-.7.653-.531,1.194s.62.639,1.13.637q3.079-.012,6.158,0c.676,0,1.183-.19,1.158-.958-.022-.707-.514-.91-1.147-.905C1173,121.97,1171.892,121.964,1170.572,121.964Zm12.195-3.121a.932.932,0,0,0-1.147-.889c-.786.1-1.123-.147-1.009-.978.088-.638-.19-1.135-.884-1.143a.881.881,0,0,0-.944,1.1c.114.859-.208,1.138-1.04,1.025a.926.926,0,1,0,.01,1.828c.851-.115,1.135.194,1.03,1.034a.882.882,0,0,0,.952,1.089.849.849,0,0,0,.875-1.068c-.133-.918.271-1.145,1.1-1.055C1182.34,119.853,1182.682,119.487,1182.767,118.844Z" transform="translate(-1.943 -1.956)" fill="#56af6f"/>
      <path id="Trazado_158430" data-name="Trazado 158430" d="M1128.411,224.9c0,1.165-.021,2.331.008,3.5.013.487-.1.682-.638.674-2.219-.03-4.44-.016-6.659-.009-.362,0-.625.031-.541-.514,1.081-7.037,2.094-14.085,3.77-21.015a14.181,14.181,0,0,1,1.106-3.209,4,4,0,0,1,3.73-2.341c.943-.013,1.888.026,2.83-.014.5-.022.635.147.721.629a13.388,13.388,0,0,0,2.872,6.1,6.254,6.254,0,0,0,9.776-.015,13.3,13.3,0,0,0,2.862-6.1c.085-.49.257-.635.741-.612.858.041,1.72.025,2.579.009a4.152,4.152,0,0,1,3.87,2.137c1.825,3.008,3.645,6.02,5.484,9.019.708,1.155,1.155,1.2,2.13.267,1.606-1.532,3.219-3.057,4.8-4.614.361-.355.552-.378.912,0q2.139,2.273,4.347,4.48c.339.34.319.507-.019.829-2.912,2.775-5.782,5.6-8.8,8.259-2.112,1.866-3.584,1.929-5.839.224a25.244,25.244,0,0,1-5.288-6.05c-.378-.546-.637-1.372-1.544-1.089s-.637,1.125-.641,1.778c-.023,3.69-.036,7.381-.011,11.071,0,.63-.173.782-.791.78q-9.573-.035-19.146,0c-.573,0-.755-.14-.746-.731.034-2.192.014-4.384.014-6.576,0-.194,0-.389,0-.583-.017-.638-.269-1.095-.977-1.083-.666.01-.907.46-.912,1.057C1128.4,222.4,1128.412,223.65,1128.411,224.9Z" transform="translate(-2.149 -59.292)" fill="#dce736"/>
      <path id="Trazado_158431" data-name="Trazado 158431" d="M1161.849,154.658c-.787.046-1.011.519-1,1.237.017,2,.012,4,0,5.994,0,.2.169.724-.333.493-1.617-.746-3.322-.514-5-.518-.656,0-1.084-.118-1.309-.808a2.626,2.626,0,0,0-1.034-1.375c-.445-.3-.3-.472.075-.7,4.008-2.388,5.726-6.064,5.969-10.586a25.238,25.238,0,0,0,0-4.892,6.33,6.33,0,0,0-5.057-5.6,18.215,18.215,0,0,1-6.443-2.552,1.714,1.714,0,0,0-2.111.042,16.616,16.616,0,0,1-6.129,2.453,6.605,6.605,0,0,0-5.41,6.889,22.513,22.513,0,0,0,.845,7.805,11.383,11.383,0,0,0,5.158,6.391c.557.313.529.489.04.842a2.557,2.557,0,0,0-.976,1.319c-.183.629-.524.769-1.141.772-1.625.007-3.279-.241-4.853.413-.34.141-.452-.051-.45-.361,0-.166,0-.333,0-.5,0-8.048.091-16.1-.04-24.143a6.513,6.513,0,0,1,6.823-6.729,11.131,11.131,0,0,0,6.58-1.89c4.555-2.831,13.2-1.08,14.544,5.649a10.769,10.769,0,0,1,.264,2.138c-.008,3.775,0,7.549-.007,11.323,0,.723.147,1.277,1.012,1.3q0,.935,0,1.871c-.55.055-.96.286-.992.893-.036.668.433.888.978,1.017Z" transform="translate(-8.341 -21.029)" fill="#584946"/>
      <path id="Trazado_158432" data-name="Trazado 158432" d="M1139.477,156.816c0-.8-.01-1.5,0-2.189a4.62,4.62,0,0,1,3.785-4.7,30.32,30.32,0,0,0,4.589-1.434c.847-.35,1.57-1.244,2.389-1.2.781.043,1.489.866,2.313,1.209a31.46,31.46,0,0,0,4.507,1.414,4.591,4.591,0,0,1,3.828,4.9c-.019,2.431.162,4.873-.673,7.244a9.646,9.646,0,0,1-9,6.82,12.924,12.924,0,0,1-5.008-.573c-3.8-1.314-5.691-4.2-6.5-7.96A22.15,22.15,0,0,1,1139.477,156.816Zm17.367-2.175a1.564,1.564,0,0,0-3.126-.066,1.563,1.563,0,0,0,3.126.066Zm-10.178-.034a1.558,1.558,0,0,0-1.608-1.537,1.542,1.542,0,0,0-1.513,1.54,1.566,1.566,0,0,0,1.6,1.551A1.588,1.588,0,0,0,1146.666,154.606Z" transform="translate(-11.846 -31.254)" fill="#fdb7a5"/>
      <path id="Trazado_158433" data-name="Trazado 158433" d="M1186.813,153.707q0-.905-.008-1.811c.461-.205.9-.419.856-1.048a.913.913,0,0,0-.842-.862q0-.935,0-1.871c.645-.094.852-.5.85-1.113-.016-4.1.1-8.2-.06-12.29a9.858,9.858,0,0,0-5.724-8.8c-.194-.1-.381-.213-.571-.321a6.4,6.4,0,0,1,2.81.182c4.04.9,6.911,3.118,7.922,7.311a9.017,9.017,0,0,1,.266,2.128c-.011,8.927,0,17.855-.016,26.782a3.979,3.979,0,0,0,.647,2.4c1.037,1.53,1.941,3.151,2.9,4.736.114.188.187.413.464.417-.872.849-1.759,1.685-2.611,2.554-.445.455-.538.021-.691-.231-1.521-2.512-3-5.053-4.573-7.53a4.684,4.684,0,0,1-.781-2.787c.059-2.217.006-4.436.025-6.654C1187.679,154.262,1187.5,153.815,1186.813,153.707Z" transform="translate(-33.305 -20.077)" fill="#4c9a62"/>
      <path id="Trazado_158434" data-name="Trazado 158434" d="M1232.682,189.081a3.809,3.809,0,0,1-1.029,2.358c-.427.543-.916,1.039-1.391,1.543-.644.684-.666,1.106-.013,1.768a11.741,11.741,0,0,1,2.063,2.595c.968,1.787.723,3.007-.85,4.292a9.515,9.515,0,0,1-3.533,2.116,2.223,2.223,0,0,0-.521.253c-1.12.646-1.119.648-2.005-.266-.676-.7-1.335-1.411-2.033-2.086a.937.937,0,0,1-.293-1.031,26.169,26.169,0,0,1,1.331-3.926,8.1,8.1,0,0,1,2.392-3.135C1228.694,192.072,1230.587,190.584,1232.682,189.081Z" transform="translate(-54.698 -52.685)" fill="#fbb5a4"/>
      <path id="Trazado_158435" data-name="Trazado 158435" d="M1239.477,189.713a15.841,15.841,0,0,0,2.98-2.05c.453-.3.862-.658,1.419-.314a1.264,1.264,0,0,1,.415,1.566,6.484,6.484,0,0,1-2.128,3.2c-.612.532-.7.887-.036,1.484a8.637,8.637,0,0,1,2.005,2.82,3.792,3.792,0,0,1-1.005,4.725,11.8,11.8,0,0,1-4.208,2.568,3.473,3.473,0,0,0-1.594,1.321h22.194a1.07,1.07,0,0,1-.724.108q-12.526,0-25.053-.006c-.2,0-.44.093-.633-.115a1.213,1.213,0,0,1,.79-.54,11.587,11.587,0,0,0,4.5-2.91,4.435,4.435,0,0,0,1.106-5.246,8.9,8.9,0,0,0-1.879-2.92c-.343-.352-.376-.612-.026-.968A10.8,10.8,0,0,0,1239.477,189.713Z" transform="translate(-59.866 -51.725)" fill="#4b9660"/>
      <path id="Trazado_158436" data-name="Trazado 158436" d="M1161.259,195.761c.169,3.248-2.328,5.281-5.3,4.318-1.8-.584-2.7-2.078-2.6-4.319,1.146.1,2.244.476,3.411.515A26.89,26.89,0,0,0,1161.259,195.761Z" transform="translate(-18.962 -56.111)" fill="#fdb7a5"/>
      <path id="Trazado_158437" data-name="Trazado 158437" d="M1161.336,212.369a4.332,4.332,0,0,1-5.219-.022c.782-.764,1.563-1.506,2.318-2.274.243-.247.384-.2.6.02C1159.773,210.842,1160.528,211.573,1161.336,212.369Z" transform="translate(-20.382 -63.366)" fill="#dedef6"/>
      <path id="Trazado_158438" data-name="Trazado 158438" d="M1165.393,203.236c2.255-1.158,2.329-1.248,4.026-4.854a5.91,5.91,0,0,1-.107,2.6,12.589,12.589,0,0,1-1.692,3.756c-.14.214-.247.44-.544.134C1166.54,204.319,1165.973,203.8,1165.393,203.236Z" transform="translate(-25.139 -57.455)" fill="#e5e5f1"/>
      <path id="Trazado_158439" data-name="Trazado 158439" d="M1153.2,203.242l-1.915,1.9c-1.325-1.99-2.322-4.073-2-6.615A6.343,6.343,0,0,0,1153.2,203.242Z" transform="translate(-16.849 -57.529)" fill="#e9e9f6"/>
      <path id="Trazado_158440" data-name="Trazado 158440" d="M1161.226,195.165a26.884,26.884,0,0,1-4.491.514c-1.167-.039-2.265-.412-3.411-.515-.092-.434-.06-.663.516-.528a15,15,0,0,0,6.869,0C1161.27,194.507,1161.336,194.712,1161.226,195.165Z" transform="translate(-18.929 -55.514)" fill="#ef9d88"/>
      <path id="Trazado_158441" data-name="Trazado 158441" d="M1256.857,145.692c1.165,0,2.245.011,3.325,0,.667-.01,1.206.193,1.215.93s-.514.944-1.193.938c-2.051-.018-4.1-.011-6.154,0-.512,0-.939-.109-1.116-.656s.142-.888.541-1.18a31.4,31.4,0,0,0,4.067-3.29,4.907,4.907,0,0,0,1.179-1.692,1.724,1.724,0,0,0-1.034-2.361,1.88,1.88,0,0,0-2.39,1.453c-.067.382-.072.786-.433,1.037a.915.915,0,0,1-1.021.052,1.041,1.041,0,0,1-.461-1.157,3.431,3.431,0,0,1,2.356-3.041,3.648,3.648,0,0,1,3.958.695,3.478,3.478,0,0,1,.818,3.84,9.141,9.141,0,0,1-3.026,3.78C1257.289,145.207,1257.015,145.311,1256.857,145.692Z" transform="translate(-70.007 -25.684)" fill="#020302"/>
      <path id="Trazado_158442" data-name="Trazado 158442" d="M1219.626,145.735c1.32,0,2.429.005,3.538,0,.633,0,1.125.2,1.147.905.024.768-.483.962-1.159.958q-3.079-.018-6.158,0c-.51,0-.955-.091-1.13-.637s.124-.894.531-1.194a33.533,33.533,0,0,0,3.957-3.167,4.979,4.979,0,0,0,1.317-1.895,1.713,1.713,0,0,0-.956-2.262,1.92,1.92,0,0,0-2.434,1.169,4.486,4.486,0,0,0-.12.65.924.924,0,0,1-1.841-.114,3.545,3.545,0,0,1,3.148-3.587,3.481,3.481,0,0,1,3.542,1.338,3.717,3.717,0,0,1,.179,4.021,10.959,10.959,0,0,1-3.041,3.374C1220.023,145.392,1219.9,145.5,1219.626,145.735Z" transform="translate(-50.997 -25.727)" fill="#020302"/>
      <path id="Trazado_158443" data-name="Trazado 158443" d="M1242.255,145.867c-.084.643-.427,1.009-1.058.94-.829-.09-1.233.136-1.1,1.055a.849.849,0,0,1-.875,1.068.882.882,0,0,1-.952-1.089c.105-.839-.179-1.149-1.03-1.034a.926.926,0,1,1-.009-1.828c.832.112,1.154-.167,1.04-1.025a.882.882,0,0,1,.945-1.1c.694.008.972.506.884,1.143-.114.832.223,1.079,1.009.978A.932.932,0,0,1,1242.255,145.867Z" transform="translate(-61.431 -28.98)" fill="#020302"/>
      <path id="Trazado_158444" data-name="Trazado 158444" d="M1191.565,175.763a.914.914,0,0,1,.842.862c.048.629-.395.843-.856,1.048-.545-.129-1.014-.349-.978-1.017C1190.605,176.049,1191.016,175.818,1191.565,175.763Z" transform="translate(-38.051 -45.855)" fill="#070504"/>
      <path id="Trazado_158445" data-name="Trazado 158445" d="M1171.84,160.721a1.563,1.563,0,0,1-3.126-.066,1.564,1.564,0,0,1,3.126.066Z" transform="translate(-26.842 -37.335)" fill="#070504"/>
      <path id="Trazado_158446" data-name="Trazado 158446" d="M1150.953,160.687a1.588,1.588,0,0,1-1.523,1.554,1.566,1.566,0,0,1-1.6-1.551,1.542,1.542,0,0,1,1.513-1.54A1.558,1.558,0,0,1,1150.953,160.687Z" transform="translate(-16.133 -37.335)" fill="#070504"/>
    </g>
  </g>
</svg>
