<svg xmlns="http://www.w3.org/2000/svg" width="157" height="157" viewBox="0 0 157 157">
  <g id="Grupo_109457" data-name="Grupo 109457" transform="translate(-376 -1405)">
    <g id="Elipse_4730" data-name="Elipse 4730" transform="translate(376 1405)" fill="#fff" stroke="#75b62f" stroke-width="4">
      <circle cx="78.5" cy="78.5" r="78.5" stroke="none"/>
      <circle cx="78.5" cy="78.5" r="76.5" fill="none"/>
    </g>
    <g id="Grupo_108807" data-name="Grupo 108807" transform="translate(337.616 1363.002)">
      <path id="Trazado_158314" data-name="Trazado 158314" d="M130.509,190.636c1.444.01,2.889,0,4.331.039a1.09,1.09,0,0,0,1.136-.641,9.676,9.676,0,0,1,16.948.193,9.611,9.611,0,0,1-1.121,10.866c-.259.307-.537.6-.879.98l.726.24a9.733,9.733,0,0,1,6.606,8.976c.036,1.823.014,3.648.01,5.472,0,1.015-.438,1.611-1.225,1.709s-1.31-.373-1.576-1.379c.005-1.967.111-3.941-.007-5.9a6.71,6.71,0,0,0-4.38-6.122,9.468,9.468,0,0,0-4.263-.464c-2.339-.006-4.682-.1-7.015,0a6.975,6.975,0,0,0-6.485,7.965q0,2.259,0,4.519c-.27,1.006-.8,1.474-1.576,1.379-.789-.1-1.221-.69-1.226-1.7-.006-1.071-.021-2.142.008-3.211.013-.454-.059-.649-.591-.648q-11.909.028-23.818,0c-.531,0-.6.193-.591.648.029,1.07.014,2.141.008,3.211-.006,1.013-.44,1.609-1.228,1.705s-1.309-.374-1.574-1.379c.005-1.967.111-3.941-.007-5.9a6.71,6.71,0,0,0-4.38-6.122,9.469,9.469,0,0,0-4.263-.464c-2.339-.006-4.682-.1-7.015,0a6.975,6.975,0,0,0-6.485,7.965l0,4.519c-.27,1.007-.806,1.475-1.578,1.379-.789-.1-1.222-.691-1.224-1.711,0-1.854-.028-3.708.012-5.56a9.677,9.677,0,0,1,6.211-8.727c.35-.132.7-.257,1.127-.412a10.205,10.205,0,0,1-2.865-4.78,9.744,9.744,0,0,1,5.687-11.457,9.646,9.646,0,0,1,12.072,4.135,1.2,1.2,0,0,0,1.267.722c1.413-.059,2.83-.034,4.246-.044,2.91.01,5.821.028,8.731.026Q122.383,190.659,130.509,190.636Zm14.219-2.713a6.9,6.9,0,0,0-4.854,12.133,6.767,6.767,0,0,0,8.107.718,6.927,6.927,0,0,0-3.253-12.851Zm-52.74,0a6.9,6.9,0,0,0-4.85,12.131,6.764,6.764,0,0,0,8.105.719,6.954,6.954,0,0,0,3.109-7.731A6.884,6.884,0,0,0,91.988,187.922Zm12.646,19.445a13.584,13.584,0,0,1,.586,1.894c.115.706.4.9,1.119.894,6.517-.033,13.034-.02,19.551-.02,1.384,0,2.768-.011,4.152.007.409.005.589-.095.682-.546.156-.757.444-1.487.676-2.229a10.2,10.2,0,0,1,6.469-5.3,9.749,9.749,0,0,1-3.159-8.138c.055-.691-.433-.476-.746-.477q-15.942-.013-31.884-.024c-.692,0-.784.211-.747.838a9.478,9.478,0,0,1-2.775,7.4c-.113.119-.287.206-.257.445A10.08,10.08,0,0,1,104.634,207.368Z" transform="translate(-1.592 -57.668)" fill="#020202"/>
      <path id="Trazado_158315" data-name="Trazado 158315" d="M189.786,77.366q7.416,0,14.832,0c2.934,0,4.6,1.686,4.6,4.648q0,7.17,0,14.342c0,2.994-1.672,4.652-4.685,4.654-4.424,0-8.847.01-13.271-.012a1.849,1.849,0,0,0-1.513.6c-1.21,1.286-2.486,2.507-3.726,3.764a3.363,3.363,0,0,1-3.862.952,3.407,3.407,0,0,1-2.091-3.471c-.007-1.835-.007-1.835-1.814-1.835-1.243,0-2.487.016-3.73,0a4.142,4.142,0,0,1-4.165-4.207q-.027-7.605,0-15.211a4.129,4.129,0,0,1,4.242-4.216C179.667,77.355,184.726,77.366,189.786,77.366Zm10.763,2.81q-12.987-.013-25.975-.02a1.346,1.346,0,0,0-1.432,1.5c0,4.482.013,8.964.022,13.447-.009.405-.027.81-.027,1.215,0,1.482.428,1.911,1.9,1.912,2.081,0,4.163-.01,6.245.006a1.4,1.4,0,0,1,1.561,1.553c.018.985.006,1.97,0,2.955,0,.377-.053.783.391.966.46.189.684-.191.939-.445,1.4-1.388,2.8-2.762,4.164-4.185a2.6,2.6,0,0,1,2.061-.864c4.77.032,9.54.018,14.31.013,1.138,0,1.717-.472,1.72-1.481q.024-7.561,0-15.122a1.352,1.352,0,0,0-1.466-1.467C203.5,80.139,202.023,80.167,200.549,80.176Z" transform="translate(-51.159 0)" fill="#010101"/>
      <path id="Trazado_158316" data-name="Trazado 158316" d="M90.058,98.318q5.378,0,10.755,0a4.179,4.179,0,0,1,4.507,4.481q.009,7.345,0,14.689a4.187,4.187,0,0,1-4.431,4.474c-.8.006-1.826-.263-2.352.128-.5.371-.1,1.459-.162,2.228a3.262,3.262,0,0,1-2.089,2.944,3.164,3.164,0,0,1-3.6-.714c-1.358-1.3-2.681-2.64-3.986-4a1.769,1.769,0,0,0-1.423-.608c-2.688.035-5.377.021-8.066.013a4.167,4.167,0,0,1-4.421-4.392q-.012-7.431,0-14.863a4.165,4.165,0,0,1,4.427-4.386Q84.637,98.309,90.058,98.318Zm6.591,2.811q-8.783-.014-17.567-.022a1.362,1.362,0,0,0-1.512,1.5c0,4.481.013,8.961.022,13.441-.01.4-.027.809-.027,1.214,0,1.482.428,1.912,1.9,1.913,2.92,0,5.839.017,8.759-.011a2.257,2.257,0,0,1,1.761.743c1.432,1.473,2.895,2.917,4.35,4.368.239.239.463.559.88.38.394-.17.392-.524.39-.882-.007-.985-.011-1.97,0-2.954.013-1.131.515-1.629,1.653-1.639,1.243-.01,2.487.011,3.729-.007a1.375,1.375,0,0,0,1.546-1.479q.022-7.56,0-15.121a1.352,1.352,0,0,0-1.467-1.467C99.6,101.091,98.123,101.119,96.649,101.129Z" transform="translate(0 -11.217)" fill="#010101"/>
      <path id="Trazado_158317" data-name="Trazado 158317" d="M135.921,159.055c-1.131-.3-1.41-.673-1.378-1.838a9.774,9.774,0,0,1,6.533-8.769c.243-.086.489-.158.818-.264a9.768,9.768,0,0,1-3.145-8.235,9.341,9.341,0,0,1,3.118-6.206,9.658,9.658,0,0,1,13.081-.009,9.46,9.46,0,0,1,3.17,7.243,9.812,9.812,0,0,1-3.179,7.2,9.816,9.816,0,0,1,6.928,6.655,8.676,8.676,0,0,1,.414,2.386c.04,1.162-.245,1.537-1.376,1.84-1.1-.292-1.333-.587-1.4-1.75a6.972,6.972,0,0,0-5.13-6.376,12.454,12.454,0,0,0-3.7-.216c-2.283,0-4.569-.078-6.849,0a6.9,6.9,0,0,0-6.378,5.557,7.225,7.225,0,0,1-.378,2.209A1.964,1.964,0,0,1,135.921,159.055Zm7.984-12.891a6.765,6.765,0,0,0,8.105.719,6.956,6.956,0,0,0,3.108-7.73,6.942,6.942,0,0,0-13.153-.748A6.8,6.8,0,0,0,143.905,146.163Z" transform="translate(-31.989 -28.812)" fill="#030303"/>
      <path id="Trazado_158318" data-name="Trazado 158318" d="M83.81,239.525l0-4.519a3.367,3.367,0,0,0,1.582.352c3.9-.012,7.793-.005,11.689-.009a3.609,3.609,0,0,0,.857-.066,2.932,2.932,0,0,0,2.057-3.79,9.406,9.406,0,0,0-2.685-4.455,9.469,9.469,0,0,1,4.263.464,6.71,6.71,0,0,1,4.38,6.122c.118,1.96.013,3.934.007,5.9Z" transform="translate(-4.832 -80.102)" fill="#31389c"/>
      <path id="Trazado_158319" data-name="Trazado 158319" d="M197.307,239.525q0-2.259,0-4.519a3.367,3.367,0,0,0,1.582.352c3.9-.012,7.793-.005,11.69-.009a3.605,3.605,0,0,0,.857-.066,2.932,2.932,0,0,0,2.057-3.79,9.406,9.406,0,0,0-2.685-4.455,9.468,9.468,0,0,1,4.263.464,6.71,6.71,0,0,1,4.38,6.122c.118,1.96.013,3.934.007,5.9Z" transform="translate(-65.588 -80.102)" fill="#31389c"/>
      <path id="Trazado_158320" data-name="Trazado 158320" d="M152.267,173.164a12.454,12.454,0,0,1,3.7.216,6.972,6.972,0,0,1,5.13,6.376c.067,1.164.3,1.459,1.4,1.75v2.726q-8.127.015-16.253.026c-2.91,0-5.821-.017-8.731-.026v-2.726a1.964,1.964,0,0,0,1.15-.575,2.779,2.779,0,0,0,1.517.551c4.132,0,8.263.016,12.394-.012a2.648,2.648,0,0,0,2.625-2.763A7.21,7.21,0,0,0,152.267,173.164Z" transform="translate(-33.579 -51.264)" fill="#609627"/>
      <path id="Trazado_158321" data-name="Trazado 158321" d="M128.3,216.969a10.08,10.08,0,0,0-6.332-5.251c-.03-.238.144-.326.257-.445a9.478,9.478,0,0,0,2.775-7.4c-.038-.627.055-.84.747-.838q15.942.035,31.884.024c.313,0,.8-.214.746.477a9.749,9.749,0,0,0,3.159,8.138,10.2,10.2,0,0,0-6.469,5.3Z" transform="translate(-25.254 -67.269)" fill="#a0877e"/>
      <path id="Trazado_158322" data-name="Trazado 158322" d="M97.268,227.032a9.406,9.406,0,0,1,2.685,4.455,2.932,2.932,0,0,1-2.057,3.79,3.608,3.608,0,0,1-.857.066c-3.9,0-7.793,0-11.689.009A3.367,3.367,0,0,1,83.768,235a6.975,6.975,0,0,1,6.485-7.965C92.586,226.93,94.929,227.026,97.268,227.032Z" transform="translate(-4.788 -80.095)" fill="#838cfc"/>
      <path id="Trazado_158323" data-name="Trazado 158323" d="M210.765,227.032a9.406,9.406,0,0,1,2.685,4.455,2.932,2.932,0,0,1-2.057,3.79,3.6,3.6,0,0,1-.857.066c-3.9,0-7.793,0-11.69.009a3.367,3.367,0,0,1-1.582-.352,6.975,6.975,0,0,1,6.485-7.965C206.083,226.93,208.426,227.026,210.765,227.032Z" transform="translate(-65.544 -80.095)" fill="#838cfc"/>
      <path id="Trazado_158324" data-name="Trazado 158324" d="M102.794,191.185a6.884,6.884,0,0,1,6.364,5.119,6.954,6.954,0,0,1-3.109,7.731,6.764,6.764,0,0,1-8.105-.719c.1-.048.207-.1.315-.143a8.37,8.37,0,0,0,5.589-7.935A10.012,10.012,0,0,0,102.794,191.185Z" transform="translate(-12.398 -60.931)" fill="#fca990"/>
      <path id="Trazado_158325" data-name="Trazado 158325" d="M216.284,191.186a6.927,6.927,0,0,1,3.253,12.851,6.767,6.767,0,0,1-8.107-.718c.1-.048.207-.1.315-.143a8.371,8.371,0,0,0,5.595-7.935A10.012,10.012,0,0,0,216.284,191.186Z" transform="translate(-73.148 -60.931)" fill="#fca990"/>
      <path id="Trazado_158326" data-name="Trazado 158326" d="M100,191.169a10.012,10.012,0,0,1,1.054,4.053,8.37,8.37,0,0,1-5.589,7.935c-.108.039-.21.095-.315.143A6.9,6.9,0,0,1,100,191.169Z" transform="translate(-9.603 -60.914)" fill="#fdcaba"/>
      <path id="Trazado_158327" data-name="Trazado 158327" d="M213.5,191.171a10.012,10.012,0,0,1,1.055,4.055,8.371,8.371,0,0,1-5.595,7.935c-.108.039-.21.1-.315.143a6.9,6.9,0,0,1,4.854-12.133Z" transform="translate(-70.36 -60.916)" fill="#fdcaba"/>
      <path id="Trazado_158328" data-name="Trazado 158328" d="M135.594,233.03H162.36c-.232.742-.52,1.471-.676,2.229-.093.451-.272.551-.682.546-1.384-.018-2.768-.007-4.152-.007-6.517,0-13.034-.014-19.551.02-.717,0-1-.187-1.119-.894A13.584,13.584,0,0,0,135.594,233.03Z" transform="translate(-32.553 -83.331)" fill="#8c6d62"/>
      <path id="Trazado_158329" data-name="Trazado 158329" d="M176.378,98.318c-.009-4.482-.026-8.964-.022-13.447a1.346,1.346,0,0,1,1.432-1.5q12.987,0,25.975.02c.643,1.328.226,2.744.343,4.115-.345.009-.691.026-1.035.026-2.391,0-4.783-.008-7.174.007a1.389,1.389,0,1,0-.086,2.773c.2.013.4,0,.605,0l7.691.027q0,2.606,0,5.21a2.763,2.763,0,0,1-3.1,3.106q-11.482,0-22.963.007A3.438,3.438,0,0,1,176.378,98.318Zm12.454-3.826c-2.222,0-4.444.007-6.666-.005a1.518,1.518,0,0,0-1.422.647,1.289,1.289,0,0,0-.056,1.4,1.486,1.486,0,0,0,1.451.747q6.623-.011,13.245-.005c1.148,0,1.8-.526,1.778-1.42-.019-.864-.647-1.358-1.751-1.36Q192.122,94.487,188.832,94.492Zm-2.74-4.172c1.327,0,2.653.013,3.979,0a1.4,1.4,0,1,0-.012-2.774q-3.979-.018-7.958,0a1.408,1.408,0,0,0-1.583,1.35c-.024.844.6,1.416,1.595,1.426C183.439,90.33,184.765,90.321,186.092,90.32Z" transform="translate(-54.373 -3.219)" fill="#ff642b"/>
      <path id="Trazado_158330" data-name="Trazado 158330" d="M204.1,87.5c-.117-1.372.3-2.788-.343-4.115,1.474-.009,2.948-.038,4.421-.02a1.352,1.352,0,0,1,1.466,1.467q.022,7.561,0,15.122c0,1.009-.583,1.48-1.72,1.48-4.77,0-9.541.019-14.31-.013a2.6,2.6,0,0,0-2.061.864c-1.359,1.423-2.768,2.8-4.164,4.185-.256.254-.48.634-.939.445-.444-.183-.392-.588-.391-.966,0-.985.014-1.97,0-2.955a1.4,1.4,0,0,0-1.561-1.553c-2.081-.015-4.163,0-6.245-.006-1.477,0-1.9-.43-1.9-1.912,0-.4.018-.809.027-1.215a3.438,3.438,0,0,0,1.67.352q11.482-.014,22.963-.007a2.763,2.763,0,0,0,3.1-3.106q0-2.6,0-5.21c.828-.139,1.393-.57,1.371-1.461C205.451,88.033,204.889,87.631,204.1,87.5Z" transform="translate(-54.367 -3.212)" fill="#d44713"/>
      <path id="Trazado_158331" data-name="Trazado 158331" d="M80.8,119.267c-.009-4.481-.026-8.961-.022-13.441a1.362,1.362,0,0,1,1.512-1.5q8.783,0,17.567.022c.643,1.328.227,2.744.343,4.115l-12.977.028a7.207,7.207,0,0,0-1.037.018,1.333,1.333,0,0,0-1.24,1.33,1.365,1.365,0,0,0,1.239,1.42,6.38,6.38,0,0,0,.778.014l13.237.028q0,2.647,0,5.3a2.744,2.744,0,0,1-3.006,3.021c-4.938,0-9.876,0-14.814.007A3.343,3.343,0,0,1,80.8,119.267Zm8.991-1.044c1.1,0,2.191.011,3.286,0a1.409,1.409,0,0,0,1.568-1.366,1.388,1.388,0,0,0-1.523-1.408q-3.328-.023-6.658,0a1.39,1.39,0,0,0-1.525,1.407,1.407,1.407,0,0,0,1.566,1.368C87.6,118.234,88.7,118.222,89.793,118.222Z" transform="translate(-3.21 -14.431)" fill="#838cfc"/>
      <path id="Trazado_158332" data-name="Trazado 158332" d="M100.2,108.454c-.116-1.372.3-2.788-.343-4.115,1.474-.009,2.948-.038,4.421-.02a1.352,1.352,0,0,1,1.467,1.467q.022,7.561,0,15.121a1.375,1.375,0,0,1-1.546,1.479c-1.243.018-2.486,0-3.729.007-1.138.01-1.64.508-1.653,1.639-.012.985-.007,1.97,0,2.954,0,.359,0,.712-.39.882-.417.18-.641-.141-.88-.38-1.455-1.451-2.917-2.895-4.35-4.368a2.257,2.257,0,0,0-1.761-.743c-2.92.028-5.839.013-8.759.011-1.476,0-1.9-.431-1.9-1.913,0-.4.018-.809.027-1.214a3.343,3.343,0,0,0,1.582.353c4.938-.011,9.876-.005,14.814-.007a2.744,2.744,0,0,0,3.006-3.021q0-2.647,0-5.3c.827-.14,1.393-.571,1.371-1.462C101.547,108.985,100.986,108.581,100.2,108.454Z" transform="translate(-3.204 -14.427)" fill="#31389c"/>
      <path id="Trazado_158333" data-name="Trazado 158333" d="M153.592,173.165a7.21,7.21,0,0,1,2.932,5.544,2.648,2.648,0,0,1-2.625,2.763c-4.131.028-8.263.008-12.394.012a2.779,2.779,0,0,1-1.517-.551,7.226,7.226,0,0,0,.378-2.209,6.9,6.9,0,0,1,6.378-5.557C149.023,173.087,151.309,173.16,153.592,173.165Z" transform="translate(-34.904 -51.265)" fill="#b1e874"/>
      <path id="Trazado_158334" data-name="Trazado 158334" d="M159.542,137.313a6.884,6.884,0,0,1,6.364,5.119,6.956,6.956,0,0,1-3.108,7.73,6.765,6.765,0,0,1-8.105-.719c.105-.048.207-.1.315-.143a8.37,8.37,0,0,0,5.589-7.935A10,10,0,0,0,159.542,137.313Z" transform="translate(-42.777 -32.092)" fill="#fca990"/>
      <path id="Trazado_158335" data-name="Trazado 158335" d="M156.748,137.3a10,10,0,0,1,1.055,4.053,8.37,8.37,0,0,1-5.589,7.935c-.108.039-.21.095-.315.143a6.9,6.9,0,0,1,4.849-12.13Z" transform="translate(-39.982 -32.076)" fill="#fdcaba"/>
      <path id="Trazado_158336" data-name="Trazado 158336" d="M193.616,107.293q3.289,0,6.579,0c1.1,0,1.732.5,1.751,1.36.02.893-.631,1.419-1.778,1.42q-6.623,0-13.245.005a1.486,1.486,0,0,1-1.451-.747,1.289,1.289,0,0,1,.056-1.4,1.518,1.518,0,0,1,1.422-.647C189.172,107.3,191.394,107.293,193.616,107.293Z" transform="translate(-59.157 -16.02)" fill="#010101"/>
      <path id="Trazado_158337" data-name="Trazado 158337" d="M190.886,95.111c-1.326,0-2.652.009-3.979,0-.994-.01-1.618-.582-1.595-1.426a1.408,1.408,0,0,1,1.583-1.35q3.979-.016,7.958,0a1.4,1.4,0,1,1,.012,2.774C193.539,95.123,192.212,95.11,190.886,95.111Z" transform="translate(-59.167 -8.009)" fill="#030201"/>
      <path id="Trazado_158338" data-name="Trazado 158338" d="M224.888,92.274c.789.128,1.351.53,1.371,1.376.021.891-.544,1.323-1.371,1.461l-7.691-.027c-.2,0-.4.009-.605,0a1.389,1.389,0,1,1,.086-2.773c2.391-.016,4.783,0,7.174-.007C224.2,92.3,224.543,92.283,224.888,92.274Z" transform="translate(-75.155 -7.982)" fill="#030201"/>
      <path id="Trazado_158339" data-name="Trazado 158339" d="M105,113.225c.79.127,1.35.53,1.371,1.375.022.891-.544,1.322-1.371,1.462l-13.237-.028a6.38,6.38,0,0,1-.778-.014,1.365,1.365,0,0,1-1.239-1.42,1.333,1.333,0,0,1,1.24-1.33,7.206,7.206,0,0,1,1.037-.018Z" transform="translate(-8.008 -19.198)" fill="#010101"/>
      <path id="Trazado_158340" data-name="Trazado 158340" d="M94.587,131.024c-1.095,0-2.191.011-3.285,0a1.407,1.407,0,0,1-1.566-1.368,1.39,1.39,0,0,1,1.525-1.407q3.328-.023,6.658,0a1.388,1.388,0,0,1,1.523,1.408,1.409,1.409,0,0,1-1.568,1.366C96.778,131.035,95.682,131.024,94.587,131.024Z" transform="translate(-8.004 -27.233)" fill="#020202"/>
    </g>
  </g>
</svg>
